M48
; DRILL file {KiCad 7.0.9} date Wed Mar 27 23:57:30 2024
; FORMAT={-:-/ absolute / metric / decimal}
; #@! TF.CreationDate,2024-03-27T23:57:30-02:30
; #@! TF.GenerationSoftware,Kicad,Pcbnew,7.0.9
; #@! TF.FileFunction,NonPlated,1,4,NPTH
FMAT,2
METRIC
; #@! TA.AperFunction,NonPlated,NPTH,ComponentDrill
T1C0.520
; #@! TA.AperFunction,NonPlated,NPTH,ComponentDrill
T2C1.270
; #@! TA.AperFunction,NonPlated,NPTH,ComponentDrill
T3C1.320
; #@! TA.AperFunction,NonPlated,NPTH,ComponentDrill
T4C3.200
%
G90
G05
T1
X87.309Y-59.317
X94.809Y-59.317
T2
X93.044Y-128.775
X93.044Y-141.905
X94.886Y-116.275
X103.886Y-116.275
X105.044Y-128.775
X105.044Y-141.905
X119.894Y-141.905
X128.894Y-141.905
X147.619Y-141.905
X156.619Y-141.905
X172.538Y-108.325
X172.538Y-120.825
X172.538Y-133.325
X172.538Y-145.825
X181.538Y-108.325
X181.538Y-120.825
X181.538Y-133.325
X181.538Y-145.825
T3
X116.551Y-115.938
X131.551Y-115.938
X144.276Y-115.938
X159.276Y-115.938
T4
X240.15Y-56.515
X240.15Y-126.725
T0
M30
