G04 #@! TF.GenerationSoftware,KiCad,Pcbnew,7.0.9*
G04 #@! TF.CreationDate,2024-03-27T23:57:17-02:30*
G04 #@! TF.ProjectId,MegaBoard2024,4d656761-426f-4617-9264-323032342e6b,rev?*
G04 #@! TF.SameCoordinates,Original*
G04 #@! TF.FileFunction,Soldermask,Bot*
G04 #@! TF.FilePolarity,Negative*
%FSLAX46Y46*%
G04 Gerber Fmt 4.6, Leading zero omitted, Abs format (unit mm)*
G04 Created by KiCad (PCBNEW 7.0.9) date 2024-03-27 23:57:17*
%MOMM*%
%LPD*%
G01*
G04 APERTURE LIST*
G04 Aperture macros list*
%AMRoundRect*
0 Rectangle with rounded corners*
0 $1 Rounding radius*
0 $2 $3 $4 $5 $6 $7 $8 $9 X,Y pos of 4 corners*
0 Add a 4 corners polygon primitive as box body*
4,1,4,$2,$3,$4,$5,$6,$7,$8,$9,$2,$3,0*
0 Add four circle primitives for the rounded corners*
1,1,$1+$1,$2,$3*
1,1,$1+$1,$4,$5*
1,1,$1+$1,$6,$7*
1,1,$1+$1,$8,$9*
0 Add four rect primitives between the rounded corners*
20,1,$1+$1,$2,$3,$4,$5,0*
20,1,$1+$1,$4,$5,$6,$7,0*
20,1,$1+$1,$6,$7,$8,$9,0*
20,1,$1+$1,$8,$9,$2,$3,0*%
G04 Aperture macros list end*
%ADD10C,0.711200*%
%ADD11C,0.836200*%
%ADD12C,0.010000*%
%ADD13C,1.270000*%
%ADD14C,3.200000*%
%ADD15C,1.320000*%
%ADD16RoundRect,0.076200X0.802500X0.802500X-0.802500X0.802500X-0.802500X-0.802500X0.802500X-0.802500X0*%
%ADD17C,1.757400*%
%ADD18R,1.700000X1.700000*%
%ADD19O,1.700000X1.700000*%
%ADD20R,1.724000X1.724000*%
%ADD21C,1.824000*%
%ADD22C,0.800000*%
%ADD23C,5.400000*%
%ADD24C,1.524000*%
%ADD25R,1.570000X1.570000*%
%ADD26C,1.570000*%
%ADD27C,1.050000*%
%ADD28C,1.528000*%
%ADD29C,0.520000*%
%ADD30O,2.404000X1.304000*%
G04 APERTURE END LIST*
D10*
X105399109Y-128775000D02*
G75*
G03*
X105399109Y-128775000I-355600J0D01*
G01*
D11*
X102461609Y-130735000D02*
G75*
G03*
X102461609Y-130735000I-418100J0D01*
G01*
X99461609Y-130735000D02*
G75*
G03*
X99461609Y-130735000I-418100J0D01*
G01*
D10*
X93399109Y-128775000D02*
G75*
G03*
X93399109Y-128775000I-355600J0D01*
G01*
D12*
X96879709Y-131571200D02*
X95207309Y-131571200D01*
X95207309Y-129898800D01*
X96879709Y-129898800D01*
X96879709Y-131571200D01*
G36*
X96879709Y-131571200D02*
G01*
X95207309Y-131571200D01*
X95207309Y-129898800D01*
X96879709Y-129898800D01*
X96879709Y-131571200D01*
G37*
D10*
X105399109Y-141905000D02*
G75*
G03*
X105399109Y-141905000I-355600J0D01*
G01*
D11*
X102461609Y-143865000D02*
G75*
G03*
X102461609Y-143865000I-418100J0D01*
G01*
X99461609Y-143865000D02*
G75*
G03*
X99461609Y-143865000I-418100J0D01*
G01*
D10*
X93399109Y-141905000D02*
G75*
G03*
X93399109Y-141905000I-355600J0D01*
G01*
D12*
X96879709Y-144701200D02*
X95207309Y-144701200D01*
X95207309Y-143028800D01*
X96879709Y-143028800D01*
X96879709Y-144701200D01*
G36*
X96879709Y-144701200D02*
G01*
X95207309Y-144701200D01*
X95207309Y-143028800D01*
X96879709Y-143028800D01*
X96879709Y-144701200D01*
G37*
D13*
X105043509Y-128775000D03*
X93043509Y-128775000D03*
D14*
X216850000Y-79410000D03*
X223860000Y-79410000D03*
X216850000Y-74410000D03*
X223860000Y-74410000D03*
D15*
X159276150Y-115937500D03*
X144276150Y-115937500D03*
D16*
X147276150Y-117897500D03*
D17*
X150276150Y-117897500D03*
X153276150Y-117897500D03*
X156276150Y-117897500D03*
D14*
X216850000Y-121050000D03*
X223860000Y-121050000D03*
X216850000Y-116050000D03*
X223860000Y-116050000D03*
D13*
X105043509Y-141905000D03*
X93043509Y-141905000D03*
D18*
X83830000Y-50800000D03*
D19*
X86370000Y-50800000D03*
X88910000Y-50800000D03*
X91450000Y-50800000D03*
X93990000Y-50800000D03*
X96530000Y-50800000D03*
D18*
X86370000Y-33020000D03*
D19*
X88910000Y-33020000D03*
X91450000Y-33020000D03*
X93990000Y-33020000D03*
D14*
X196850000Y-121050000D03*
X203860000Y-121050000D03*
X196850000Y-116050000D03*
X203860000Y-116050000D03*
D20*
X185315000Y-71950000D03*
D21*
X185315000Y-74490000D03*
D22*
X67345000Y-149940000D03*
X67938109Y-148508109D03*
X67938109Y-151371891D03*
X69370000Y-147915000D03*
D23*
X69370000Y-149940000D03*
D22*
X69370000Y-151965000D03*
X70801891Y-148508109D03*
X70801891Y-151371891D03*
X71395000Y-149940000D03*
D14*
X216850000Y-41910000D03*
X223860000Y-41910000D03*
X216850000Y-36910000D03*
X223860000Y-36910000D03*
D24*
X158750000Y-36830000D03*
X158750000Y-39370000D03*
X156210000Y-36830000D03*
X156210000Y-39370000D03*
X153670000Y-36830000D03*
X153670000Y-39370000D03*
X151130000Y-36830000D03*
X151130000Y-39370000D03*
X148590000Y-36830000D03*
X148590000Y-39370000D03*
X146050000Y-36830000D03*
X146050000Y-39370000D03*
X143510000Y-36830000D03*
X143510000Y-39370000D03*
X140970000Y-36830000D03*
X140970000Y-39370000D03*
X138430000Y-36830000D03*
X138430000Y-39370000D03*
X135890000Y-36830000D03*
X135890000Y-39370000D03*
X133350000Y-36830000D03*
X133350000Y-39370000D03*
X130810000Y-36830000D03*
X130810000Y-39370000D03*
X128270000Y-36830000D03*
X128270000Y-39370000D03*
X125730000Y-36830000D03*
X125730000Y-39370000D03*
X123190000Y-36830000D03*
X123190000Y-39370000D03*
X120650000Y-36830000D03*
X120650000Y-39370000D03*
X118110000Y-36830000D03*
X118110000Y-39370000D03*
X115570000Y-36830000D03*
X115570000Y-39370000D03*
X113030000Y-36830000D03*
X113030000Y-39370000D03*
X110490000Y-36830000D03*
X110490000Y-39370000D03*
D14*
X216850000Y-133550000D03*
X223860000Y-133550000D03*
X216850000Y-128550000D03*
X223860000Y-128550000D03*
D20*
X173990000Y-52070000D03*
D21*
X173990000Y-54610000D03*
D14*
X216850000Y-146050000D03*
X223860000Y-146050000D03*
X216850000Y-141050000D03*
X223860000Y-141050000D03*
X216850000Y-108550000D03*
X223860000Y-108550000D03*
X216850000Y-103550000D03*
X223860000Y-103550000D03*
X196850000Y-79410000D03*
X203860000Y-79410000D03*
X196850000Y-74410000D03*
X203860000Y-74410000D03*
D22*
X240345000Y-32940000D03*
X240938109Y-31508109D03*
X240938109Y-34371891D03*
X242370000Y-30915000D03*
D23*
X242370000Y-32940000D03*
D22*
X242370000Y-34965000D03*
X243801891Y-31508109D03*
X243801891Y-34371891D03*
X244395000Y-32940000D03*
D14*
X196850000Y-66910000D03*
X203860000Y-66910000D03*
X196850000Y-61910000D03*
X203860000Y-61910000D03*
D18*
X106172000Y-80287000D03*
D19*
X106172000Y-77747000D03*
X106172000Y-75207000D03*
D15*
X131551350Y-115937500D03*
X116551350Y-115937500D03*
D16*
X119551350Y-117897500D03*
D17*
X122551350Y-117897500D03*
X125551350Y-117897500D03*
X128551350Y-117897500D03*
D13*
X156618641Y-141905001D03*
X147618641Y-141905001D03*
D25*
X150618641Y-143865001D03*
D26*
X153618641Y-143865001D03*
D14*
X216850000Y-54410000D03*
X223860000Y-54410000D03*
X216850000Y-49410000D03*
X223860000Y-49410000D03*
D22*
X67345000Y-32940000D03*
X67938109Y-31508109D03*
X67938109Y-34371891D03*
X69370000Y-30915000D03*
D23*
X69370000Y-32940000D03*
D22*
X69370000Y-34965000D03*
X70801891Y-31508109D03*
X70801891Y-34371891D03*
X71395000Y-32940000D03*
D13*
X103886000Y-116275001D03*
X94886000Y-116275001D03*
D25*
X97886000Y-118235001D03*
D26*
X100886000Y-118235001D03*
D20*
X173990000Y-72070000D03*
D21*
X173990000Y-74610000D03*
D20*
X185420000Y-51910000D03*
D21*
X185420000Y-54450000D03*
D13*
X172538000Y-145824999D03*
X181538000Y-145824999D03*
D25*
X178538000Y-143864999D03*
D26*
X175538000Y-143864999D03*
D18*
X184747500Y-31511000D03*
D19*
X184747500Y-34051000D03*
X184747500Y-36591000D03*
D20*
X173990000Y-41910000D03*
D21*
X173990000Y-44450000D03*
D27*
X245150000Y-96085027D03*
X245150000Y-94085026D03*
X245150000Y-92085027D03*
X245150000Y-90085026D03*
X245150000Y-88085028D03*
X245150000Y-86085026D03*
X243150004Y-96085027D03*
X243150004Y-94085026D03*
X243150004Y-92085027D03*
X243150004Y-90085026D03*
X243150004Y-88085028D03*
X243150004Y-86085026D03*
X241150008Y-96085027D03*
X241150008Y-94085026D03*
X241150008Y-92085027D03*
X241150008Y-90085026D03*
X241150008Y-88085028D03*
X241150008Y-86085026D03*
X239150012Y-96085027D03*
X239150012Y-94085026D03*
X239150012Y-92085027D03*
X239150012Y-90085026D03*
X239150012Y-88085028D03*
X239150012Y-86085026D03*
X237150016Y-96085027D03*
X237150016Y-94085026D03*
X237150016Y-92085027D03*
X237150016Y-90085026D03*
X237150016Y-88085028D03*
X237150016Y-86085026D03*
D28*
X245150000Y-121225007D03*
X242650005Y-121225007D03*
X240150010Y-121225007D03*
X237650015Y-121225007D03*
X235150020Y-121225007D03*
X245150000Y-118225013D03*
X242650005Y-118225013D03*
X240150010Y-118225013D03*
X237650015Y-118225013D03*
X235150020Y-118225013D03*
X245150000Y-115725018D03*
X242650005Y-115725018D03*
X240150010Y-115725018D03*
X237650015Y-115725018D03*
X235150020Y-115725018D03*
X245150000Y-112725024D03*
X242650005Y-112725024D03*
X240150010Y-112725024D03*
X237650015Y-112725024D03*
X235150020Y-112725024D03*
X245150000Y-110225029D03*
X242650005Y-110225029D03*
X240150010Y-110225029D03*
X237650015Y-110225029D03*
X235150020Y-110225029D03*
X245150000Y-107225035D03*
X242650005Y-107225035D03*
X240150010Y-107225035D03*
X237650015Y-107225035D03*
X235150020Y-107225035D03*
X245150000Y-104725015D03*
X242650005Y-104725015D03*
X240150010Y-104725015D03*
X237650015Y-104725015D03*
X235150020Y-104725015D03*
X245150000Y-101725021D03*
X242650005Y-101725021D03*
X240150010Y-101725021D03*
X237650015Y-101725021D03*
X235150020Y-101725021D03*
X245150000Y-81515028D03*
X242650005Y-81515028D03*
X240150010Y-81515028D03*
X237650015Y-81515028D03*
X235150020Y-81515028D03*
X245150000Y-78515034D03*
X242650005Y-78515034D03*
X240150010Y-78515034D03*
X237650015Y-78515034D03*
X235150020Y-78515034D03*
X245150000Y-76015039D03*
X242650005Y-76015039D03*
X240150010Y-76015039D03*
X237650015Y-76015039D03*
X235150020Y-76015039D03*
X245150000Y-73015045D03*
X242650005Y-73015045D03*
X240150010Y-73015045D03*
X237650015Y-73015045D03*
X235150020Y-73015045D03*
X245150000Y-70515022D03*
X242650005Y-70515022D03*
X240150010Y-70515022D03*
X237650015Y-70515022D03*
X235150020Y-70515022D03*
X245150000Y-67515028D03*
X242650005Y-67515028D03*
X240150010Y-67515028D03*
X237650015Y-67515028D03*
X235150020Y-67515028D03*
X245150000Y-65015036D03*
X242650005Y-65015036D03*
X240150010Y-65015036D03*
X237650015Y-65015036D03*
X235150020Y-65015036D03*
X245150000Y-62015042D03*
X242650005Y-62015042D03*
X240150010Y-62015042D03*
X237650015Y-62015042D03*
X235150020Y-62015042D03*
D14*
X196850000Y-133550000D03*
X203860000Y-133550000D03*
X196850000Y-128550000D03*
X203860000Y-128550000D03*
D18*
X167602500Y-31511000D03*
D19*
X167602500Y-34051000D03*
X167602500Y-36591000D03*
D22*
X240345000Y-149940000D03*
X240938109Y-148508109D03*
X240938109Y-151371891D03*
X242370000Y-147915000D03*
D23*
X242370000Y-149940000D03*
D22*
X242370000Y-151965000D03*
X243801891Y-148508109D03*
X243801891Y-151371891D03*
X244395000Y-149940000D03*
D14*
X196850000Y-54410000D03*
X203860000Y-54410000D03*
X196850000Y-49410000D03*
X203860000Y-49410000D03*
D18*
X179032500Y-31511000D03*
D19*
X179032500Y-34051000D03*
X179032500Y-36591000D03*
D14*
X196850000Y-108550000D03*
X203860000Y-108550000D03*
X196850000Y-103550000D03*
X203860000Y-103550000D03*
D13*
X172538000Y-120824999D03*
X181538000Y-120824999D03*
D25*
X178538000Y-118864999D03*
D26*
X175538000Y-118864999D03*
D14*
X196850000Y-146050000D03*
X203860000Y-146050000D03*
X196850000Y-141050000D03*
X203860000Y-141050000D03*
D20*
X185420000Y-41910000D03*
D21*
X185420000Y-44450000D03*
D13*
X172538000Y-133324999D03*
X181538000Y-133324999D03*
D25*
X178538000Y-131364999D03*
D26*
X175538000Y-131364999D03*
D20*
X173990000Y-62070000D03*
D21*
X173990000Y-64610000D03*
D18*
X173317500Y-31511000D03*
D19*
X173317500Y-34051000D03*
X173317500Y-36591000D03*
D13*
X172538000Y-108324999D03*
X181538000Y-108324999D03*
D25*
X178538000Y-106364999D03*
D26*
X175538000Y-106364999D03*
D14*
X196850000Y-41910000D03*
X203860000Y-41910000D03*
X196850000Y-36910000D03*
X203860000Y-36910000D03*
D29*
X87309000Y-59317000D03*
X94809000Y-59317000D03*
D30*
X88659000Y-57167000D03*
X88659000Y-61467000D03*
X93459000Y-57167000D03*
X93459000Y-61467000D03*
D13*
X128893841Y-141905001D03*
X119893841Y-141905001D03*
D25*
X122893841Y-143865001D03*
D26*
X125893841Y-143865001D03*
D14*
X216850000Y-66910000D03*
X223860000Y-66910000D03*
X216850000Y-61910000D03*
X223860000Y-61910000D03*
D20*
X185420000Y-61910000D03*
D21*
X185420000Y-64450000D03*
M02*
