%TF.GenerationSoftware,KiCad,Pcbnew,7.0.9*%
%TF.CreationDate,2024-03-27T23:57:31-02:30*%
%TF.ProjectId,MegaBoard2024,4d656761-426f-4617-9264-323032342e6b,rev?*%
%TF.SameCoordinates,Original*%
%TF.FileFunction,Drillmap*%
%TF.FilePolarity,Positive*%
%FSLAX45Y45*%
G04 Gerber Fmt 4.5, Leading zero omitted, Abs format (unit mm)*
G04 Created by KiCad (PCBNEW 7.0.9) date 2024-03-27 23:57:31*
%MOMM*%
%LPD*%
G01*
G04 APERTURE LIST*
%ADD10C,0.200000*%
%ADD11C,0.100000*%
%ADD12C,0.127000*%
%ADD13C,0.132000*%
%ADD14C,0.320000*%
G04 APERTURE END LIST*
D10*
X24237364Y-2794021D02*
X24237364Y-2794021D01*
G75*
G02*
X24736979Y-3294332I-364J-499979D01*
G01*
X24736979Y-14994364D01*
G75*
G02*
X24236668Y-15493979I-499979J364D01*
G01*
X6936636Y-15493979D01*
G75*
G02*
X6437021Y-14993668I364J499979D01*
G01*
X6437021Y-3293636D01*
G75*
G02*
X6937332Y-2794021I499979J-364D01*
G01*
X24237364Y-2794021D01*
D11*
X8704900Y-5905700D02*
X8756900Y-5957700D01*
X8756900Y-5905700D02*
X8704900Y-5957700D01*
X9454900Y-5905700D02*
X9506900Y-5957700D01*
X9506900Y-5905700D02*
X9454900Y-5957700D01*
D12*
X9367851Y-12877500D02*
G75*
G03*
X9367851Y-12877500I-63500J0D01*
G01*
X9367851Y-14190500D02*
G75*
G03*
X9367851Y-14190500I-63500J0D01*
G01*
X9552100Y-11627500D02*
G75*
G03*
X9552100Y-11627500I-63500J0D01*
G01*
X10452100Y-11627500D02*
G75*
G03*
X10452100Y-11627500I-63500J0D01*
G01*
X10567851Y-12877500D02*
G75*
G03*
X10567851Y-12877500I-63500J0D01*
G01*
X10567851Y-14190500D02*
G75*
G03*
X10567851Y-14190500I-63500J0D01*
G01*
X12052884Y-14190500D02*
G75*
G03*
X12052884Y-14190500I-63500J0D01*
G01*
X12952884Y-14190500D02*
G75*
G03*
X12952884Y-14190500I-63500J0D01*
G01*
X14825364Y-14190500D02*
G75*
G03*
X14825364Y-14190500I-63500J0D01*
G01*
X15725364Y-14190500D02*
G75*
G03*
X15725364Y-14190500I-63500J0D01*
G01*
X17317300Y-10832500D02*
G75*
G03*
X17317300Y-10832500I-63500J0D01*
G01*
X17317300Y-12082500D02*
G75*
G03*
X17317300Y-12082500I-63500J0D01*
G01*
X17317300Y-13332500D02*
G75*
G03*
X17317300Y-13332500I-63500J0D01*
G01*
X17317300Y-14582500D02*
G75*
G03*
X17317300Y-14582500I-63500J0D01*
G01*
X18217300Y-10832500D02*
G75*
G03*
X18217300Y-10832500I-63500J0D01*
G01*
X18217300Y-12082500D02*
G75*
G03*
X18217300Y-12082500I-63500J0D01*
G01*
X18217300Y-13332500D02*
G75*
G03*
X18217300Y-13332500I-63500J0D01*
G01*
X18217300Y-14582500D02*
G75*
G03*
X18217300Y-14582500I-63500J0D01*
G01*
D13*
X11655135Y-11527750D02*
X11655135Y-11659750D01*
X11589135Y-11593750D02*
X11721135Y-11593750D01*
X13155135Y-11527750D02*
X13155135Y-11659750D01*
X13089135Y-11593750D02*
X13221135Y-11593750D01*
X14427615Y-11527750D02*
X14427615Y-11659750D01*
X14361615Y-11593750D02*
X14493615Y-11593750D01*
X15927615Y-11527750D02*
X15927615Y-11659750D01*
X15861615Y-11593750D02*
X15993615Y-11593750D01*
D14*
X24128138Y-5764636D02*
X24128138Y-5538360D01*
X23901862Y-5538360D01*
X23901862Y-5764636D01*
X24128138Y-5764636D01*
X24128138Y-12785638D02*
X24128138Y-12559361D01*
X23901862Y-12559361D01*
X23901862Y-12785638D01*
X24128138Y-12785638D01*
D10*
X6687798Y-15815463D02*
X6687798Y-15615463D01*
X6687798Y-15615463D02*
X6735417Y-15615463D01*
X6735417Y-15615463D02*
X6763988Y-15624987D01*
X6763988Y-15624987D02*
X6783036Y-15644034D01*
X6783036Y-15644034D02*
X6792559Y-15663082D01*
X6792559Y-15663082D02*
X6802083Y-15701177D01*
X6802083Y-15701177D02*
X6802083Y-15729749D01*
X6802083Y-15729749D02*
X6792559Y-15767844D01*
X6792559Y-15767844D02*
X6783036Y-15786891D01*
X6783036Y-15786891D02*
X6763988Y-15805939D01*
X6763988Y-15805939D02*
X6735417Y-15815463D01*
X6735417Y-15815463D02*
X6687798Y-15815463D01*
X6887798Y-15815463D02*
X6887798Y-15682130D01*
X6887798Y-15720225D02*
X6897321Y-15701177D01*
X6897321Y-15701177D02*
X6906845Y-15691653D01*
X6906845Y-15691653D02*
X6925893Y-15682130D01*
X6925893Y-15682130D02*
X6944940Y-15682130D01*
X7011607Y-15815463D02*
X7011607Y-15682130D01*
X7011607Y-15615463D02*
X7002083Y-15624987D01*
X7002083Y-15624987D02*
X7011607Y-15634511D01*
X7011607Y-15634511D02*
X7021131Y-15624987D01*
X7021131Y-15624987D02*
X7011607Y-15615463D01*
X7011607Y-15615463D02*
X7011607Y-15634511D01*
X7135417Y-15815463D02*
X7116369Y-15805939D01*
X7116369Y-15805939D02*
X7106845Y-15786891D01*
X7106845Y-15786891D02*
X7106845Y-15615463D01*
X7240178Y-15815463D02*
X7221131Y-15805939D01*
X7221131Y-15805939D02*
X7211607Y-15786891D01*
X7211607Y-15786891D02*
X7211607Y-15615463D01*
X7468750Y-15815463D02*
X7468750Y-15615463D01*
X7468750Y-15615463D02*
X7535417Y-15758320D01*
X7535417Y-15758320D02*
X7602083Y-15615463D01*
X7602083Y-15615463D02*
X7602083Y-15815463D01*
X7783036Y-15815463D02*
X7783036Y-15710701D01*
X7783036Y-15710701D02*
X7773512Y-15691653D01*
X7773512Y-15691653D02*
X7754464Y-15682130D01*
X7754464Y-15682130D02*
X7716369Y-15682130D01*
X7716369Y-15682130D02*
X7697321Y-15691653D01*
X7783036Y-15805939D02*
X7763988Y-15815463D01*
X7763988Y-15815463D02*
X7716369Y-15815463D01*
X7716369Y-15815463D02*
X7697321Y-15805939D01*
X7697321Y-15805939D02*
X7687798Y-15786891D01*
X7687798Y-15786891D02*
X7687798Y-15767844D01*
X7687798Y-15767844D02*
X7697321Y-15748796D01*
X7697321Y-15748796D02*
X7716369Y-15739272D01*
X7716369Y-15739272D02*
X7763988Y-15739272D01*
X7763988Y-15739272D02*
X7783036Y-15729749D01*
X7878274Y-15682130D02*
X7878274Y-15882130D01*
X7878274Y-15691653D02*
X7897321Y-15682130D01*
X7897321Y-15682130D02*
X7935417Y-15682130D01*
X7935417Y-15682130D02*
X7954464Y-15691653D01*
X7954464Y-15691653D02*
X7963988Y-15701177D01*
X7963988Y-15701177D02*
X7973512Y-15720225D01*
X7973512Y-15720225D02*
X7973512Y-15777368D01*
X7973512Y-15777368D02*
X7963988Y-15796415D01*
X7963988Y-15796415D02*
X7954464Y-15805939D01*
X7954464Y-15805939D02*
X7935417Y-15815463D01*
X7935417Y-15815463D02*
X7897321Y-15815463D01*
X7897321Y-15815463D02*
X7878274Y-15805939D01*
X8059226Y-15796415D02*
X8068750Y-15805939D01*
X8068750Y-15805939D02*
X8059226Y-15815463D01*
X8059226Y-15815463D02*
X8049702Y-15805939D01*
X8049702Y-15805939D02*
X8059226Y-15796415D01*
X8059226Y-15796415D02*
X8059226Y-15815463D01*
X8059226Y-15691653D02*
X8068750Y-15701177D01*
X8068750Y-15701177D02*
X8059226Y-15710701D01*
X8059226Y-15710701D02*
X8049702Y-15701177D01*
X8049702Y-15701177D02*
X8059226Y-15691653D01*
X8059226Y-15691653D02*
X8059226Y-15710701D01*
D11*
X6375021Y-16117979D02*
X6427021Y-16169979D01*
X6427021Y-16117979D02*
X6375021Y-16169979D01*
D10*
X6725893Y-16035463D02*
X6744940Y-16035463D01*
X6744940Y-16035463D02*
X6763988Y-16044987D01*
X6763988Y-16044987D02*
X6773512Y-16054511D01*
X6773512Y-16054511D02*
X6783036Y-16073558D01*
X6783036Y-16073558D02*
X6792559Y-16111653D01*
X6792559Y-16111653D02*
X6792559Y-16159272D01*
X6792559Y-16159272D02*
X6783036Y-16197368D01*
X6783036Y-16197368D02*
X6773512Y-16216415D01*
X6773512Y-16216415D02*
X6763988Y-16225939D01*
X6763988Y-16225939D02*
X6744940Y-16235463D01*
X6744940Y-16235463D02*
X6725893Y-16235463D01*
X6725893Y-16235463D02*
X6706845Y-16225939D01*
X6706845Y-16225939D02*
X6697321Y-16216415D01*
X6697321Y-16216415D02*
X6687798Y-16197368D01*
X6687798Y-16197368D02*
X6678274Y-16159272D01*
X6678274Y-16159272D02*
X6678274Y-16111653D01*
X6678274Y-16111653D02*
X6687798Y-16073558D01*
X6687798Y-16073558D02*
X6697321Y-16054511D01*
X6697321Y-16054511D02*
X6706845Y-16044987D01*
X6706845Y-16044987D02*
X6725893Y-16035463D01*
X6878274Y-16216415D02*
X6887798Y-16225939D01*
X6887798Y-16225939D02*
X6878274Y-16235463D01*
X6878274Y-16235463D02*
X6868750Y-16225939D01*
X6868750Y-16225939D02*
X6878274Y-16216415D01*
X6878274Y-16216415D02*
X6878274Y-16235463D01*
X7068750Y-16035463D02*
X6973512Y-16035463D01*
X6973512Y-16035463D02*
X6963988Y-16130701D01*
X6963988Y-16130701D02*
X6973512Y-16121177D01*
X6973512Y-16121177D02*
X6992559Y-16111653D01*
X6992559Y-16111653D02*
X7040179Y-16111653D01*
X7040179Y-16111653D02*
X7059226Y-16121177D01*
X7059226Y-16121177D02*
X7068750Y-16130701D01*
X7068750Y-16130701D02*
X7078274Y-16149749D01*
X7078274Y-16149749D02*
X7078274Y-16197368D01*
X7078274Y-16197368D02*
X7068750Y-16216415D01*
X7068750Y-16216415D02*
X7059226Y-16225939D01*
X7059226Y-16225939D02*
X7040179Y-16235463D01*
X7040179Y-16235463D02*
X6992559Y-16235463D01*
X6992559Y-16235463D02*
X6973512Y-16225939D01*
X6973512Y-16225939D02*
X6963988Y-16216415D01*
X7154464Y-16054511D02*
X7163988Y-16044987D01*
X7163988Y-16044987D02*
X7183036Y-16035463D01*
X7183036Y-16035463D02*
X7230655Y-16035463D01*
X7230655Y-16035463D02*
X7249702Y-16044987D01*
X7249702Y-16044987D02*
X7259226Y-16054511D01*
X7259226Y-16054511D02*
X7268750Y-16073558D01*
X7268750Y-16073558D02*
X7268750Y-16092606D01*
X7268750Y-16092606D02*
X7259226Y-16121177D01*
X7259226Y-16121177D02*
X7144940Y-16235463D01*
X7144940Y-16235463D02*
X7268750Y-16235463D01*
X7392559Y-16035463D02*
X7411607Y-16035463D01*
X7411607Y-16035463D02*
X7430655Y-16044987D01*
X7430655Y-16044987D02*
X7440179Y-16054511D01*
X7440179Y-16054511D02*
X7449702Y-16073558D01*
X7449702Y-16073558D02*
X7459226Y-16111653D01*
X7459226Y-16111653D02*
X7459226Y-16159272D01*
X7459226Y-16159272D02*
X7449702Y-16197368D01*
X7449702Y-16197368D02*
X7440179Y-16216415D01*
X7440179Y-16216415D02*
X7430655Y-16225939D01*
X7430655Y-16225939D02*
X7411607Y-16235463D01*
X7411607Y-16235463D02*
X7392559Y-16235463D01*
X7392559Y-16235463D02*
X7373512Y-16225939D01*
X7373512Y-16225939D02*
X7363988Y-16216415D01*
X7363988Y-16216415D02*
X7354464Y-16197368D01*
X7354464Y-16197368D02*
X7344940Y-16159272D01*
X7344940Y-16159272D02*
X7344940Y-16111653D01*
X7344940Y-16111653D02*
X7354464Y-16073558D01*
X7354464Y-16073558D02*
X7363988Y-16054511D01*
X7363988Y-16054511D02*
X7373512Y-16044987D01*
X7373512Y-16044987D02*
X7392559Y-16035463D01*
X7544940Y-16235463D02*
X7544940Y-16102130D01*
X7544940Y-16121177D02*
X7554464Y-16111653D01*
X7554464Y-16111653D02*
X7573512Y-16102130D01*
X7573512Y-16102130D02*
X7602083Y-16102130D01*
X7602083Y-16102130D02*
X7621131Y-16111653D01*
X7621131Y-16111653D02*
X7630655Y-16130701D01*
X7630655Y-16130701D02*
X7630655Y-16235463D01*
X7630655Y-16130701D02*
X7640179Y-16111653D01*
X7640179Y-16111653D02*
X7659226Y-16102130D01*
X7659226Y-16102130D02*
X7687798Y-16102130D01*
X7687798Y-16102130D02*
X7706845Y-16111653D01*
X7706845Y-16111653D02*
X7716369Y-16130701D01*
X7716369Y-16130701D02*
X7716369Y-16235463D01*
X7811607Y-16235463D02*
X7811607Y-16102130D01*
X7811607Y-16121177D02*
X7821131Y-16111653D01*
X7821131Y-16111653D02*
X7840179Y-16102130D01*
X7840179Y-16102130D02*
X7868750Y-16102130D01*
X7868750Y-16102130D02*
X7887798Y-16111653D01*
X7887798Y-16111653D02*
X7897321Y-16130701D01*
X7897321Y-16130701D02*
X7897321Y-16235463D01*
X7897321Y-16130701D02*
X7906845Y-16111653D01*
X7906845Y-16111653D02*
X7925893Y-16102130D01*
X7925893Y-16102130D02*
X7954464Y-16102130D01*
X7954464Y-16102130D02*
X7973512Y-16111653D01*
X7973512Y-16111653D02*
X7983036Y-16130701D01*
X7983036Y-16130701D02*
X7983036Y-16235463D01*
X8373512Y-16025939D02*
X8202083Y-16283082D01*
X8630655Y-16035463D02*
X8649703Y-16035463D01*
X8649703Y-16035463D02*
X8668750Y-16044987D01*
X8668750Y-16044987D02*
X8678274Y-16054511D01*
X8678274Y-16054511D02*
X8687798Y-16073558D01*
X8687798Y-16073558D02*
X8697322Y-16111653D01*
X8697322Y-16111653D02*
X8697322Y-16159272D01*
X8697322Y-16159272D02*
X8687798Y-16197368D01*
X8687798Y-16197368D02*
X8678274Y-16216415D01*
X8678274Y-16216415D02*
X8668750Y-16225939D01*
X8668750Y-16225939D02*
X8649703Y-16235463D01*
X8649703Y-16235463D02*
X8630655Y-16235463D01*
X8630655Y-16235463D02*
X8611607Y-16225939D01*
X8611607Y-16225939D02*
X8602084Y-16216415D01*
X8602084Y-16216415D02*
X8592560Y-16197368D01*
X8592560Y-16197368D02*
X8583036Y-16159272D01*
X8583036Y-16159272D02*
X8583036Y-16111653D01*
X8583036Y-16111653D02*
X8592560Y-16073558D01*
X8592560Y-16073558D02*
X8602084Y-16054511D01*
X8602084Y-16054511D02*
X8611607Y-16044987D01*
X8611607Y-16044987D02*
X8630655Y-16035463D01*
X8783036Y-16216415D02*
X8792560Y-16225939D01*
X8792560Y-16225939D02*
X8783036Y-16235463D01*
X8783036Y-16235463D02*
X8773512Y-16225939D01*
X8773512Y-16225939D02*
X8783036Y-16216415D01*
X8783036Y-16216415D02*
X8783036Y-16235463D01*
X8916369Y-16035463D02*
X8935417Y-16035463D01*
X8935417Y-16035463D02*
X8954465Y-16044987D01*
X8954465Y-16044987D02*
X8963988Y-16054511D01*
X8963988Y-16054511D02*
X8973512Y-16073558D01*
X8973512Y-16073558D02*
X8983036Y-16111653D01*
X8983036Y-16111653D02*
X8983036Y-16159272D01*
X8983036Y-16159272D02*
X8973512Y-16197368D01*
X8973512Y-16197368D02*
X8963988Y-16216415D01*
X8963988Y-16216415D02*
X8954465Y-16225939D01*
X8954465Y-16225939D02*
X8935417Y-16235463D01*
X8935417Y-16235463D02*
X8916369Y-16235463D01*
X8916369Y-16235463D02*
X8897322Y-16225939D01*
X8897322Y-16225939D02*
X8887798Y-16216415D01*
X8887798Y-16216415D02*
X8878274Y-16197368D01*
X8878274Y-16197368D02*
X8868750Y-16159272D01*
X8868750Y-16159272D02*
X8868750Y-16111653D01*
X8868750Y-16111653D02*
X8878274Y-16073558D01*
X8878274Y-16073558D02*
X8887798Y-16054511D01*
X8887798Y-16054511D02*
X8897322Y-16044987D01*
X8897322Y-16044987D02*
X8916369Y-16035463D01*
X9059226Y-16054511D02*
X9068750Y-16044987D01*
X9068750Y-16044987D02*
X9087798Y-16035463D01*
X9087798Y-16035463D02*
X9135417Y-16035463D01*
X9135417Y-16035463D02*
X9154465Y-16044987D01*
X9154465Y-16044987D02*
X9163988Y-16054511D01*
X9163988Y-16054511D02*
X9173512Y-16073558D01*
X9173512Y-16073558D02*
X9173512Y-16092606D01*
X9173512Y-16092606D02*
X9163988Y-16121177D01*
X9163988Y-16121177D02*
X9049703Y-16235463D01*
X9049703Y-16235463D02*
X9173512Y-16235463D01*
X9297322Y-16035463D02*
X9316369Y-16035463D01*
X9316369Y-16035463D02*
X9335417Y-16044987D01*
X9335417Y-16044987D02*
X9344941Y-16054511D01*
X9344941Y-16054511D02*
X9354465Y-16073558D01*
X9354465Y-16073558D02*
X9363988Y-16111653D01*
X9363988Y-16111653D02*
X9363988Y-16159272D01*
X9363988Y-16159272D02*
X9354465Y-16197368D01*
X9354465Y-16197368D02*
X9344941Y-16216415D01*
X9344941Y-16216415D02*
X9335417Y-16225939D01*
X9335417Y-16225939D02*
X9316369Y-16235463D01*
X9316369Y-16235463D02*
X9297322Y-16235463D01*
X9297322Y-16235463D02*
X9278274Y-16225939D01*
X9278274Y-16225939D02*
X9268750Y-16216415D01*
X9268750Y-16216415D02*
X9259226Y-16197368D01*
X9259226Y-16197368D02*
X9249703Y-16159272D01*
X9249703Y-16159272D02*
X9249703Y-16111653D01*
X9249703Y-16111653D02*
X9259226Y-16073558D01*
X9259226Y-16073558D02*
X9268750Y-16054511D01*
X9268750Y-16054511D02*
X9278274Y-16044987D01*
X9278274Y-16044987D02*
X9297322Y-16035463D01*
X9544941Y-16035463D02*
X9449703Y-16035463D01*
X9449703Y-16035463D02*
X9440179Y-16130701D01*
X9440179Y-16130701D02*
X9449703Y-16121177D01*
X9449703Y-16121177D02*
X9468750Y-16111653D01*
X9468750Y-16111653D02*
X9516369Y-16111653D01*
X9516369Y-16111653D02*
X9535417Y-16121177D01*
X9535417Y-16121177D02*
X9544941Y-16130701D01*
X9544941Y-16130701D02*
X9554465Y-16149749D01*
X9554465Y-16149749D02*
X9554465Y-16197368D01*
X9554465Y-16197368D02*
X9544941Y-16216415D01*
X9544941Y-16216415D02*
X9535417Y-16225939D01*
X9535417Y-16225939D02*
X9516369Y-16235463D01*
X9516369Y-16235463D02*
X9468750Y-16235463D01*
X9468750Y-16235463D02*
X9449703Y-16225939D01*
X9449703Y-16225939D02*
X9440179Y-16216415D01*
X9630655Y-16035463D02*
X9630655Y-16073558D01*
X9706846Y-16035463D02*
X9706846Y-16073558D01*
X10002084Y-16311653D02*
X9992560Y-16302130D01*
X9992560Y-16302130D02*
X9973512Y-16273558D01*
X9973512Y-16273558D02*
X9963988Y-16254511D01*
X9963988Y-16254511D02*
X9954465Y-16225939D01*
X9954465Y-16225939D02*
X9944941Y-16178320D01*
X9944941Y-16178320D02*
X9944941Y-16140225D01*
X9944941Y-16140225D02*
X9954465Y-16092606D01*
X9954465Y-16092606D02*
X9963988Y-16064034D01*
X9963988Y-16064034D02*
X9973512Y-16044987D01*
X9973512Y-16044987D02*
X9992560Y-16016415D01*
X9992560Y-16016415D02*
X10002084Y-16006891D01*
X10068750Y-16054511D02*
X10078274Y-16044987D01*
X10078274Y-16044987D02*
X10097322Y-16035463D01*
X10097322Y-16035463D02*
X10144941Y-16035463D01*
X10144941Y-16035463D02*
X10163988Y-16044987D01*
X10163988Y-16044987D02*
X10173512Y-16054511D01*
X10173512Y-16054511D02*
X10183036Y-16073558D01*
X10183036Y-16073558D02*
X10183036Y-16092606D01*
X10183036Y-16092606D02*
X10173512Y-16121177D01*
X10173512Y-16121177D02*
X10059227Y-16235463D01*
X10059227Y-16235463D02*
X10183036Y-16235463D01*
X10421131Y-16235463D02*
X10421131Y-16035463D01*
X10506846Y-16235463D02*
X10506846Y-16130701D01*
X10506846Y-16130701D02*
X10497322Y-16111653D01*
X10497322Y-16111653D02*
X10478274Y-16102130D01*
X10478274Y-16102130D02*
X10449703Y-16102130D01*
X10449703Y-16102130D02*
X10430655Y-16111653D01*
X10430655Y-16111653D02*
X10421131Y-16121177D01*
X10630655Y-16235463D02*
X10611608Y-16225939D01*
X10611608Y-16225939D02*
X10602084Y-16216415D01*
X10602084Y-16216415D02*
X10592560Y-16197368D01*
X10592560Y-16197368D02*
X10592560Y-16140225D01*
X10592560Y-16140225D02*
X10602084Y-16121177D01*
X10602084Y-16121177D02*
X10611608Y-16111653D01*
X10611608Y-16111653D02*
X10630655Y-16102130D01*
X10630655Y-16102130D02*
X10659227Y-16102130D01*
X10659227Y-16102130D02*
X10678274Y-16111653D01*
X10678274Y-16111653D02*
X10687798Y-16121177D01*
X10687798Y-16121177D02*
X10697322Y-16140225D01*
X10697322Y-16140225D02*
X10697322Y-16197368D01*
X10697322Y-16197368D02*
X10687798Y-16216415D01*
X10687798Y-16216415D02*
X10678274Y-16225939D01*
X10678274Y-16225939D02*
X10659227Y-16235463D01*
X10659227Y-16235463D02*
X10630655Y-16235463D01*
X10811608Y-16235463D02*
X10792560Y-16225939D01*
X10792560Y-16225939D02*
X10783036Y-16206891D01*
X10783036Y-16206891D02*
X10783036Y-16035463D01*
X10963989Y-16225939D02*
X10944941Y-16235463D01*
X10944941Y-16235463D02*
X10906846Y-16235463D01*
X10906846Y-16235463D02*
X10887798Y-16225939D01*
X10887798Y-16225939D02*
X10878274Y-16206891D01*
X10878274Y-16206891D02*
X10878274Y-16130701D01*
X10878274Y-16130701D02*
X10887798Y-16111653D01*
X10887798Y-16111653D02*
X10906846Y-16102130D01*
X10906846Y-16102130D02*
X10944941Y-16102130D01*
X10944941Y-16102130D02*
X10963989Y-16111653D01*
X10963989Y-16111653D02*
X10973512Y-16130701D01*
X10973512Y-16130701D02*
X10973512Y-16149749D01*
X10973512Y-16149749D02*
X10878274Y-16168796D01*
X11049703Y-16225939D02*
X11068750Y-16235463D01*
X11068750Y-16235463D02*
X11106846Y-16235463D01*
X11106846Y-16235463D02*
X11125893Y-16225939D01*
X11125893Y-16225939D02*
X11135417Y-16206891D01*
X11135417Y-16206891D02*
X11135417Y-16197368D01*
X11135417Y-16197368D02*
X11125893Y-16178320D01*
X11125893Y-16178320D02*
X11106846Y-16168796D01*
X11106846Y-16168796D02*
X11078274Y-16168796D01*
X11078274Y-16168796D02*
X11059227Y-16159272D01*
X11059227Y-16159272D02*
X11049703Y-16140225D01*
X11049703Y-16140225D02*
X11049703Y-16130701D01*
X11049703Y-16130701D02*
X11059227Y-16111653D01*
X11059227Y-16111653D02*
X11078274Y-16102130D01*
X11078274Y-16102130D02*
X11106846Y-16102130D01*
X11106846Y-16102130D02*
X11125893Y-16111653D01*
X11202084Y-16311653D02*
X11211608Y-16302130D01*
X11211608Y-16302130D02*
X11230655Y-16273558D01*
X11230655Y-16273558D02*
X11240179Y-16254511D01*
X11240179Y-16254511D02*
X11249703Y-16225939D01*
X11249703Y-16225939D02*
X11259227Y-16178320D01*
X11259227Y-16178320D02*
X11259227Y-16140225D01*
X11259227Y-16140225D02*
X11249703Y-16092606D01*
X11249703Y-16092606D02*
X11240179Y-16064034D01*
X11240179Y-16064034D02*
X11230655Y-16044987D01*
X11230655Y-16044987D02*
X11211608Y-16016415D01*
X11211608Y-16016415D02*
X11202084Y-16006891D01*
X11563989Y-16311653D02*
X11554465Y-16302130D01*
X11554465Y-16302130D02*
X11535417Y-16273558D01*
X11535417Y-16273558D02*
X11525893Y-16254511D01*
X11525893Y-16254511D02*
X11516369Y-16225939D01*
X11516369Y-16225939D02*
X11506846Y-16178320D01*
X11506846Y-16178320D02*
X11506846Y-16140225D01*
X11506846Y-16140225D02*
X11516369Y-16092606D01*
X11516369Y-16092606D02*
X11525893Y-16064034D01*
X11525893Y-16064034D02*
X11535417Y-16044987D01*
X11535417Y-16044987D02*
X11554465Y-16016415D01*
X11554465Y-16016415D02*
X11563989Y-16006891D01*
X11640179Y-16102130D02*
X11640179Y-16235463D01*
X11640179Y-16121177D02*
X11649703Y-16111653D01*
X11649703Y-16111653D02*
X11668750Y-16102130D01*
X11668750Y-16102130D02*
X11697322Y-16102130D01*
X11697322Y-16102130D02*
X11716369Y-16111653D01*
X11716369Y-16111653D02*
X11725893Y-16130701D01*
X11725893Y-16130701D02*
X11725893Y-16235463D01*
X11849703Y-16235463D02*
X11830655Y-16225939D01*
X11830655Y-16225939D02*
X11821131Y-16216415D01*
X11821131Y-16216415D02*
X11811608Y-16197368D01*
X11811608Y-16197368D02*
X11811608Y-16140225D01*
X11811608Y-16140225D02*
X11821131Y-16121177D01*
X11821131Y-16121177D02*
X11830655Y-16111653D01*
X11830655Y-16111653D02*
X11849703Y-16102130D01*
X11849703Y-16102130D02*
X11878274Y-16102130D01*
X11878274Y-16102130D02*
X11897322Y-16111653D01*
X11897322Y-16111653D02*
X11906846Y-16121177D01*
X11906846Y-16121177D02*
X11916369Y-16140225D01*
X11916369Y-16140225D02*
X11916369Y-16197368D01*
X11916369Y-16197368D02*
X11906846Y-16216415D01*
X11906846Y-16216415D02*
X11897322Y-16225939D01*
X11897322Y-16225939D02*
X11878274Y-16235463D01*
X11878274Y-16235463D02*
X11849703Y-16235463D01*
X11973512Y-16102130D02*
X12049703Y-16102130D01*
X12002084Y-16035463D02*
X12002084Y-16206891D01*
X12002084Y-16206891D02*
X12011608Y-16225939D01*
X12011608Y-16225939D02*
X12030655Y-16235463D01*
X12030655Y-16235463D02*
X12049703Y-16235463D01*
X12268750Y-16102130D02*
X12268750Y-16302130D01*
X12268750Y-16111653D02*
X12287798Y-16102130D01*
X12287798Y-16102130D02*
X12325893Y-16102130D01*
X12325893Y-16102130D02*
X12344941Y-16111653D01*
X12344941Y-16111653D02*
X12354465Y-16121177D01*
X12354465Y-16121177D02*
X12363989Y-16140225D01*
X12363989Y-16140225D02*
X12363989Y-16197368D01*
X12363989Y-16197368D02*
X12354465Y-16216415D01*
X12354465Y-16216415D02*
X12344941Y-16225939D01*
X12344941Y-16225939D02*
X12325893Y-16235463D01*
X12325893Y-16235463D02*
X12287798Y-16235463D01*
X12287798Y-16235463D02*
X12268750Y-16225939D01*
X12478274Y-16235463D02*
X12459227Y-16225939D01*
X12459227Y-16225939D02*
X12449703Y-16206891D01*
X12449703Y-16206891D02*
X12449703Y-16035463D01*
X12640179Y-16235463D02*
X12640179Y-16130701D01*
X12640179Y-16130701D02*
X12630655Y-16111653D01*
X12630655Y-16111653D02*
X12611608Y-16102130D01*
X12611608Y-16102130D02*
X12573512Y-16102130D01*
X12573512Y-16102130D02*
X12554465Y-16111653D01*
X12640179Y-16225939D02*
X12621131Y-16235463D01*
X12621131Y-16235463D02*
X12573512Y-16235463D01*
X12573512Y-16235463D02*
X12554465Y-16225939D01*
X12554465Y-16225939D02*
X12544941Y-16206891D01*
X12544941Y-16206891D02*
X12544941Y-16187844D01*
X12544941Y-16187844D02*
X12554465Y-16168796D01*
X12554465Y-16168796D02*
X12573512Y-16159272D01*
X12573512Y-16159272D02*
X12621131Y-16159272D01*
X12621131Y-16159272D02*
X12640179Y-16149749D01*
X12706846Y-16102130D02*
X12783036Y-16102130D01*
X12735417Y-16035463D02*
X12735417Y-16206891D01*
X12735417Y-16206891D02*
X12744941Y-16225939D01*
X12744941Y-16225939D02*
X12763989Y-16235463D01*
X12763989Y-16235463D02*
X12783036Y-16235463D01*
X12925893Y-16225939D02*
X12906846Y-16235463D01*
X12906846Y-16235463D02*
X12868750Y-16235463D01*
X12868750Y-16235463D02*
X12849703Y-16225939D01*
X12849703Y-16225939D02*
X12840179Y-16206891D01*
X12840179Y-16206891D02*
X12840179Y-16130701D01*
X12840179Y-16130701D02*
X12849703Y-16111653D01*
X12849703Y-16111653D02*
X12868750Y-16102130D01*
X12868750Y-16102130D02*
X12906846Y-16102130D01*
X12906846Y-16102130D02*
X12925893Y-16111653D01*
X12925893Y-16111653D02*
X12935417Y-16130701D01*
X12935417Y-16130701D02*
X12935417Y-16149749D01*
X12935417Y-16149749D02*
X12840179Y-16168796D01*
X13106846Y-16235463D02*
X13106846Y-16035463D01*
X13106846Y-16225939D02*
X13087798Y-16235463D01*
X13087798Y-16235463D02*
X13049703Y-16235463D01*
X13049703Y-16235463D02*
X13030655Y-16225939D01*
X13030655Y-16225939D02*
X13021131Y-16216415D01*
X13021131Y-16216415D02*
X13011608Y-16197368D01*
X13011608Y-16197368D02*
X13011608Y-16140225D01*
X13011608Y-16140225D02*
X13021131Y-16121177D01*
X13021131Y-16121177D02*
X13030655Y-16111653D01*
X13030655Y-16111653D02*
X13049703Y-16102130D01*
X13049703Y-16102130D02*
X13087798Y-16102130D01*
X13087798Y-16102130D02*
X13106846Y-16111653D01*
X13183036Y-16311653D02*
X13192560Y-16302130D01*
X13192560Y-16302130D02*
X13211608Y-16273558D01*
X13211608Y-16273558D02*
X13221131Y-16254511D01*
X13221131Y-16254511D02*
X13230655Y-16225939D01*
X13230655Y-16225939D02*
X13240179Y-16178320D01*
X13240179Y-16178320D02*
X13240179Y-16140225D01*
X13240179Y-16140225D02*
X13230655Y-16092606D01*
X13230655Y-16092606D02*
X13221131Y-16064034D01*
X13221131Y-16064034D02*
X13211608Y-16044987D01*
X13211608Y-16044987D02*
X13192560Y-16016415D01*
X13192560Y-16016415D02*
X13183036Y-16006891D01*
D12*
X6427021Y-16407979D02*
G75*
G03*
X6427021Y-16407979I-63500J0D01*
G01*
D10*
X6792559Y-16499463D02*
X6678274Y-16499463D01*
X6735417Y-16499463D02*
X6735417Y-16299463D01*
X6735417Y-16299463D02*
X6716369Y-16328034D01*
X6716369Y-16328034D02*
X6697321Y-16347082D01*
X6697321Y-16347082D02*
X6678274Y-16356606D01*
X6878274Y-16480415D02*
X6887798Y-16489939D01*
X6887798Y-16489939D02*
X6878274Y-16499463D01*
X6878274Y-16499463D02*
X6868750Y-16489939D01*
X6868750Y-16489939D02*
X6878274Y-16480415D01*
X6878274Y-16480415D02*
X6878274Y-16499463D01*
X6963988Y-16318511D02*
X6973512Y-16308987D01*
X6973512Y-16308987D02*
X6992559Y-16299463D01*
X6992559Y-16299463D02*
X7040179Y-16299463D01*
X7040179Y-16299463D02*
X7059226Y-16308987D01*
X7059226Y-16308987D02*
X7068750Y-16318511D01*
X7068750Y-16318511D02*
X7078274Y-16337558D01*
X7078274Y-16337558D02*
X7078274Y-16356606D01*
X7078274Y-16356606D02*
X7068750Y-16385177D01*
X7068750Y-16385177D02*
X6954464Y-16499463D01*
X6954464Y-16499463D02*
X7078274Y-16499463D01*
X7144940Y-16299463D02*
X7278274Y-16299463D01*
X7278274Y-16299463D02*
X7192559Y-16499463D01*
X7392559Y-16299463D02*
X7411607Y-16299463D01*
X7411607Y-16299463D02*
X7430655Y-16308987D01*
X7430655Y-16308987D02*
X7440179Y-16318511D01*
X7440179Y-16318511D02*
X7449702Y-16337558D01*
X7449702Y-16337558D02*
X7459226Y-16375653D01*
X7459226Y-16375653D02*
X7459226Y-16423272D01*
X7459226Y-16423272D02*
X7449702Y-16461368D01*
X7449702Y-16461368D02*
X7440179Y-16480415D01*
X7440179Y-16480415D02*
X7430655Y-16489939D01*
X7430655Y-16489939D02*
X7411607Y-16499463D01*
X7411607Y-16499463D02*
X7392559Y-16499463D01*
X7392559Y-16499463D02*
X7373512Y-16489939D01*
X7373512Y-16489939D02*
X7363988Y-16480415D01*
X7363988Y-16480415D02*
X7354464Y-16461368D01*
X7354464Y-16461368D02*
X7344940Y-16423272D01*
X7344940Y-16423272D02*
X7344940Y-16375653D01*
X7344940Y-16375653D02*
X7354464Y-16337558D01*
X7354464Y-16337558D02*
X7363988Y-16318511D01*
X7363988Y-16318511D02*
X7373512Y-16308987D01*
X7373512Y-16308987D02*
X7392559Y-16299463D01*
X7544940Y-16499463D02*
X7544940Y-16366130D01*
X7544940Y-16385177D02*
X7554464Y-16375653D01*
X7554464Y-16375653D02*
X7573512Y-16366130D01*
X7573512Y-16366130D02*
X7602083Y-16366130D01*
X7602083Y-16366130D02*
X7621131Y-16375653D01*
X7621131Y-16375653D02*
X7630655Y-16394701D01*
X7630655Y-16394701D02*
X7630655Y-16499463D01*
X7630655Y-16394701D02*
X7640179Y-16375653D01*
X7640179Y-16375653D02*
X7659226Y-16366130D01*
X7659226Y-16366130D02*
X7687798Y-16366130D01*
X7687798Y-16366130D02*
X7706845Y-16375653D01*
X7706845Y-16375653D02*
X7716369Y-16394701D01*
X7716369Y-16394701D02*
X7716369Y-16499463D01*
X7811607Y-16499463D02*
X7811607Y-16366130D01*
X7811607Y-16385177D02*
X7821131Y-16375653D01*
X7821131Y-16375653D02*
X7840179Y-16366130D01*
X7840179Y-16366130D02*
X7868750Y-16366130D01*
X7868750Y-16366130D02*
X7887798Y-16375653D01*
X7887798Y-16375653D02*
X7897321Y-16394701D01*
X7897321Y-16394701D02*
X7897321Y-16499463D01*
X7897321Y-16394701D02*
X7906845Y-16375653D01*
X7906845Y-16375653D02*
X7925893Y-16366130D01*
X7925893Y-16366130D02*
X7954464Y-16366130D01*
X7954464Y-16366130D02*
X7973512Y-16375653D01*
X7973512Y-16375653D02*
X7983036Y-16394701D01*
X7983036Y-16394701D02*
X7983036Y-16499463D01*
X8373512Y-16289939D02*
X8202083Y-16547082D01*
X8630655Y-16299463D02*
X8649703Y-16299463D01*
X8649703Y-16299463D02*
X8668750Y-16308987D01*
X8668750Y-16308987D02*
X8678274Y-16318511D01*
X8678274Y-16318511D02*
X8687798Y-16337558D01*
X8687798Y-16337558D02*
X8697322Y-16375653D01*
X8697322Y-16375653D02*
X8697322Y-16423272D01*
X8697322Y-16423272D02*
X8687798Y-16461368D01*
X8687798Y-16461368D02*
X8678274Y-16480415D01*
X8678274Y-16480415D02*
X8668750Y-16489939D01*
X8668750Y-16489939D02*
X8649703Y-16499463D01*
X8649703Y-16499463D02*
X8630655Y-16499463D01*
X8630655Y-16499463D02*
X8611607Y-16489939D01*
X8611607Y-16489939D02*
X8602084Y-16480415D01*
X8602084Y-16480415D02*
X8592560Y-16461368D01*
X8592560Y-16461368D02*
X8583036Y-16423272D01*
X8583036Y-16423272D02*
X8583036Y-16375653D01*
X8583036Y-16375653D02*
X8592560Y-16337558D01*
X8592560Y-16337558D02*
X8602084Y-16318511D01*
X8602084Y-16318511D02*
X8611607Y-16308987D01*
X8611607Y-16308987D02*
X8630655Y-16299463D01*
X8783036Y-16480415D02*
X8792560Y-16489939D01*
X8792560Y-16489939D02*
X8783036Y-16499463D01*
X8783036Y-16499463D02*
X8773512Y-16489939D01*
X8773512Y-16489939D02*
X8783036Y-16480415D01*
X8783036Y-16480415D02*
X8783036Y-16499463D01*
X8916369Y-16299463D02*
X8935417Y-16299463D01*
X8935417Y-16299463D02*
X8954465Y-16308987D01*
X8954465Y-16308987D02*
X8963988Y-16318511D01*
X8963988Y-16318511D02*
X8973512Y-16337558D01*
X8973512Y-16337558D02*
X8983036Y-16375653D01*
X8983036Y-16375653D02*
X8983036Y-16423272D01*
X8983036Y-16423272D02*
X8973512Y-16461368D01*
X8973512Y-16461368D02*
X8963988Y-16480415D01*
X8963988Y-16480415D02*
X8954465Y-16489939D01*
X8954465Y-16489939D02*
X8935417Y-16499463D01*
X8935417Y-16499463D02*
X8916369Y-16499463D01*
X8916369Y-16499463D02*
X8897322Y-16489939D01*
X8897322Y-16489939D02*
X8887798Y-16480415D01*
X8887798Y-16480415D02*
X8878274Y-16461368D01*
X8878274Y-16461368D02*
X8868750Y-16423272D01*
X8868750Y-16423272D02*
X8868750Y-16375653D01*
X8868750Y-16375653D02*
X8878274Y-16337558D01*
X8878274Y-16337558D02*
X8887798Y-16318511D01*
X8887798Y-16318511D02*
X8897322Y-16308987D01*
X8897322Y-16308987D02*
X8916369Y-16299463D01*
X9163988Y-16299463D02*
X9068750Y-16299463D01*
X9068750Y-16299463D02*
X9059226Y-16394701D01*
X9059226Y-16394701D02*
X9068750Y-16385177D01*
X9068750Y-16385177D02*
X9087798Y-16375653D01*
X9087798Y-16375653D02*
X9135417Y-16375653D01*
X9135417Y-16375653D02*
X9154465Y-16385177D01*
X9154465Y-16385177D02*
X9163988Y-16394701D01*
X9163988Y-16394701D02*
X9173512Y-16413749D01*
X9173512Y-16413749D02*
X9173512Y-16461368D01*
X9173512Y-16461368D02*
X9163988Y-16480415D01*
X9163988Y-16480415D02*
X9154465Y-16489939D01*
X9154465Y-16489939D02*
X9135417Y-16499463D01*
X9135417Y-16499463D02*
X9087798Y-16499463D01*
X9087798Y-16499463D02*
X9068750Y-16489939D01*
X9068750Y-16489939D02*
X9059226Y-16480415D01*
X9297322Y-16299463D02*
X9316369Y-16299463D01*
X9316369Y-16299463D02*
X9335417Y-16308987D01*
X9335417Y-16308987D02*
X9344941Y-16318511D01*
X9344941Y-16318511D02*
X9354465Y-16337558D01*
X9354465Y-16337558D02*
X9363988Y-16375653D01*
X9363988Y-16375653D02*
X9363988Y-16423272D01*
X9363988Y-16423272D02*
X9354465Y-16461368D01*
X9354465Y-16461368D02*
X9344941Y-16480415D01*
X9344941Y-16480415D02*
X9335417Y-16489939D01*
X9335417Y-16489939D02*
X9316369Y-16499463D01*
X9316369Y-16499463D02*
X9297322Y-16499463D01*
X9297322Y-16499463D02*
X9278274Y-16489939D01*
X9278274Y-16489939D02*
X9268750Y-16480415D01*
X9268750Y-16480415D02*
X9259226Y-16461368D01*
X9259226Y-16461368D02*
X9249703Y-16423272D01*
X9249703Y-16423272D02*
X9249703Y-16375653D01*
X9249703Y-16375653D02*
X9259226Y-16337558D01*
X9259226Y-16337558D02*
X9268750Y-16318511D01*
X9268750Y-16318511D02*
X9278274Y-16308987D01*
X9278274Y-16308987D02*
X9297322Y-16299463D01*
X9487798Y-16299463D02*
X9506846Y-16299463D01*
X9506846Y-16299463D02*
X9525893Y-16308987D01*
X9525893Y-16308987D02*
X9535417Y-16318511D01*
X9535417Y-16318511D02*
X9544941Y-16337558D01*
X9544941Y-16337558D02*
X9554465Y-16375653D01*
X9554465Y-16375653D02*
X9554465Y-16423272D01*
X9554465Y-16423272D02*
X9544941Y-16461368D01*
X9544941Y-16461368D02*
X9535417Y-16480415D01*
X9535417Y-16480415D02*
X9525893Y-16489939D01*
X9525893Y-16489939D02*
X9506846Y-16499463D01*
X9506846Y-16499463D02*
X9487798Y-16499463D01*
X9487798Y-16499463D02*
X9468750Y-16489939D01*
X9468750Y-16489939D02*
X9459226Y-16480415D01*
X9459226Y-16480415D02*
X9449703Y-16461368D01*
X9449703Y-16461368D02*
X9440179Y-16423272D01*
X9440179Y-16423272D02*
X9440179Y-16375653D01*
X9440179Y-16375653D02*
X9449703Y-16337558D01*
X9449703Y-16337558D02*
X9459226Y-16318511D01*
X9459226Y-16318511D02*
X9468750Y-16308987D01*
X9468750Y-16308987D02*
X9487798Y-16299463D01*
X9630655Y-16299463D02*
X9630655Y-16337558D01*
X9706846Y-16299463D02*
X9706846Y-16337558D01*
X10002084Y-16575653D02*
X9992560Y-16566130D01*
X9992560Y-16566130D02*
X9973512Y-16537558D01*
X9973512Y-16537558D02*
X9963988Y-16518511D01*
X9963988Y-16518511D02*
X9954465Y-16489939D01*
X9954465Y-16489939D02*
X9944941Y-16442320D01*
X9944941Y-16442320D02*
X9944941Y-16404225D01*
X9944941Y-16404225D02*
X9954465Y-16356606D01*
X9954465Y-16356606D02*
X9963988Y-16328034D01*
X9963988Y-16328034D02*
X9973512Y-16308987D01*
X9973512Y-16308987D02*
X9992560Y-16280415D01*
X9992560Y-16280415D02*
X10002084Y-16270891D01*
X10183036Y-16499463D02*
X10068750Y-16499463D01*
X10125893Y-16499463D02*
X10125893Y-16299463D01*
X10125893Y-16299463D02*
X10106846Y-16328034D01*
X10106846Y-16328034D02*
X10087798Y-16347082D01*
X10087798Y-16347082D02*
X10068750Y-16356606D01*
X10297322Y-16385177D02*
X10278274Y-16375653D01*
X10278274Y-16375653D02*
X10268750Y-16366130D01*
X10268750Y-16366130D02*
X10259227Y-16347082D01*
X10259227Y-16347082D02*
X10259227Y-16337558D01*
X10259227Y-16337558D02*
X10268750Y-16318511D01*
X10268750Y-16318511D02*
X10278274Y-16308987D01*
X10278274Y-16308987D02*
X10297322Y-16299463D01*
X10297322Y-16299463D02*
X10335417Y-16299463D01*
X10335417Y-16299463D02*
X10354465Y-16308987D01*
X10354465Y-16308987D02*
X10363988Y-16318511D01*
X10363988Y-16318511D02*
X10373512Y-16337558D01*
X10373512Y-16337558D02*
X10373512Y-16347082D01*
X10373512Y-16347082D02*
X10363988Y-16366130D01*
X10363988Y-16366130D02*
X10354465Y-16375653D01*
X10354465Y-16375653D02*
X10335417Y-16385177D01*
X10335417Y-16385177D02*
X10297322Y-16385177D01*
X10297322Y-16385177D02*
X10278274Y-16394701D01*
X10278274Y-16394701D02*
X10268750Y-16404225D01*
X10268750Y-16404225D02*
X10259227Y-16423272D01*
X10259227Y-16423272D02*
X10259227Y-16461368D01*
X10259227Y-16461368D02*
X10268750Y-16480415D01*
X10268750Y-16480415D02*
X10278274Y-16489939D01*
X10278274Y-16489939D02*
X10297322Y-16499463D01*
X10297322Y-16499463D02*
X10335417Y-16499463D01*
X10335417Y-16499463D02*
X10354465Y-16489939D01*
X10354465Y-16489939D02*
X10363988Y-16480415D01*
X10363988Y-16480415D02*
X10373512Y-16461368D01*
X10373512Y-16461368D02*
X10373512Y-16423272D01*
X10373512Y-16423272D02*
X10363988Y-16404225D01*
X10363988Y-16404225D02*
X10354465Y-16394701D01*
X10354465Y-16394701D02*
X10335417Y-16385177D01*
X10611608Y-16499463D02*
X10611608Y-16299463D01*
X10697322Y-16499463D02*
X10697322Y-16394701D01*
X10697322Y-16394701D02*
X10687798Y-16375653D01*
X10687798Y-16375653D02*
X10668750Y-16366130D01*
X10668750Y-16366130D02*
X10640179Y-16366130D01*
X10640179Y-16366130D02*
X10621131Y-16375653D01*
X10621131Y-16375653D02*
X10611608Y-16385177D01*
X10821131Y-16499463D02*
X10802084Y-16489939D01*
X10802084Y-16489939D02*
X10792560Y-16480415D01*
X10792560Y-16480415D02*
X10783036Y-16461368D01*
X10783036Y-16461368D02*
X10783036Y-16404225D01*
X10783036Y-16404225D02*
X10792560Y-16385177D01*
X10792560Y-16385177D02*
X10802084Y-16375653D01*
X10802084Y-16375653D02*
X10821131Y-16366130D01*
X10821131Y-16366130D02*
X10849703Y-16366130D01*
X10849703Y-16366130D02*
X10868750Y-16375653D01*
X10868750Y-16375653D02*
X10878274Y-16385177D01*
X10878274Y-16385177D02*
X10887798Y-16404225D01*
X10887798Y-16404225D02*
X10887798Y-16461368D01*
X10887798Y-16461368D02*
X10878274Y-16480415D01*
X10878274Y-16480415D02*
X10868750Y-16489939D01*
X10868750Y-16489939D02*
X10849703Y-16499463D01*
X10849703Y-16499463D02*
X10821131Y-16499463D01*
X11002084Y-16499463D02*
X10983036Y-16489939D01*
X10983036Y-16489939D02*
X10973512Y-16470891D01*
X10973512Y-16470891D02*
X10973512Y-16299463D01*
X11154465Y-16489939D02*
X11135417Y-16499463D01*
X11135417Y-16499463D02*
X11097322Y-16499463D01*
X11097322Y-16499463D02*
X11078274Y-16489939D01*
X11078274Y-16489939D02*
X11068750Y-16470891D01*
X11068750Y-16470891D02*
X11068750Y-16394701D01*
X11068750Y-16394701D02*
X11078274Y-16375653D01*
X11078274Y-16375653D02*
X11097322Y-16366130D01*
X11097322Y-16366130D02*
X11135417Y-16366130D01*
X11135417Y-16366130D02*
X11154465Y-16375653D01*
X11154465Y-16375653D02*
X11163989Y-16394701D01*
X11163989Y-16394701D02*
X11163989Y-16413749D01*
X11163989Y-16413749D02*
X11068750Y-16432796D01*
X11240179Y-16489939D02*
X11259227Y-16499463D01*
X11259227Y-16499463D02*
X11297322Y-16499463D01*
X11297322Y-16499463D02*
X11316369Y-16489939D01*
X11316369Y-16489939D02*
X11325893Y-16470891D01*
X11325893Y-16470891D02*
X11325893Y-16461368D01*
X11325893Y-16461368D02*
X11316369Y-16442320D01*
X11316369Y-16442320D02*
X11297322Y-16432796D01*
X11297322Y-16432796D02*
X11268750Y-16432796D01*
X11268750Y-16432796D02*
X11249703Y-16423272D01*
X11249703Y-16423272D02*
X11240179Y-16404225D01*
X11240179Y-16404225D02*
X11240179Y-16394701D01*
X11240179Y-16394701D02*
X11249703Y-16375653D01*
X11249703Y-16375653D02*
X11268750Y-16366130D01*
X11268750Y-16366130D02*
X11297322Y-16366130D01*
X11297322Y-16366130D02*
X11316369Y-16375653D01*
X11392560Y-16575653D02*
X11402084Y-16566130D01*
X11402084Y-16566130D02*
X11421131Y-16537558D01*
X11421131Y-16537558D02*
X11430655Y-16518511D01*
X11430655Y-16518511D02*
X11440179Y-16489939D01*
X11440179Y-16489939D02*
X11449703Y-16442320D01*
X11449703Y-16442320D02*
X11449703Y-16404225D01*
X11449703Y-16404225D02*
X11440179Y-16356606D01*
X11440179Y-16356606D02*
X11430655Y-16328034D01*
X11430655Y-16328034D02*
X11421131Y-16308987D01*
X11421131Y-16308987D02*
X11402084Y-16280415D01*
X11402084Y-16280415D02*
X11392560Y-16270891D01*
X11754465Y-16575653D02*
X11744941Y-16566130D01*
X11744941Y-16566130D02*
X11725893Y-16537558D01*
X11725893Y-16537558D02*
X11716369Y-16518511D01*
X11716369Y-16518511D02*
X11706846Y-16489939D01*
X11706846Y-16489939D02*
X11697322Y-16442320D01*
X11697322Y-16442320D02*
X11697322Y-16404225D01*
X11697322Y-16404225D02*
X11706846Y-16356606D01*
X11706846Y-16356606D02*
X11716369Y-16328034D01*
X11716369Y-16328034D02*
X11725893Y-16308987D01*
X11725893Y-16308987D02*
X11744941Y-16280415D01*
X11744941Y-16280415D02*
X11754465Y-16270891D01*
X11830655Y-16366130D02*
X11830655Y-16499463D01*
X11830655Y-16385177D02*
X11840179Y-16375653D01*
X11840179Y-16375653D02*
X11859227Y-16366130D01*
X11859227Y-16366130D02*
X11887798Y-16366130D01*
X11887798Y-16366130D02*
X11906846Y-16375653D01*
X11906846Y-16375653D02*
X11916369Y-16394701D01*
X11916369Y-16394701D02*
X11916369Y-16499463D01*
X12040179Y-16499463D02*
X12021131Y-16489939D01*
X12021131Y-16489939D02*
X12011608Y-16480415D01*
X12011608Y-16480415D02*
X12002084Y-16461368D01*
X12002084Y-16461368D02*
X12002084Y-16404225D01*
X12002084Y-16404225D02*
X12011608Y-16385177D01*
X12011608Y-16385177D02*
X12021131Y-16375653D01*
X12021131Y-16375653D02*
X12040179Y-16366130D01*
X12040179Y-16366130D02*
X12068750Y-16366130D01*
X12068750Y-16366130D02*
X12087798Y-16375653D01*
X12087798Y-16375653D02*
X12097322Y-16385177D01*
X12097322Y-16385177D02*
X12106846Y-16404225D01*
X12106846Y-16404225D02*
X12106846Y-16461368D01*
X12106846Y-16461368D02*
X12097322Y-16480415D01*
X12097322Y-16480415D02*
X12087798Y-16489939D01*
X12087798Y-16489939D02*
X12068750Y-16499463D01*
X12068750Y-16499463D02*
X12040179Y-16499463D01*
X12163989Y-16366130D02*
X12240179Y-16366130D01*
X12192560Y-16299463D02*
X12192560Y-16470891D01*
X12192560Y-16470891D02*
X12202084Y-16489939D01*
X12202084Y-16489939D02*
X12221131Y-16499463D01*
X12221131Y-16499463D02*
X12240179Y-16499463D01*
X12459227Y-16366130D02*
X12459227Y-16566130D01*
X12459227Y-16375653D02*
X12478274Y-16366130D01*
X12478274Y-16366130D02*
X12516370Y-16366130D01*
X12516370Y-16366130D02*
X12535417Y-16375653D01*
X12535417Y-16375653D02*
X12544941Y-16385177D01*
X12544941Y-16385177D02*
X12554465Y-16404225D01*
X12554465Y-16404225D02*
X12554465Y-16461368D01*
X12554465Y-16461368D02*
X12544941Y-16480415D01*
X12544941Y-16480415D02*
X12535417Y-16489939D01*
X12535417Y-16489939D02*
X12516370Y-16499463D01*
X12516370Y-16499463D02*
X12478274Y-16499463D01*
X12478274Y-16499463D02*
X12459227Y-16489939D01*
X12668750Y-16499463D02*
X12649703Y-16489939D01*
X12649703Y-16489939D02*
X12640179Y-16470891D01*
X12640179Y-16470891D02*
X12640179Y-16299463D01*
X12830655Y-16499463D02*
X12830655Y-16394701D01*
X12830655Y-16394701D02*
X12821131Y-16375653D01*
X12821131Y-16375653D02*
X12802084Y-16366130D01*
X12802084Y-16366130D02*
X12763989Y-16366130D01*
X12763989Y-16366130D02*
X12744941Y-16375653D01*
X12830655Y-16489939D02*
X12811608Y-16499463D01*
X12811608Y-16499463D02*
X12763989Y-16499463D01*
X12763989Y-16499463D02*
X12744941Y-16489939D01*
X12744941Y-16489939D02*
X12735417Y-16470891D01*
X12735417Y-16470891D02*
X12735417Y-16451844D01*
X12735417Y-16451844D02*
X12744941Y-16432796D01*
X12744941Y-16432796D02*
X12763989Y-16423272D01*
X12763989Y-16423272D02*
X12811608Y-16423272D01*
X12811608Y-16423272D02*
X12830655Y-16413749D01*
X12897322Y-16366130D02*
X12973512Y-16366130D01*
X12925893Y-16299463D02*
X12925893Y-16470891D01*
X12925893Y-16470891D02*
X12935417Y-16489939D01*
X12935417Y-16489939D02*
X12954465Y-16499463D01*
X12954465Y-16499463D02*
X12973512Y-16499463D01*
X13116370Y-16489939D02*
X13097322Y-16499463D01*
X13097322Y-16499463D02*
X13059227Y-16499463D01*
X13059227Y-16499463D02*
X13040179Y-16489939D01*
X13040179Y-16489939D02*
X13030655Y-16470891D01*
X13030655Y-16470891D02*
X13030655Y-16394701D01*
X13030655Y-16394701D02*
X13040179Y-16375653D01*
X13040179Y-16375653D02*
X13059227Y-16366130D01*
X13059227Y-16366130D02*
X13097322Y-16366130D01*
X13097322Y-16366130D02*
X13116370Y-16375653D01*
X13116370Y-16375653D02*
X13125893Y-16394701D01*
X13125893Y-16394701D02*
X13125893Y-16413749D01*
X13125893Y-16413749D02*
X13030655Y-16432796D01*
X13297322Y-16499463D02*
X13297322Y-16299463D01*
X13297322Y-16489939D02*
X13278274Y-16499463D01*
X13278274Y-16499463D02*
X13240179Y-16499463D01*
X13240179Y-16499463D02*
X13221131Y-16489939D01*
X13221131Y-16489939D02*
X13211608Y-16480415D01*
X13211608Y-16480415D02*
X13202084Y-16461368D01*
X13202084Y-16461368D02*
X13202084Y-16404225D01*
X13202084Y-16404225D02*
X13211608Y-16385177D01*
X13211608Y-16385177D02*
X13221131Y-16375653D01*
X13221131Y-16375653D02*
X13240179Y-16366130D01*
X13240179Y-16366130D02*
X13278274Y-16366130D01*
X13278274Y-16366130D02*
X13297322Y-16375653D01*
X13373512Y-16575653D02*
X13383036Y-16566130D01*
X13383036Y-16566130D02*
X13402084Y-16537558D01*
X13402084Y-16537558D02*
X13411608Y-16518511D01*
X13411608Y-16518511D02*
X13421131Y-16489939D01*
X13421131Y-16489939D02*
X13430655Y-16442320D01*
X13430655Y-16442320D02*
X13430655Y-16404225D01*
X13430655Y-16404225D02*
X13421131Y-16356606D01*
X13421131Y-16356606D02*
X13411608Y-16328034D01*
X13411608Y-16328034D02*
X13402084Y-16308987D01*
X13402084Y-16308987D02*
X13383036Y-16280415D01*
X13383036Y-16280415D02*
X13373512Y-16270891D01*
D13*
X6361021Y-16605979D02*
X6361021Y-16737979D01*
X6295021Y-16671979D02*
X6427021Y-16671979D01*
D10*
X6792559Y-16763463D02*
X6678274Y-16763463D01*
X6735417Y-16763463D02*
X6735417Y-16563463D01*
X6735417Y-16563463D02*
X6716369Y-16592034D01*
X6716369Y-16592034D02*
X6697321Y-16611082D01*
X6697321Y-16611082D02*
X6678274Y-16620606D01*
X6878274Y-16744415D02*
X6887798Y-16753939D01*
X6887798Y-16753939D02*
X6878274Y-16763463D01*
X6878274Y-16763463D02*
X6868750Y-16753939D01*
X6868750Y-16753939D02*
X6878274Y-16744415D01*
X6878274Y-16744415D02*
X6878274Y-16763463D01*
X6954464Y-16563463D02*
X7078274Y-16563463D01*
X7078274Y-16563463D02*
X7011607Y-16639653D01*
X7011607Y-16639653D02*
X7040179Y-16639653D01*
X7040179Y-16639653D02*
X7059226Y-16649177D01*
X7059226Y-16649177D02*
X7068750Y-16658701D01*
X7068750Y-16658701D02*
X7078274Y-16677749D01*
X7078274Y-16677749D02*
X7078274Y-16725368D01*
X7078274Y-16725368D02*
X7068750Y-16744415D01*
X7068750Y-16744415D02*
X7059226Y-16753939D01*
X7059226Y-16753939D02*
X7040179Y-16763463D01*
X7040179Y-16763463D02*
X6983036Y-16763463D01*
X6983036Y-16763463D02*
X6963988Y-16753939D01*
X6963988Y-16753939D02*
X6954464Y-16744415D01*
X7154464Y-16582511D02*
X7163988Y-16572987D01*
X7163988Y-16572987D02*
X7183036Y-16563463D01*
X7183036Y-16563463D02*
X7230655Y-16563463D01*
X7230655Y-16563463D02*
X7249702Y-16572987D01*
X7249702Y-16572987D02*
X7259226Y-16582511D01*
X7259226Y-16582511D02*
X7268750Y-16601558D01*
X7268750Y-16601558D02*
X7268750Y-16620606D01*
X7268750Y-16620606D02*
X7259226Y-16649177D01*
X7259226Y-16649177D02*
X7144940Y-16763463D01*
X7144940Y-16763463D02*
X7268750Y-16763463D01*
X7392559Y-16563463D02*
X7411607Y-16563463D01*
X7411607Y-16563463D02*
X7430655Y-16572987D01*
X7430655Y-16572987D02*
X7440179Y-16582511D01*
X7440179Y-16582511D02*
X7449702Y-16601558D01*
X7449702Y-16601558D02*
X7459226Y-16639653D01*
X7459226Y-16639653D02*
X7459226Y-16687272D01*
X7459226Y-16687272D02*
X7449702Y-16725368D01*
X7449702Y-16725368D02*
X7440179Y-16744415D01*
X7440179Y-16744415D02*
X7430655Y-16753939D01*
X7430655Y-16753939D02*
X7411607Y-16763463D01*
X7411607Y-16763463D02*
X7392559Y-16763463D01*
X7392559Y-16763463D02*
X7373512Y-16753939D01*
X7373512Y-16753939D02*
X7363988Y-16744415D01*
X7363988Y-16744415D02*
X7354464Y-16725368D01*
X7354464Y-16725368D02*
X7344940Y-16687272D01*
X7344940Y-16687272D02*
X7344940Y-16639653D01*
X7344940Y-16639653D02*
X7354464Y-16601558D01*
X7354464Y-16601558D02*
X7363988Y-16582511D01*
X7363988Y-16582511D02*
X7373512Y-16572987D01*
X7373512Y-16572987D02*
X7392559Y-16563463D01*
X7544940Y-16763463D02*
X7544940Y-16630130D01*
X7544940Y-16649177D02*
X7554464Y-16639653D01*
X7554464Y-16639653D02*
X7573512Y-16630130D01*
X7573512Y-16630130D02*
X7602083Y-16630130D01*
X7602083Y-16630130D02*
X7621131Y-16639653D01*
X7621131Y-16639653D02*
X7630655Y-16658701D01*
X7630655Y-16658701D02*
X7630655Y-16763463D01*
X7630655Y-16658701D02*
X7640179Y-16639653D01*
X7640179Y-16639653D02*
X7659226Y-16630130D01*
X7659226Y-16630130D02*
X7687798Y-16630130D01*
X7687798Y-16630130D02*
X7706845Y-16639653D01*
X7706845Y-16639653D02*
X7716369Y-16658701D01*
X7716369Y-16658701D02*
X7716369Y-16763463D01*
X7811607Y-16763463D02*
X7811607Y-16630130D01*
X7811607Y-16649177D02*
X7821131Y-16639653D01*
X7821131Y-16639653D02*
X7840179Y-16630130D01*
X7840179Y-16630130D02*
X7868750Y-16630130D01*
X7868750Y-16630130D02*
X7887798Y-16639653D01*
X7887798Y-16639653D02*
X7897321Y-16658701D01*
X7897321Y-16658701D02*
X7897321Y-16763463D01*
X7897321Y-16658701D02*
X7906845Y-16639653D01*
X7906845Y-16639653D02*
X7925893Y-16630130D01*
X7925893Y-16630130D02*
X7954464Y-16630130D01*
X7954464Y-16630130D02*
X7973512Y-16639653D01*
X7973512Y-16639653D02*
X7983036Y-16658701D01*
X7983036Y-16658701D02*
X7983036Y-16763463D01*
X8373512Y-16553939D02*
X8202083Y-16811082D01*
X8630655Y-16563463D02*
X8649703Y-16563463D01*
X8649703Y-16563463D02*
X8668750Y-16572987D01*
X8668750Y-16572987D02*
X8678274Y-16582511D01*
X8678274Y-16582511D02*
X8687798Y-16601558D01*
X8687798Y-16601558D02*
X8697322Y-16639653D01*
X8697322Y-16639653D02*
X8697322Y-16687272D01*
X8697322Y-16687272D02*
X8687798Y-16725368D01*
X8687798Y-16725368D02*
X8678274Y-16744415D01*
X8678274Y-16744415D02*
X8668750Y-16753939D01*
X8668750Y-16753939D02*
X8649703Y-16763463D01*
X8649703Y-16763463D02*
X8630655Y-16763463D01*
X8630655Y-16763463D02*
X8611607Y-16753939D01*
X8611607Y-16753939D02*
X8602084Y-16744415D01*
X8602084Y-16744415D02*
X8592560Y-16725368D01*
X8592560Y-16725368D02*
X8583036Y-16687272D01*
X8583036Y-16687272D02*
X8583036Y-16639653D01*
X8583036Y-16639653D02*
X8592560Y-16601558D01*
X8592560Y-16601558D02*
X8602084Y-16582511D01*
X8602084Y-16582511D02*
X8611607Y-16572987D01*
X8611607Y-16572987D02*
X8630655Y-16563463D01*
X8783036Y-16744415D02*
X8792560Y-16753939D01*
X8792560Y-16753939D02*
X8783036Y-16763463D01*
X8783036Y-16763463D02*
X8773512Y-16753939D01*
X8773512Y-16753939D02*
X8783036Y-16744415D01*
X8783036Y-16744415D02*
X8783036Y-16763463D01*
X8916369Y-16563463D02*
X8935417Y-16563463D01*
X8935417Y-16563463D02*
X8954465Y-16572987D01*
X8954465Y-16572987D02*
X8963988Y-16582511D01*
X8963988Y-16582511D02*
X8973512Y-16601558D01*
X8973512Y-16601558D02*
X8983036Y-16639653D01*
X8983036Y-16639653D02*
X8983036Y-16687272D01*
X8983036Y-16687272D02*
X8973512Y-16725368D01*
X8973512Y-16725368D02*
X8963988Y-16744415D01*
X8963988Y-16744415D02*
X8954465Y-16753939D01*
X8954465Y-16753939D02*
X8935417Y-16763463D01*
X8935417Y-16763463D02*
X8916369Y-16763463D01*
X8916369Y-16763463D02*
X8897322Y-16753939D01*
X8897322Y-16753939D02*
X8887798Y-16744415D01*
X8887798Y-16744415D02*
X8878274Y-16725368D01*
X8878274Y-16725368D02*
X8868750Y-16687272D01*
X8868750Y-16687272D02*
X8868750Y-16639653D01*
X8868750Y-16639653D02*
X8878274Y-16601558D01*
X8878274Y-16601558D02*
X8887798Y-16582511D01*
X8887798Y-16582511D02*
X8897322Y-16572987D01*
X8897322Y-16572987D02*
X8916369Y-16563463D01*
X9163988Y-16563463D02*
X9068750Y-16563463D01*
X9068750Y-16563463D02*
X9059226Y-16658701D01*
X9059226Y-16658701D02*
X9068750Y-16649177D01*
X9068750Y-16649177D02*
X9087798Y-16639653D01*
X9087798Y-16639653D02*
X9135417Y-16639653D01*
X9135417Y-16639653D02*
X9154465Y-16649177D01*
X9154465Y-16649177D02*
X9163988Y-16658701D01*
X9163988Y-16658701D02*
X9173512Y-16677749D01*
X9173512Y-16677749D02*
X9173512Y-16725368D01*
X9173512Y-16725368D02*
X9163988Y-16744415D01*
X9163988Y-16744415D02*
X9154465Y-16753939D01*
X9154465Y-16753939D02*
X9135417Y-16763463D01*
X9135417Y-16763463D02*
X9087798Y-16763463D01*
X9087798Y-16763463D02*
X9068750Y-16753939D01*
X9068750Y-16753939D02*
X9059226Y-16744415D01*
X9249703Y-16582511D02*
X9259226Y-16572987D01*
X9259226Y-16572987D02*
X9278274Y-16563463D01*
X9278274Y-16563463D02*
X9325893Y-16563463D01*
X9325893Y-16563463D02*
X9344941Y-16572987D01*
X9344941Y-16572987D02*
X9354465Y-16582511D01*
X9354465Y-16582511D02*
X9363988Y-16601558D01*
X9363988Y-16601558D02*
X9363988Y-16620606D01*
X9363988Y-16620606D02*
X9354465Y-16649177D01*
X9354465Y-16649177D02*
X9240179Y-16763463D01*
X9240179Y-16763463D02*
X9363988Y-16763463D01*
X9487798Y-16563463D02*
X9506846Y-16563463D01*
X9506846Y-16563463D02*
X9525893Y-16572987D01*
X9525893Y-16572987D02*
X9535417Y-16582511D01*
X9535417Y-16582511D02*
X9544941Y-16601558D01*
X9544941Y-16601558D02*
X9554465Y-16639653D01*
X9554465Y-16639653D02*
X9554465Y-16687272D01*
X9554465Y-16687272D02*
X9544941Y-16725368D01*
X9544941Y-16725368D02*
X9535417Y-16744415D01*
X9535417Y-16744415D02*
X9525893Y-16753939D01*
X9525893Y-16753939D02*
X9506846Y-16763463D01*
X9506846Y-16763463D02*
X9487798Y-16763463D01*
X9487798Y-16763463D02*
X9468750Y-16753939D01*
X9468750Y-16753939D02*
X9459226Y-16744415D01*
X9459226Y-16744415D02*
X9449703Y-16725368D01*
X9449703Y-16725368D02*
X9440179Y-16687272D01*
X9440179Y-16687272D02*
X9440179Y-16639653D01*
X9440179Y-16639653D02*
X9449703Y-16601558D01*
X9449703Y-16601558D02*
X9459226Y-16582511D01*
X9459226Y-16582511D02*
X9468750Y-16572987D01*
X9468750Y-16572987D02*
X9487798Y-16563463D01*
X9630655Y-16563463D02*
X9630655Y-16601558D01*
X9706846Y-16563463D02*
X9706846Y-16601558D01*
X10002084Y-16839653D02*
X9992560Y-16830130D01*
X9992560Y-16830130D02*
X9973512Y-16801558D01*
X9973512Y-16801558D02*
X9963988Y-16782511D01*
X9963988Y-16782511D02*
X9954465Y-16753939D01*
X9954465Y-16753939D02*
X9944941Y-16706320D01*
X9944941Y-16706320D02*
X9944941Y-16668225D01*
X9944941Y-16668225D02*
X9954465Y-16620606D01*
X9954465Y-16620606D02*
X9963988Y-16592034D01*
X9963988Y-16592034D02*
X9973512Y-16572987D01*
X9973512Y-16572987D02*
X9992560Y-16544415D01*
X9992560Y-16544415D02*
X10002084Y-16534891D01*
X10163988Y-16630130D02*
X10163988Y-16763463D01*
X10116369Y-16553939D02*
X10068750Y-16696796D01*
X10068750Y-16696796D02*
X10192560Y-16696796D01*
X10421131Y-16763463D02*
X10421131Y-16563463D01*
X10506846Y-16763463D02*
X10506846Y-16658701D01*
X10506846Y-16658701D02*
X10497322Y-16639653D01*
X10497322Y-16639653D02*
X10478274Y-16630130D01*
X10478274Y-16630130D02*
X10449703Y-16630130D01*
X10449703Y-16630130D02*
X10430655Y-16639653D01*
X10430655Y-16639653D02*
X10421131Y-16649177D01*
X10630655Y-16763463D02*
X10611608Y-16753939D01*
X10611608Y-16753939D02*
X10602084Y-16744415D01*
X10602084Y-16744415D02*
X10592560Y-16725368D01*
X10592560Y-16725368D02*
X10592560Y-16668225D01*
X10592560Y-16668225D02*
X10602084Y-16649177D01*
X10602084Y-16649177D02*
X10611608Y-16639653D01*
X10611608Y-16639653D02*
X10630655Y-16630130D01*
X10630655Y-16630130D02*
X10659227Y-16630130D01*
X10659227Y-16630130D02*
X10678274Y-16639653D01*
X10678274Y-16639653D02*
X10687798Y-16649177D01*
X10687798Y-16649177D02*
X10697322Y-16668225D01*
X10697322Y-16668225D02*
X10697322Y-16725368D01*
X10697322Y-16725368D02*
X10687798Y-16744415D01*
X10687798Y-16744415D02*
X10678274Y-16753939D01*
X10678274Y-16753939D02*
X10659227Y-16763463D01*
X10659227Y-16763463D02*
X10630655Y-16763463D01*
X10811608Y-16763463D02*
X10792560Y-16753939D01*
X10792560Y-16753939D02*
X10783036Y-16734891D01*
X10783036Y-16734891D02*
X10783036Y-16563463D01*
X10963989Y-16753939D02*
X10944941Y-16763463D01*
X10944941Y-16763463D02*
X10906846Y-16763463D01*
X10906846Y-16763463D02*
X10887798Y-16753939D01*
X10887798Y-16753939D02*
X10878274Y-16734891D01*
X10878274Y-16734891D02*
X10878274Y-16658701D01*
X10878274Y-16658701D02*
X10887798Y-16639653D01*
X10887798Y-16639653D02*
X10906846Y-16630130D01*
X10906846Y-16630130D02*
X10944941Y-16630130D01*
X10944941Y-16630130D02*
X10963989Y-16639653D01*
X10963989Y-16639653D02*
X10973512Y-16658701D01*
X10973512Y-16658701D02*
X10973512Y-16677749D01*
X10973512Y-16677749D02*
X10878274Y-16696796D01*
X11049703Y-16753939D02*
X11068750Y-16763463D01*
X11068750Y-16763463D02*
X11106846Y-16763463D01*
X11106846Y-16763463D02*
X11125893Y-16753939D01*
X11125893Y-16753939D02*
X11135417Y-16734891D01*
X11135417Y-16734891D02*
X11135417Y-16725368D01*
X11135417Y-16725368D02*
X11125893Y-16706320D01*
X11125893Y-16706320D02*
X11106846Y-16696796D01*
X11106846Y-16696796D02*
X11078274Y-16696796D01*
X11078274Y-16696796D02*
X11059227Y-16687272D01*
X11059227Y-16687272D02*
X11049703Y-16668225D01*
X11049703Y-16668225D02*
X11049703Y-16658701D01*
X11049703Y-16658701D02*
X11059227Y-16639653D01*
X11059227Y-16639653D02*
X11078274Y-16630130D01*
X11078274Y-16630130D02*
X11106846Y-16630130D01*
X11106846Y-16630130D02*
X11125893Y-16639653D01*
X11202084Y-16839653D02*
X11211608Y-16830130D01*
X11211608Y-16830130D02*
X11230655Y-16801558D01*
X11230655Y-16801558D02*
X11240179Y-16782511D01*
X11240179Y-16782511D02*
X11249703Y-16753939D01*
X11249703Y-16753939D02*
X11259227Y-16706320D01*
X11259227Y-16706320D02*
X11259227Y-16668225D01*
X11259227Y-16668225D02*
X11249703Y-16620606D01*
X11249703Y-16620606D02*
X11240179Y-16592034D01*
X11240179Y-16592034D02*
X11230655Y-16572987D01*
X11230655Y-16572987D02*
X11211608Y-16544415D01*
X11211608Y-16544415D02*
X11202084Y-16534891D01*
X11563989Y-16839653D02*
X11554465Y-16830130D01*
X11554465Y-16830130D02*
X11535417Y-16801558D01*
X11535417Y-16801558D02*
X11525893Y-16782511D01*
X11525893Y-16782511D02*
X11516369Y-16753939D01*
X11516369Y-16753939D02*
X11506846Y-16706320D01*
X11506846Y-16706320D02*
X11506846Y-16668225D01*
X11506846Y-16668225D02*
X11516369Y-16620606D01*
X11516369Y-16620606D02*
X11525893Y-16592034D01*
X11525893Y-16592034D02*
X11535417Y-16572987D01*
X11535417Y-16572987D02*
X11554465Y-16544415D01*
X11554465Y-16544415D02*
X11563989Y-16534891D01*
X11640179Y-16630130D02*
X11640179Y-16763463D01*
X11640179Y-16649177D02*
X11649703Y-16639653D01*
X11649703Y-16639653D02*
X11668750Y-16630130D01*
X11668750Y-16630130D02*
X11697322Y-16630130D01*
X11697322Y-16630130D02*
X11716369Y-16639653D01*
X11716369Y-16639653D02*
X11725893Y-16658701D01*
X11725893Y-16658701D02*
X11725893Y-16763463D01*
X11849703Y-16763463D02*
X11830655Y-16753939D01*
X11830655Y-16753939D02*
X11821131Y-16744415D01*
X11821131Y-16744415D02*
X11811608Y-16725368D01*
X11811608Y-16725368D02*
X11811608Y-16668225D01*
X11811608Y-16668225D02*
X11821131Y-16649177D01*
X11821131Y-16649177D02*
X11830655Y-16639653D01*
X11830655Y-16639653D02*
X11849703Y-16630130D01*
X11849703Y-16630130D02*
X11878274Y-16630130D01*
X11878274Y-16630130D02*
X11897322Y-16639653D01*
X11897322Y-16639653D02*
X11906846Y-16649177D01*
X11906846Y-16649177D02*
X11916369Y-16668225D01*
X11916369Y-16668225D02*
X11916369Y-16725368D01*
X11916369Y-16725368D02*
X11906846Y-16744415D01*
X11906846Y-16744415D02*
X11897322Y-16753939D01*
X11897322Y-16753939D02*
X11878274Y-16763463D01*
X11878274Y-16763463D02*
X11849703Y-16763463D01*
X11973512Y-16630130D02*
X12049703Y-16630130D01*
X12002084Y-16563463D02*
X12002084Y-16734891D01*
X12002084Y-16734891D02*
X12011608Y-16753939D01*
X12011608Y-16753939D02*
X12030655Y-16763463D01*
X12030655Y-16763463D02*
X12049703Y-16763463D01*
X12268750Y-16630130D02*
X12268750Y-16830130D01*
X12268750Y-16639653D02*
X12287798Y-16630130D01*
X12287798Y-16630130D02*
X12325893Y-16630130D01*
X12325893Y-16630130D02*
X12344941Y-16639653D01*
X12344941Y-16639653D02*
X12354465Y-16649177D01*
X12354465Y-16649177D02*
X12363989Y-16668225D01*
X12363989Y-16668225D02*
X12363989Y-16725368D01*
X12363989Y-16725368D02*
X12354465Y-16744415D01*
X12354465Y-16744415D02*
X12344941Y-16753939D01*
X12344941Y-16753939D02*
X12325893Y-16763463D01*
X12325893Y-16763463D02*
X12287798Y-16763463D01*
X12287798Y-16763463D02*
X12268750Y-16753939D01*
X12478274Y-16763463D02*
X12459227Y-16753939D01*
X12459227Y-16753939D02*
X12449703Y-16734891D01*
X12449703Y-16734891D02*
X12449703Y-16563463D01*
X12640179Y-16763463D02*
X12640179Y-16658701D01*
X12640179Y-16658701D02*
X12630655Y-16639653D01*
X12630655Y-16639653D02*
X12611608Y-16630130D01*
X12611608Y-16630130D02*
X12573512Y-16630130D01*
X12573512Y-16630130D02*
X12554465Y-16639653D01*
X12640179Y-16753939D02*
X12621131Y-16763463D01*
X12621131Y-16763463D02*
X12573512Y-16763463D01*
X12573512Y-16763463D02*
X12554465Y-16753939D01*
X12554465Y-16753939D02*
X12544941Y-16734891D01*
X12544941Y-16734891D02*
X12544941Y-16715844D01*
X12544941Y-16715844D02*
X12554465Y-16696796D01*
X12554465Y-16696796D02*
X12573512Y-16687272D01*
X12573512Y-16687272D02*
X12621131Y-16687272D01*
X12621131Y-16687272D02*
X12640179Y-16677749D01*
X12706846Y-16630130D02*
X12783036Y-16630130D01*
X12735417Y-16563463D02*
X12735417Y-16734891D01*
X12735417Y-16734891D02*
X12744941Y-16753939D01*
X12744941Y-16753939D02*
X12763989Y-16763463D01*
X12763989Y-16763463D02*
X12783036Y-16763463D01*
X12925893Y-16753939D02*
X12906846Y-16763463D01*
X12906846Y-16763463D02*
X12868750Y-16763463D01*
X12868750Y-16763463D02*
X12849703Y-16753939D01*
X12849703Y-16753939D02*
X12840179Y-16734891D01*
X12840179Y-16734891D02*
X12840179Y-16658701D01*
X12840179Y-16658701D02*
X12849703Y-16639653D01*
X12849703Y-16639653D02*
X12868750Y-16630130D01*
X12868750Y-16630130D02*
X12906846Y-16630130D01*
X12906846Y-16630130D02*
X12925893Y-16639653D01*
X12925893Y-16639653D02*
X12935417Y-16658701D01*
X12935417Y-16658701D02*
X12935417Y-16677749D01*
X12935417Y-16677749D02*
X12840179Y-16696796D01*
X13106846Y-16763463D02*
X13106846Y-16563463D01*
X13106846Y-16753939D02*
X13087798Y-16763463D01*
X13087798Y-16763463D02*
X13049703Y-16763463D01*
X13049703Y-16763463D02*
X13030655Y-16753939D01*
X13030655Y-16753939D02*
X13021131Y-16744415D01*
X13021131Y-16744415D02*
X13011608Y-16725368D01*
X13011608Y-16725368D02*
X13011608Y-16668225D01*
X13011608Y-16668225D02*
X13021131Y-16649177D01*
X13021131Y-16649177D02*
X13030655Y-16639653D01*
X13030655Y-16639653D02*
X13049703Y-16630130D01*
X13049703Y-16630130D02*
X13087798Y-16630130D01*
X13087798Y-16630130D02*
X13106846Y-16639653D01*
X13183036Y-16839653D02*
X13192560Y-16830130D01*
X13192560Y-16830130D02*
X13211608Y-16801558D01*
X13211608Y-16801558D02*
X13221131Y-16782511D01*
X13221131Y-16782511D02*
X13230655Y-16753939D01*
X13230655Y-16753939D02*
X13240179Y-16706320D01*
X13240179Y-16706320D02*
X13240179Y-16668225D01*
X13240179Y-16668225D02*
X13230655Y-16620606D01*
X13230655Y-16620606D02*
X13221131Y-16592034D01*
X13221131Y-16592034D02*
X13211608Y-16572987D01*
X13211608Y-16572987D02*
X13192560Y-16544415D01*
X13192560Y-16544415D02*
X13183036Y-16534891D01*
X6397732Y-17006691D02*
X6397732Y-16865268D01*
X6256309Y-16865268D01*
X6256309Y-17006691D01*
X6397732Y-17006691D01*
X6668750Y-16827463D02*
X6792559Y-16827463D01*
X6792559Y-16827463D02*
X6725893Y-16903653D01*
X6725893Y-16903653D02*
X6754464Y-16903653D01*
X6754464Y-16903653D02*
X6773512Y-16913177D01*
X6773512Y-16913177D02*
X6783036Y-16922701D01*
X6783036Y-16922701D02*
X6792559Y-16941749D01*
X6792559Y-16941749D02*
X6792559Y-16989368D01*
X6792559Y-16989368D02*
X6783036Y-17008415D01*
X6783036Y-17008415D02*
X6773512Y-17017939D01*
X6773512Y-17017939D02*
X6754464Y-17027463D01*
X6754464Y-17027463D02*
X6697321Y-17027463D01*
X6697321Y-17027463D02*
X6678274Y-17017939D01*
X6678274Y-17017939D02*
X6668750Y-17008415D01*
X6878274Y-17008415D02*
X6887798Y-17017939D01*
X6887798Y-17017939D02*
X6878274Y-17027463D01*
X6878274Y-17027463D02*
X6868750Y-17017939D01*
X6868750Y-17017939D02*
X6878274Y-17008415D01*
X6878274Y-17008415D02*
X6878274Y-17027463D01*
X6963988Y-16846511D02*
X6973512Y-16836987D01*
X6973512Y-16836987D02*
X6992559Y-16827463D01*
X6992559Y-16827463D02*
X7040179Y-16827463D01*
X7040179Y-16827463D02*
X7059226Y-16836987D01*
X7059226Y-16836987D02*
X7068750Y-16846511D01*
X7068750Y-16846511D02*
X7078274Y-16865558D01*
X7078274Y-16865558D02*
X7078274Y-16884606D01*
X7078274Y-16884606D02*
X7068750Y-16913177D01*
X7068750Y-16913177D02*
X6954464Y-17027463D01*
X6954464Y-17027463D02*
X7078274Y-17027463D01*
X7202083Y-16827463D02*
X7221131Y-16827463D01*
X7221131Y-16827463D02*
X7240179Y-16836987D01*
X7240179Y-16836987D02*
X7249702Y-16846511D01*
X7249702Y-16846511D02*
X7259226Y-16865558D01*
X7259226Y-16865558D02*
X7268750Y-16903653D01*
X7268750Y-16903653D02*
X7268750Y-16951273D01*
X7268750Y-16951273D02*
X7259226Y-16989368D01*
X7259226Y-16989368D02*
X7249702Y-17008415D01*
X7249702Y-17008415D02*
X7240179Y-17017939D01*
X7240179Y-17017939D02*
X7221131Y-17027463D01*
X7221131Y-17027463D02*
X7202083Y-17027463D01*
X7202083Y-17027463D02*
X7183036Y-17017939D01*
X7183036Y-17017939D02*
X7173512Y-17008415D01*
X7173512Y-17008415D02*
X7163988Y-16989368D01*
X7163988Y-16989368D02*
X7154464Y-16951273D01*
X7154464Y-16951273D02*
X7154464Y-16903653D01*
X7154464Y-16903653D02*
X7163988Y-16865558D01*
X7163988Y-16865558D02*
X7173512Y-16846511D01*
X7173512Y-16846511D02*
X7183036Y-16836987D01*
X7183036Y-16836987D02*
X7202083Y-16827463D01*
X7392559Y-16827463D02*
X7411607Y-16827463D01*
X7411607Y-16827463D02*
X7430655Y-16836987D01*
X7430655Y-16836987D02*
X7440179Y-16846511D01*
X7440179Y-16846511D02*
X7449702Y-16865558D01*
X7449702Y-16865558D02*
X7459226Y-16903653D01*
X7459226Y-16903653D02*
X7459226Y-16951273D01*
X7459226Y-16951273D02*
X7449702Y-16989368D01*
X7449702Y-16989368D02*
X7440179Y-17008415D01*
X7440179Y-17008415D02*
X7430655Y-17017939D01*
X7430655Y-17017939D02*
X7411607Y-17027463D01*
X7411607Y-17027463D02*
X7392559Y-17027463D01*
X7392559Y-17027463D02*
X7373512Y-17017939D01*
X7373512Y-17017939D02*
X7363988Y-17008415D01*
X7363988Y-17008415D02*
X7354464Y-16989368D01*
X7354464Y-16989368D02*
X7344940Y-16951273D01*
X7344940Y-16951273D02*
X7344940Y-16903653D01*
X7344940Y-16903653D02*
X7354464Y-16865558D01*
X7354464Y-16865558D02*
X7363988Y-16846511D01*
X7363988Y-16846511D02*
X7373512Y-16836987D01*
X7373512Y-16836987D02*
X7392559Y-16827463D01*
X7544940Y-17027463D02*
X7544940Y-16894130D01*
X7544940Y-16913177D02*
X7554464Y-16903653D01*
X7554464Y-16903653D02*
X7573512Y-16894130D01*
X7573512Y-16894130D02*
X7602083Y-16894130D01*
X7602083Y-16894130D02*
X7621131Y-16903653D01*
X7621131Y-16903653D02*
X7630655Y-16922701D01*
X7630655Y-16922701D02*
X7630655Y-17027463D01*
X7630655Y-16922701D02*
X7640179Y-16903653D01*
X7640179Y-16903653D02*
X7659226Y-16894130D01*
X7659226Y-16894130D02*
X7687798Y-16894130D01*
X7687798Y-16894130D02*
X7706845Y-16903653D01*
X7706845Y-16903653D02*
X7716369Y-16922701D01*
X7716369Y-16922701D02*
X7716369Y-17027463D01*
X7811607Y-17027463D02*
X7811607Y-16894130D01*
X7811607Y-16913177D02*
X7821131Y-16903653D01*
X7821131Y-16903653D02*
X7840179Y-16894130D01*
X7840179Y-16894130D02*
X7868750Y-16894130D01*
X7868750Y-16894130D02*
X7887798Y-16903653D01*
X7887798Y-16903653D02*
X7897321Y-16922701D01*
X7897321Y-16922701D02*
X7897321Y-17027463D01*
X7897321Y-16922701D02*
X7906845Y-16903653D01*
X7906845Y-16903653D02*
X7925893Y-16894130D01*
X7925893Y-16894130D02*
X7954464Y-16894130D01*
X7954464Y-16894130D02*
X7973512Y-16903653D01*
X7973512Y-16903653D02*
X7983036Y-16922701D01*
X7983036Y-16922701D02*
X7983036Y-17027463D01*
X8373512Y-16817939D02*
X8202083Y-17075082D01*
X8630655Y-16827463D02*
X8649703Y-16827463D01*
X8649703Y-16827463D02*
X8668750Y-16836987D01*
X8668750Y-16836987D02*
X8678274Y-16846511D01*
X8678274Y-16846511D02*
X8687798Y-16865558D01*
X8687798Y-16865558D02*
X8697322Y-16903653D01*
X8697322Y-16903653D02*
X8697322Y-16951273D01*
X8697322Y-16951273D02*
X8687798Y-16989368D01*
X8687798Y-16989368D02*
X8678274Y-17008415D01*
X8678274Y-17008415D02*
X8668750Y-17017939D01*
X8668750Y-17017939D02*
X8649703Y-17027463D01*
X8649703Y-17027463D02*
X8630655Y-17027463D01*
X8630655Y-17027463D02*
X8611607Y-17017939D01*
X8611607Y-17017939D02*
X8602084Y-17008415D01*
X8602084Y-17008415D02*
X8592560Y-16989368D01*
X8592560Y-16989368D02*
X8583036Y-16951273D01*
X8583036Y-16951273D02*
X8583036Y-16903653D01*
X8583036Y-16903653D02*
X8592560Y-16865558D01*
X8592560Y-16865558D02*
X8602084Y-16846511D01*
X8602084Y-16846511D02*
X8611607Y-16836987D01*
X8611607Y-16836987D02*
X8630655Y-16827463D01*
X8783036Y-17008415D02*
X8792560Y-17017939D01*
X8792560Y-17017939D02*
X8783036Y-17027463D01*
X8783036Y-17027463D02*
X8773512Y-17017939D01*
X8773512Y-17017939D02*
X8783036Y-17008415D01*
X8783036Y-17008415D02*
X8783036Y-17027463D01*
X8983036Y-17027463D02*
X8868750Y-17027463D01*
X8925893Y-17027463D02*
X8925893Y-16827463D01*
X8925893Y-16827463D02*
X8906845Y-16856034D01*
X8906845Y-16856034D02*
X8887798Y-16875082D01*
X8887798Y-16875082D02*
X8868750Y-16884606D01*
X9059226Y-16846511D02*
X9068750Y-16836987D01*
X9068750Y-16836987D02*
X9087798Y-16827463D01*
X9087798Y-16827463D02*
X9135417Y-16827463D01*
X9135417Y-16827463D02*
X9154465Y-16836987D01*
X9154465Y-16836987D02*
X9163988Y-16846511D01*
X9163988Y-16846511D02*
X9173512Y-16865558D01*
X9173512Y-16865558D02*
X9173512Y-16884606D01*
X9173512Y-16884606D02*
X9163988Y-16913177D01*
X9163988Y-16913177D02*
X9049703Y-17027463D01*
X9049703Y-17027463D02*
X9173512Y-17027463D01*
X9344941Y-16827463D02*
X9306845Y-16827463D01*
X9306845Y-16827463D02*
X9287798Y-16836987D01*
X9287798Y-16836987D02*
X9278274Y-16846511D01*
X9278274Y-16846511D02*
X9259226Y-16875082D01*
X9259226Y-16875082D02*
X9249703Y-16913177D01*
X9249703Y-16913177D02*
X9249703Y-16989368D01*
X9249703Y-16989368D02*
X9259226Y-17008415D01*
X9259226Y-17008415D02*
X9268750Y-17017939D01*
X9268750Y-17017939D02*
X9287798Y-17027463D01*
X9287798Y-17027463D02*
X9325893Y-17027463D01*
X9325893Y-17027463D02*
X9344941Y-17017939D01*
X9344941Y-17017939D02*
X9354465Y-17008415D01*
X9354465Y-17008415D02*
X9363988Y-16989368D01*
X9363988Y-16989368D02*
X9363988Y-16941749D01*
X9363988Y-16941749D02*
X9354465Y-16922701D01*
X9354465Y-16922701D02*
X9344941Y-16913177D01*
X9344941Y-16913177D02*
X9325893Y-16903653D01*
X9325893Y-16903653D02*
X9287798Y-16903653D01*
X9287798Y-16903653D02*
X9268750Y-16913177D01*
X9268750Y-16913177D02*
X9259226Y-16922701D01*
X9259226Y-16922701D02*
X9249703Y-16941749D01*
X9487798Y-16827463D02*
X9506846Y-16827463D01*
X9506846Y-16827463D02*
X9525893Y-16836987D01*
X9525893Y-16836987D02*
X9535417Y-16846511D01*
X9535417Y-16846511D02*
X9544941Y-16865558D01*
X9544941Y-16865558D02*
X9554465Y-16903653D01*
X9554465Y-16903653D02*
X9554465Y-16951273D01*
X9554465Y-16951273D02*
X9544941Y-16989368D01*
X9544941Y-16989368D02*
X9535417Y-17008415D01*
X9535417Y-17008415D02*
X9525893Y-17017939D01*
X9525893Y-17017939D02*
X9506846Y-17027463D01*
X9506846Y-17027463D02*
X9487798Y-17027463D01*
X9487798Y-17027463D02*
X9468750Y-17017939D01*
X9468750Y-17017939D02*
X9459226Y-17008415D01*
X9459226Y-17008415D02*
X9449703Y-16989368D01*
X9449703Y-16989368D02*
X9440179Y-16951273D01*
X9440179Y-16951273D02*
X9440179Y-16903653D01*
X9440179Y-16903653D02*
X9449703Y-16865558D01*
X9449703Y-16865558D02*
X9459226Y-16846511D01*
X9459226Y-16846511D02*
X9468750Y-16836987D01*
X9468750Y-16836987D02*
X9487798Y-16827463D01*
X9630655Y-16827463D02*
X9630655Y-16865558D01*
X9706846Y-16827463D02*
X9706846Y-16865558D01*
X10002084Y-17103653D02*
X9992560Y-17094130D01*
X9992560Y-17094130D02*
X9973512Y-17065558D01*
X9973512Y-17065558D02*
X9963988Y-17046511D01*
X9963988Y-17046511D02*
X9954465Y-17017939D01*
X9954465Y-17017939D02*
X9944941Y-16970320D01*
X9944941Y-16970320D02*
X9944941Y-16932225D01*
X9944941Y-16932225D02*
X9954465Y-16884606D01*
X9954465Y-16884606D02*
X9963988Y-16856034D01*
X9963988Y-16856034D02*
X9973512Y-16836987D01*
X9973512Y-16836987D02*
X9992560Y-16808415D01*
X9992560Y-16808415D02*
X10002084Y-16798892D01*
X10068750Y-16846511D02*
X10078274Y-16836987D01*
X10078274Y-16836987D02*
X10097322Y-16827463D01*
X10097322Y-16827463D02*
X10144941Y-16827463D01*
X10144941Y-16827463D02*
X10163988Y-16836987D01*
X10163988Y-16836987D02*
X10173512Y-16846511D01*
X10173512Y-16846511D02*
X10183036Y-16865558D01*
X10183036Y-16865558D02*
X10183036Y-16884606D01*
X10183036Y-16884606D02*
X10173512Y-16913177D01*
X10173512Y-16913177D02*
X10059227Y-17027463D01*
X10059227Y-17027463D02*
X10183036Y-17027463D01*
X10421131Y-17027463D02*
X10421131Y-16827463D01*
X10506846Y-17027463D02*
X10506846Y-16922701D01*
X10506846Y-16922701D02*
X10497322Y-16903653D01*
X10497322Y-16903653D02*
X10478274Y-16894130D01*
X10478274Y-16894130D02*
X10449703Y-16894130D01*
X10449703Y-16894130D02*
X10430655Y-16903653D01*
X10430655Y-16903653D02*
X10421131Y-16913177D01*
X10630655Y-17027463D02*
X10611608Y-17017939D01*
X10611608Y-17017939D02*
X10602084Y-17008415D01*
X10602084Y-17008415D02*
X10592560Y-16989368D01*
X10592560Y-16989368D02*
X10592560Y-16932225D01*
X10592560Y-16932225D02*
X10602084Y-16913177D01*
X10602084Y-16913177D02*
X10611608Y-16903653D01*
X10611608Y-16903653D02*
X10630655Y-16894130D01*
X10630655Y-16894130D02*
X10659227Y-16894130D01*
X10659227Y-16894130D02*
X10678274Y-16903653D01*
X10678274Y-16903653D02*
X10687798Y-16913177D01*
X10687798Y-16913177D02*
X10697322Y-16932225D01*
X10697322Y-16932225D02*
X10697322Y-16989368D01*
X10697322Y-16989368D02*
X10687798Y-17008415D01*
X10687798Y-17008415D02*
X10678274Y-17017939D01*
X10678274Y-17017939D02*
X10659227Y-17027463D01*
X10659227Y-17027463D02*
X10630655Y-17027463D01*
X10811608Y-17027463D02*
X10792560Y-17017939D01*
X10792560Y-17017939D02*
X10783036Y-16998892D01*
X10783036Y-16998892D02*
X10783036Y-16827463D01*
X10963989Y-17017939D02*
X10944941Y-17027463D01*
X10944941Y-17027463D02*
X10906846Y-17027463D01*
X10906846Y-17027463D02*
X10887798Y-17017939D01*
X10887798Y-17017939D02*
X10878274Y-16998892D01*
X10878274Y-16998892D02*
X10878274Y-16922701D01*
X10878274Y-16922701D02*
X10887798Y-16903653D01*
X10887798Y-16903653D02*
X10906846Y-16894130D01*
X10906846Y-16894130D02*
X10944941Y-16894130D01*
X10944941Y-16894130D02*
X10963989Y-16903653D01*
X10963989Y-16903653D02*
X10973512Y-16922701D01*
X10973512Y-16922701D02*
X10973512Y-16941749D01*
X10973512Y-16941749D02*
X10878274Y-16960796D01*
X11049703Y-17017939D02*
X11068750Y-17027463D01*
X11068750Y-17027463D02*
X11106846Y-17027463D01*
X11106846Y-17027463D02*
X11125893Y-17017939D01*
X11125893Y-17017939D02*
X11135417Y-16998892D01*
X11135417Y-16998892D02*
X11135417Y-16989368D01*
X11135417Y-16989368D02*
X11125893Y-16970320D01*
X11125893Y-16970320D02*
X11106846Y-16960796D01*
X11106846Y-16960796D02*
X11078274Y-16960796D01*
X11078274Y-16960796D02*
X11059227Y-16951273D01*
X11059227Y-16951273D02*
X11049703Y-16932225D01*
X11049703Y-16932225D02*
X11049703Y-16922701D01*
X11049703Y-16922701D02*
X11059227Y-16903653D01*
X11059227Y-16903653D02*
X11078274Y-16894130D01*
X11078274Y-16894130D02*
X11106846Y-16894130D01*
X11106846Y-16894130D02*
X11125893Y-16903653D01*
X11202084Y-17103653D02*
X11211608Y-17094130D01*
X11211608Y-17094130D02*
X11230655Y-17065558D01*
X11230655Y-17065558D02*
X11240179Y-17046511D01*
X11240179Y-17046511D02*
X11249703Y-17017939D01*
X11249703Y-17017939D02*
X11259227Y-16970320D01*
X11259227Y-16970320D02*
X11259227Y-16932225D01*
X11259227Y-16932225D02*
X11249703Y-16884606D01*
X11249703Y-16884606D02*
X11240179Y-16856034D01*
X11240179Y-16856034D02*
X11230655Y-16836987D01*
X11230655Y-16836987D02*
X11211608Y-16808415D01*
X11211608Y-16808415D02*
X11202084Y-16798892D01*
X11563989Y-17103653D02*
X11554465Y-17094130D01*
X11554465Y-17094130D02*
X11535417Y-17065558D01*
X11535417Y-17065558D02*
X11525893Y-17046511D01*
X11525893Y-17046511D02*
X11516369Y-17017939D01*
X11516369Y-17017939D02*
X11506846Y-16970320D01*
X11506846Y-16970320D02*
X11506846Y-16932225D01*
X11506846Y-16932225D02*
X11516369Y-16884606D01*
X11516369Y-16884606D02*
X11525893Y-16856034D01*
X11525893Y-16856034D02*
X11535417Y-16836987D01*
X11535417Y-16836987D02*
X11554465Y-16808415D01*
X11554465Y-16808415D02*
X11563989Y-16798892D01*
X11640179Y-16894130D02*
X11640179Y-17027463D01*
X11640179Y-16913177D02*
X11649703Y-16903653D01*
X11649703Y-16903653D02*
X11668750Y-16894130D01*
X11668750Y-16894130D02*
X11697322Y-16894130D01*
X11697322Y-16894130D02*
X11716369Y-16903653D01*
X11716369Y-16903653D02*
X11725893Y-16922701D01*
X11725893Y-16922701D02*
X11725893Y-17027463D01*
X11849703Y-17027463D02*
X11830655Y-17017939D01*
X11830655Y-17017939D02*
X11821131Y-17008415D01*
X11821131Y-17008415D02*
X11811608Y-16989368D01*
X11811608Y-16989368D02*
X11811608Y-16932225D01*
X11811608Y-16932225D02*
X11821131Y-16913177D01*
X11821131Y-16913177D02*
X11830655Y-16903653D01*
X11830655Y-16903653D02*
X11849703Y-16894130D01*
X11849703Y-16894130D02*
X11878274Y-16894130D01*
X11878274Y-16894130D02*
X11897322Y-16903653D01*
X11897322Y-16903653D02*
X11906846Y-16913177D01*
X11906846Y-16913177D02*
X11916369Y-16932225D01*
X11916369Y-16932225D02*
X11916369Y-16989368D01*
X11916369Y-16989368D02*
X11906846Y-17008415D01*
X11906846Y-17008415D02*
X11897322Y-17017939D01*
X11897322Y-17017939D02*
X11878274Y-17027463D01*
X11878274Y-17027463D02*
X11849703Y-17027463D01*
X11973512Y-16894130D02*
X12049703Y-16894130D01*
X12002084Y-16827463D02*
X12002084Y-16998892D01*
X12002084Y-16998892D02*
X12011608Y-17017939D01*
X12011608Y-17017939D02*
X12030655Y-17027463D01*
X12030655Y-17027463D02*
X12049703Y-17027463D01*
X12268750Y-16894130D02*
X12268750Y-17094130D01*
X12268750Y-16903653D02*
X12287798Y-16894130D01*
X12287798Y-16894130D02*
X12325893Y-16894130D01*
X12325893Y-16894130D02*
X12344941Y-16903653D01*
X12344941Y-16903653D02*
X12354465Y-16913177D01*
X12354465Y-16913177D02*
X12363989Y-16932225D01*
X12363989Y-16932225D02*
X12363989Y-16989368D01*
X12363989Y-16989368D02*
X12354465Y-17008415D01*
X12354465Y-17008415D02*
X12344941Y-17017939D01*
X12344941Y-17017939D02*
X12325893Y-17027463D01*
X12325893Y-17027463D02*
X12287798Y-17027463D01*
X12287798Y-17027463D02*
X12268750Y-17017939D01*
X12478274Y-17027463D02*
X12459227Y-17017939D01*
X12459227Y-17017939D02*
X12449703Y-16998892D01*
X12449703Y-16998892D02*
X12449703Y-16827463D01*
X12640179Y-17027463D02*
X12640179Y-16922701D01*
X12640179Y-16922701D02*
X12630655Y-16903653D01*
X12630655Y-16903653D02*
X12611608Y-16894130D01*
X12611608Y-16894130D02*
X12573512Y-16894130D01*
X12573512Y-16894130D02*
X12554465Y-16903653D01*
X12640179Y-17017939D02*
X12621131Y-17027463D01*
X12621131Y-17027463D02*
X12573512Y-17027463D01*
X12573512Y-17027463D02*
X12554465Y-17017939D01*
X12554465Y-17017939D02*
X12544941Y-16998892D01*
X12544941Y-16998892D02*
X12544941Y-16979844D01*
X12544941Y-16979844D02*
X12554465Y-16960796D01*
X12554465Y-16960796D02*
X12573512Y-16951273D01*
X12573512Y-16951273D02*
X12621131Y-16951273D01*
X12621131Y-16951273D02*
X12640179Y-16941749D01*
X12706846Y-16894130D02*
X12783036Y-16894130D01*
X12735417Y-16827463D02*
X12735417Y-16998892D01*
X12735417Y-16998892D02*
X12744941Y-17017939D01*
X12744941Y-17017939D02*
X12763989Y-17027463D01*
X12763989Y-17027463D02*
X12783036Y-17027463D01*
X12925893Y-17017939D02*
X12906846Y-17027463D01*
X12906846Y-17027463D02*
X12868750Y-17027463D01*
X12868750Y-17027463D02*
X12849703Y-17017939D01*
X12849703Y-17017939D02*
X12840179Y-16998892D01*
X12840179Y-16998892D02*
X12840179Y-16922701D01*
X12840179Y-16922701D02*
X12849703Y-16903653D01*
X12849703Y-16903653D02*
X12868750Y-16894130D01*
X12868750Y-16894130D02*
X12906846Y-16894130D01*
X12906846Y-16894130D02*
X12925893Y-16903653D01*
X12925893Y-16903653D02*
X12935417Y-16922701D01*
X12935417Y-16922701D02*
X12935417Y-16941749D01*
X12935417Y-16941749D02*
X12840179Y-16960796D01*
X13106846Y-17027463D02*
X13106846Y-16827463D01*
X13106846Y-17017939D02*
X13087798Y-17027463D01*
X13087798Y-17027463D02*
X13049703Y-17027463D01*
X13049703Y-17027463D02*
X13030655Y-17017939D01*
X13030655Y-17017939D02*
X13021131Y-17008415D01*
X13021131Y-17008415D02*
X13011608Y-16989368D01*
X13011608Y-16989368D02*
X13011608Y-16932225D01*
X13011608Y-16932225D02*
X13021131Y-16913177D01*
X13021131Y-16913177D02*
X13030655Y-16903653D01*
X13030655Y-16903653D02*
X13049703Y-16894130D01*
X13049703Y-16894130D02*
X13087798Y-16894130D01*
X13087798Y-16894130D02*
X13106846Y-16903653D01*
X13183036Y-17103653D02*
X13192560Y-17094130D01*
X13192560Y-17094130D02*
X13211608Y-17065558D01*
X13211608Y-17065558D02*
X13221131Y-17046511D01*
X13221131Y-17046511D02*
X13230655Y-17017939D01*
X13230655Y-17017939D02*
X13240179Y-16970320D01*
X13240179Y-16970320D02*
X13240179Y-16932225D01*
X13240179Y-16932225D02*
X13230655Y-16884606D01*
X13230655Y-16884606D02*
X13221131Y-16856034D01*
X13221131Y-16856034D02*
X13211608Y-16836987D01*
X13211608Y-16836987D02*
X13192560Y-16808415D01*
X13192560Y-16808415D02*
X13183036Y-16798892D01*
M02*
