M48
; DRILL file {KiCad 7.0.9} date Wed Mar 27 23:57:30 2024
; FORMAT={-:-/ absolute / metric / decimal}
; #@! TF.CreationDate,2024-03-27T23:57:30-02:30
; #@! TF.GenerationSoftware,Kicad,Pcbnew,7.0.9
; #@! TF.FileFunction,Plated,1,4,PTH
FMAT,2
METRIC
; #@! TA.AperFunction,Plated,PTH,ViaDrill
T1C0.300
; #@! TA.AperFunction,Plated,PTH,ViaDrill
T2C0.400
; #@! TA.AperFunction,Plated,PTH,ComponentDrill
T3C0.500
; #@! TA.AperFunction,Plated,PTH,ComponentDrill
T4C0.600
; #@! TA.AperFunction,Plated,PTH,ComponentDrill
T5C0.700
; #@! TA.AperFunction,Plated,PTH,ComponentDrill
T6C1.000
; #@! TA.AperFunction,Plated,PTH,ComponentDrill
T7C1.016
; #@! TA.AperFunction,Plated,PTH,ComponentDrill
T8C1.020
; #@! TA.AperFunction,Plated,PTH,ComponentDrill
T9C1.070
; #@! TA.AperFunction,Plated,PTH,ComponentDrill
T10C1.200
; #@! TA.AperFunction,Plated,PTH,ComponentDrill
T11C1.900
; #@! TA.AperFunction,Plated,PTH,ComponentDrill
T12C2.700
%
G90
G05
T1
X69.41Y-66.27
X71.12Y-85.344
X71.12Y-94.234
X72.644Y-60.96
X73.625Y-70.231
X78.74Y-96.774
X79.756Y-96.774
X80.111Y-93.98
X80.264Y-74.676
X80.264Y-78.74
X80.772Y-96.774
X81.534Y-91.44
X81.788Y-60.96
X81.788Y-96.774
X83.465Y-63.399
X83.513Y-80.264
X84.455Y-99.187
X84.455Y-106.934
X84.836Y-73.66
X85.598Y-58.452
X85.614Y-60.182
X86.614Y-64.897
X87.122Y-55.118
X87.122Y-98.552
X87.578Y-82.752
X87.63Y-75.438
X87.63Y-80.01
X87.884Y-77.724
X87.948Y-84.646
X88.138Y-67.31
X89.154Y-59.436
X89.154Y-87.122
X90.197Y-72.009
X90.656Y-61.481
X91.186Y-87.122
X91.44Y-106.934
X91.44Y-115.189
X91.459Y-61.467
X91.694Y-77.724
X92.3Y-75.267
X92.3Y-80.256
X92.456Y-100.33
X92.964Y-59.436
X93.83Y-96.774
X93.98Y-67.31
X94.742Y-96.774
X94.996Y-110.744
X95.504Y-108.458
X95.758Y-67.31
X96.065Y-80.772
X96.165Y-73.252
X96.52Y-60.182
X96.531Y-58.453
X96.774Y-63.5
X97.129Y-70.459
X98.044Y-90.17
X99.06Y-122.682
X99.06Y-135.89
X99.314Y-79.248
X99.414Y-93.98
X99.496Y-74.096
X99.568Y-100.965
X100.33Y-48.514
X100.584Y-78.994
X100.584Y-125.73
X100.584Y-138.938
X100.893Y-72.699
X102.108Y-87.63
X102.362Y-104.394
X104.394Y-87.63
X105.41Y-97.028
X105.537Y-110.744
X105.537Y-118.173
X105.537Y-125.603
X108.966Y-100.965
X112.268Y-102.362
X112.268Y-107.696
X112.268Y-112.522
X113.919Y-125.603
X114.554Y-102.362
X114.554Y-107.696
X114.554Y-112.522
X117.094Y-102.362
X117.094Y-107.696
X117.094Y-112.522
X117.442Y-82.647
X118.218Y-70.709
X118.218Y-73.502
X118.872Y-133.604
X118.915Y-64.1
X118.915Y-65.067
X119.126Y-97.028
X119.634Y-110.49
X119.634Y-131.572
X120.65Y-133.604
X121.082Y-107.366
X121.158Y-106.172
X121.158Y-108.458
X121.52Y-75.534
X121.52Y-79.599
X122.627Y-135.632
X122.644Y-133.096
X123.001Y-129.859
X123.169Y-106.569
X123.173Y-107.664
X123.444Y-133.096
X123.698Y-75.534
X123.698Y-138.176
X123.732Y-135.632
X124.268Y-107.664
X124.272Y-106.569
X125.33Y-79.599
X125.73Y-109.474
X125.984Y-104.648
X127.508Y-85.852
X127.635Y-96.393
X128.27Y-49.022
X128.778Y-85.852
X129.094Y-49.022
X129.25Y-133.604
X130.81Y-41.402
X130.81Y-105.41
X130.81Y-113.03
X130.826Y-103.391
X130.826Y-107.201
X130.826Y-109.233
X130.826Y-111.011
X131.318Y-85.852
X132.113Y-42.027
X133.096Y-65.786
X133.604Y-97.028
X133.671Y-76.958
X134.112Y-68.818
X134.575Y-86.822
X134.874Y-105.918
X134.887Y-41.402
X135.636Y-79.933
X135.89Y-41.402
X137.922Y-74.66
X137.935Y-76.958
X138.176Y-94.996
X138.787Y-34.694
X139.147Y-92.198
X139.3Y-71.482
X139.446Y-82.55
X139.446Y-85.09
X139.954Y-50.165
X139.954Y-52.07
X139.954Y-53.998
X139.954Y-55.88
X139.954Y-57.785
X139.954Y-59.69
X139.954Y-61.595
X139.954Y-63.5
X140.048Y-90.909
X140.166Y-75.781
X140.316Y-95.25
X140.462Y-102.362
X140.462Y-107.696
X140.462Y-112.522
X142.24Y-52.705
X142.24Y-60.96
X142.24Y-102.362
X142.24Y-107.696
X142.24Y-112.522
X142.456Y-97.023
X143.256Y-97.028
X144.018Y-75.184
X144.018Y-102.362
X144.018Y-107.696
X144.018Y-112.522
X144.196Y-97.052
X144.272Y-73.152
X144.526Y-63.754
X144.78Y-49.276
X145.034Y-75.184
X145.034Y-97.028
X145.542Y-67.818
X145.798Y-95.504
X145.894Y-60.23
X145.909Y-58.78
X145.965Y-57.33
X146.05Y-55.88
X146.05Y-71.628
X146.05Y-97.028
X146.243Y-130.363
X146.304Y-133.604
X146.558Y-67.818
X146.673Y-79.492
X146.721Y-60.96
X146.757Y-56.605
X146.798Y-90.932
X146.81Y-58.055
X146.851Y-59.505
X147.066Y-95.25
X147.127Y-70.551
X147.32Y-97.028
X147.574Y-110.49
X147.74Y-75.985
X148.082Y-133.604
X148.844Y-95.25
X148.92Y-107.366
X149.098Y-106.172
X149.098Y-108.458
X149.448Y-77.566
X149.606Y-30.226
X149.987Y-62.865
X150.058Y-135.613
X150.066Y-92.202
X150.114Y-133.35
X150.553Y-132.022
X150.931Y-133.342
X150.984Y-79.933
X151.162Y-135.613
X151.316Y-87.884
X151.323Y-138.491
X151.341Y-106.569
X151.345Y-107.664
X151.511Y-50.8
X152.4Y-50.8
X152.4Y-52.705
X152.4Y-54.61
X152.4Y-56.515
X152.4Y-58.42
X152.4Y-59.69
X152.4Y-60.96
X152.4Y-62.865
X152.44Y-107.664
X152.444Y-106.569
X152.527Y-69.85
X152.527Y-71.628
X152.654Y-81.534
X153.162Y-79.756
X153.924Y-105.156
X153.924Y-109.474
X154.02Y-77.566
X154.686Y-67.056
X154.94Y-41.91
X156.21Y-58.801
X156.464Y-80.772
X156.623Y-133.579
X157.016Y-97.028
X157.099Y-56.896
X157.48Y-48.26
X157.48Y-50.8
X157.48Y-53.34
X157.48Y-55.88
X157.48Y-58.42
X157.48Y-60.325
X157.48Y-62.865
X157.48Y-65.405
X158.0Y-46.482
X158.991Y-103.391
X158.991Y-107.312
X158.991Y-109.217
X158.991Y-111.122
X159.004Y-97.028
X159.004Y-105.41
X160.02Y-97.028
X161.036Y-97.028
X161.925Y-44.45
X161.925Y-48.26
X161.925Y-52.07
X161.925Y-55.88
X161.925Y-59.69
X161.925Y-63.5
X161.925Y-67.31
X161.925Y-71.12
X162.052Y-97.028
X162.306Y-91.186
X163.322Y-101.346
X165.1Y-96.774
X165.608Y-80.772
X165.608Y-83.312
X165.608Y-84.582
X165.608Y-85.852
X166.21Y-107.315
X166.21Y-119.38
X166.21Y-132.08
X166.21Y-144.5
X166.778Y-92.048
X167.64Y-59.69
X167.64Y-63.5
X167.64Y-67.31
X167.64Y-71.12
X167.806Y-100.076
X167.806Y-112.776
X167.806Y-125.476
X167.806Y-137.668
X170.307Y-86.36
X170.307Y-87.63
X170.307Y-88.9
X170.307Y-90.17
X171.196Y-93.726
X171.196Y-94.657
X171.196Y-95.589
X171.196Y-96.52
X171.29Y-101.6
X171.29Y-114.3
X171.29Y-127.0
X171.29Y-139.065
X171.323Y-86.36
X171.323Y-90.17
X172.127Y-96.52
X172.339Y-86.36
X172.339Y-90.17
X173.059Y-96.52
X173.99Y-96.52
X173.99Y-86.36
X174.921Y-96.52
X175.853Y-96.52
X176.784Y-93.726
X176.784Y-94.657
X176.784Y-95.589
X176.784Y-96.52
X180.493Y-92.048
X187.452Y-96.774
X189.992Y-69.596
X197.866Y-92.456
X226.822Y-113.438
X227.22Y-68.659
X228.346Y-116.332
X229.303Y-116.967
X229.372Y-85.588
X229.372Y-96.901
X229.616Y-71.882
X229.997Y-84.963
X230.378Y-113.792
X230.632Y-71.882
X230.638Y-116.985
X231.394Y-114.808
X231.648Y-116.967
X233.934Y-149.352
T2
X194.355Y-33.41
X194.355Y-35.41
X194.355Y-37.41
X194.355Y-39.41
X194.355Y-41.41
X194.355Y-43.41
X194.355Y-45.41
X194.355Y-47.91
X194.355Y-49.91
X194.355Y-51.91
X194.355Y-53.91
X194.355Y-55.91
X194.355Y-57.91
X194.355Y-60.41
X194.355Y-62.41
X194.355Y-64.41
X194.355Y-66.41
X194.355Y-68.41
X194.355Y-70.41
X194.355Y-72.91
X194.355Y-74.91
X194.355Y-76.91
X194.355Y-78.91
X194.355Y-80.91
X194.355Y-82.91
X194.355Y-100.05
X194.355Y-102.05
X194.355Y-104.05
X194.355Y-106.05
X194.355Y-108.05
X194.355Y-110.05
X194.355Y-112.05
X194.355Y-114.55
X194.355Y-116.55
X194.355Y-118.55
X194.355Y-120.55
X194.355Y-122.55
X194.355Y-124.55
X194.355Y-127.05
X194.355Y-129.05
X194.355Y-131.05
X194.355Y-133.05
X194.355Y-135.05
X194.355Y-137.05
X194.355Y-139.55
X194.355Y-141.55
X194.355Y-143.55
X194.355Y-145.55
X194.355Y-147.55
X194.355Y-149.55
X196.355Y-33.41
X196.355Y-45.41
X196.355Y-57.91
X196.355Y-70.41
X196.355Y-82.91
X196.355Y-100.05
X196.355Y-112.05
X196.355Y-124.55
X196.355Y-137.05
X196.355Y-149.55
X198.355Y-33.41
X198.355Y-45.41
X198.355Y-57.91
X198.355Y-70.41
X198.355Y-82.91
X198.355Y-100.05
X198.355Y-112.05
X198.355Y-124.55
X198.355Y-137.05
X198.355Y-149.55
X200.355Y-33.41
X200.355Y-35.41
X200.355Y-37.41
X200.355Y-39.41
X200.355Y-41.41
X200.355Y-43.41
X200.355Y-45.41
X200.355Y-47.91
X200.355Y-49.91
X200.355Y-51.91
X200.355Y-53.91
X200.355Y-55.91
X200.355Y-57.91
X200.355Y-60.41
X200.355Y-62.41
X200.355Y-64.41
X200.355Y-66.41
X200.355Y-68.41
X200.355Y-70.41
X200.355Y-72.91
X200.355Y-74.91
X200.355Y-76.91
X200.355Y-78.91
X200.355Y-80.91
X200.355Y-82.91
X200.355Y-100.05
X200.355Y-102.05
X200.355Y-104.05
X200.355Y-106.05
X200.355Y-108.05
X200.355Y-110.05
X200.355Y-112.05
X200.355Y-114.55
X200.355Y-116.55
X200.355Y-118.55
X200.355Y-120.55
X200.355Y-122.55
X200.355Y-124.55
X200.355Y-127.05
X200.355Y-129.05
X200.355Y-131.05
X200.355Y-133.05
X200.355Y-135.05
X200.355Y-137.05
X200.355Y-139.55
X200.355Y-141.55
X200.355Y-143.55
X200.355Y-145.55
X200.355Y-147.55
X200.355Y-149.55
X202.355Y-33.41
X202.355Y-45.41
X202.355Y-57.91
X202.355Y-70.41
X202.355Y-82.91
X202.355Y-100.05
X202.355Y-112.05
X202.355Y-124.55
X202.355Y-137.05
X202.355Y-149.55
X204.355Y-33.41
X204.355Y-45.41
X204.355Y-57.91
X204.355Y-70.41
X204.355Y-82.91
X204.355Y-100.05
X204.355Y-112.05
X204.355Y-124.55
X204.355Y-137.05
X204.355Y-149.55
X206.355Y-33.41
X206.355Y-35.41
X206.355Y-37.41
X206.355Y-39.41
X206.355Y-41.41
X206.355Y-43.41
X206.355Y-45.41
X206.355Y-47.91
X206.355Y-49.91
X206.355Y-51.91
X206.355Y-53.91
X206.355Y-55.91
X206.355Y-57.91
X206.355Y-60.41
X206.355Y-62.41
X206.355Y-64.41
X206.355Y-66.41
X206.355Y-68.41
X206.355Y-70.41
X206.355Y-72.91
X206.355Y-74.91
X206.355Y-76.91
X206.355Y-78.91
X206.355Y-80.91
X206.355Y-82.91
X206.355Y-100.05
X206.355Y-102.05
X206.355Y-104.05
X206.355Y-106.05
X206.355Y-108.05
X206.355Y-110.05
X206.355Y-112.05
X206.355Y-114.55
X206.355Y-116.55
X206.355Y-118.55
X206.355Y-120.55
X206.355Y-122.55
X206.355Y-124.55
X206.355Y-127.05
X206.355Y-129.05
X206.355Y-131.05
X206.355Y-133.05
X206.355Y-135.05
X206.355Y-137.05
X206.355Y-139.55
X206.355Y-141.55
X206.355Y-143.55
X206.355Y-145.55
X206.355Y-147.55
X206.355Y-149.55
X214.355Y-33.41
X214.355Y-35.41
X214.355Y-37.41
X214.355Y-39.41
X214.355Y-41.41
X214.355Y-43.41
X214.355Y-45.41
X214.355Y-47.91
X214.355Y-49.91
X214.355Y-51.91
X214.355Y-53.91
X214.355Y-55.91
X214.355Y-57.91
X214.355Y-60.41
X214.355Y-62.41
X214.355Y-64.41
X214.355Y-66.41
X214.355Y-68.41
X214.355Y-70.91
X214.355Y-72.91
X214.355Y-74.91
X214.355Y-76.91
X214.355Y-78.91
X214.355Y-80.91
X214.355Y-82.91
X214.355Y-100.05
X214.355Y-102.05
X214.355Y-104.05
X214.355Y-106.05
X214.355Y-108.05
X214.355Y-110.05
X214.355Y-112.05
X214.355Y-114.55
X214.355Y-116.55
X214.355Y-118.55
X214.355Y-120.55
X214.355Y-122.55
X214.355Y-124.55
X214.355Y-127.05
X214.355Y-129.05
X214.355Y-131.05
X214.355Y-133.05
X214.355Y-135.05
X214.355Y-137.05
X214.355Y-139.55
X214.355Y-141.55
X214.355Y-143.55
X214.355Y-145.55
X214.355Y-147.55
X214.355Y-149.55
X216.355Y-33.41
X216.355Y-45.41
X216.355Y-57.91
X216.355Y-70.91
X216.355Y-82.91
X216.355Y-100.05
X216.355Y-112.05
X216.355Y-124.55
X216.355Y-137.05
X216.355Y-149.55
X218.355Y-33.41
X218.355Y-45.41
X218.355Y-57.91
X218.355Y-70.91
X218.355Y-82.91
X218.355Y-100.05
X218.355Y-112.05
X218.355Y-124.55
X218.355Y-137.05
X218.355Y-149.55
X220.355Y-33.41
X220.355Y-35.41
X220.355Y-37.41
X220.355Y-39.41
X220.355Y-41.41
X220.355Y-43.41
X220.355Y-45.41
X220.355Y-47.91
X220.355Y-49.91
X220.355Y-51.91
X220.355Y-53.91
X220.355Y-55.91
X220.355Y-57.91
X220.355Y-60.41
X220.355Y-62.41
X220.355Y-64.41
X220.355Y-66.41
X220.355Y-68.41
X220.355Y-70.91
X220.355Y-72.91
X220.355Y-74.91
X220.355Y-76.91
X220.355Y-78.91
X220.355Y-80.91
X220.355Y-82.91
X220.355Y-100.05
X220.355Y-102.05
X220.355Y-104.05
X220.355Y-106.05
X220.355Y-108.05
X220.355Y-110.05
X220.355Y-112.05
X220.355Y-114.55
X220.355Y-116.55
X220.355Y-118.55
X220.355Y-120.55
X220.355Y-122.55
X220.355Y-124.55
X220.355Y-127.05
X220.355Y-129.05
X220.355Y-131.05
X220.355Y-133.05
X220.355Y-135.05
X220.355Y-137.05
X220.355Y-139.55
X220.355Y-141.55
X220.355Y-143.55
X220.355Y-145.55
X220.355Y-147.55
X220.355Y-149.55
X222.355Y-33.41
X222.355Y-45.41
X222.355Y-57.91
X222.355Y-70.91
X222.355Y-82.91
X222.355Y-100.05
X222.355Y-112.05
X222.355Y-124.55
X222.355Y-137.05
X222.355Y-149.55
X224.355Y-33.41
X224.355Y-45.41
X224.355Y-57.91
X224.355Y-70.91
X224.355Y-82.91
X224.355Y-100.05
X224.355Y-112.05
X224.355Y-124.55
X224.355Y-137.05
X224.355Y-149.55
X226.355Y-33.41
X226.355Y-35.41
X226.355Y-37.41
X226.355Y-39.41
X226.355Y-41.41
X226.355Y-43.41
X226.355Y-45.41
X226.355Y-47.91
X226.355Y-49.91
X226.355Y-51.91
X226.355Y-53.91
X226.355Y-55.91
X226.355Y-57.91
X226.355Y-60.41
X226.355Y-62.41
X226.355Y-64.41
X226.355Y-66.41
X226.355Y-68.41
X226.355Y-70.91
X226.355Y-72.91
X226.355Y-74.91
X226.355Y-76.91
X226.355Y-78.91
X226.355Y-80.91
X226.355Y-82.91
X226.355Y-100.05
X226.355Y-102.05
X226.355Y-104.05
X226.355Y-106.05
X226.355Y-108.05
X226.355Y-110.05
X226.355Y-112.05
X226.355Y-114.55
X226.355Y-116.55
X226.355Y-118.55
X226.355Y-120.55
X226.355Y-122.55
X226.355Y-124.55
X226.355Y-127.05
X226.355Y-129.05
X226.355Y-131.05
X226.355Y-133.05
X226.355Y-135.05
X226.355Y-137.05
X226.355Y-139.55
X226.355Y-141.55
X226.355Y-143.55
X226.355Y-145.55
X226.355Y-147.55
X226.355Y-149.55
X231.15Y-57.515
X231.15Y-59.515
X231.15Y-61.515
X231.15Y-63.515
X231.15Y-65.515
X231.15Y-73.515
X231.15Y-75.515
X231.15Y-77.515
X231.15Y-79.515
X231.15Y-81.515
X231.15Y-83.515
X231.15Y-97.725
X231.15Y-99.725
X231.15Y-101.725
X231.15Y-103.725
X231.15Y-105.725
X231.15Y-107.725
X231.15Y-109.725
X231.15Y-117.725
X231.15Y-119.725
X231.15Y-121.725
X231.15Y-123.725
X231.15Y-125.725
X233.15Y-57.515
X233.15Y-59.515
X233.15Y-61.515
X233.15Y-63.515
X233.15Y-65.515
X233.15Y-67.515
X233.15Y-69.515
X233.15Y-71.515
X233.15Y-73.515
X233.15Y-75.515
X233.15Y-77.515
X233.15Y-79.515
X233.15Y-81.515
X233.15Y-83.515
X233.15Y-97.725
X233.15Y-99.725
X233.15Y-101.725
X233.15Y-103.725
X233.15Y-105.725
X233.15Y-107.725
X233.15Y-109.725
X233.15Y-111.725
X233.15Y-113.725
X233.15Y-115.725
X233.15Y-117.725
X233.15Y-119.725
X233.15Y-121.725
X233.15Y-123.725
X233.15Y-125.725
X235.15Y-57.515
X235.15Y-59.515
X235.15Y-83.515
X235.15Y-97.725
X235.15Y-99.725
X235.15Y-123.725
X235.15Y-125.725
X237.15Y-57.515
X237.15Y-59.515
X237.15Y-83.515
X237.15Y-97.725
X237.15Y-99.725
X237.15Y-123.725
X237.15Y-125.725
X239.15Y-59.515
X239.15Y-83.515
X239.15Y-97.725
X239.15Y-99.725
X239.15Y-123.725
X241.15Y-59.515
X241.15Y-83.515
X241.15Y-97.725
X241.15Y-99.725
X241.15Y-123.725
X243.15Y-57.515
X243.15Y-59.515
X243.15Y-83.515
X243.15Y-97.725
X243.15Y-99.725
X243.15Y-123.725
X243.15Y-125.725
X245.15Y-57.515
X245.15Y-59.515
X245.15Y-83.515
X245.15Y-97.725
X245.15Y-99.725
X245.15Y-123.725
X245.15Y-125.725
T3
X67.345Y-32.94
X67.345Y-149.94
X67.938Y-31.508
X67.938Y-34.372
X67.938Y-148.508
X67.938Y-151.372
X69.37Y-30.915
X69.37Y-34.965
X69.37Y-147.915
X69.37Y-151.965
X70.802Y-31.508
X70.802Y-34.372
X70.802Y-148.508
X70.802Y-151.372
X71.395Y-32.94
X71.395Y-149.94
X240.345Y-32.94
X240.345Y-149.94
X240.938Y-31.508
X240.938Y-34.372
X240.938Y-148.508
X240.938Y-151.372
X242.37Y-30.915
X242.37Y-34.965
X242.37Y-147.915
X242.37Y-151.965
X243.802Y-31.508
X243.802Y-34.372
X243.802Y-148.508
X243.802Y-151.372
X244.395Y-32.94
X244.395Y-149.94
T5
X237.15Y-86.085
X237.15Y-88.085
X237.15Y-90.085
X237.15Y-92.085
X237.15Y-94.085
X237.15Y-96.085
X239.15Y-86.085
X239.15Y-88.085
X239.15Y-90.085
X239.15Y-92.085
X239.15Y-94.085
X239.15Y-96.085
X241.15Y-86.085
X241.15Y-88.085
X241.15Y-90.085
X241.15Y-92.085
X241.15Y-94.085
X241.15Y-96.085
X243.15Y-86.085
X243.15Y-88.085
X243.15Y-90.085
X243.15Y-92.085
X243.15Y-94.085
X243.15Y-96.085
X245.15Y-86.085
X245.15Y-88.085
X245.15Y-90.085
X245.15Y-92.085
X245.15Y-94.085
X245.15Y-96.085
T6
X83.83Y-50.8
X86.37Y-33.02
X86.37Y-50.8
X88.91Y-33.02
X88.91Y-50.8
X91.45Y-33.02
X91.45Y-50.8
X93.99Y-33.02
X93.99Y-50.8
X96.53Y-50.8
X106.172Y-75.207
X106.172Y-77.747
X106.172Y-80.287
X167.602Y-31.511
X167.602Y-34.051
X167.602Y-36.591
X173.317Y-31.511
X173.317Y-34.051
X173.317Y-36.591
X179.032Y-31.511
X179.032Y-34.051
X179.032Y-36.591
X184.748Y-31.511
X184.748Y-34.051
X184.748Y-36.591
T7
X110.49Y-36.83
X110.49Y-39.37
X113.03Y-36.83
X113.03Y-39.37
X115.57Y-36.83
X115.57Y-39.37
X118.11Y-36.83
X118.11Y-39.37
X120.65Y-36.83
X120.65Y-39.37
X123.19Y-36.83
X123.19Y-39.37
X125.73Y-36.83
X125.73Y-39.37
X128.27Y-36.83
X128.27Y-39.37
X130.81Y-36.83
X130.81Y-39.37
X133.35Y-36.83
X133.35Y-39.37
X135.89Y-36.83
X135.89Y-39.37
X138.43Y-36.83
X138.43Y-39.37
X140.97Y-36.83
X140.97Y-39.37
X143.51Y-36.83
X143.51Y-39.37
X146.05Y-36.83
X146.05Y-39.37
X148.59Y-36.83
X148.59Y-39.37
X151.13Y-36.83
X151.13Y-39.37
X153.67Y-36.83
X153.67Y-39.37
X156.21Y-36.83
X156.21Y-39.37
X158.75Y-36.83
X158.75Y-39.37
T8
X96.044Y-130.735
X96.044Y-143.865
X97.886Y-118.235
X99.044Y-130.735
X99.044Y-143.865
X100.886Y-118.235
X102.044Y-130.735
X102.044Y-143.865
X122.894Y-143.865
X125.894Y-143.865
X150.619Y-143.865
X153.619Y-143.865
X175.538Y-106.365
X175.538Y-118.865
X175.538Y-131.365
X175.538Y-143.865
X178.538Y-106.365
X178.538Y-118.865
X178.538Y-131.365
X178.538Y-143.865
X235.15Y-62.015
X235.15Y-65.015
X235.15Y-67.515
X235.15Y-70.515
X235.15Y-73.015
X235.15Y-76.015
X235.15Y-78.515
X235.15Y-81.515
X235.15Y-101.725
X235.15Y-104.725
X235.15Y-107.225
X235.15Y-110.225
X235.15Y-112.725
X235.15Y-115.725
X235.15Y-118.225
X235.15Y-121.225
X237.65Y-62.015
X237.65Y-65.015
X237.65Y-67.515
X237.65Y-70.515
X237.65Y-73.015
X237.65Y-76.015
X237.65Y-78.515
X237.65Y-81.515
X237.65Y-101.725
X237.65Y-104.725
X237.65Y-107.225
X237.65Y-110.225
X237.65Y-112.725
X237.65Y-115.725
X237.65Y-118.225
X237.65Y-121.225
X240.15Y-62.015
X240.15Y-65.015
X240.15Y-67.515
X240.15Y-70.515
X240.15Y-73.015
X240.15Y-76.015
X240.15Y-78.515
X240.15Y-81.515
X240.15Y-101.725
X240.15Y-104.725
X240.15Y-107.225
X240.15Y-110.225
X240.15Y-112.725
X240.15Y-115.725
X240.15Y-118.225
X240.15Y-121.225
X242.65Y-62.015
X242.65Y-65.015
X242.65Y-67.515
X242.65Y-70.515
X242.65Y-73.015
X242.65Y-76.015
X242.65Y-78.515
X242.65Y-81.515
X242.65Y-101.725
X242.65Y-104.725
X242.65Y-107.225
X242.65Y-110.225
X242.65Y-112.725
X242.65Y-115.725
X242.65Y-118.225
X242.65Y-121.225
X245.15Y-62.015
X245.15Y-65.015
X245.15Y-67.515
X245.15Y-70.515
X245.15Y-73.015
X245.15Y-76.015
X245.15Y-78.515
X245.15Y-81.515
X245.15Y-101.725
X245.15Y-104.725
X245.15Y-107.225
X245.15Y-110.225
X245.15Y-112.725
X245.15Y-115.725
X245.15Y-118.225
X245.15Y-121.225
T9
X119.551Y-117.897
X122.551Y-117.897
X125.551Y-117.897
X128.551Y-117.897
X147.276Y-117.897
X150.276Y-117.897
X153.276Y-117.897
X156.276Y-117.897
T10
X173.99Y-41.91
X173.99Y-44.45
X173.99Y-52.07
X173.99Y-54.61
X173.99Y-62.07
X173.99Y-64.61
X173.99Y-72.07
X173.99Y-74.61
X185.315Y-71.95
X185.315Y-74.49
X185.42Y-41.91
X185.42Y-44.45
X185.42Y-51.91
X185.42Y-54.45
X185.42Y-61.91
X185.42Y-64.45
T11
X196.85Y-36.91
X196.85Y-41.91
X196.85Y-49.41
X196.85Y-54.41
X196.85Y-61.91
X196.85Y-66.91
X196.85Y-74.41
X196.85Y-79.41
X196.85Y-103.55
X196.85Y-108.55
X196.85Y-116.05
X196.85Y-121.05
X196.85Y-128.55
X196.85Y-133.55
X196.85Y-141.05
X196.85Y-146.05
X203.86Y-36.91
X203.86Y-41.91
X203.86Y-49.41
X203.86Y-54.41
X203.86Y-61.91
X203.86Y-66.91
X203.86Y-74.41
X203.86Y-79.41
X203.86Y-103.55
X203.86Y-108.55
X203.86Y-116.05
X203.86Y-121.05
X203.86Y-128.55
X203.86Y-133.55
X203.86Y-141.05
X203.86Y-146.05
X216.85Y-36.91
X216.85Y-41.91
X216.85Y-49.41
X216.85Y-54.41
X216.85Y-61.91
X216.85Y-66.91
X216.85Y-74.41
X216.85Y-79.41
X216.85Y-103.55
X216.85Y-108.55
X216.85Y-116.05
X216.85Y-121.05
X216.85Y-128.55
X216.85Y-133.55
X216.85Y-141.05
X216.85Y-146.05
X223.86Y-36.91
X223.86Y-41.91
X223.86Y-49.41
X223.86Y-54.41
X223.86Y-61.91
X223.86Y-66.91
X223.86Y-74.41
X223.86Y-79.41
X223.86Y-103.55
X223.86Y-108.55
X223.86Y-116.05
X223.86Y-121.05
X223.86Y-128.55
X223.86Y-133.55
X223.86Y-141.05
X223.86Y-146.05
T12
X69.37Y-32.94
X69.37Y-149.94
X242.37Y-32.94
X242.37Y-149.94
T4
X88.534Y-57.167G85X88.784Y-57.167
G05
X88.534Y-61.467G85X88.784Y-61.467
G05
X93.334Y-57.167G85X93.584Y-57.167
G05
X93.334Y-61.467G85X93.584Y-61.467
G05
T0
M30
