%TF.GenerationSoftware,KiCad,Pcbnew,7.0.9*%
%TF.CreationDate,2024-04-30T19:42:54-02:30*%
%TF.ProjectId,power board 2024,706f7765-7220-4626-9f61-726420323032,rev?*%
%TF.SameCoordinates,Original*%
%TF.FileFunction,Drillmap*%
%TF.FilePolarity,Positive*%
%FSLAX45Y45*%
G04 Gerber Fmt 4.5, Leading zero omitted, Abs format (unit mm)*
G04 Created by KiCad (PCBNEW 7.0.9) date 2024-04-30 19:42:54*
%MOMM*%
%LPD*%
G01*
G04 APERTURE LIST*
%ADD10C,0.100000*%
%ADD11C,0.200000*%
%ADD12C,0.107000*%
%ADD13C,0.122000*%
%ADD14C,0.140000*%
%ADD15C,0.177000*%
%ADD16C,0.190000*%
%ADD17C,0.203000*%
G04 APERTURE END LIST*
D10*
X19861000Y-8411017D02*
G75*
G03*
X18801000Y-9030800I-9100J-1200774D01*
G01*
X9601000Y-8412000D02*
X8851000Y-8412000D01*
X19861000Y-8411017D02*
X20609824Y-8411040D01*
X8852176Y-10811760D02*
G75*
G03*
X14731000Y-15612000I5878824J1199760D01*
G01*
X14731000Y-15612000D02*
G75*
G03*
X20611000Y-10810800I0J6001200D01*
G01*
X20609824Y-8411040D02*
G75*
G03*
X14731000Y-3610800I-5878824J-1199760D01*
G01*
X14731000Y-3610800D02*
G75*
G03*
X8851000Y-8412000I0J-6001200D01*
G01*
X19861000Y-10810800D02*
X20611000Y-10810800D01*
X18800815Y-10191903D02*
G75*
G03*
X19861000Y-10810800I1049415J580163D01*
G01*
X9601000Y-10811784D02*
G75*
G03*
X10661000Y-10192000I9100J1200774D01*
G01*
X9601000Y-10811783D02*
X8852176Y-10811760D01*
X10661189Y-9030895D02*
G75*
G03*
X9601000Y-8412000I-1049405J-580150D01*
G01*
X10661000Y-10192000D02*
X10661190Y-9030895D01*
X18801000Y-9030800D02*
X18800811Y-10191905D01*
D11*
D10*
X9084000Y-10991000D02*
X9124000Y-11031000D01*
X9124000Y-10991000D02*
X9084000Y-11031000D01*
X9129000Y-8194000D02*
X9169000Y-8234000D01*
X9169000Y-8194000D02*
X9129000Y-8234000D01*
X9247000Y-7866000D02*
X9287000Y-7906000D01*
X9287000Y-7866000D02*
X9247000Y-7906000D01*
X9335000Y-11393000D02*
X9375000Y-11433000D01*
X9375000Y-11393000D02*
X9335000Y-11433000D01*
X9341000Y-7377000D02*
X9381000Y-7417000D01*
X9381000Y-7377000D02*
X9341000Y-7417000D01*
X9366000Y-11026000D02*
X9406000Y-11066000D01*
X9406000Y-11026000D02*
X9366000Y-11066000D01*
X9444000Y-7640000D02*
X9484000Y-7680000D01*
X9484000Y-7640000D02*
X9444000Y-7680000D01*
X9447000Y-11862000D02*
X9487000Y-11902000D01*
X9487000Y-11862000D02*
X9447000Y-11902000D01*
X9491000Y-7147000D02*
X9531000Y-7187000D01*
X9531000Y-7147000D02*
X9491000Y-7187000D01*
X9547000Y-7875000D02*
X9587000Y-7915000D01*
X9587000Y-7875000D02*
X9547000Y-7915000D01*
X9550000Y-11610000D02*
X9590000Y-11650000D01*
X9590000Y-11610000D02*
X9550000Y-11650000D01*
X9557000Y-8157000D02*
X9597000Y-8197000D01*
X9597000Y-8157000D02*
X9557000Y-8197000D01*
X9641000Y-7387000D02*
X9681000Y-7427000D01*
X9681000Y-7387000D02*
X9641000Y-7427000D01*
X9670000Y-12241000D02*
X9710000Y-12281000D01*
X9710000Y-12241000D02*
X9670000Y-12281000D01*
X9683000Y-11058000D02*
X9723000Y-11098000D01*
X9723000Y-11058000D02*
X9683000Y-11098000D01*
X9686000Y-6833000D02*
X9726000Y-6873000D01*
X9726000Y-6833000D02*
X9686000Y-6873000D01*
X9702000Y-12003000D02*
X9742000Y-12043000D01*
X9742000Y-12003000D02*
X9702000Y-12043000D01*
X9716000Y-7119000D02*
X9756000Y-7159000D01*
X9756000Y-7119000D02*
X9716000Y-7159000D01*
X9730000Y-7635000D02*
X9770000Y-7675000D01*
X9770000Y-7635000D02*
X9730000Y-7675000D01*
X9732000Y-11442000D02*
X9772000Y-11482000D01*
X9772000Y-11442000D02*
X9732000Y-11482000D01*
X9799000Y-6489000D02*
X9839000Y-6529000D01*
X9839000Y-6489000D02*
X9799000Y-6529000D01*
X9838000Y-7880000D02*
X9878000Y-7920000D01*
X9878000Y-7880000D02*
X9838000Y-7920000D01*
X9843000Y-7358000D02*
X9883000Y-7398000D01*
X9883000Y-7358000D02*
X9843000Y-7398000D01*
X9871000Y-11772000D02*
X9911000Y-11812000D01*
X9911000Y-11772000D02*
X9871000Y-11812000D01*
X9876000Y-8157000D02*
X9916000Y-8197000D01*
X9916000Y-8157000D02*
X9876000Y-8197000D01*
X9933000Y-7133000D02*
X9973000Y-7173000D01*
X9973000Y-7133000D02*
X9933000Y-7173000D01*
X9937000Y-12510000D02*
X9977000Y-12550000D01*
X9977000Y-12510000D02*
X9937000Y-12550000D01*
X9942000Y-12161000D02*
X9982000Y-12201000D01*
X9982000Y-12161000D02*
X9942000Y-12201000D01*
X10017000Y-12800000D02*
X10057000Y-12840000D01*
X10057000Y-12800000D02*
X10017000Y-12840000D01*
X10032000Y-10888000D02*
X10072000Y-10928000D01*
X10072000Y-10888000D02*
X10032000Y-10928000D01*
X10037000Y-6826000D02*
X10077000Y-6866000D01*
X10077000Y-6826000D02*
X10037000Y-6866000D01*
X10045000Y-11250000D02*
X10085000Y-11290000D01*
X10085000Y-11250000D02*
X10045000Y-11290000D01*
X10070000Y-6539000D02*
X10110000Y-6579000D01*
X10110000Y-6539000D02*
X10070000Y-6579000D01*
X10078000Y-11524000D02*
X10118000Y-11564000D01*
X10118000Y-11524000D02*
X10078000Y-11564000D01*
X10079000Y-6353000D02*
X10119000Y-6393000D01*
X10119000Y-6353000D02*
X10079000Y-6393000D01*
X10087000Y-7340000D02*
X10127000Y-7380000D01*
X10127000Y-7340000D02*
X10087000Y-7380000D01*
X10096000Y-5990000D02*
X10136000Y-6030000D01*
X10136000Y-5990000D02*
X10096000Y-6030000D01*
X10172000Y-7607000D02*
X10212000Y-7647000D01*
X10212000Y-7607000D02*
X10172000Y-7647000D01*
X10172000Y-7842000D02*
X10212000Y-7882000D01*
X10212000Y-7842000D02*
X10172000Y-7882000D01*
X10187000Y-13216000D02*
X10227000Y-13256000D01*
X10227000Y-13216000D02*
X10187000Y-13256000D01*
X10210000Y-12107000D02*
X10250000Y-12147000D01*
X10250000Y-12107000D02*
X10210000Y-12147000D01*
X10254000Y-6774000D02*
X10294000Y-6814000D01*
X10294000Y-6774000D02*
X10254000Y-6814000D01*
X10260000Y-10745000D02*
X10300000Y-10785000D01*
X10300000Y-10745000D02*
X10260000Y-10785000D01*
X10264000Y-11004000D02*
X10304000Y-11044000D01*
X10304000Y-11004000D02*
X10264000Y-11044000D01*
X10267000Y-12425000D02*
X10307000Y-12465000D01*
X10307000Y-12425000D02*
X10267000Y-12465000D01*
X10277000Y-11723000D02*
X10317000Y-11763000D01*
X10317000Y-11723000D02*
X10277000Y-11763000D01*
X10281000Y-5798000D02*
X10321000Y-5838000D01*
X10321000Y-5798000D02*
X10281000Y-5838000D01*
X10316000Y-12662000D02*
X10356000Y-12702000D01*
X10356000Y-12662000D02*
X10316000Y-12702000D01*
X10322000Y-8124000D02*
X10362000Y-8164000D01*
X10362000Y-8124000D02*
X10322000Y-8164000D01*
X10327000Y-7349000D02*
X10367000Y-7389000D01*
X10367000Y-7349000D02*
X10327000Y-7389000D01*
X10339000Y-12961000D02*
X10379000Y-13001000D01*
X10379000Y-12961000D02*
X10339000Y-13001000D01*
X10341000Y-7170000D02*
X10381000Y-7210000D01*
X10381000Y-7170000D02*
X10341000Y-7210000D01*
X10357000Y-6426000D02*
X10397000Y-6466000D01*
X10397000Y-6426000D02*
X10357000Y-6466000D01*
X10363000Y-11362000D02*
X10403000Y-11402000D01*
X10403000Y-11362000D02*
X10363000Y-11402000D01*
X10377000Y-6109000D02*
X10417000Y-6149000D01*
X10417000Y-6109000D02*
X10377000Y-6149000D01*
X10412000Y-7823000D02*
X10452000Y-7863000D01*
X10452000Y-7823000D02*
X10412000Y-7863000D01*
X10458000Y-12214000D02*
X10498000Y-12254000D01*
X10498000Y-12214000D02*
X10458000Y-12254000D01*
X10496000Y-7556000D02*
X10536000Y-7596000D01*
X10536000Y-7556000D02*
X10496000Y-7596000D01*
X10531000Y-13409000D02*
X10571000Y-13449000D01*
X10571000Y-13409000D02*
X10531000Y-13449000D01*
X10556000Y-12720000D02*
X10596000Y-12760000D01*
X10596000Y-12720000D02*
X10556000Y-12760000D01*
X10558000Y-13117000D02*
X10598000Y-13157000D01*
X10598000Y-13117000D02*
X10558000Y-13157000D01*
X10560000Y-6363000D02*
X10600000Y-6403000D01*
X10600000Y-6363000D02*
X10560000Y-6403000D01*
X10568000Y-6583000D02*
X10608000Y-6623000D01*
X10608000Y-6583000D02*
X10568000Y-6623000D01*
X10586000Y-6779000D02*
X10626000Y-6819000D01*
X10626000Y-6779000D02*
X10586000Y-6819000D01*
X10594000Y-5533000D02*
X10634000Y-5573000D01*
X10634000Y-5533000D02*
X10594000Y-5573000D01*
X10594000Y-5858000D02*
X10634000Y-5898000D01*
X10634000Y-5858000D02*
X10594000Y-5898000D01*
X10633000Y-10827000D02*
X10673000Y-10867000D01*
X10673000Y-10827000D02*
X10633000Y-10867000D01*
X10648000Y-8485000D02*
X10688000Y-8525000D01*
X10688000Y-8485000D02*
X10648000Y-8525000D01*
X10658000Y-11882000D02*
X10698000Y-11922000D01*
X10698000Y-11882000D02*
X10658000Y-11922000D01*
X10660000Y-7443000D02*
X10700000Y-7483000D01*
X10700000Y-7443000D02*
X10660000Y-7483000D01*
X10665000Y-6230000D02*
X10705000Y-6270000D01*
X10705000Y-6230000D02*
X10665000Y-6270000D01*
X10665000Y-7152000D02*
X10705000Y-7192000D01*
X10705000Y-7152000D02*
X10665000Y-7192000D01*
X10665000Y-8082000D02*
X10705000Y-8122000D01*
X10705000Y-8082000D02*
X10665000Y-8122000D01*
X10683000Y-11390000D02*
X10723000Y-11430000D01*
X10723000Y-11390000D02*
X10683000Y-11430000D01*
X10715000Y-13276000D02*
X10755000Y-13316000D01*
X10755000Y-13276000D02*
X10715000Y-13316000D01*
X10738000Y-13613000D02*
X10778000Y-13653000D01*
X10778000Y-13613000D02*
X10738000Y-13653000D01*
X10753000Y-12343000D02*
X10793000Y-12383000D01*
X10793000Y-12343000D02*
X10753000Y-12383000D01*
X10773000Y-7814000D02*
X10813000Y-7854000D01*
X10813000Y-7814000D02*
X10773000Y-7854000D01*
X10775000Y-12605000D02*
X10815000Y-12645000D01*
X10815000Y-12605000D02*
X10775000Y-12645000D01*
X10788000Y-13119000D02*
X10828000Y-13159000D01*
X10828000Y-13119000D02*
X10788000Y-13159000D01*
X10809000Y-8710000D02*
X10849000Y-8750000D01*
X10849000Y-8710000D02*
X10809000Y-8750000D01*
X10833000Y-13504000D02*
X10873000Y-13544000D01*
X10873000Y-13504000D02*
X10833000Y-13544000D01*
X10835000Y-5379000D02*
X10875000Y-5419000D01*
X10875000Y-5379000D02*
X10835000Y-5419000D01*
X10840000Y-12885000D02*
X10880000Y-12925000D01*
X10880000Y-12885000D02*
X10840000Y-12925000D01*
X10843000Y-6004000D02*
X10883000Y-6044000D01*
X10883000Y-6004000D02*
X10843000Y-6044000D01*
X10863000Y-9915000D02*
X10903000Y-9955000D01*
X10903000Y-9915000D02*
X10863000Y-9955000D01*
X10884000Y-9297000D02*
X10924000Y-9337000D01*
X10924000Y-9297000D02*
X10884000Y-9337000D01*
X10887000Y-5169000D02*
X10927000Y-5209000D01*
X10927000Y-5169000D02*
X10887000Y-5209000D01*
X10900000Y-8460000D02*
X10940000Y-8500000D01*
X10940000Y-8460000D02*
X10900000Y-8500000D01*
X10901000Y-13931000D02*
X10941000Y-13971000D01*
X10941000Y-13931000D02*
X10901000Y-13971000D01*
X10922000Y-5636000D02*
X10962000Y-5676000D01*
X10962000Y-5636000D02*
X10922000Y-5676000D01*
X10933000Y-7194000D02*
X10973000Y-7234000D01*
X10973000Y-7194000D02*
X10933000Y-7234000D01*
X10933000Y-7584000D02*
X10973000Y-7624000D01*
X10973000Y-7584000D02*
X10933000Y-7624000D01*
X10933000Y-8058000D02*
X10973000Y-8098000D01*
X10973000Y-8058000D02*
X10933000Y-8098000D01*
X10945000Y-10455000D02*
X10985000Y-10495000D01*
X10985000Y-10455000D02*
X10945000Y-10495000D01*
X10963000Y-14090000D02*
X11003000Y-14130000D01*
X11003000Y-14090000D02*
X10963000Y-14130000D01*
X10967000Y-12281000D02*
X11007000Y-12321000D01*
X11007000Y-12281000D02*
X10967000Y-12321000D01*
X10970000Y-13686000D02*
X11010000Y-13726000D01*
X11010000Y-13686000D02*
X10970000Y-13726000D01*
X10989000Y-6907000D02*
X11029000Y-6947000D01*
X11029000Y-6907000D02*
X10989000Y-6947000D01*
X11000000Y-13471000D02*
X11040000Y-13511000D01*
X11040000Y-13471000D02*
X11000000Y-13511000D01*
X11057500Y-9642500D02*
X11097500Y-9682500D01*
X11097500Y-9642500D02*
X11057500Y-9682500D01*
X11072000Y-13242000D02*
X11112000Y-13282000D01*
X11112000Y-13242000D02*
X11072000Y-13282000D01*
X11087000Y-12977000D02*
X11127000Y-13017000D01*
X11127000Y-12977000D02*
X11087000Y-13017000D01*
X11097000Y-5430000D02*
X11137000Y-5470000D01*
X11137000Y-5430000D02*
X11097000Y-5470000D01*
X11112500Y-8890000D02*
X11152500Y-8930000D01*
X11152500Y-8890000D02*
X11112500Y-8930000D01*
X11118000Y-10944000D02*
X11158000Y-10984000D01*
X11158000Y-10944000D02*
X11118000Y-10984000D01*
X11127000Y-12817000D02*
X11167000Y-12857000D01*
X11167000Y-12817000D02*
X11127000Y-12857000D01*
X11127500Y-8445000D02*
X11167500Y-8485000D01*
X11167500Y-8445000D02*
X11127500Y-8485000D01*
X11156000Y-5236000D02*
X11196000Y-5276000D01*
X11196000Y-5236000D02*
X11156000Y-5276000D01*
X11158000Y-10078000D02*
X11198000Y-10118000D01*
X11198000Y-10078000D02*
X11158000Y-10118000D01*
X11164000Y-5782000D02*
X11204000Y-5822000D01*
X11204000Y-5782000D02*
X11164000Y-5822000D01*
X11168000Y-7546000D02*
X11208000Y-7586000D01*
X11208000Y-7546000D02*
X11168000Y-7586000D01*
X11172000Y-7875000D02*
X11212000Y-7915000D01*
X11212000Y-7875000D02*
X11172000Y-7915000D01*
X11187000Y-13556000D02*
X11227000Y-13596000D01*
X11227000Y-13556000D02*
X11187000Y-13596000D01*
X11193000Y-4919000D02*
X11233000Y-4959000D01*
X11233000Y-4919000D02*
X11193000Y-4959000D01*
X11205000Y-8237500D02*
X11245000Y-8277500D01*
X11245000Y-8237500D02*
X11205000Y-8277500D01*
X11210000Y-12547500D02*
X11250000Y-12587500D01*
X11250000Y-12547500D02*
X11210000Y-12587500D01*
X11219000Y-8011000D02*
X11259000Y-8051000D01*
X11259000Y-8011000D02*
X11219000Y-8051000D01*
X11237000Y-13901000D02*
X11277000Y-13941000D01*
X11277000Y-13901000D02*
X11237000Y-13941000D01*
X11252000Y-14110000D02*
X11292000Y-14150000D01*
X11292000Y-14110000D02*
X11252000Y-14150000D01*
X11266000Y-6823000D02*
X11306000Y-6863000D01*
X11306000Y-6823000D02*
X11266000Y-6863000D01*
X11275000Y-11740000D02*
X11315000Y-11780000D01*
X11315000Y-11740000D02*
X11275000Y-11780000D01*
X11286131Y-14306262D02*
X11326131Y-14346262D01*
X11326131Y-14306262D02*
X11286131Y-14346262D01*
X11370000Y-8597500D02*
X11410000Y-8637500D01*
X11410000Y-8597500D02*
X11370000Y-8637500D01*
X11379000Y-13037000D02*
X11419000Y-13077000D01*
X11419000Y-13037000D02*
X11379000Y-13077000D01*
X11380000Y-10040000D02*
X11420000Y-10080000D01*
X11420000Y-10040000D02*
X11380000Y-10080000D01*
X11382000Y-5517000D02*
X11422000Y-5557000D01*
X11422000Y-5517000D02*
X11382000Y-5557000D01*
X11382500Y-9457500D02*
X11422500Y-9497500D01*
X11422500Y-9457500D02*
X11382500Y-9497500D01*
X11387000Y-7179000D02*
X11427000Y-7219000D01*
X11427000Y-7179000D02*
X11387000Y-7219000D01*
X11398000Y-6087000D02*
X11438000Y-6127000D01*
X11438000Y-6087000D02*
X11398000Y-6127000D01*
X11410000Y-8440000D02*
X11450000Y-8480000D01*
X11450000Y-8440000D02*
X11410000Y-8480000D01*
X11434000Y-13411000D02*
X11474000Y-13451000D01*
X11474000Y-13411000D02*
X11434000Y-13451000D01*
X11439000Y-5022000D02*
X11479000Y-5062000D01*
X11479000Y-5022000D02*
X11439000Y-5062000D01*
X11444000Y-13628000D02*
X11484000Y-13668000D01*
X11484000Y-13628000D02*
X11444000Y-13668000D01*
X11455000Y-5347000D02*
X11495000Y-5387000D01*
X11495000Y-5347000D02*
X11455000Y-5387000D01*
X11459000Y-7610000D02*
X11499000Y-7650000D01*
X11499000Y-7610000D02*
X11459000Y-7650000D01*
X11516000Y-4757000D02*
X11556000Y-4797000D01*
X11556000Y-4757000D02*
X11516000Y-4797000D01*
X11516000Y-5636000D02*
X11556000Y-5676000D01*
X11556000Y-5636000D02*
X11516000Y-5676000D01*
X11520000Y-10512000D02*
X11560000Y-10552000D01*
X11560000Y-10512000D02*
X11520000Y-10552000D01*
X11528322Y-14073998D02*
X11568322Y-14113998D01*
X11568322Y-14073998D02*
X11528322Y-14113998D01*
X11530000Y-5931000D02*
X11570000Y-5971000D01*
X11570000Y-5931000D02*
X11530000Y-5971000D01*
X11534000Y-14261000D02*
X11574000Y-14301000D01*
X11574000Y-14261000D02*
X11534000Y-14301000D01*
X11536000Y-13883000D02*
X11576000Y-13923000D01*
X11576000Y-13883000D02*
X11536000Y-13923000D01*
X11542500Y-12210000D02*
X11582500Y-12250000D01*
X11582500Y-12210000D02*
X11542500Y-12250000D01*
X11550000Y-11432500D02*
X11590000Y-11472500D01*
X11590000Y-11432500D02*
X11550000Y-11472500D01*
X11574000Y-12865000D02*
X11614000Y-12905000D01*
X11614000Y-12865000D02*
X11574000Y-12905000D01*
X11598000Y-6841000D02*
X11638000Y-6881000D01*
X11638000Y-6841000D02*
X11598000Y-6881000D01*
X11606000Y-13568000D02*
X11646000Y-13608000D01*
X11646000Y-13568000D02*
X11606000Y-13608000D01*
X11607500Y-8895000D02*
X11647500Y-8935000D01*
X11647500Y-8895000D02*
X11607500Y-8935000D01*
X11610000Y-7868000D02*
X11650000Y-7908000D01*
X11650000Y-7868000D02*
X11610000Y-7908000D01*
X11617655Y-14528601D02*
X11657655Y-14568601D01*
X11657655Y-14528601D02*
X11617655Y-14568601D01*
X11620000Y-8590000D02*
X11660000Y-8630000D01*
X11660000Y-8590000D02*
X11620000Y-8630000D01*
X11628000Y-13299000D02*
X11668000Y-13339000D01*
X11668000Y-13299000D02*
X11628000Y-13339000D01*
X11651000Y-11285000D02*
X11691000Y-11325000D01*
X11691000Y-11285000D02*
X11651000Y-11325000D01*
X11662500Y-9662500D02*
X11702500Y-9702500D01*
X11702500Y-9662500D02*
X11662500Y-9702500D01*
X11782500Y-12507500D02*
X11822500Y-12547500D01*
X11822500Y-12507500D02*
X11782500Y-12547500D01*
X11794000Y-5636000D02*
X11834000Y-5676000D01*
X11834000Y-5636000D02*
X11794000Y-5676000D01*
X11816000Y-11365000D02*
X11856000Y-11405000D01*
X11856000Y-11365000D02*
X11816000Y-11405000D01*
X11816000Y-13897000D02*
X11856000Y-13937000D01*
X11856000Y-13897000D02*
X11816000Y-13937000D01*
X11824000Y-14060000D02*
X11864000Y-14100000D01*
X11864000Y-14060000D02*
X11824000Y-14100000D01*
X11825000Y-7493000D02*
X11865000Y-7533000D01*
X11865000Y-7493000D02*
X11825000Y-7533000D01*
X11826091Y-12872792D02*
X11866091Y-12912792D01*
X11866091Y-12872792D02*
X11826091Y-12912792D01*
X11826097Y-13732549D02*
X11866097Y-13772549D01*
X11866097Y-13732549D02*
X11826097Y-13772549D01*
X11833454Y-13474045D02*
X11873454Y-13514045D01*
X11873454Y-13474045D02*
X11833454Y-13514045D01*
X11840000Y-11183000D02*
X11880000Y-11223000D01*
X11880000Y-11183000D02*
X11840000Y-11223000D01*
X11845000Y-11745000D02*
X11885000Y-11785000D01*
X11885000Y-11745000D02*
X11845000Y-11785000D01*
X11846000Y-14677000D02*
X11886000Y-14717000D01*
X11886000Y-14677000D02*
X11846000Y-14717000D01*
X11852000Y-14251000D02*
X11892000Y-14291000D01*
X11892000Y-14251000D02*
X11852000Y-14291000D01*
X11860454Y-13186045D02*
X11900454Y-13226045D01*
X11900454Y-13186045D02*
X11860454Y-13226045D01*
X11872000Y-14479000D02*
X11912000Y-14519000D01*
X11912000Y-14479000D02*
X11872000Y-14519000D01*
X11886000Y-6985000D02*
X11926000Y-7025000D01*
X11926000Y-6985000D02*
X11886000Y-7025000D01*
X11895000Y-12650000D02*
X11935000Y-12690000D01*
X11935000Y-12650000D02*
X11895000Y-12690000D01*
X11929000Y-6318000D02*
X11969000Y-6358000D01*
X11969000Y-6318000D02*
X11929000Y-6358000D01*
X11935000Y-11338000D02*
X11975000Y-11378000D01*
X11975000Y-11338000D02*
X11935000Y-11378000D01*
X12007500Y-8860000D02*
X12047500Y-8900000D01*
X12047500Y-8860000D02*
X12007500Y-8900000D01*
X12022500Y-9135000D02*
X12062500Y-9175000D01*
X12062500Y-9135000D02*
X12022500Y-9175000D01*
X12047000Y-4393000D02*
X12087000Y-4433000D01*
X12087000Y-4393000D02*
X12047000Y-4433000D01*
X12055000Y-8428000D02*
X12095000Y-8468000D01*
X12095000Y-8428000D02*
X12055000Y-8468000D01*
X12065000Y-10851000D02*
X12105000Y-10891000D01*
X12105000Y-10851000D02*
X12065000Y-10891000D01*
X12096000Y-11087000D02*
X12136000Y-11127000D01*
X12136000Y-11087000D02*
X12096000Y-11127000D01*
X12126000Y-5636000D02*
X12166000Y-5676000D01*
X12166000Y-5636000D02*
X12126000Y-5676000D01*
X12141000Y-6249000D02*
X12181000Y-6289000D01*
X12181000Y-6249000D02*
X12141000Y-6289000D01*
X12226000Y-5898000D02*
X12266000Y-5938000D01*
X12266000Y-5898000D02*
X12226000Y-5938000D01*
X12231000Y-9018000D02*
X12271000Y-9058000D01*
X12271000Y-9018000D02*
X12231000Y-9058000D01*
X12240000Y-11794000D02*
X12280000Y-11834000D01*
X12280000Y-11794000D02*
X12240000Y-11834000D01*
X12245000Y-6042000D02*
X12285000Y-6082000D01*
X12285000Y-6042000D02*
X12245000Y-6082000D01*
X12245000Y-7315000D02*
X12285000Y-7355000D01*
X12285000Y-7315000D02*
X12245000Y-7355000D01*
X12249000Y-10810000D02*
X12289000Y-10850000D01*
X12289000Y-10810000D02*
X12249000Y-10850000D01*
X12254000Y-4416000D02*
X12294000Y-4456000D01*
X12294000Y-4416000D02*
X12254000Y-4456000D01*
X12267000Y-11578000D02*
X12307000Y-11618000D01*
X12307000Y-11578000D02*
X12267000Y-11618000D01*
X12280000Y-8459000D02*
X12320000Y-8499000D01*
X12320000Y-8459000D02*
X12280000Y-8499000D01*
X12282000Y-7023000D02*
X12322000Y-7063000D01*
X12322000Y-7023000D02*
X12282000Y-7063000D01*
X12311000Y-11107000D02*
X12351000Y-11147000D01*
X12351000Y-11107000D02*
X12311000Y-11147000D01*
X12326000Y-6273000D02*
X12366000Y-6313000D01*
X12366000Y-6273000D02*
X12326000Y-6313000D01*
X12373000Y-8868000D02*
X12413000Y-8908000D01*
X12413000Y-8868000D02*
X12373000Y-8908000D01*
X12442000Y-4295000D02*
X12482000Y-4335000D01*
X12482000Y-4295000D02*
X12442000Y-4335000D01*
X12443000Y-5608000D02*
X12483000Y-5648000D01*
X12483000Y-5608000D02*
X12443000Y-5648000D01*
X12461000Y-8492000D02*
X12501000Y-8532000D01*
X12501000Y-8492000D02*
X12461000Y-8532000D01*
X12474000Y-8686000D02*
X12514000Y-8726000D01*
X12514000Y-8686000D02*
X12474000Y-8726000D01*
X12476800Y-6355400D02*
X12516800Y-6395400D01*
X12516800Y-6355400D02*
X12476800Y-6395400D01*
X12479000Y-9044000D02*
X12519000Y-9084000D01*
X12519000Y-9044000D02*
X12479000Y-9084000D01*
X12585000Y-9522000D02*
X12625000Y-9562000D01*
X12625000Y-9522000D02*
X12585000Y-9562000D01*
X12594000Y-9400000D02*
X12634000Y-9440000D01*
X12634000Y-9400000D02*
X12594000Y-9440000D01*
X12667000Y-10395000D02*
X12707000Y-10435000D01*
X12707000Y-10395000D02*
X12667000Y-10435000D01*
X12669000Y-9468000D02*
X12709000Y-9508000D01*
X12709000Y-9468000D02*
X12669000Y-9508000D01*
X12756200Y-6124000D02*
X12796200Y-6164000D01*
X12796200Y-6124000D02*
X12756200Y-6164000D01*
X12765000Y-6431600D02*
X12805000Y-6471600D01*
X12805000Y-6431600D02*
X12765000Y-6471600D01*
X13037000Y-6243000D02*
X13077000Y-6283000D01*
X13077000Y-6243000D02*
X13037000Y-6283000D01*
X13128000Y-6689000D02*
X13168000Y-6729000D01*
X13168000Y-6689000D02*
X13128000Y-6729000D01*
X13259000Y-6428000D02*
X13299000Y-6468000D01*
X13299000Y-6428000D02*
X13259000Y-6468000D01*
X13323000Y-9406000D02*
X13363000Y-9446000D01*
X13363000Y-9406000D02*
X13323000Y-9446000D01*
X13366000Y-6168000D02*
X13406000Y-6208000D01*
X13406000Y-6168000D02*
X13366000Y-6208000D01*
X13405000Y-9490000D02*
X13445000Y-9530000D01*
X13445000Y-9490000D02*
X13405000Y-9530000D01*
X13440000Y-9197000D02*
X13480000Y-9237000D01*
X13480000Y-9197000D02*
X13440000Y-9237000D01*
X13455000Y-5210000D02*
X13495000Y-5250000D01*
X13495000Y-5210000D02*
X13455000Y-5250000D01*
X13465000Y-14600000D02*
X13505000Y-14640000D01*
X13505000Y-14600000D02*
X13465000Y-14640000D01*
X13477000Y-9408000D02*
X13517000Y-9448000D01*
X13517000Y-9408000D02*
X13477000Y-9448000D01*
X13510000Y-11262000D02*
X13550000Y-11302000D01*
X13550000Y-11262000D02*
X13510000Y-11302000D01*
X13696000Y-9606600D02*
X13736000Y-9646600D01*
X13736000Y-9606600D02*
X13696000Y-9646600D01*
X13863000Y-12903000D02*
X13903000Y-12943000D01*
X13903000Y-12903000D02*
X13863000Y-12943000D01*
X13881000Y-5692000D02*
X13921000Y-5732000D01*
X13921000Y-5692000D02*
X13881000Y-5732000D01*
X13882000Y-12677000D02*
X13922000Y-12717000D01*
X13922000Y-12677000D02*
X13882000Y-12717000D01*
X13973000Y-6187000D02*
X14013000Y-6227000D01*
X14013000Y-6187000D02*
X13973000Y-6227000D01*
X13981000Y-8914000D02*
X14021000Y-8954000D01*
X14021000Y-8914000D02*
X13981000Y-8954000D01*
X13984000Y-9230000D02*
X14024000Y-9270000D01*
X14024000Y-9230000D02*
X13984000Y-9270000D01*
X13991000Y-13171000D02*
X14031000Y-13211000D01*
X14031000Y-13171000D02*
X13991000Y-13211000D01*
X14002000Y-9093000D02*
X14042000Y-9133000D01*
X14042000Y-9093000D02*
X14002000Y-9133000D01*
X14004000Y-5298000D02*
X14044000Y-5338000D01*
X14044000Y-5298000D02*
X14004000Y-5338000D01*
X14014000Y-6546000D02*
X14054000Y-6586000D01*
X14054000Y-6546000D02*
X14014000Y-6586000D01*
X14023000Y-12186000D02*
X14063000Y-12226000D01*
X14063000Y-12186000D02*
X14023000Y-12226000D01*
X14028000Y-12540000D02*
X14068000Y-12580000D01*
X14068000Y-12540000D02*
X14028000Y-12580000D01*
X14039000Y-11287000D02*
X14079000Y-11327000D01*
X14079000Y-11287000D02*
X14039000Y-11327000D01*
X14039000Y-12371000D02*
X14079000Y-12411000D01*
X14079000Y-12371000D02*
X14039000Y-12411000D01*
X14044000Y-11096000D02*
X14084000Y-11136000D01*
X14084000Y-11096000D02*
X14044000Y-11136000D01*
X14044068Y-11442891D02*
X14084068Y-11482891D01*
X14084068Y-11442891D02*
X14044068Y-11482891D01*
X14049000Y-11668000D02*
X14089000Y-11708000D01*
X14089000Y-11668000D02*
X14049000Y-11708000D01*
X14051000Y-11840000D02*
X14091000Y-11880000D01*
X14091000Y-11840000D02*
X14051000Y-11880000D01*
X14054000Y-11974000D02*
X14094000Y-12014000D01*
X14094000Y-11974000D02*
X14054000Y-12014000D01*
X14056000Y-12879000D02*
X14096000Y-12919000D01*
X14096000Y-12879000D02*
X14056000Y-12919000D01*
X14129000Y-13016000D02*
X14169000Y-13056000D01*
X14169000Y-13016000D02*
X14129000Y-13056000D01*
X14139000Y-10738000D02*
X14179000Y-10778000D01*
X14179000Y-10738000D02*
X14139000Y-10778000D01*
X14153200Y-9809800D02*
X14193200Y-9849800D01*
X14193200Y-9809800D02*
X14153200Y-9849800D01*
X14165000Y-6205000D02*
X14205000Y-6245000D01*
X14205000Y-6205000D02*
X14165000Y-6245000D01*
X14169000Y-8829000D02*
X14209000Y-8869000D01*
X14209000Y-8829000D02*
X14169000Y-8869000D01*
X14169000Y-13204000D02*
X14209000Y-13244000D01*
X14209000Y-13204000D02*
X14169000Y-13244000D01*
X14178600Y-9682800D02*
X14218600Y-9722800D01*
X14218600Y-9682800D02*
X14178600Y-9722800D01*
X14219000Y-13542000D02*
X14259000Y-13582000D01*
X14259000Y-13542000D02*
X14219000Y-13582000D01*
X14244000Y-12847000D02*
X14284000Y-12887000D01*
X14284000Y-12847000D02*
X14244000Y-12887000D01*
X14248000Y-14109000D02*
X14288000Y-14149000D01*
X14288000Y-14109000D02*
X14248000Y-14149000D01*
X14325000Y-6083000D02*
X14365000Y-6123000D01*
X14365000Y-6083000D02*
X14325000Y-6123000D01*
X14340000Y-13048000D02*
X14380000Y-13088000D01*
X14380000Y-13048000D02*
X14340000Y-13088000D01*
X14350000Y-10477000D02*
X14390000Y-10517000D01*
X14390000Y-10477000D02*
X14350000Y-10517000D01*
X14398000Y-13700000D02*
X14438000Y-13740000D01*
X14438000Y-13700000D02*
X14398000Y-13740000D01*
X14455000Y-8780000D02*
X14495000Y-8820000D01*
X14495000Y-8780000D02*
X14455000Y-8820000D01*
X14457000Y-6196000D02*
X14497000Y-6236000D01*
X14497000Y-6196000D02*
X14457000Y-6236000D01*
X14458000Y-14606000D02*
X14498000Y-14646000D01*
X14498000Y-14606000D02*
X14458000Y-14646000D01*
X14500000Y-14318000D02*
X14540000Y-14358000D01*
X14540000Y-14318000D02*
X14500000Y-14358000D01*
X14506000Y-14453000D02*
X14546000Y-14493000D01*
X14546000Y-14453000D02*
X14506000Y-14493000D01*
X14515000Y-12853000D02*
X14555000Y-12893000D01*
X14555000Y-12853000D02*
X14515000Y-12893000D01*
X14551000Y-13264000D02*
X14591000Y-13304000D01*
X14591000Y-13264000D02*
X14551000Y-13304000D01*
X14593000Y-6064000D02*
X14633000Y-6104000D01*
X14633000Y-6064000D02*
X14593000Y-6104000D01*
X14595000Y-11277000D02*
X14635000Y-11317000D01*
X14635000Y-11277000D02*
X14595000Y-11317000D01*
X14602000Y-12388000D02*
X14642000Y-12428000D01*
X14642000Y-12388000D02*
X14602000Y-12428000D01*
X14608000Y-6759000D02*
X14648000Y-6799000D01*
X14648000Y-6759000D02*
X14608000Y-6799000D01*
X14608000Y-7302000D02*
X14648000Y-7342000D01*
X14648000Y-7302000D02*
X14608000Y-7342000D01*
X14609000Y-11844000D02*
X14649000Y-11884000D01*
X14649000Y-11844000D02*
X14609000Y-11884000D01*
X14612000Y-10750000D02*
X14652000Y-10790000D01*
X14652000Y-10750000D02*
X14612000Y-10790000D01*
X14615000Y-7862000D02*
X14655000Y-7902000D01*
X14655000Y-7862000D02*
X14615000Y-7902000D01*
X14631000Y-8423000D02*
X14671000Y-8463000D01*
X14671000Y-8423000D02*
X14631000Y-8463000D01*
X14639500Y-14743750D02*
X14679500Y-14783750D01*
X14679500Y-14743750D02*
X14639500Y-14783750D01*
X14704000Y-5126000D02*
X14744000Y-5166000D01*
X14744000Y-5126000D02*
X14704000Y-5166000D01*
X14706000Y-13170000D02*
X14746000Y-13210000D01*
X14746000Y-13170000D02*
X14706000Y-13210000D01*
X14762000Y-6196000D02*
X14802000Y-6236000D01*
X14802000Y-6196000D02*
X14762000Y-6236000D01*
X14804000Y-3818000D02*
X14844000Y-3858000D01*
X14844000Y-3818000D02*
X14804000Y-3858000D01*
X14813600Y-10317800D02*
X14853600Y-10357800D01*
X14853600Y-10317800D02*
X14813600Y-10357800D01*
X14828000Y-13029000D02*
X14868000Y-13069000D01*
X14868000Y-13029000D02*
X14828000Y-13069000D01*
X14847000Y-13509000D02*
X14887000Y-13549000D01*
X14887000Y-13509000D02*
X14847000Y-13549000D01*
X14890000Y-4045000D02*
X14930000Y-4085000D01*
X14930000Y-4045000D02*
X14890000Y-4085000D01*
X14901000Y-12884000D02*
X14941000Y-12924000D01*
X14941000Y-12884000D02*
X14901000Y-12924000D01*
X14922000Y-6088000D02*
X14962000Y-6128000D01*
X14962000Y-6088000D02*
X14922000Y-6128000D01*
X14947000Y-8799000D02*
X14987000Y-8839000D01*
X14987000Y-8799000D02*
X14947000Y-8839000D01*
X15008000Y-5434000D02*
X15048000Y-5474000D01*
X15048000Y-5434000D02*
X15008000Y-5474000D01*
X15050000Y-14160000D02*
X15090000Y-14200000D01*
X15090000Y-14160000D02*
X15050000Y-14200000D01*
X15086000Y-6229000D02*
X15126000Y-6269000D01*
X15126000Y-6229000D02*
X15086000Y-6269000D01*
X15121000Y-4874000D02*
X15161000Y-4914000D01*
X15161000Y-4874000D02*
X15121000Y-4914000D01*
X15130000Y-14595000D02*
X15170000Y-14635000D01*
X15170000Y-14595000D02*
X15130000Y-14635000D01*
X15145000Y-15057000D02*
X15185000Y-15097000D01*
X15185000Y-15057000D02*
X15145000Y-15097000D01*
X15148000Y-14343000D02*
X15188000Y-14383000D01*
X15188000Y-14343000D02*
X15148000Y-14383000D01*
X15152000Y-5403000D02*
X15192000Y-5443000D01*
X15192000Y-5403000D02*
X15152000Y-5443000D01*
X15152000Y-11107000D02*
X15192000Y-11147000D01*
X15192000Y-11107000D02*
X15152000Y-11147000D01*
X15153000Y-8829000D02*
X15193000Y-8869000D01*
X15193000Y-8829000D02*
X15153000Y-8869000D01*
X15157000Y-5139000D02*
X15197000Y-5179000D01*
X15197000Y-5139000D02*
X15157000Y-5179000D01*
X15161000Y-10722000D02*
X15201000Y-10762000D01*
X15201000Y-10722000D02*
X15161000Y-10762000D01*
X15161000Y-12395000D02*
X15201000Y-12435000D01*
X15201000Y-12395000D02*
X15161000Y-12435000D01*
X15163000Y-11280000D02*
X15203000Y-11320000D01*
X15203000Y-11280000D02*
X15163000Y-11320000D01*
X15163000Y-12217000D02*
X15203000Y-12257000D01*
X15203000Y-12217000D02*
X15163000Y-12257000D01*
X15164000Y-12553000D02*
X15204000Y-12593000D01*
X15204000Y-12553000D02*
X15164000Y-12593000D01*
X15165000Y-4047000D02*
X15205000Y-4087000D01*
X15205000Y-4047000D02*
X15165000Y-4087000D01*
X15166000Y-6083000D02*
X15206000Y-6123000D01*
X15206000Y-6083000D02*
X15166000Y-6123000D01*
X15172000Y-12017000D02*
X15212000Y-12057000D01*
X15212000Y-12017000D02*
X15172000Y-12057000D01*
X15178000Y-10524000D02*
X15218000Y-10564000D01*
X15218000Y-10524000D02*
X15178000Y-10564000D01*
X15179000Y-11636000D02*
X15219000Y-11676000D01*
X15219000Y-11636000D02*
X15179000Y-11676000D01*
X15180000Y-10911000D02*
X15220000Y-10951000D01*
X15220000Y-10911000D02*
X15180000Y-10951000D01*
X15180000Y-11447000D02*
X15220000Y-11487000D01*
X15220000Y-11447000D02*
X15180000Y-11487000D01*
X15182000Y-3789000D02*
X15222000Y-3829000D01*
X15222000Y-3789000D02*
X15182000Y-3829000D01*
X15186000Y-4398000D02*
X15226000Y-4438000D01*
X15226000Y-4398000D02*
X15186000Y-4438000D01*
X15190000Y-11857000D02*
X15230000Y-11897000D01*
X15230000Y-11857000D02*
X15190000Y-11897000D01*
X15205000Y-13508000D02*
X15245000Y-13548000D01*
X15245000Y-13508000D02*
X15205000Y-13548000D01*
X15222000Y-4649000D02*
X15262000Y-4689000D01*
X15262000Y-4649000D02*
X15222000Y-4689000D01*
X15245400Y-9606600D02*
X15285400Y-9646600D01*
X15285400Y-9606600D02*
X15245400Y-9646600D01*
X15246000Y-6529000D02*
X15286000Y-6569000D01*
X15286000Y-6529000D02*
X15246000Y-6569000D01*
X15270800Y-13226000D02*
X15310800Y-13266000D01*
X15310800Y-13226000D02*
X15270800Y-13266000D01*
X15277000Y-12903000D02*
X15317000Y-12943000D01*
X15317000Y-12903000D02*
X15277000Y-12943000D01*
X15339000Y-15312000D02*
X15379000Y-15352000D01*
X15379000Y-15312000D02*
X15339000Y-15352000D01*
X15368000Y-10457000D02*
X15408000Y-10497000D01*
X15408000Y-10457000D02*
X15368000Y-10497000D01*
X15401000Y-6173000D02*
X15441000Y-6213000D01*
X15441000Y-6173000D02*
X15401000Y-6213000D01*
X15442000Y-8789000D02*
X15482000Y-8829000D01*
X15482000Y-8789000D02*
X15442000Y-8829000D01*
X15448600Y-9301800D02*
X15488600Y-9341800D01*
X15488600Y-9301800D02*
X15448600Y-9341800D01*
X15490000Y-14598000D02*
X15530000Y-14638000D01*
X15530000Y-14598000D02*
X15490000Y-14638000D01*
X15552000Y-13362000D02*
X15592000Y-13402000D01*
X15592000Y-13362000D02*
X15552000Y-13402000D01*
X15559000Y-5369000D02*
X15599000Y-5409000D01*
X15599000Y-5369000D02*
X15559000Y-5409000D01*
X15561000Y-7568000D02*
X15601000Y-7608000D01*
X15601000Y-7568000D02*
X15561000Y-7608000D01*
X15567000Y-8531000D02*
X15607000Y-8571000D01*
X15607000Y-8531000D02*
X15567000Y-8571000D01*
X15570000Y-5198000D02*
X15610000Y-5238000D01*
X15610000Y-5198000D02*
X15570000Y-5238000D01*
X15570000Y-8084000D02*
X15610000Y-8124000D01*
X15610000Y-8084000D02*
X15570000Y-8124000D01*
X15575600Y-6507800D02*
X15615600Y-6547800D01*
X15615600Y-6507800D02*
X15575600Y-6547800D01*
X15576000Y-8312000D02*
X15616000Y-8352000D01*
X15616000Y-8312000D02*
X15576000Y-8352000D01*
X15577000Y-14154000D02*
X15617000Y-14194000D01*
X15617000Y-14154000D02*
X15577000Y-14194000D01*
X15587000Y-11598000D02*
X15627000Y-11638000D01*
X15627000Y-11598000D02*
X15587000Y-11638000D01*
X15589000Y-10960000D02*
X15629000Y-11000000D01*
X15629000Y-10960000D02*
X15589000Y-11000000D01*
X15591000Y-7841000D02*
X15631000Y-7881000D01*
X15631000Y-7841000D02*
X15591000Y-7881000D01*
X15603000Y-11896000D02*
X15643000Y-11936000D01*
X15643000Y-11896000D02*
X15603000Y-11936000D01*
X15620000Y-12269000D02*
X15660000Y-12309000D01*
X15660000Y-12269000D02*
X15620000Y-12309000D01*
X15621000Y-7237000D02*
X15661000Y-7277000D01*
X15661000Y-7237000D02*
X15621000Y-7277000D01*
X15651800Y-8971600D02*
X15691800Y-9011600D01*
X15691800Y-8971600D02*
X15651800Y-9011600D01*
X15653000Y-12626000D02*
X15693000Y-12666000D01*
X15693000Y-12626000D02*
X15653000Y-12666000D01*
X15655000Y-15227000D02*
X15695000Y-15267000D01*
X15695000Y-15227000D02*
X15655000Y-15267000D01*
X15674000Y-13170000D02*
X15714000Y-13210000D01*
X15714000Y-13170000D02*
X15674000Y-13210000D01*
X15707000Y-7006000D02*
X15747000Y-7046000D01*
X15747000Y-7006000D02*
X15707000Y-7046000D01*
X15726000Y-13508000D02*
X15766000Y-13548000D01*
X15766000Y-13508000D02*
X15726000Y-13548000D01*
X15731000Y-10601000D02*
X15771000Y-10641000D01*
X15771000Y-10601000D02*
X15731000Y-10641000D01*
X15749000Y-11728000D02*
X15789000Y-11768000D01*
X15789000Y-11728000D02*
X15749000Y-11768000D01*
X15782000Y-14155000D02*
X15822000Y-14195000D01*
X15822000Y-14155000D02*
X15782000Y-14195000D01*
X15801000Y-13721000D02*
X15841000Y-13761000D01*
X15841000Y-13721000D02*
X15801000Y-13761000D01*
X15808000Y-12922000D02*
X15848000Y-12962000D01*
X15848000Y-12922000D02*
X15808000Y-12962000D01*
X15835000Y-14368000D02*
X15875000Y-14408000D01*
X15875000Y-14368000D02*
X15835000Y-14408000D01*
X15842000Y-14570000D02*
X15882000Y-14610000D01*
X15882000Y-14570000D02*
X15842000Y-14610000D01*
X15855000Y-8743000D02*
X15895000Y-8783000D01*
X15895000Y-8743000D02*
X15855000Y-8783000D01*
X15862000Y-6101000D02*
X15902000Y-6141000D01*
X15902000Y-6101000D02*
X15862000Y-6141000D01*
X15875000Y-11116000D02*
X15915000Y-11156000D01*
X15915000Y-11116000D02*
X15875000Y-11156000D01*
X15884000Y-6705000D02*
X15924000Y-6745000D01*
X15924000Y-6705000D02*
X15884000Y-6745000D01*
X15892000Y-12475000D02*
X15932000Y-12515000D01*
X15932000Y-12475000D02*
X15892000Y-12515000D01*
X15894000Y-11288000D02*
X15934000Y-11328000D01*
X15934000Y-11288000D02*
X15894000Y-11328000D01*
X15908000Y-9970000D02*
X15948000Y-10010000D01*
X15948000Y-9970000D02*
X15908000Y-10010000D01*
X15956600Y-7371400D02*
X15996600Y-7411400D01*
X15996600Y-7371400D02*
X15956600Y-7411400D01*
X15956600Y-7650800D02*
X15996600Y-7690800D01*
X15996600Y-7650800D02*
X15956600Y-7690800D01*
X15963000Y-11986000D02*
X16003000Y-12026000D01*
X16003000Y-11986000D02*
X15963000Y-12026000D01*
X15965000Y-6578000D02*
X16005000Y-6618000D01*
X16005000Y-6578000D02*
X15965000Y-6618000D01*
X15969000Y-12140000D02*
X16009000Y-12180000D01*
X16009000Y-12140000D02*
X15969000Y-12180000D01*
X15975000Y-12996000D02*
X16015000Y-13036000D01*
X16015000Y-12996000D02*
X15975000Y-13036000D01*
X15982000Y-8082600D02*
X16022000Y-8122600D01*
X16022000Y-8082600D02*
X15982000Y-8122600D01*
X15984000Y-10757000D02*
X16024000Y-10797000D01*
X16024000Y-10757000D02*
X15984000Y-10797000D01*
X16007400Y-6253800D02*
X16047400Y-6293800D01*
X16047400Y-6253800D02*
X16007400Y-6293800D01*
X16032800Y-8946200D02*
X16072800Y-8986200D01*
X16072800Y-8946200D02*
X16032800Y-8986200D01*
X16038000Y-12715000D02*
X16078000Y-12755000D01*
X16078000Y-12715000D02*
X16038000Y-12755000D01*
X16040000Y-7115000D02*
X16080000Y-7155000D01*
X16080000Y-7115000D02*
X16040000Y-7155000D01*
X16046000Y-9133000D02*
X16086000Y-9173000D01*
X16086000Y-9133000D02*
X16046000Y-9173000D01*
X16063000Y-10372000D02*
X16103000Y-10412000D01*
X16103000Y-10372000D02*
X16063000Y-10412000D01*
X16080000Y-11522000D02*
X16120000Y-11562000D01*
X16120000Y-11522000D02*
X16080000Y-11562000D01*
X16094000Y-13986000D02*
X16134000Y-14026000D01*
X16134000Y-13986000D02*
X16094000Y-14026000D01*
X16105000Y-6480000D02*
X16145000Y-6520000D01*
X16145000Y-6480000D02*
X16105000Y-6520000D01*
X16108000Y-11869000D02*
X16148000Y-11909000D01*
X16148000Y-11869000D02*
X16108000Y-11909000D01*
X16112000Y-9794000D02*
X16152000Y-9834000D01*
X16152000Y-9794000D02*
X16112000Y-9834000D01*
X16125000Y-11301000D02*
X16165000Y-11341000D01*
X16165000Y-11301000D02*
X16125000Y-11341000D01*
X16134400Y-8463600D02*
X16174400Y-8503600D01*
X16174400Y-8463600D02*
X16134400Y-8503600D01*
X16144000Y-13123000D02*
X16184000Y-13163000D01*
X16184000Y-13123000D02*
X16144000Y-13163000D01*
X16159800Y-8844600D02*
X16199800Y-8884600D01*
X16199800Y-8844600D02*
X16159800Y-8884600D01*
X16174000Y-12414000D02*
X16214000Y-12454000D01*
X16214000Y-12414000D02*
X16174000Y-12454000D01*
X16175000Y-7610000D02*
X16215000Y-7650000D01*
X16215000Y-7610000D02*
X16175000Y-7650000D01*
X16182000Y-10584000D02*
X16222000Y-10624000D01*
X16222000Y-10584000D02*
X16182000Y-10624000D01*
X16185000Y-10967000D02*
X16225000Y-11007000D01*
X16225000Y-10967000D02*
X16185000Y-11007000D01*
X16215000Y-14577000D02*
X16255000Y-14617000D01*
X16255000Y-14577000D02*
X16215000Y-14617000D01*
X16221000Y-12734000D02*
X16261000Y-12774000D01*
X16261000Y-12734000D02*
X16221000Y-12774000D01*
X16224000Y-10001000D02*
X16264000Y-10041000D01*
X16264000Y-10001000D02*
X16224000Y-10041000D01*
X16224000Y-12850000D02*
X16264000Y-12890000D01*
X16264000Y-12850000D02*
X16224000Y-12890000D01*
X16235000Y-7795000D02*
X16275000Y-7835000D01*
X16275000Y-7795000D02*
X16235000Y-7835000D01*
X16245000Y-11917000D02*
X16285000Y-11957000D01*
X16285000Y-11917000D02*
X16245000Y-11957000D01*
X16251000Y-12193000D02*
X16291000Y-12233000D01*
X16291000Y-12193000D02*
X16251000Y-12233000D01*
X16268000Y-14194000D02*
X16308000Y-14234000D01*
X16308000Y-14194000D02*
X16268000Y-14234000D01*
X16278000Y-6064000D02*
X16318000Y-6104000D01*
X16318000Y-6064000D02*
X16278000Y-6104000D01*
X16300000Y-6735000D02*
X16340000Y-6775000D01*
X16340000Y-6735000D02*
X16300000Y-6775000D01*
X16334000Y-9182000D02*
X16374000Y-9222000D01*
X16374000Y-9182000D02*
X16334000Y-9222000D01*
X16334000Y-11079000D02*
X16374000Y-11119000D01*
X16374000Y-11079000D02*
X16334000Y-11119000D01*
X16337600Y-8793800D02*
X16377600Y-8833800D01*
X16377600Y-8793800D02*
X16337600Y-8833800D01*
X16339000Y-7510000D02*
X16379000Y-7550000D01*
X16379000Y-7510000D02*
X16339000Y-7550000D01*
X16339000Y-8925000D02*
X16379000Y-8965000D01*
X16379000Y-8925000D02*
X16339000Y-8965000D01*
X16350000Y-7914000D02*
X16390000Y-7954000D01*
X16390000Y-7914000D02*
X16350000Y-7954000D01*
X16359000Y-4265000D02*
X16399000Y-4305000D01*
X16399000Y-4265000D02*
X16359000Y-4305000D01*
X16370000Y-4883000D02*
X16410000Y-4923000D01*
X16410000Y-4883000D02*
X16370000Y-4923000D01*
X16376000Y-4448000D02*
X16416000Y-4488000D01*
X16416000Y-4448000D02*
X16376000Y-4488000D01*
X16376000Y-4690000D02*
X16416000Y-4730000D01*
X16416000Y-4690000D02*
X16376000Y-4730000D01*
X16407000Y-10293000D02*
X16447000Y-10333000D01*
X16447000Y-10293000D02*
X16407000Y-10333000D01*
X16428000Y-4058000D02*
X16468000Y-4098000D01*
X16468000Y-4058000D02*
X16428000Y-4098000D01*
X16452000Y-9743000D02*
X16492000Y-9783000D01*
X16492000Y-9743000D02*
X16452000Y-9783000D01*
X16452000Y-14463000D02*
X16492000Y-14503000D01*
X16492000Y-14463000D02*
X16452000Y-14503000D01*
X16454000Y-8064000D02*
X16494000Y-8104000D01*
X16494000Y-8064000D02*
X16454000Y-8104000D01*
X16463000Y-11510000D02*
X16503000Y-11550000D01*
X16503000Y-11510000D02*
X16463000Y-11550000D01*
X16468000Y-13085000D02*
X16508000Y-13125000D01*
X16508000Y-13085000D02*
X16468000Y-13125000D01*
X16483000Y-10606000D02*
X16523000Y-10646000D01*
X16523000Y-10606000D02*
X16483000Y-10646000D01*
X16485000Y-7638000D02*
X16525000Y-7678000D01*
X16525000Y-7638000D02*
X16485000Y-7678000D01*
X16487776Y-6172024D02*
X16527776Y-6212024D01*
X16527776Y-6172024D02*
X16487776Y-6212024D01*
X16495000Y-6025000D02*
X16535000Y-6065000D01*
X16535000Y-6025000D02*
X16495000Y-6065000D01*
X16502000Y-11203000D02*
X16542000Y-11243000D01*
X16542000Y-11203000D02*
X16502000Y-11243000D01*
X16543000Y-7380000D02*
X16583000Y-7420000D01*
X16583000Y-7380000D02*
X16543000Y-7420000D01*
X16545000Y-6502500D02*
X16585000Y-6542500D01*
X16585000Y-6502500D02*
X16545000Y-6542500D01*
X16548000Y-14890000D02*
X16588000Y-14930000D01*
X16588000Y-14890000D02*
X16548000Y-14930000D01*
X16555000Y-7097500D02*
X16595000Y-7137500D01*
X16595000Y-7097500D02*
X16555000Y-7137500D01*
X16559000Y-12376000D02*
X16599000Y-12416000D01*
X16599000Y-12376000D02*
X16559000Y-12416000D01*
X16566200Y-8666800D02*
X16606200Y-8706800D01*
X16606200Y-8666800D02*
X16566200Y-8706800D01*
X16574000Y-10800000D02*
X16614000Y-10840000D01*
X16614000Y-10800000D02*
X16574000Y-10840000D01*
X16577000Y-4676000D02*
X16617000Y-4716000D01*
X16617000Y-4676000D02*
X16577000Y-4716000D01*
X16588000Y-13890000D02*
X16628000Y-13930000D01*
X16628000Y-13890000D02*
X16588000Y-13930000D01*
X16602000Y-4864000D02*
X16642000Y-4904000D01*
X16642000Y-4864000D02*
X16602000Y-4904000D01*
X16632000Y-9831000D02*
X16672000Y-9871000D01*
X16672000Y-9831000D02*
X16632000Y-9871000D01*
X16635000Y-10059000D02*
X16675000Y-10099000D01*
X16675000Y-10059000D02*
X16635000Y-10099000D01*
X16643000Y-4244000D02*
X16683000Y-4284000D01*
X16683000Y-4244000D02*
X16643000Y-4284000D01*
X16643000Y-8832000D02*
X16683000Y-8872000D01*
X16683000Y-8832000D02*
X16643000Y-8872000D01*
X16661000Y-14261000D02*
X16701000Y-14301000D01*
X16701000Y-14261000D02*
X16661000Y-14301000D01*
X16662000Y-4457000D02*
X16702000Y-4497000D01*
X16702000Y-4457000D02*
X16662000Y-4497000D01*
X16666000Y-4083000D02*
X16706000Y-4123000D01*
X16706000Y-4083000D02*
X16666000Y-4123000D01*
X16676475Y-7515102D02*
X16716475Y-7555102D01*
X16716475Y-7515102D02*
X16676475Y-7555102D01*
X16681000Y-5983000D02*
X16721000Y-6023000D01*
X16721000Y-5983000D02*
X16681000Y-6023000D01*
X16682000Y-7634000D02*
X16722000Y-7674000D01*
X16722000Y-7634000D02*
X16682000Y-7674000D01*
X16696000Y-11948000D02*
X16736000Y-11988000D01*
X16736000Y-11948000D02*
X16696000Y-11988000D01*
X16721026Y-7375880D02*
X16761026Y-7415880D01*
X16761026Y-7375880D02*
X16721026Y-7415880D01*
X16726000Y-10387000D02*
X16766000Y-10427000D01*
X16766000Y-10387000D02*
X16726000Y-10427000D01*
X16745000Y-9141000D02*
X16785000Y-9181000D01*
X16785000Y-9141000D02*
X16745000Y-9181000D01*
X16801000Y-6137000D02*
X16841000Y-6177000D01*
X16841000Y-6137000D02*
X16801000Y-6177000D01*
X16803000Y-6287000D02*
X16843000Y-6327000D01*
X16843000Y-6287000D02*
X16803000Y-6327000D01*
X16820200Y-8666800D02*
X16860200Y-8706800D01*
X16860200Y-8666800D02*
X16820200Y-8706800D01*
X16828000Y-10736000D02*
X16868000Y-10776000D01*
X16868000Y-10736000D02*
X16828000Y-10776000D01*
X16844000Y-5908000D02*
X16884000Y-5948000D01*
X16884000Y-5908000D02*
X16844000Y-5948000D01*
X16853000Y-7641000D02*
X16893000Y-7681000D01*
X16893000Y-7641000D02*
X16853000Y-7681000D01*
X16853000Y-13484000D02*
X16893000Y-13524000D01*
X16893000Y-13484000D02*
X16853000Y-13524000D01*
X16857000Y-7168000D02*
X16897000Y-7208000D01*
X16897000Y-7168000D02*
X16857000Y-7208000D01*
X16874000Y-6521000D02*
X16914000Y-6561000D01*
X16914000Y-6521000D02*
X16874000Y-6561000D01*
X16927000Y-7387000D02*
X16967000Y-7427000D01*
X16967000Y-7387000D02*
X16927000Y-7427000D01*
X16937000Y-11334000D02*
X16977000Y-11374000D01*
X16977000Y-11334000D02*
X16937000Y-11374000D01*
X16947000Y-13019000D02*
X16987000Y-13059000D01*
X16987000Y-13019000D02*
X16947000Y-13059000D01*
X16966000Y-11995000D02*
X17006000Y-12035000D01*
X17006000Y-11995000D02*
X16966000Y-12035000D01*
X16977000Y-14641000D02*
X17017000Y-14681000D01*
X17017000Y-14641000D02*
X16977000Y-14681000D01*
X16984000Y-11697000D02*
X17024000Y-11737000D01*
X17024000Y-11697000D02*
X16984000Y-11737000D01*
X16997000Y-10034000D02*
X17037000Y-10074000D01*
X17037000Y-10034000D02*
X16997000Y-10074000D01*
X16997000Y-10332000D02*
X17037000Y-10372000D01*
X17037000Y-10332000D02*
X16997000Y-10372000D01*
X17054000Y-8115000D02*
X17094000Y-8155000D01*
X17094000Y-8115000D02*
X17054000Y-8155000D01*
X17060000Y-9709000D02*
X17100000Y-9749000D01*
X17100000Y-9709000D02*
X17060000Y-9749000D01*
X17060000Y-13259000D02*
X17100000Y-13299000D01*
X17100000Y-13259000D02*
X17060000Y-13299000D01*
X17071000Y-13809000D02*
X17111000Y-13849000D01*
X17111000Y-13809000D02*
X17071000Y-13849000D01*
X17074000Y-11125000D02*
X17114000Y-11165000D01*
X17114000Y-11125000D02*
X17074000Y-11165000D01*
X17207000Y-5801000D02*
X17247000Y-5841000D01*
X17247000Y-5801000D02*
X17207000Y-5841000D01*
X17207000Y-9853000D02*
X17247000Y-9893000D01*
X17247000Y-9853000D02*
X17207000Y-9893000D01*
X17212000Y-13724000D02*
X17252000Y-13764000D01*
X17252000Y-13724000D02*
X17212000Y-13764000D01*
X17219000Y-9048000D02*
X17259000Y-9088000D01*
X17259000Y-9048000D02*
X17219000Y-9088000D01*
X17232000Y-9195000D02*
X17272000Y-9235000D01*
X17272000Y-9195000D02*
X17232000Y-9235000D01*
X17232000Y-14677000D02*
X17272000Y-14717000D01*
X17272000Y-14677000D02*
X17232000Y-14717000D01*
X17250000Y-10712000D02*
X17290000Y-10752000D01*
X17290000Y-10712000D02*
X17250000Y-10752000D01*
X17266000Y-11813000D02*
X17306000Y-11853000D01*
X17306000Y-11813000D02*
X17266000Y-11853000D01*
X17286000Y-6261000D02*
X17326000Y-6301000D01*
X17326000Y-6261000D02*
X17286000Y-6301000D01*
X17310000Y-9731000D02*
X17350000Y-9771000D01*
X17350000Y-9731000D02*
X17310000Y-9771000D01*
X17328000Y-6131000D02*
X17368000Y-6171000D01*
X17368000Y-6131000D02*
X17328000Y-6171000D01*
X17368000Y-7259000D02*
X17408000Y-7299000D01*
X17408000Y-7259000D02*
X17368000Y-7299000D01*
X17379000Y-7600000D02*
X17419000Y-7640000D01*
X17419000Y-7600000D02*
X17379000Y-7640000D01*
X17380000Y-13860000D02*
X17420000Y-13900000D01*
X17420000Y-13860000D02*
X17380000Y-13900000D01*
X17392000Y-11741000D02*
X17432000Y-11781000D01*
X17432000Y-11741000D02*
X17392000Y-11781000D01*
X17394000Y-13299000D02*
X17434000Y-13339000D01*
X17434000Y-13299000D02*
X17394000Y-13339000D01*
X17410000Y-7446000D02*
X17450000Y-7486000D01*
X17450000Y-7446000D02*
X17410000Y-7486000D01*
X17473000Y-10394000D02*
X17513000Y-10434000D01*
X17513000Y-10394000D02*
X17473000Y-10434000D01*
X17480600Y-11029000D02*
X17520600Y-11069000D01*
X17520600Y-11029000D02*
X17480600Y-11069000D01*
X17504000Y-8854000D02*
X17544000Y-8894000D01*
X17544000Y-8854000D02*
X17504000Y-8894000D01*
X17531400Y-7854000D02*
X17571400Y-7894000D01*
X17571400Y-7854000D02*
X17531400Y-7894000D01*
X17548000Y-6213000D02*
X17588000Y-6253000D01*
X17588000Y-6213000D02*
X17548000Y-6253000D01*
X17561000Y-8487000D02*
X17601000Y-8527000D01*
X17601000Y-8487000D02*
X17561000Y-8527000D01*
X17623000Y-10094000D02*
X17663000Y-10134000D01*
X17663000Y-10094000D02*
X17623000Y-10134000D01*
X17632500Y-9105000D02*
X17672500Y-9145000D01*
X17672500Y-9105000D02*
X17632500Y-9145000D01*
X17637500Y-9735000D02*
X17677500Y-9775000D01*
X17677500Y-9735000D02*
X17637500Y-9775000D01*
X17664000Y-8732000D02*
X17704000Y-8772000D01*
X17704000Y-8732000D02*
X17664000Y-8772000D01*
X17675000Y-11305000D02*
X17715000Y-11345000D01*
X17715000Y-11305000D02*
X17675000Y-11345000D01*
X17683800Y-7752400D02*
X17723800Y-7792400D01*
X17723800Y-7752400D02*
X17683800Y-7792400D01*
X17720000Y-11516000D02*
X17760000Y-11556000D01*
X17760000Y-11516000D02*
X17720000Y-11556000D01*
X17741000Y-13606000D02*
X17781000Y-13646000D01*
X17781000Y-13606000D02*
X17741000Y-13646000D01*
X17748000Y-11074000D02*
X17788000Y-11114000D01*
X17788000Y-11074000D02*
X17748000Y-11114000D01*
X17753000Y-13233000D02*
X17793000Y-13273000D01*
X17793000Y-13233000D02*
X17753000Y-13273000D01*
X17794000Y-10669000D02*
X17834000Y-10709000D01*
X17834000Y-10669000D02*
X17794000Y-10709000D01*
X17828000Y-12856000D02*
X17868000Y-12896000D01*
X17868000Y-12856000D02*
X17828000Y-12896000D01*
X17835000Y-12452500D02*
X17875000Y-12492500D01*
X17875000Y-12452500D02*
X17835000Y-12492500D01*
X17859000Y-13952000D02*
X17899000Y-13992000D01*
X17899000Y-13952000D02*
X17859000Y-13992000D01*
X17860000Y-6194000D02*
X17900000Y-6234000D01*
X17900000Y-6194000D02*
X17860000Y-6234000D01*
X17893000Y-11318000D02*
X17933000Y-11358000D01*
X17933000Y-11318000D02*
X17893000Y-11358000D01*
X17917500Y-11855000D02*
X17957500Y-11895000D01*
X17957500Y-11855000D02*
X17917500Y-11895000D01*
X17918274Y-7217500D02*
X17958274Y-7257500D01*
X17958274Y-7217500D02*
X17918274Y-7257500D01*
X17929000Y-13515000D02*
X17969000Y-13555000D01*
X17969000Y-13515000D02*
X17929000Y-13555000D01*
X17972000Y-13346000D02*
X18012000Y-13386000D01*
X18012000Y-13346000D02*
X17972000Y-13386000D01*
X17977000Y-10078000D02*
X18017000Y-10118000D01*
X18017000Y-10078000D02*
X17977000Y-10118000D01*
X17998000Y-5763000D02*
X18038000Y-5803000D01*
X18038000Y-5763000D02*
X17998000Y-5803000D01*
X18021000Y-6095000D02*
X18061000Y-6135000D01*
X18061000Y-6095000D02*
X18021000Y-6135000D01*
X18026000Y-13051000D02*
X18066000Y-13091000D01*
X18066000Y-13051000D02*
X18026000Y-13091000D01*
X18037000Y-8888000D02*
X18077000Y-8928000D01*
X18077000Y-8888000D02*
X18037000Y-8928000D01*
X18058000Y-11021000D02*
X18098000Y-11061000D01*
X18098000Y-11021000D02*
X18058000Y-11061000D01*
X18077000Y-12860000D02*
X18117000Y-12900000D01*
X18117000Y-12860000D02*
X18077000Y-12900000D01*
X18080000Y-9115000D02*
X18120000Y-9155000D01*
X18120000Y-9115000D02*
X18080000Y-9155000D01*
X18083000Y-5937000D02*
X18123000Y-5977000D01*
X18123000Y-5937000D02*
X18083000Y-5977000D01*
X18102000Y-7554000D02*
X18142000Y-7594000D01*
X18142000Y-7554000D02*
X18102000Y-7594000D01*
X18108000Y-13892000D02*
X18148000Y-13932000D01*
X18148000Y-13892000D02*
X18108000Y-13932000D01*
X18112500Y-9702500D02*
X18152500Y-9742500D01*
X18152500Y-9702500D02*
X18112500Y-9742500D01*
X18137000Y-10329000D02*
X18177000Y-10369000D01*
X18177000Y-10329000D02*
X18137000Y-10369000D01*
X18157500Y-11550000D02*
X18197500Y-11590000D01*
X18197500Y-11550000D02*
X18157500Y-11590000D01*
X18158000Y-6186000D02*
X18198000Y-6226000D01*
X18198000Y-6186000D02*
X18158000Y-6226000D01*
X18196000Y-8591000D02*
X18236000Y-8631000D01*
X18236000Y-8591000D02*
X18196000Y-8631000D01*
X18238000Y-5870000D02*
X18278000Y-5910000D01*
X18278000Y-5870000D02*
X18238000Y-5910000D01*
X18239000Y-14015000D02*
X18279000Y-14055000D01*
X18279000Y-14015000D02*
X18239000Y-14055000D01*
X18247000Y-10660000D02*
X18287000Y-10700000D01*
X18287000Y-10660000D02*
X18247000Y-10700000D01*
X18264000Y-13558000D02*
X18304000Y-13598000D01*
X18304000Y-13558000D02*
X18264000Y-13598000D01*
X18274000Y-12842000D02*
X18314000Y-12882000D01*
X18314000Y-12842000D02*
X18274000Y-12882000D01*
X18275000Y-10404000D02*
X18315000Y-10444000D01*
X18315000Y-10404000D02*
X18275000Y-10444000D01*
X18284000Y-11076000D02*
X18324000Y-11116000D01*
X18324000Y-11076000D02*
X18284000Y-11116000D01*
X18287000Y-9956000D02*
X18327000Y-9996000D01*
X18327000Y-9956000D02*
X18287000Y-9996000D01*
X18290000Y-10119000D02*
X18330000Y-10159000D01*
X18330000Y-10119000D02*
X18290000Y-10159000D01*
X18293000Y-9139000D02*
X18333000Y-9179000D01*
X18333000Y-9139000D02*
X18293000Y-9179000D01*
X18318000Y-11453000D02*
X18358000Y-11493000D01*
X18358000Y-11453000D02*
X18318000Y-11493000D01*
X18325000Y-8500000D02*
X18365000Y-8540000D01*
X18365000Y-8500000D02*
X18325000Y-8540000D01*
X18331000Y-8660000D02*
X18371000Y-8700000D01*
X18371000Y-8660000D02*
X18331000Y-8700000D01*
X18354000Y-6193000D02*
X18394000Y-6233000D01*
X18394000Y-6193000D02*
X18354000Y-6233000D01*
X18362000Y-8826000D02*
X18402000Y-8866000D01*
X18402000Y-8826000D02*
X18362000Y-8866000D01*
X18365000Y-12445000D02*
X18405000Y-12485000D01*
X18405000Y-12445000D02*
X18365000Y-12485000D01*
X18376000Y-6020000D02*
X18416000Y-6060000D01*
X18416000Y-6020000D02*
X18376000Y-6060000D01*
X18392500Y-11850000D02*
X18432500Y-11890000D01*
X18432500Y-11850000D02*
X18392500Y-11890000D01*
X18445000Y-13456000D02*
X18485000Y-13496000D01*
X18485000Y-13456000D02*
X18445000Y-13496000D01*
X18452000Y-6698000D02*
X18492000Y-6738000D01*
X18492000Y-6698000D02*
X18452000Y-6738000D01*
X18471200Y-6558600D02*
X18511200Y-6598600D01*
X18511200Y-6558600D02*
X18471200Y-6598600D01*
X18494000Y-10066000D02*
X18534000Y-10106000D01*
X18534000Y-10066000D02*
X18494000Y-10106000D01*
X18497000Y-10269000D02*
X18537000Y-10309000D01*
X18537000Y-10269000D02*
X18497000Y-10309000D01*
X18527000Y-12757000D02*
X18567000Y-12797000D01*
X18567000Y-12757000D02*
X18527000Y-12797000D01*
X18540000Y-5820000D02*
X18580000Y-5860000D01*
X18580000Y-5820000D02*
X18540000Y-5860000D01*
X18570000Y-12536000D02*
X18610000Y-12576000D01*
X18610000Y-12536000D02*
X18570000Y-12576000D01*
X18573000Y-6492000D02*
X18613000Y-6532000D01*
X18613000Y-6492000D02*
X18573000Y-6532000D01*
X18575000Y-6203000D02*
X18615000Y-6243000D01*
X18615000Y-6203000D02*
X18575000Y-6243000D01*
X18588000Y-9925000D02*
X18628000Y-9965000D01*
X18628000Y-9925000D02*
X18588000Y-9965000D01*
X18598000Y-6011000D02*
X18638000Y-6051000D01*
X18638000Y-6011000D02*
X18598000Y-6051000D01*
X18599000Y-13691000D02*
X18639000Y-13731000D01*
X18639000Y-13691000D02*
X18599000Y-13731000D01*
X18602000Y-6652000D02*
X18642000Y-6692000D01*
X18642000Y-6652000D02*
X18602000Y-6692000D01*
X18603000Y-12339000D02*
X18643000Y-12379000D01*
X18643000Y-12339000D02*
X18603000Y-12379000D01*
X18603000Y-12973000D02*
X18643000Y-13013000D01*
X18643000Y-12973000D02*
X18603000Y-13013000D01*
X18611000Y-7051250D02*
X18651000Y-7091250D01*
X18651000Y-7051250D02*
X18611000Y-7091250D01*
X18641000Y-10369000D02*
X18681000Y-10409000D01*
X18681000Y-10369000D02*
X18641000Y-10409000D01*
X18689000Y-7918000D02*
X18729000Y-7958000D01*
X18729000Y-7918000D02*
X18689000Y-7958000D01*
X18701000Y-13274000D02*
X18741000Y-13314000D01*
X18741000Y-13274000D02*
X18701000Y-13314000D01*
X18734000Y-11649000D02*
X18774000Y-11689000D01*
X18774000Y-11649000D02*
X18734000Y-11689000D01*
X18748000Y-12574000D02*
X18788000Y-12614000D01*
X18788000Y-12574000D02*
X18748000Y-12614000D01*
X18762000Y-12334000D02*
X18802000Y-12374000D01*
X18802000Y-12334000D02*
X18762000Y-12374000D01*
X18771000Y-10632000D02*
X18811000Y-10672000D01*
X18811000Y-10632000D02*
X18771000Y-10672000D01*
X18811000Y-7162000D02*
X18851000Y-7202000D01*
X18851000Y-7162000D02*
X18811000Y-7202000D01*
X18824000Y-6132000D02*
X18864000Y-6172000D01*
X18864000Y-6132000D02*
X18824000Y-6172000D01*
X18833000Y-12785000D02*
X18873000Y-12825000D01*
X18873000Y-12785000D02*
X18833000Y-12825000D01*
X18845000Y-13494000D02*
X18885000Y-13534000D01*
X18885000Y-13494000D02*
X18845000Y-13534000D01*
X18860000Y-11029000D02*
X18900000Y-11069000D01*
X18900000Y-11029000D02*
X18860000Y-11069000D01*
X18874000Y-5824000D02*
X18914000Y-5864000D01*
X18914000Y-5824000D02*
X18874000Y-5864000D01*
X18922000Y-13072000D02*
X18962000Y-13112000D01*
X18962000Y-13072000D02*
X18922000Y-13112000D01*
X18968000Y-6725000D02*
X19008000Y-6765000D01*
X19008000Y-6725000D02*
X18968000Y-6765000D01*
X18975000Y-11440000D02*
X19015000Y-11480000D01*
X19015000Y-11440000D02*
X18975000Y-11480000D01*
X18982500Y-7282500D02*
X19022500Y-7322500D01*
X19022500Y-7282500D02*
X18982500Y-7322500D01*
X18992000Y-5986000D02*
X19032000Y-6026000D01*
X19032000Y-5986000D02*
X18992000Y-6026000D01*
X18996000Y-6269000D02*
X19036000Y-6309000D01*
X19036000Y-6269000D02*
X18996000Y-6309000D01*
X19035000Y-12583000D02*
X19075000Y-12623000D01*
X19075000Y-12583000D02*
X19035000Y-12623000D01*
X19058000Y-12363000D02*
X19098000Y-12403000D01*
X19098000Y-12363000D02*
X19058000Y-12403000D01*
X19152000Y-11888000D02*
X19192000Y-11928000D01*
X19192000Y-11888000D02*
X19152000Y-11928000D01*
X19156000Y-10962000D02*
X19196000Y-11002000D01*
X19196000Y-10962000D02*
X19156000Y-11002000D01*
X19162000Y-12851000D02*
X19202000Y-12891000D01*
X19202000Y-12851000D02*
X19162000Y-12891000D01*
X19241000Y-13044000D02*
X19281000Y-13084000D01*
X19281000Y-13044000D02*
X19241000Y-13084000D01*
X19265000Y-12348000D02*
X19305000Y-12388000D01*
X19305000Y-12348000D02*
X19265000Y-12388000D01*
X19279000Y-12593000D02*
X19319000Y-12633000D01*
X19319000Y-12593000D02*
X19279000Y-12633000D01*
X19390000Y-6935000D02*
X19430000Y-6975000D01*
X19430000Y-6935000D02*
X19390000Y-6975000D01*
X19394000Y-6730000D02*
X19434000Y-6770000D01*
X19434000Y-6730000D02*
X19394000Y-6770000D01*
X19405000Y-12125000D02*
X19445000Y-12165000D01*
X19445000Y-12125000D02*
X19405000Y-12165000D01*
X19453000Y-12771000D02*
X19493000Y-12811000D01*
X19493000Y-12771000D02*
X19453000Y-12811000D01*
X19533000Y-12348000D02*
X19573000Y-12388000D01*
X19573000Y-12348000D02*
X19533000Y-12388000D01*
X19570000Y-12579000D02*
X19610000Y-12619000D01*
X19610000Y-12579000D02*
X19570000Y-12619000D01*
X19585000Y-6531000D02*
X19625000Y-6571000D01*
X19625000Y-6531000D02*
X19585000Y-6571000D01*
X19603000Y-11315000D02*
X19643000Y-11355000D01*
X19643000Y-11315000D02*
X19603000Y-11355000D01*
X19628000Y-7162000D02*
X19668000Y-7202000D01*
X19668000Y-7162000D02*
X19628000Y-7202000D01*
X19644000Y-11617000D02*
X19684000Y-11657000D01*
X19684000Y-11617000D02*
X19644000Y-11657000D01*
X19674000Y-11096000D02*
X19714000Y-11136000D01*
X19714000Y-11096000D02*
X19674000Y-11136000D01*
X19733000Y-11957000D02*
X19773000Y-11997000D01*
X19773000Y-11957000D02*
X19733000Y-11997000D01*
X19852000Y-7674000D02*
X19892000Y-7714000D01*
X19892000Y-7674000D02*
X19852000Y-7714000D01*
X19855000Y-11690000D02*
X19895000Y-11730000D01*
X19895000Y-11690000D02*
X19855000Y-11730000D01*
X19938000Y-11426000D02*
X19978000Y-11466000D01*
X19978000Y-11426000D02*
X19938000Y-11466000D01*
X20034250Y-8084750D02*
X20074250Y-8124750D01*
X20074250Y-8084750D02*
X20034250Y-8124750D01*
X20054250Y-7345750D02*
X20094250Y-7385750D01*
X20094250Y-7345750D02*
X20054250Y-7385750D01*
X20080000Y-11697000D02*
X20120000Y-11737000D01*
X20120000Y-11697000D02*
X20080000Y-11737000D01*
X20169000Y-10991000D02*
X20209000Y-11031000D01*
X20209000Y-10991000D02*
X20169000Y-11031000D01*
X14701000Y-9083000D02*
G75*
G03*
X14701000Y-9083000I-35000J0D01*
G01*
X14336000Y-9045500D02*
X14336000Y-9120500D01*
X14298500Y-9083000D02*
X14373500Y-9083000D01*
X14336000Y-9245500D02*
X14336000Y-9320500D01*
X14298500Y-9283000D02*
X14373500Y-9283000D01*
X14336000Y-9445500D02*
X14336000Y-9520500D01*
X14298500Y-9483000D02*
X14373500Y-9483000D01*
X14336000Y-9645500D02*
X14336000Y-9720500D01*
X14298500Y-9683000D02*
X14373500Y-9683000D01*
X14336000Y-9845500D02*
X14336000Y-9920500D01*
X14298500Y-9883000D02*
X14373500Y-9883000D01*
X14336000Y-10045500D02*
X14336000Y-10120500D01*
X14298500Y-10083000D02*
X14373500Y-10083000D01*
X14501000Y-9045500D02*
X14501000Y-9120500D01*
X14463500Y-9083000D02*
X14538500Y-9083000D01*
X14501000Y-9245500D02*
X14501000Y-9320500D01*
X14463500Y-9283000D02*
X14538500Y-9283000D01*
X14501000Y-9445500D02*
X14501000Y-9520500D01*
X14463500Y-9483000D02*
X14538500Y-9483000D01*
X14501000Y-9645500D02*
X14501000Y-9720500D01*
X14463500Y-9683000D02*
X14538500Y-9683000D01*
X14501000Y-9845500D02*
X14501000Y-9920500D01*
X14463500Y-9883000D02*
X14538500Y-9883000D01*
X14501000Y-10045500D02*
X14501000Y-10120500D01*
X14463500Y-10083000D02*
X14538500Y-10083000D01*
X14666000Y-9245500D02*
X14666000Y-9320500D01*
X14628500Y-9283000D02*
X14703500Y-9283000D01*
X14666000Y-9445500D02*
X14666000Y-9520500D01*
X14628500Y-9483000D02*
X14703500Y-9483000D01*
X14666000Y-9645500D02*
X14666000Y-9720500D01*
X14628500Y-9683000D02*
X14703500Y-9683000D01*
X14666000Y-9845500D02*
X14666000Y-9920500D01*
X14628500Y-9883000D02*
X14703500Y-9883000D01*
X14666000Y-10045500D02*
X14666000Y-10120500D01*
X14628500Y-10083000D02*
X14703500Y-10083000D01*
X14831000Y-9045500D02*
X14831000Y-9120500D01*
X14793500Y-9083000D02*
X14868500Y-9083000D01*
X14831000Y-9245500D02*
X14831000Y-9320500D01*
X14793500Y-9283000D02*
X14868500Y-9283000D01*
X14831000Y-9445500D02*
X14831000Y-9520500D01*
X14793500Y-9483000D02*
X14868500Y-9483000D01*
X14831000Y-9645500D02*
X14831000Y-9720500D01*
X14793500Y-9683000D02*
X14868500Y-9683000D01*
X14831000Y-9845500D02*
X14831000Y-9920500D01*
X14793500Y-9883000D02*
X14868500Y-9883000D01*
X14831000Y-10045500D02*
X14831000Y-10120500D01*
X14793500Y-10083000D02*
X14868500Y-10083000D01*
X14996000Y-9045500D02*
X14996000Y-9120500D01*
X14958500Y-9083000D02*
X15033500Y-9083000D01*
X14996000Y-9245500D02*
X14996000Y-9320500D01*
X14958500Y-9283000D02*
X15033500Y-9283000D01*
X14996000Y-9445500D02*
X14996000Y-9520500D01*
X14958500Y-9483000D02*
X15033500Y-9483000D01*
X14996000Y-9645500D02*
X14996000Y-9720500D01*
X14958500Y-9683000D02*
X15033500Y-9683000D01*
X14996000Y-9845500D02*
X14996000Y-9920500D01*
X14958500Y-9883000D02*
X15033500Y-9883000D01*
X14996000Y-10045500D02*
X14996000Y-10120500D01*
X14958500Y-10083000D02*
X15033500Y-10083000D01*
D12*
X14290831Y-6677831D02*
X14290831Y-6602169D01*
X14215169Y-6602169D01*
X14215169Y-6677831D01*
X14290831Y-6677831D01*
X14290831Y-6977831D02*
X14290831Y-6902169D01*
X14215169Y-6902169D01*
X14215169Y-6977831D01*
X14290831Y-6977831D01*
X14290831Y-7227831D02*
X14290831Y-7152169D01*
X14215169Y-7152169D01*
X14215169Y-7227831D01*
X14290831Y-7227831D01*
X14290831Y-7527831D02*
X14290831Y-7452169D01*
X14215169Y-7452169D01*
X14215169Y-7527831D01*
X14290831Y-7527831D01*
X14290831Y-7777831D02*
X14290831Y-7702169D01*
X14215169Y-7702169D01*
X14215169Y-7777831D01*
X14290831Y-7777831D01*
X14290831Y-8077831D02*
X14290831Y-8002169D01*
X14215169Y-8002169D01*
X14215169Y-8077831D01*
X14290831Y-8077831D01*
X14290831Y-8327831D02*
X14290831Y-8252169D01*
X14215169Y-8252169D01*
X14215169Y-8327831D01*
X14290831Y-8327831D01*
X14290831Y-8627831D02*
X14290831Y-8552169D01*
X14215169Y-8552169D01*
X14215169Y-8627831D01*
X14290831Y-8627831D01*
X14290831Y-10648831D02*
X14290831Y-10573169D01*
X14215169Y-10573169D01*
X14215169Y-10648831D01*
X14290831Y-10648831D01*
X14290831Y-10948831D02*
X14290831Y-10873169D01*
X14215169Y-10873169D01*
X14215169Y-10948831D01*
X14290831Y-10948831D01*
X14290831Y-11198831D02*
X14290831Y-11123169D01*
X14215169Y-11123169D01*
X14215169Y-11198831D01*
X14290831Y-11198831D01*
X14290831Y-11498831D02*
X14290831Y-11423169D01*
X14215169Y-11423169D01*
X14215169Y-11498831D01*
X14290831Y-11498831D01*
X14290831Y-11748831D02*
X14290831Y-11673169D01*
X14215169Y-11673169D01*
X14215169Y-11748831D01*
X14290831Y-11748831D01*
X14290831Y-12048831D02*
X14290831Y-11973169D01*
X14215169Y-11973169D01*
X14215169Y-12048831D01*
X14290831Y-12048831D01*
X14290831Y-12298831D02*
X14290831Y-12223169D01*
X14215169Y-12223169D01*
X14215169Y-12298831D01*
X14290831Y-12298831D01*
X14290831Y-12598831D02*
X14290831Y-12523169D01*
X14215169Y-12523169D01*
X14215169Y-12598831D01*
X14290831Y-12598831D01*
X14540831Y-6677831D02*
X14540831Y-6602169D01*
X14465169Y-6602169D01*
X14465169Y-6677831D01*
X14540831Y-6677831D01*
X14540831Y-6977831D02*
X14540831Y-6902169D01*
X14465169Y-6902169D01*
X14465169Y-6977831D01*
X14540831Y-6977831D01*
X14540831Y-7227831D02*
X14540831Y-7152169D01*
X14465169Y-7152169D01*
X14465169Y-7227831D01*
X14540831Y-7227831D01*
X14540831Y-7527831D02*
X14540831Y-7452169D01*
X14465169Y-7452169D01*
X14465169Y-7527831D01*
X14540831Y-7527831D01*
X14540831Y-7777831D02*
X14540831Y-7702169D01*
X14465169Y-7702169D01*
X14465169Y-7777831D01*
X14540831Y-7777831D01*
X14540831Y-8077831D02*
X14540831Y-8002169D01*
X14465169Y-8002169D01*
X14465169Y-8077831D01*
X14540831Y-8077831D01*
X14540831Y-8327831D02*
X14540831Y-8252169D01*
X14465169Y-8252169D01*
X14465169Y-8327831D01*
X14540831Y-8327831D01*
X14540831Y-8627831D02*
X14540831Y-8552169D01*
X14465169Y-8552169D01*
X14465169Y-8627831D01*
X14540831Y-8627831D01*
X14540831Y-10648831D02*
X14540831Y-10573169D01*
X14465169Y-10573169D01*
X14465169Y-10648831D01*
X14540831Y-10648831D01*
X14540831Y-10948831D02*
X14540831Y-10873169D01*
X14465169Y-10873169D01*
X14465169Y-10948831D01*
X14540831Y-10948831D01*
X14540831Y-11198831D02*
X14540831Y-11123169D01*
X14465169Y-11123169D01*
X14465169Y-11198831D01*
X14540831Y-11198831D01*
X14540831Y-11498831D02*
X14540831Y-11423169D01*
X14465169Y-11423169D01*
X14465169Y-11498831D01*
X14540831Y-11498831D01*
X14540831Y-11748831D02*
X14540831Y-11673169D01*
X14465169Y-11673169D01*
X14465169Y-11748831D01*
X14540831Y-11748831D01*
X14540831Y-12048831D02*
X14540831Y-11973169D01*
X14465169Y-11973169D01*
X14465169Y-12048831D01*
X14540831Y-12048831D01*
X14540831Y-12298831D02*
X14540831Y-12223169D01*
X14465169Y-12223169D01*
X14465169Y-12298831D01*
X14540831Y-12298831D01*
X14540831Y-12598831D02*
X14540831Y-12523169D01*
X14465169Y-12523169D01*
X14465169Y-12598831D01*
X14540831Y-12598831D01*
X14790831Y-6677831D02*
X14790831Y-6602169D01*
X14715169Y-6602169D01*
X14715169Y-6677831D01*
X14790831Y-6677831D01*
X14790831Y-6977831D02*
X14790831Y-6902169D01*
X14715169Y-6902169D01*
X14715169Y-6977831D01*
X14790831Y-6977831D01*
X14790831Y-7227831D02*
X14790831Y-7152169D01*
X14715169Y-7152169D01*
X14715169Y-7227831D01*
X14790831Y-7227831D01*
X14790831Y-7527831D02*
X14790831Y-7452169D01*
X14715169Y-7452169D01*
X14715169Y-7527831D01*
X14790831Y-7527831D01*
X14790831Y-7777831D02*
X14790831Y-7702169D01*
X14715169Y-7702169D01*
X14715169Y-7777831D01*
X14790831Y-7777831D01*
X14790831Y-8077831D02*
X14790831Y-8002169D01*
X14715169Y-8002169D01*
X14715169Y-8077831D01*
X14790831Y-8077831D01*
X14790831Y-8327831D02*
X14790831Y-8252169D01*
X14715169Y-8252169D01*
X14715169Y-8327831D01*
X14790831Y-8327831D01*
X14790831Y-8627831D02*
X14790831Y-8552169D01*
X14715169Y-8552169D01*
X14715169Y-8627831D01*
X14790831Y-8627831D01*
X14790831Y-10648831D02*
X14790831Y-10573169D01*
X14715169Y-10573169D01*
X14715169Y-10648831D01*
X14790831Y-10648831D01*
X14790831Y-10948831D02*
X14790831Y-10873169D01*
X14715169Y-10873169D01*
X14715169Y-10948831D01*
X14790831Y-10948831D01*
X14790831Y-11198831D02*
X14790831Y-11123169D01*
X14715169Y-11123169D01*
X14715169Y-11198831D01*
X14790831Y-11198831D01*
X14790831Y-11498831D02*
X14790831Y-11423169D01*
X14715169Y-11423169D01*
X14715169Y-11498831D01*
X14790831Y-11498831D01*
X14790831Y-11748831D02*
X14790831Y-11673169D01*
X14715169Y-11673169D01*
X14715169Y-11748831D01*
X14790831Y-11748831D01*
X14790831Y-12048831D02*
X14790831Y-11973169D01*
X14715169Y-11973169D01*
X14715169Y-12048831D01*
X14790831Y-12048831D01*
X14790831Y-12298831D02*
X14790831Y-12223169D01*
X14715169Y-12223169D01*
X14715169Y-12298831D01*
X14790831Y-12298831D01*
X14790831Y-12598831D02*
X14790831Y-12523169D01*
X14715169Y-12523169D01*
X14715169Y-12598831D01*
X14790831Y-12598831D01*
X15040831Y-6677831D02*
X15040831Y-6602169D01*
X14965169Y-6602169D01*
X14965169Y-6677831D01*
X15040831Y-6677831D01*
X15040831Y-6977831D02*
X15040831Y-6902169D01*
X14965169Y-6902169D01*
X14965169Y-6977831D01*
X15040831Y-6977831D01*
X15040831Y-7227831D02*
X15040831Y-7152169D01*
X14965169Y-7152169D01*
X14965169Y-7227831D01*
X15040831Y-7227831D01*
X15040831Y-7527831D02*
X15040831Y-7452169D01*
X14965169Y-7452169D01*
X14965169Y-7527831D01*
X15040831Y-7527831D01*
X15040831Y-7777831D02*
X15040831Y-7702169D01*
X14965169Y-7702169D01*
X14965169Y-7777831D01*
X15040831Y-7777831D01*
X15040831Y-8077831D02*
X15040831Y-8002169D01*
X14965169Y-8002169D01*
X14965169Y-8077831D01*
X15040831Y-8077831D01*
X15040831Y-8327831D02*
X15040831Y-8252169D01*
X14965169Y-8252169D01*
X14965169Y-8327831D01*
X15040831Y-8327831D01*
X15040831Y-8627831D02*
X15040831Y-8552169D01*
X14965169Y-8552169D01*
X14965169Y-8627831D01*
X15040831Y-8627831D01*
X15040831Y-10648831D02*
X15040831Y-10573169D01*
X14965169Y-10573169D01*
X14965169Y-10648831D01*
X15040831Y-10648831D01*
X15040831Y-10948831D02*
X15040831Y-10873169D01*
X14965169Y-10873169D01*
X14965169Y-10948831D01*
X15040831Y-10948831D01*
X15040831Y-11198831D02*
X15040831Y-11123169D01*
X14965169Y-11123169D01*
X14965169Y-11198831D01*
X15040831Y-11198831D01*
X15040831Y-11498831D02*
X15040831Y-11423169D01*
X14965169Y-11423169D01*
X14965169Y-11498831D01*
X15040831Y-11498831D01*
X15040831Y-11748831D02*
X15040831Y-11673169D01*
X14965169Y-11673169D01*
X14965169Y-11748831D01*
X15040831Y-11748831D01*
X15040831Y-12048831D02*
X15040831Y-11973169D01*
X14965169Y-11973169D01*
X14965169Y-12048831D01*
X15040831Y-12048831D01*
X15040831Y-12298831D02*
X15040831Y-12223169D01*
X14965169Y-12223169D01*
X14965169Y-12298831D01*
X15040831Y-12298831D01*
X15040831Y-12598831D02*
X15040831Y-12523169D01*
X14965169Y-12523169D01*
X14965169Y-12598831D01*
X15040831Y-12598831D01*
D13*
X12065000Y-6136000D02*
X12126000Y-6075000D01*
X12065000Y-6014000D01*
X12004000Y-6075000D01*
X12065000Y-6136000D01*
X12065000Y-6898000D02*
X12126000Y-6837000D01*
X12065000Y-6776000D01*
X12004000Y-6837000D01*
X12065000Y-6898000D01*
X12065000Y-7660000D02*
X12126000Y-7599000D01*
X12065000Y-7538000D01*
X12004000Y-7599000D01*
X12065000Y-7660000D01*
X17145000Y-6517000D02*
X17206000Y-6456000D01*
X17145000Y-6395000D01*
X17084000Y-6456000D01*
X17145000Y-6517000D01*
X17145000Y-6898000D02*
X17206000Y-6837000D01*
X17145000Y-6776000D01*
X17084000Y-6837000D01*
X17145000Y-6898000D01*
X17145000Y-7279000D02*
X17206000Y-7218000D01*
X17145000Y-7157000D01*
X17084000Y-7218000D01*
X17145000Y-7279000D01*
D14*
X12160000Y-8608000D02*
X12300000Y-8748000D01*
X12300000Y-8608000D02*
X12160000Y-8748000D01*
X12300000Y-8678000D02*
G75*
G03*
X12300000Y-8678000I-70000J0D01*
G01*
X12160000Y-9370000D02*
X12300000Y-9510000D01*
X12300000Y-9370000D02*
X12160000Y-9510000D01*
X12300000Y-9440000D02*
G75*
G03*
X12300000Y-9440000I-70000J0D01*
G01*
X12160000Y-10132000D02*
X12300000Y-10272000D01*
X12300000Y-10132000D02*
X12160000Y-10272000D01*
X12300000Y-10202000D02*
G75*
G03*
X12300000Y-10202000I-70000J0D01*
G01*
X12204000Y-11300000D02*
X12344000Y-11440000D01*
X12344000Y-11300000D02*
X12204000Y-11440000D01*
X12344000Y-11370000D02*
G75*
G03*
X12344000Y-11370000I-70000J0D01*
G01*
X12204000Y-12062000D02*
X12344000Y-12202000D01*
X12344000Y-12062000D02*
X12204000Y-12202000D01*
X12344000Y-12132000D02*
G75*
G03*
X12344000Y-12132000I-70000J0D01*
G01*
X12204000Y-12824000D02*
X12344000Y-12964000D01*
X12344000Y-12824000D02*
X12204000Y-12964000D01*
X12344000Y-12894000D02*
G75*
G03*
X12344000Y-12894000I-70000J0D01*
G01*
D15*
X17056500Y-5986500D02*
X17233500Y-6163500D01*
X17233500Y-5986500D02*
X17056500Y-6163500D01*
X17145000Y-5986500D02*
X17145000Y-6163500D01*
X17056500Y-6075000D02*
X17233500Y-6075000D01*
X17056500Y-7510500D02*
X17233500Y-7687500D01*
X17233500Y-7510500D02*
X17056500Y-7687500D01*
X17145000Y-7510500D02*
X17145000Y-7687500D01*
X17056500Y-7599000D02*
X17233500Y-7599000D01*
D16*
X13261000Y-3947000D02*
X13451000Y-4137000D01*
X13451000Y-3947000D02*
X13261000Y-4137000D01*
X13423176Y-4109176D02*
X13423176Y-3974824D01*
X13288824Y-3974824D01*
X13288824Y-4109176D01*
X13423176Y-4109176D01*
X13261000Y-4648000D02*
X13451000Y-4838000D01*
X13451000Y-4648000D02*
X13261000Y-4838000D01*
X13423176Y-4810176D02*
X13423176Y-4675824D01*
X13288824Y-4675824D01*
X13288824Y-4810176D01*
X13423176Y-4810176D01*
X13761000Y-3947000D02*
X13951000Y-4137000D01*
X13951000Y-3947000D02*
X13761000Y-4137000D01*
X13923176Y-4109176D02*
X13923176Y-3974824D01*
X13788824Y-3974824D01*
X13788824Y-4109176D01*
X13923176Y-4109176D01*
X13761000Y-4648000D02*
X13951000Y-4838000D01*
X13951000Y-4648000D02*
X13761000Y-4838000D01*
X13923176Y-4810176D02*
X13923176Y-4675824D01*
X13788824Y-4675824D01*
X13788824Y-4810176D01*
X13923176Y-4810176D01*
X15455000Y-3979500D02*
X15645000Y-4169500D01*
X15645000Y-3979500D02*
X15455000Y-4169500D01*
X15617176Y-4141676D02*
X15617176Y-4007324D01*
X15482824Y-4007324D01*
X15482824Y-4141676D01*
X15617176Y-4141676D01*
X15455000Y-4680500D02*
X15645000Y-4870500D01*
X15645000Y-4680500D02*
X15455000Y-4870500D01*
X15617176Y-4842676D02*
X15617176Y-4708324D01*
X15482824Y-4708324D01*
X15482824Y-4842676D01*
X15617176Y-4842676D01*
X15955000Y-3979500D02*
X16145000Y-4169500D01*
X16145000Y-3979500D02*
X15955000Y-4169500D01*
X16117176Y-4141676D02*
X16117176Y-4007324D01*
X15982824Y-4007324D01*
X15982824Y-4141676D01*
X16117176Y-4141676D01*
X15955000Y-4680500D02*
X16145000Y-4870500D01*
X16145000Y-4680500D02*
X15955000Y-4870500D01*
X16117176Y-4842676D02*
X16117176Y-4708324D01*
X15982824Y-4708324D01*
X15982824Y-4842676D01*
X16117176Y-4842676D01*
D17*
X17208500Y-8576500D02*
X17411500Y-8779500D01*
X17411500Y-8576500D02*
X17208500Y-8779500D01*
X17310000Y-8779500D02*
X17411500Y-8678000D01*
X17310000Y-8576500D01*
X17208500Y-8678000D01*
X17310000Y-8779500D01*
X17208500Y-10100500D02*
X17411500Y-10303500D01*
X17411500Y-10100500D02*
X17208500Y-10303500D01*
X17310000Y-10303500D02*
X17411500Y-10202000D01*
X17310000Y-10100500D01*
X17208500Y-10202000D01*
X17310000Y-10303500D01*
X17252500Y-11268500D02*
X17455500Y-11471500D01*
X17455500Y-11268500D02*
X17252500Y-11471500D01*
X17354000Y-11471500D02*
X17455500Y-11370000D01*
X17354000Y-11268500D01*
X17252500Y-11370000D01*
X17354000Y-11471500D01*
X17252500Y-12792500D02*
X17455500Y-12995500D01*
X17455500Y-12792500D02*
X17252500Y-12995500D01*
X17354000Y-12995500D02*
X17455500Y-12894000D01*
X17354000Y-12792500D01*
X17252500Y-12894000D01*
X17354000Y-12995500D01*
D11*
X9106777Y-15928484D02*
X9106777Y-15728484D01*
X9106777Y-15728484D02*
X9154396Y-15728484D01*
X9154396Y-15728484D02*
X9182967Y-15738008D01*
X9182967Y-15738008D02*
X9202015Y-15757055D01*
X9202015Y-15757055D02*
X9211539Y-15776103D01*
X9211539Y-15776103D02*
X9221063Y-15814198D01*
X9221063Y-15814198D02*
X9221063Y-15842769D01*
X9221063Y-15842769D02*
X9211539Y-15880865D01*
X9211539Y-15880865D02*
X9202015Y-15899912D01*
X9202015Y-15899912D02*
X9182967Y-15918960D01*
X9182967Y-15918960D02*
X9154396Y-15928484D01*
X9154396Y-15928484D02*
X9106777Y-15928484D01*
X9306777Y-15928484D02*
X9306777Y-15795150D01*
X9306777Y-15833246D02*
X9316301Y-15814198D01*
X9316301Y-15814198D02*
X9325825Y-15804674D01*
X9325825Y-15804674D02*
X9344872Y-15795150D01*
X9344872Y-15795150D02*
X9363920Y-15795150D01*
X9430586Y-15928484D02*
X9430586Y-15795150D01*
X9430586Y-15728484D02*
X9421063Y-15738008D01*
X9421063Y-15738008D02*
X9430586Y-15747531D01*
X9430586Y-15747531D02*
X9440110Y-15738008D01*
X9440110Y-15738008D02*
X9430586Y-15728484D01*
X9430586Y-15728484D02*
X9430586Y-15747531D01*
X9554396Y-15928484D02*
X9535348Y-15918960D01*
X9535348Y-15918960D02*
X9525825Y-15899912D01*
X9525825Y-15899912D02*
X9525825Y-15728484D01*
X9659158Y-15928484D02*
X9640110Y-15918960D01*
X9640110Y-15918960D02*
X9630586Y-15899912D01*
X9630586Y-15899912D02*
X9630586Y-15728484D01*
X9887729Y-15928484D02*
X9887729Y-15728484D01*
X9887729Y-15728484D02*
X9954396Y-15871341D01*
X9954396Y-15871341D02*
X10021063Y-15728484D01*
X10021063Y-15728484D02*
X10021063Y-15928484D01*
X10202015Y-15928484D02*
X10202015Y-15823722D01*
X10202015Y-15823722D02*
X10192491Y-15804674D01*
X10192491Y-15804674D02*
X10173444Y-15795150D01*
X10173444Y-15795150D02*
X10135348Y-15795150D01*
X10135348Y-15795150D02*
X10116301Y-15804674D01*
X10202015Y-15918960D02*
X10182967Y-15928484D01*
X10182967Y-15928484D02*
X10135348Y-15928484D01*
X10135348Y-15928484D02*
X10116301Y-15918960D01*
X10116301Y-15918960D02*
X10106777Y-15899912D01*
X10106777Y-15899912D02*
X10106777Y-15880865D01*
X10106777Y-15880865D02*
X10116301Y-15861817D01*
X10116301Y-15861817D02*
X10135348Y-15852293D01*
X10135348Y-15852293D02*
X10182967Y-15852293D01*
X10182967Y-15852293D02*
X10202015Y-15842769D01*
X10297253Y-15795150D02*
X10297253Y-15995150D01*
X10297253Y-15804674D02*
X10316301Y-15795150D01*
X10316301Y-15795150D02*
X10354396Y-15795150D01*
X10354396Y-15795150D02*
X10373444Y-15804674D01*
X10373444Y-15804674D02*
X10382967Y-15814198D01*
X10382967Y-15814198D02*
X10392491Y-15833246D01*
X10392491Y-15833246D02*
X10392491Y-15890388D01*
X10392491Y-15890388D02*
X10382967Y-15909436D01*
X10382967Y-15909436D02*
X10373444Y-15918960D01*
X10373444Y-15918960D02*
X10354396Y-15928484D01*
X10354396Y-15928484D02*
X10316301Y-15928484D01*
X10316301Y-15928484D02*
X10297253Y-15918960D01*
X10478206Y-15909436D02*
X10487729Y-15918960D01*
X10487729Y-15918960D02*
X10478206Y-15928484D01*
X10478206Y-15928484D02*
X10468682Y-15918960D01*
X10468682Y-15918960D02*
X10478206Y-15909436D01*
X10478206Y-15909436D02*
X10478206Y-15928484D01*
X10478206Y-15804674D02*
X10487729Y-15814198D01*
X10487729Y-15814198D02*
X10478206Y-15823722D01*
X10478206Y-15823722D02*
X10468682Y-15814198D01*
X10468682Y-15814198D02*
X10478206Y-15804674D01*
X10478206Y-15804674D02*
X10478206Y-15823722D01*
D10*
X8806000Y-16237000D02*
X8846000Y-16277000D01*
X8846000Y-16237000D02*
X8806000Y-16277000D01*
D11*
X9144872Y-16148484D02*
X9163920Y-16148484D01*
X9163920Y-16148484D02*
X9182967Y-16158008D01*
X9182967Y-16158008D02*
X9192491Y-16167531D01*
X9192491Y-16167531D02*
X9202015Y-16186579D01*
X9202015Y-16186579D02*
X9211539Y-16224674D01*
X9211539Y-16224674D02*
X9211539Y-16272293D01*
X9211539Y-16272293D02*
X9202015Y-16310388D01*
X9202015Y-16310388D02*
X9192491Y-16329436D01*
X9192491Y-16329436D02*
X9182967Y-16338960D01*
X9182967Y-16338960D02*
X9163920Y-16348484D01*
X9163920Y-16348484D02*
X9144872Y-16348484D01*
X9144872Y-16348484D02*
X9125825Y-16338960D01*
X9125825Y-16338960D02*
X9116301Y-16329436D01*
X9116301Y-16329436D02*
X9106777Y-16310388D01*
X9106777Y-16310388D02*
X9097253Y-16272293D01*
X9097253Y-16272293D02*
X9097253Y-16224674D01*
X9097253Y-16224674D02*
X9106777Y-16186579D01*
X9106777Y-16186579D02*
X9116301Y-16167531D01*
X9116301Y-16167531D02*
X9125825Y-16158008D01*
X9125825Y-16158008D02*
X9144872Y-16148484D01*
X9297253Y-16329436D02*
X9306777Y-16338960D01*
X9306777Y-16338960D02*
X9297253Y-16348484D01*
X9297253Y-16348484D02*
X9287729Y-16338960D01*
X9287729Y-16338960D02*
X9297253Y-16329436D01*
X9297253Y-16329436D02*
X9297253Y-16348484D01*
X9478206Y-16215150D02*
X9478206Y-16348484D01*
X9430586Y-16138960D02*
X9382967Y-16281817D01*
X9382967Y-16281817D02*
X9506777Y-16281817D01*
X9621063Y-16148484D02*
X9640110Y-16148484D01*
X9640110Y-16148484D02*
X9659158Y-16158008D01*
X9659158Y-16158008D02*
X9668682Y-16167531D01*
X9668682Y-16167531D02*
X9678206Y-16186579D01*
X9678206Y-16186579D02*
X9687729Y-16224674D01*
X9687729Y-16224674D02*
X9687729Y-16272293D01*
X9687729Y-16272293D02*
X9678206Y-16310388D01*
X9678206Y-16310388D02*
X9668682Y-16329436D01*
X9668682Y-16329436D02*
X9659158Y-16338960D01*
X9659158Y-16338960D02*
X9640110Y-16348484D01*
X9640110Y-16348484D02*
X9621063Y-16348484D01*
X9621063Y-16348484D02*
X9602015Y-16338960D01*
X9602015Y-16338960D02*
X9592491Y-16329436D01*
X9592491Y-16329436D02*
X9582967Y-16310388D01*
X9582967Y-16310388D02*
X9573444Y-16272293D01*
X9573444Y-16272293D02*
X9573444Y-16224674D01*
X9573444Y-16224674D02*
X9582967Y-16186579D01*
X9582967Y-16186579D02*
X9592491Y-16167531D01*
X9592491Y-16167531D02*
X9602015Y-16158008D01*
X9602015Y-16158008D02*
X9621063Y-16148484D01*
X9811539Y-16148484D02*
X9830587Y-16148484D01*
X9830587Y-16148484D02*
X9849634Y-16158008D01*
X9849634Y-16158008D02*
X9859158Y-16167531D01*
X9859158Y-16167531D02*
X9868682Y-16186579D01*
X9868682Y-16186579D02*
X9878206Y-16224674D01*
X9878206Y-16224674D02*
X9878206Y-16272293D01*
X9878206Y-16272293D02*
X9868682Y-16310388D01*
X9868682Y-16310388D02*
X9859158Y-16329436D01*
X9859158Y-16329436D02*
X9849634Y-16338960D01*
X9849634Y-16338960D02*
X9830587Y-16348484D01*
X9830587Y-16348484D02*
X9811539Y-16348484D01*
X9811539Y-16348484D02*
X9792491Y-16338960D01*
X9792491Y-16338960D02*
X9782967Y-16329436D01*
X9782967Y-16329436D02*
X9773444Y-16310388D01*
X9773444Y-16310388D02*
X9763920Y-16272293D01*
X9763920Y-16272293D02*
X9763920Y-16224674D01*
X9763920Y-16224674D02*
X9773444Y-16186579D01*
X9773444Y-16186579D02*
X9782967Y-16167531D01*
X9782967Y-16167531D02*
X9792491Y-16158008D01*
X9792491Y-16158008D02*
X9811539Y-16148484D01*
X9963920Y-16348484D02*
X9963920Y-16215150D01*
X9963920Y-16234198D02*
X9973444Y-16224674D01*
X9973444Y-16224674D02*
X9992491Y-16215150D01*
X9992491Y-16215150D02*
X10021063Y-16215150D01*
X10021063Y-16215150D02*
X10040110Y-16224674D01*
X10040110Y-16224674D02*
X10049634Y-16243722D01*
X10049634Y-16243722D02*
X10049634Y-16348484D01*
X10049634Y-16243722D02*
X10059158Y-16224674D01*
X10059158Y-16224674D02*
X10078206Y-16215150D01*
X10078206Y-16215150D02*
X10106777Y-16215150D01*
X10106777Y-16215150D02*
X10125825Y-16224674D01*
X10125825Y-16224674D02*
X10135348Y-16243722D01*
X10135348Y-16243722D02*
X10135348Y-16348484D01*
X10230587Y-16348484D02*
X10230587Y-16215150D01*
X10230587Y-16234198D02*
X10240110Y-16224674D01*
X10240110Y-16224674D02*
X10259158Y-16215150D01*
X10259158Y-16215150D02*
X10287729Y-16215150D01*
X10287729Y-16215150D02*
X10306777Y-16224674D01*
X10306777Y-16224674D02*
X10316301Y-16243722D01*
X10316301Y-16243722D02*
X10316301Y-16348484D01*
X10316301Y-16243722D02*
X10325825Y-16224674D01*
X10325825Y-16224674D02*
X10344872Y-16215150D01*
X10344872Y-16215150D02*
X10373444Y-16215150D01*
X10373444Y-16215150D02*
X10392491Y-16224674D01*
X10392491Y-16224674D02*
X10402015Y-16243722D01*
X10402015Y-16243722D02*
X10402015Y-16348484D01*
X10792491Y-16138960D02*
X10621063Y-16396103D01*
X11049634Y-16148484D02*
X11068682Y-16148484D01*
X11068682Y-16148484D02*
X11087730Y-16158008D01*
X11087730Y-16158008D02*
X11097253Y-16167531D01*
X11097253Y-16167531D02*
X11106777Y-16186579D01*
X11106777Y-16186579D02*
X11116301Y-16224674D01*
X11116301Y-16224674D02*
X11116301Y-16272293D01*
X11116301Y-16272293D02*
X11106777Y-16310388D01*
X11106777Y-16310388D02*
X11097253Y-16329436D01*
X11097253Y-16329436D02*
X11087730Y-16338960D01*
X11087730Y-16338960D02*
X11068682Y-16348484D01*
X11068682Y-16348484D02*
X11049634Y-16348484D01*
X11049634Y-16348484D02*
X11030587Y-16338960D01*
X11030587Y-16338960D02*
X11021063Y-16329436D01*
X11021063Y-16329436D02*
X11011539Y-16310388D01*
X11011539Y-16310388D02*
X11002015Y-16272293D01*
X11002015Y-16272293D02*
X11002015Y-16224674D01*
X11002015Y-16224674D02*
X11011539Y-16186579D01*
X11011539Y-16186579D02*
X11021063Y-16167531D01*
X11021063Y-16167531D02*
X11030587Y-16158008D01*
X11030587Y-16158008D02*
X11049634Y-16148484D01*
X11202015Y-16329436D02*
X11211539Y-16338960D01*
X11211539Y-16338960D02*
X11202015Y-16348484D01*
X11202015Y-16348484D02*
X11192491Y-16338960D01*
X11192491Y-16338960D02*
X11202015Y-16329436D01*
X11202015Y-16329436D02*
X11202015Y-16348484D01*
X11335348Y-16148484D02*
X11354396Y-16148484D01*
X11354396Y-16148484D02*
X11373444Y-16158008D01*
X11373444Y-16158008D02*
X11382968Y-16167531D01*
X11382968Y-16167531D02*
X11392491Y-16186579D01*
X11392491Y-16186579D02*
X11402015Y-16224674D01*
X11402015Y-16224674D02*
X11402015Y-16272293D01*
X11402015Y-16272293D02*
X11392491Y-16310388D01*
X11392491Y-16310388D02*
X11382968Y-16329436D01*
X11382968Y-16329436D02*
X11373444Y-16338960D01*
X11373444Y-16338960D02*
X11354396Y-16348484D01*
X11354396Y-16348484D02*
X11335348Y-16348484D01*
X11335348Y-16348484D02*
X11316301Y-16338960D01*
X11316301Y-16338960D02*
X11306777Y-16329436D01*
X11306777Y-16329436D02*
X11297253Y-16310388D01*
X11297253Y-16310388D02*
X11287729Y-16272293D01*
X11287729Y-16272293D02*
X11287729Y-16224674D01*
X11287729Y-16224674D02*
X11297253Y-16186579D01*
X11297253Y-16186579D02*
X11306777Y-16167531D01*
X11306777Y-16167531D02*
X11316301Y-16158008D01*
X11316301Y-16158008D02*
X11335348Y-16148484D01*
X11592491Y-16348484D02*
X11478206Y-16348484D01*
X11535348Y-16348484D02*
X11535348Y-16148484D01*
X11535348Y-16148484D02*
X11516301Y-16177055D01*
X11516301Y-16177055D02*
X11497253Y-16196103D01*
X11497253Y-16196103D02*
X11478206Y-16205627D01*
X11773444Y-16148484D02*
X11678206Y-16148484D01*
X11678206Y-16148484D02*
X11668682Y-16243722D01*
X11668682Y-16243722D02*
X11678206Y-16234198D01*
X11678206Y-16234198D02*
X11697253Y-16224674D01*
X11697253Y-16224674D02*
X11744872Y-16224674D01*
X11744872Y-16224674D02*
X11763920Y-16234198D01*
X11763920Y-16234198D02*
X11773444Y-16243722D01*
X11773444Y-16243722D02*
X11782968Y-16262769D01*
X11782968Y-16262769D02*
X11782968Y-16310388D01*
X11782968Y-16310388D02*
X11773444Y-16329436D01*
X11773444Y-16329436D02*
X11763920Y-16338960D01*
X11763920Y-16338960D02*
X11744872Y-16348484D01*
X11744872Y-16348484D02*
X11697253Y-16348484D01*
X11697253Y-16348484D02*
X11678206Y-16338960D01*
X11678206Y-16338960D02*
X11668682Y-16329436D01*
X11849634Y-16148484D02*
X11982968Y-16148484D01*
X11982968Y-16148484D02*
X11897253Y-16348484D01*
X12049634Y-16148484D02*
X12049634Y-16186579D01*
X12125825Y-16148484D02*
X12125825Y-16186579D01*
X12421063Y-16424674D02*
X12411539Y-16415150D01*
X12411539Y-16415150D02*
X12392491Y-16386579D01*
X12392491Y-16386579D02*
X12382968Y-16367531D01*
X12382968Y-16367531D02*
X12373444Y-16338960D01*
X12373444Y-16338960D02*
X12363920Y-16291341D01*
X12363920Y-16291341D02*
X12363920Y-16253246D01*
X12363920Y-16253246D02*
X12373444Y-16205627D01*
X12373444Y-16205627D02*
X12382968Y-16177055D01*
X12382968Y-16177055D02*
X12392491Y-16158008D01*
X12392491Y-16158008D02*
X12411539Y-16129436D01*
X12411539Y-16129436D02*
X12421063Y-16119912D01*
X12592491Y-16148484D02*
X12497253Y-16148484D01*
X12497253Y-16148484D02*
X12487730Y-16243722D01*
X12487730Y-16243722D02*
X12497253Y-16234198D01*
X12497253Y-16234198D02*
X12516301Y-16224674D01*
X12516301Y-16224674D02*
X12563920Y-16224674D01*
X12563920Y-16224674D02*
X12582968Y-16234198D01*
X12582968Y-16234198D02*
X12592491Y-16243722D01*
X12592491Y-16243722D02*
X12602015Y-16262769D01*
X12602015Y-16262769D02*
X12602015Y-16310388D01*
X12602015Y-16310388D02*
X12592491Y-16329436D01*
X12592491Y-16329436D02*
X12582968Y-16338960D01*
X12582968Y-16338960D02*
X12563920Y-16348484D01*
X12563920Y-16348484D02*
X12516301Y-16348484D01*
X12516301Y-16348484D02*
X12497253Y-16338960D01*
X12497253Y-16338960D02*
X12487730Y-16329436D01*
X12697253Y-16348484D02*
X12735349Y-16348484D01*
X12735349Y-16348484D02*
X12754396Y-16338960D01*
X12754396Y-16338960D02*
X12763920Y-16329436D01*
X12763920Y-16329436D02*
X12782968Y-16300865D01*
X12782968Y-16300865D02*
X12792491Y-16262769D01*
X12792491Y-16262769D02*
X12792491Y-16186579D01*
X12792491Y-16186579D02*
X12782968Y-16167531D01*
X12782968Y-16167531D02*
X12773444Y-16158008D01*
X12773444Y-16158008D02*
X12754396Y-16148484D01*
X12754396Y-16148484D02*
X12716301Y-16148484D01*
X12716301Y-16148484D02*
X12697253Y-16158008D01*
X12697253Y-16158008D02*
X12687730Y-16167531D01*
X12687730Y-16167531D02*
X12678206Y-16186579D01*
X12678206Y-16186579D02*
X12678206Y-16234198D01*
X12678206Y-16234198D02*
X12687730Y-16253246D01*
X12687730Y-16253246D02*
X12697253Y-16262769D01*
X12697253Y-16262769D02*
X12716301Y-16272293D01*
X12716301Y-16272293D02*
X12754396Y-16272293D01*
X12754396Y-16272293D02*
X12773444Y-16262769D01*
X12773444Y-16262769D02*
X12782968Y-16253246D01*
X12782968Y-16253246D02*
X12792491Y-16234198D01*
X12887730Y-16348484D02*
X12925825Y-16348484D01*
X12925825Y-16348484D02*
X12944872Y-16338960D01*
X12944872Y-16338960D02*
X12954396Y-16329436D01*
X12954396Y-16329436D02*
X12973444Y-16300865D01*
X12973444Y-16300865D02*
X12982968Y-16262769D01*
X12982968Y-16262769D02*
X12982968Y-16186579D01*
X12982968Y-16186579D02*
X12973444Y-16167531D01*
X12973444Y-16167531D02*
X12963920Y-16158008D01*
X12963920Y-16158008D02*
X12944872Y-16148484D01*
X12944872Y-16148484D02*
X12906777Y-16148484D01*
X12906777Y-16148484D02*
X12887730Y-16158008D01*
X12887730Y-16158008D02*
X12878206Y-16167531D01*
X12878206Y-16167531D02*
X12868682Y-16186579D01*
X12868682Y-16186579D02*
X12868682Y-16234198D01*
X12868682Y-16234198D02*
X12878206Y-16253246D01*
X12878206Y-16253246D02*
X12887730Y-16262769D01*
X12887730Y-16262769D02*
X12906777Y-16272293D01*
X12906777Y-16272293D02*
X12944872Y-16272293D01*
X12944872Y-16272293D02*
X12963920Y-16262769D01*
X12963920Y-16262769D02*
X12973444Y-16253246D01*
X12973444Y-16253246D02*
X12982968Y-16234198D01*
X13221063Y-16348484D02*
X13221063Y-16148484D01*
X13306777Y-16348484D02*
X13306777Y-16243722D01*
X13306777Y-16243722D02*
X13297253Y-16224674D01*
X13297253Y-16224674D02*
X13278206Y-16215150D01*
X13278206Y-16215150D02*
X13249634Y-16215150D01*
X13249634Y-16215150D02*
X13230587Y-16224674D01*
X13230587Y-16224674D02*
X13221063Y-16234198D01*
X13430587Y-16348484D02*
X13411539Y-16338960D01*
X13411539Y-16338960D02*
X13402015Y-16329436D01*
X13402015Y-16329436D02*
X13392492Y-16310388D01*
X13392492Y-16310388D02*
X13392492Y-16253246D01*
X13392492Y-16253246D02*
X13402015Y-16234198D01*
X13402015Y-16234198D02*
X13411539Y-16224674D01*
X13411539Y-16224674D02*
X13430587Y-16215150D01*
X13430587Y-16215150D02*
X13459158Y-16215150D01*
X13459158Y-16215150D02*
X13478206Y-16224674D01*
X13478206Y-16224674D02*
X13487730Y-16234198D01*
X13487730Y-16234198D02*
X13497253Y-16253246D01*
X13497253Y-16253246D02*
X13497253Y-16310388D01*
X13497253Y-16310388D02*
X13487730Y-16329436D01*
X13487730Y-16329436D02*
X13478206Y-16338960D01*
X13478206Y-16338960D02*
X13459158Y-16348484D01*
X13459158Y-16348484D02*
X13430587Y-16348484D01*
X13611539Y-16348484D02*
X13592492Y-16338960D01*
X13592492Y-16338960D02*
X13582968Y-16319912D01*
X13582968Y-16319912D02*
X13582968Y-16148484D01*
X13763920Y-16338960D02*
X13744873Y-16348484D01*
X13744873Y-16348484D02*
X13706777Y-16348484D01*
X13706777Y-16348484D02*
X13687730Y-16338960D01*
X13687730Y-16338960D02*
X13678206Y-16319912D01*
X13678206Y-16319912D02*
X13678206Y-16243722D01*
X13678206Y-16243722D02*
X13687730Y-16224674D01*
X13687730Y-16224674D02*
X13706777Y-16215150D01*
X13706777Y-16215150D02*
X13744873Y-16215150D01*
X13744873Y-16215150D02*
X13763920Y-16224674D01*
X13763920Y-16224674D02*
X13773444Y-16243722D01*
X13773444Y-16243722D02*
X13773444Y-16262769D01*
X13773444Y-16262769D02*
X13678206Y-16281817D01*
X13849634Y-16338960D02*
X13868682Y-16348484D01*
X13868682Y-16348484D02*
X13906777Y-16348484D01*
X13906777Y-16348484D02*
X13925825Y-16338960D01*
X13925825Y-16338960D02*
X13935349Y-16319912D01*
X13935349Y-16319912D02*
X13935349Y-16310388D01*
X13935349Y-16310388D02*
X13925825Y-16291341D01*
X13925825Y-16291341D02*
X13906777Y-16281817D01*
X13906777Y-16281817D02*
X13878206Y-16281817D01*
X13878206Y-16281817D02*
X13859158Y-16272293D01*
X13859158Y-16272293D02*
X13849634Y-16253246D01*
X13849634Y-16253246D02*
X13849634Y-16243722D01*
X13849634Y-16243722D02*
X13859158Y-16224674D01*
X13859158Y-16224674D02*
X13878206Y-16215150D01*
X13878206Y-16215150D02*
X13906777Y-16215150D01*
X13906777Y-16215150D02*
X13925825Y-16224674D01*
X14002015Y-16424674D02*
X14011539Y-16415150D01*
X14011539Y-16415150D02*
X14030587Y-16386579D01*
X14030587Y-16386579D02*
X14040111Y-16367531D01*
X14040111Y-16367531D02*
X14049634Y-16338960D01*
X14049634Y-16338960D02*
X14059158Y-16291341D01*
X14059158Y-16291341D02*
X14059158Y-16253246D01*
X14059158Y-16253246D02*
X14049634Y-16205627D01*
X14049634Y-16205627D02*
X14040111Y-16177055D01*
X14040111Y-16177055D02*
X14030587Y-16158008D01*
X14030587Y-16158008D02*
X14011539Y-16129436D01*
X14011539Y-16129436D02*
X14002015Y-16119912D01*
D10*
X8846000Y-16521000D02*
G75*
G03*
X8846000Y-16521000I-35000J0D01*
G01*
D11*
X9144872Y-16412484D02*
X9163920Y-16412484D01*
X9163920Y-16412484D02*
X9182967Y-16422008D01*
X9182967Y-16422008D02*
X9192491Y-16431531D01*
X9192491Y-16431531D02*
X9202015Y-16450579D01*
X9202015Y-16450579D02*
X9211539Y-16488674D01*
X9211539Y-16488674D02*
X9211539Y-16536293D01*
X9211539Y-16536293D02*
X9202015Y-16574388D01*
X9202015Y-16574388D02*
X9192491Y-16593436D01*
X9192491Y-16593436D02*
X9182967Y-16602960D01*
X9182967Y-16602960D02*
X9163920Y-16612484D01*
X9163920Y-16612484D02*
X9144872Y-16612484D01*
X9144872Y-16612484D02*
X9125825Y-16602960D01*
X9125825Y-16602960D02*
X9116301Y-16593436D01*
X9116301Y-16593436D02*
X9106777Y-16574388D01*
X9106777Y-16574388D02*
X9097253Y-16536293D01*
X9097253Y-16536293D02*
X9097253Y-16488674D01*
X9097253Y-16488674D02*
X9106777Y-16450579D01*
X9106777Y-16450579D02*
X9116301Y-16431531D01*
X9116301Y-16431531D02*
X9125825Y-16422008D01*
X9125825Y-16422008D02*
X9144872Y-16412484D01*
X9297253Y-16593436D02*
X9306777Y-16602960D01*
X9306777Y-16602960D02*
X9297253Y-16612484D01*
X9297253Y-16612484D02*
X9287729Y-16602960D01*
X9287729Y-16602960D02*
X9297253Y-16593436D01*
X9297253Y-16593436D02*
X9297253Y-16612484D01*
X9373444Y-16412484D02*
X9506777Y-16412484D01*
X9506777Y-16412484D02*
X9421063Y-16612484D01*
X9621063Y-16412484D02*
X9640110Y-16412484D01*
X9640110Y-16412484D02*
X9659158Y-16422008D01*
X9659158Y-16422008D02*
X9668682Y-16431531D01*
X9668682Y-16431531D02*
X9678206Y-16450579D01*
X9678206Y-16450579D02*
X9687729Y-16488674D01*
X9687729Y-16488674D02*
X9687729Y-16536293D01*
X9687729Y-16536293D02*
X9678206Y-16574388D01*
X9678206Y-16574388D02*
X9668682Y-16593436D01*
X9668682Y-16593436D02*
X9659158Y-16602960D01*
X9659158Y-16602960D02*
X9640110Y-16612484D01*
X9640110Y-16612484D02*
X9621063Y-16612484D01*
X9621063Y-16612484D02*
X9602015Y-16602960D01*
X9602015Y-16602960D02*
X9592491Y-16593436D01*
X9592491Y-16593436D02*
X9582967Y-16574388D01*
X9582967Y-16574388D02*
X9573444Y-16536293D01*
X9573444Y-16536293D02*
X9573444Y-16488674D01*
X9573444Y-16488674D02*
X9582967Y-16450579D01*
X9582967Y-16450579D02*
X9592491Y-16431531D01*
X9592491Y-16431531D02*
X9602015Y-16422008D01*
X9602015Y-16422008D02*
X9621063Y-16412484D01*
X9811539Y-16412484D02*
X9830587Y-16412484D01*
X9830587Y-16412484D02*
X9849634Y-16422008D01*
X9849634Y-16422008D02*
X9859158Y-16431531D01*
X9859158Y-16431531D02*
X9868682Y-16450579D01*
X9868682Y-16450579D02*
X9878206Y-16488674D01*
X9878206Y-16488674D02*
X9878206Y-16536293D01*
X9878206Y-16536293D02*
X9868682Y-16574388D01*
X9868682Y-16574388D02*
X9859158Y-16593436D01*
X9859158Y-16593436D02*
X9849634Y-16602960D01*
X9849634Y-16602960D02*
X9830587Y-16612484D01*
X9830587Y-16612484D02*
X9811539Y-16612484D01*
X9811539Y-16612484D02*
X9792491Y-16602960D01*
X9792491Y-16602960D02*
X9782967Y-16593436D01*
X9782967Y-16593436D02*
X9773444Y-16574388D01*
X9773444Y-16574388D02*
X9763920Y-16536293D01*
X9763920Y-16536293D02*
X9763920Y-16488674D01*
X9763920Y-16488674D02*
X9773444Y-16450579D01*
X9773444Y-16450579D02*
X9782967Y-16431531D01*
X9782967Y-16431531D02*
X9792491Y-16422008D01*
X9792491Y-16422008D02*
X9811539Y-16412484D01*
X9963920Y-16612484D02*
X9963920Y-16479150D01*
X9963920Y-16498198D02*
X9973444Y-16488674D01*
X9973444Y-16488674D02*
X9992491Y-16479150D01*
X9992491Y-16479150D02*
X10021063Y-16479150D01*
X10021063Y-16479150D02*
X10040110Y-16488674D01*
X10040110Y-16488674D02*
X10049634Y-16507722D01*
X10049634Y-16507722D02*
X10049634Y-16612484D01*
X10049634Y-16507722D02*
X10059158Y-16488674D01*
X10059158Y-16488674D02*
X10078206Y-16479150D01*
X10078206Y-16479150D02*
X10106777Y-16479150D01*
X10106777Y-16479150D02*
X10125825Y-16488674D01*
X10125825Y-16488674D02*
X10135348Y-16507722D01*
X10135348Y-16507722D02*
X10135348Y-16612484D01*
X10230587Y-16612484D02*
X10230587Y-16479150D01*
X10230587Y-16498198D02*
X10240110Y-16488674D01*
X10240110Y-16488674D02*
X10259158Y-16479150D01*
X10259158Y-16479150D02*
X10287729Y-16479150D01*
X10287729Y-16479150D02*
X10306777Y-16488674D01*
X10306777Y-16488674D02*
X10316301Y-16507722D01*
X10316301Y-16507722D02*
X10316301Y-16612484D01*
X10316301Y-16507722D02*
X10325825Y-16488674D01*
X10325825Y-16488674D02*
X10344872Y-16479150D01*
X10344872Y-16479150D02*
X10373444Y-16479150D01*
X10373444Y-16479150D02*
X10392491Y-16488674D01*
X10392491Y-16488674D02*
X10402015Y-16507722D01*
X10402015Y-16507722D02*
X10402015Y-16612484D01*
X10792491Y-16402960D02*
X10621063Y-16660103D01*
X11049634Y-16412484D02*
X11068682Y-16412484D01*
X11068682Y-16412484D02*
X11087730Y-16422008D01*
X11087730Y-16422008D02*
X11097253Y-16431531D01*
X11097253Y-16431531D02*
X11106777Y-16450579D01*
X11106777Y-16450579D02*
X11116301Y-16488674D01*
X11116301Y-16488674D02*
X11116301Y-16536293D01*
X11116301Y-16536293D02*
X11106777Y-16574388D01*
X11106777Y-16574388D02*
X11097253Y-16593436D01*
X11097253Y-16593436D02*
X11087730Y-16602960D01*
X11087730Y-16602960D02*
X11068682Y-16612484D01*
X11068682Y-16612484D02*
X11049634Y-16612484D01*
X11049634Y-16612484D02*
X11030587Y-16602960D01*
X11030587Y-16602960D02*
X11021063Y-16593436D01*
X11021063Y-16593436D02*
X11011539Y-16574388D01*
X11011539Y-16574388D02*
X11002015Y-16536293D01*
X11002015Y-16536293D02*
X11002015Y-16488674D01*
X11002015Y-16488674D02*
X11011539Y-16450579D01*
X11011539Y-16450579D02*
X11021063Y-16431531D01*
X11021063Y-16431531D02*
X11030587Y-16422008D01*
X11030587Y-16422008D02*
X11049634Y-16412484D01*
X11202015Y-16593436D02*
X11211539Y-16602960D01*
X11211539Y-16602960D02*
X11202015Y-16612484D01*
X11202015Y-16612484D02*
X11192491Y-16602960D01*
X11192491Y-16602960D02*
X11202015Y-16593436D01*
X11202015Y-16593436D02*
X11202015Y-16612484D01*
X11335348Y-16412484D02*
X11354396Y-16412484D01*
X11354396Y-16412484D02*
X11373444Y-16422008D01*
X11373444Y-16422008D02*
X11382968Y-16431531D01*
X11382968Y-16431531D02*
X11392491Y-16450579D01*
X11392491Y-16450579D02*
X11402015Y-16488674D01*
X11402015Y-16488674D02*
X11402015Y-16536293D01*
X11402015Y-16536293D02*
X11392491Y-16574388D01*
X11392491Y-16574388D02*
X11382968Y-16593436D01*
X11382968Y-16593436D02*
X11373444Y-16602960D01*
X11373444Y-16602960D02*
X11354396Y-16612484D01*
X11354396Y-16612484D02*
X11335348Y-16612484D01*
X11335348Y-16612484D02*
X11316301Y-16602960D01*
X11316301Y-16602960D02*
X11306777Y-16593436D01*
X11306777Y-16593436D02*
X11297253Y-16574388D01*
X11297253Y-16574388D02*
X11287729Y-16536293D01*
X11287729Y-16536293D02*
X11287729Y-16488674D01*
X11287729Y-16488674D02*
X11297253Y-16450579D01*
X11297253Y-16450579D02*
X11306777Y-16431531D01*
X11306777Y-16431531D02*
X11316301Y-16422008D01*
X11316301Y-16422008D02*
X11335348Y-16412484D01*
X11478206Y-16431531D02*
X11487729Y-16422008D01*
X11487729Y-16422008D02*
X11506777Y-16412484D01*
X11506777Y-16412484D02*
X11554396Y-16412484D01*
X11554396Y-16412484D02*
X11573444Y-16422008D01*
X11573444Y-16422008D02*
X11582968Y-16431531D01*
X11582968Y-16431531D02*
X11592491Y-16450579D01*
X11592491Y-16450579D02*
X11592491Y-16469627D01*
X11592491Y-16469627D02*
X11582968Y-16498198D01*
X11582968Y-16498198D02*
X11468682Y-16612484D01*
X11468682Y-16612484D02*
X11592491Y-16612484D01*
X11659158Y-16412484D02*
X11792491Y-16412484D01*
X11792491Y-16412484D02*
X11706777Y-16612484D01*
X11954396Y-16412484D02*
X11916301Y-16412484D01*
X11916301Y-16412484D02*
X11897253Y-16422008D01*
X11897253Y-16422008D02*
X11887729Y-16431531D01*
X11887729Y-16431531D02*
X11868682Y-16460103D01*
X11868682Y-16460103D02*
X11859158Y-16498198D01*
X11859158Y-16498198D02*
X11859158Y-16574388D01*
X11859158Y-16574388D02*
X11868682Y-16593436D01*
X11868682Y-16593436D02*
X11878206Y-16602960D01*
X11878206Y-16602960D02*
X11897253Y-16612484D01*
X11897253Y-16612484D02*
X11935349Y-16612484D01*
X11935349Y-16612484D02*
X11954396Y-16602960D01*
X11954396Y-16602960D02*
X11963920Y-16593436D01*
X11963920Y-16593436D02*
X11973444Y-16574388D01*
X11973444Y-16574388D02*
X11973444Y-16526769D01*
X11973444Y-16526769D02*
X11963920Y-16507722D01*
X11963920Y-16507722D02*
X11954396Y-16498198D01*
X11954396Y-16498198D02*
X11935349Y-16488674D01*
X11935349Y-16488674D02*
X11897253Y-16488674D01*
X11897253Y-16488674D02*
X11878206Y-16498198D01*
X11878206Y-16498198D02*
X11868682Y-16507722D01*
X11868682Y-16507722D02*
X11859158Y-16526769D01*
X12049634Y-16412484D02*
X12049634Y-16450579D01*
X12125825Y-16412484D02*
X12125825Y-16450579D01*
X12421063Y-16688674D02*
X12411539Y-16679150D01*
X12411539Y-16679150D02*
X12392491Y-16650579D01*
X12392491Y-16650579D02*
X12382968Y-16631531D01*
X12382968Y-16631531D02*
X12373444Y-16602960D01*
X12373444Y-16602960D02*
X12363920Y-16555341D01*
X12363920Y-16555341D02*
X12363920Y-16517246D01*
X12363920Y-16517246D02*
X12373444Y-16469627D01*
X12373444Y-16469627D02*
X12382968Y-16441055D01*
X12382968Y-16441055D02*
X12392491Y-16422008D01*
X12392491Y-16422008D02*
X12411539Y-16393436D01*
X12411539Y-16393436D02*
X12421063Y-16383912D01*
X12602015Y-16612484D02*
X12487730Y-16612484D01*
X12544872Y-16612484D02*
X12544872Y-16412484D01*
X12544872Y-16412484D02*
X12525825Y-16441055D01*
X12525825Y-16441055D02*
X12506777Y-16460103D01*
X12506777Y-16460103D02*
X12487730Y-16469627D01*
X12840111Y-16612484D02*
X12840111Y-16412484D01*
X12925825Y-16612484D02*
X12925825Y-16507722D01*
X12925825Y-16507722D02*
X12916301Y-16488674D01*
X12916301Y-16488674D02*
X12897253Y-16479150D01*
X12897253Y-16479150D02*
X12868682Y-16479150D01*
X12868682Y-16479150D02*
X12849634Y-16488674D01*
X12849634Y-16488674D02*
X12840111Y-16498198D01*
X13049634Y-16612484D02*
X13030587Y-16602960D01*
X13030587Y-16602960D02*
X13021063Y-16593436D01*
X13021063Y-16593436D02*
X13011539Y-16574388D01*
X13011539Y-16574388D02*
X13011539Y-16517246D01*
X13011539Y-16517246D02*
X13021063Y-16498198D01*
X13021063Y-16498198D02*
X13030587Y-16488674D01*
X13030587Y-16488674D02*
X13049634Y-16479150D01*
X13049634Y-16479150D02*
X13078206Y-16479150D01*
X13078206Y-16479150D02*
X13097253Y-16488674D01*
X13097253Y-16488674D02*
X13106777Y-16498198D01*
X13106777Y-16498198D02*
X13116301Y-16517246D01*
X13116301Y-16517246D02*
X13116301Y-16574388D01*
X13116301Y-16574388D02*
X13106777Y-16593436D01*
X13106777Y-16593436D02*
X13097253Y-16602960D01*
X13097253Y-16602960D02*
X13078206Y-16612484D01*
X13078206Y-16612484D02*
X13049634Y-16612484D01*
X13230587Y-16612484D02*
X13211539Y-16602960D01*
X13211539Y-16602960D02*
X13202015Y-16583912D01*
X13202015Y-16583912D02*
X13202015Y-16412484D01*
X13382968Y-16602960D02*
X13363920Y-16612484D01*
X13363920Y-16612484D02*
X13325825Y-16612484D01*
X13325825Y-16612484D02*
X13306777Y-16602960D01*
X13306777Y-16602960D02*
X13297253Y-16583912D01*
X13297253Y-16583912D02*
X13297253Y-16507722D01*
X13297253Y-16507722D02*
X13306777Y-16488674D01*
X13306777Y-16488674D02*
X13325825Y-16479150D01*
X13325825Y-16479150D02*
X13363920Y-16479150D01*
X13363920Y-16479150D02*
X13382968Y-16488674D01*
X13382968Y-16488674D02*
X13392492Y-16507722D01*
X13392492Y-16507722D02*
X13392492Y-16526769D01*
X13392492Y-16526769D02*
X13297253Y-16545817D01*
X13459158Y-16688674D02*
X13468682Y-16679150D01*
X13468682Y-16679150D02*
X13487730Y-16650579D01*
X13487730Y-16650579D02*
X13497253Y-16631531D01*
X13497253Y-16631531D02*
X13506777Y-16602960D01*
X13506777Y-16602960D02*
X13516301Y-16555341D01*
X13516301Y-16555341D02*
X13516301Y-16517246D01*
X13516301Y-16517246D02*
X13506777Y-16469627D01*
X13506777Y-16469627D02*
X13497253Y-16441055D01*
X13497253Y-16441055D02*
X13487730Y-16422008D01*
X13487730Y-16422008D02*
X13468682Y-16393436D01*
X13468682Y-16393436D02*
X13459158Y-16383912D01*
D10*
X8808500Y-16747500D02*
X8808500Y-16822500D01*
X8771000Y-16785000D02*
X8846000Y-16785000D01*
D11*
X9144872Y-16676484D02*
X9163920Y-16676484D01*
X9163920Y-16676484D02*
X9182967Y-16686008D01*
X9182967Y-16686008D02*
X9192491Y-16695531D01*
X9192491Y-16695531D02*
X9202015Y-16714579D01*
X9202015Y-16714579D02*
X9211539Y-16752674D01*
X9211539Y-16752674D02*
X9211539Y-16800293D01*
X9211539Y-16800293D02*
X9202015Y-16838389D01*
X9202015Y-16838389D02*
X9192491Y-16857436D01*
X9192491Y-16857436D02*
X9182967Y-16866960D01*
X9182967Y-16866960D02*
X9163920Y-16876484D01*
X9163920Y-16876484D02*
X9144872Y-16876484D01*
X9144872Y-16876484D02*
X9125825Y-16866960D01*
X9125825Y-16866960D02*
X9116301Y-16857436D01*
X9116301Y-16857436D02*
X9106777Y-16838389D01*
X9106777Y-16838389D02*
X9097253Y-16800293D01*
X9097253Y-16800293D02*
X9097253Y-16752674D01*
X9097253Y-16752674D02*
X9106777Y-16714579D01*
X9106777Y-16714579D02*
X9116301Y-16695531D01*
X9116301Y-16695531D02*
X9125825Y-16686008D01*
X9125825Y-16686008D02*
X9144872Y-16676484D01*
X9297253Y-16857436D02*
X9306777Y-16866960D01*
X9306777Y-16866960D02*
X9297253Y-16876484D01*
X9297253Y-16876484D02*
X9287729Y-16866960D01*
X9287729Y-16866960D02*
X9297253Y-16857436D01*
X9297253Y-16857436D02*
X9297253Y-16876484D01*
X9373444Y-16676484D02*
X9506777Y-16676484D01*
X9506777Y-16676484D02*
X9421063Y-16876484D01*
X9678206Y-16676484D02*
X9582967Y-16676484D01*
X9582967Y-16676484D02*
X9573444Y-16771722D01*
X9573444Y-16771722D02*
X9582967Y-16762198D01*
X9582967Y-16762198D02*
X9602015Y-16752674D01*
X9602015Y-16752674D02*
X9649634Y-16752674D01*
X9649634Y-16752674D02*
X9668682Y-16762198D01*
X9668682Y-16762198D02*
X9678206Y-16771722D01*
X9678206Y-16771722D02*
X9687729Y-16790770D01*
X9687729Y-16790770D02*
X9687729Y-16838389D01*
X9687729Y-16838389D02*
X9678206Y-16857436D01*
X9678206Y-16857436D02*
X9668682Y-16866960D01*
X9668682Y-16866960D02*
X9649634Y-16876484D01*
X9649634Y-16876484D02*
X9602015Y-16876484D01*
X9602015Y-16876484D02*
X9582967Y-16866960D01*
X9582967Y-16866960D02*
X9573444Y-16857436D01*
X9811539Y-16676484D02*
X9830587Y-16676484D01*
X9830587Y-16676484D02*
X9849634Y-16686008D01*
X9849634Y-16686008D02*
X9859158Y-16695531D01*
X9859158Y-16695531D02*
X9868682Y-16714579D01*
X9868682Y-16714579D02*
X9878206Y-16752674D01*
X9878206Y-16752674D02*
X9878206Y-16800293D01*
X9878206Y-16800293D02*
X9868682Y-16838389D01*
X9868682Y-16838389D02*
X9859158Y-16857436D01*
X9859158Y-16857436D02*
X9849634Y-16866960D01*
X9849634Y-16866960D02*
X9830587Y-16876484D01*
X9830587Y-16876484D02*
X9811539Y-16876484D01*
X9811539Y-16876484D02*
X9792491Y-16866960D01*
X9792491Y-16866960D02*
X9782967Y-16857436D01*
X9782967Y-16857436D02*
X9773444Y-16838389D01*
X9773444Y-16838389D02*
X9763920Y-16800293D01*
X9763920Y-16800293D02*
X9763920Y-16752674D01*
X9763920Y-16752674D02*
X9773444Y-16714579D01*
X9773444Y-16714579D02*
X9782967Y-16695531D01*
X9782967Y-16695531D02*
X9792491Y-16686008D01*
X9792491Y-16686008D02*
X9811539Y-16676484D01*
X9963920Y-16876484D02*
X9963920Y-16743150D01*
X9963920Y-16762198D02*
X9973444Y-16752674D01*
X9973444Y-16752674D02*
X9992491Y-16743150D01*
X9992491Y-16743150D02*
X10021063Y-16743150D01*
X10021063Y-16743150D02*
X10040110Y-16752674D01*
X10040110Y-16752674D02*
X10049634Y-16771722D01*
X10049634Y-16771722D02*
X10049634Y-16876484D01*
X10049634Y-16771722D02*
X10059158Y-16752674D01*
X10059158Y-16752674D02*
X10078206Y-16743150D01*
X10078206Y-16743150D02*
X10106777Y-16743150D01*
X10106777Y-16743150D02*
X10125825Y-16752674D01*
X10125825Y-16752674D02*
X10135348Y-16771722D01*
X10135348Y-16771722D02*
X10135348Y-16876484D01*
X10230587Y-16876484D02*
X10230587Y-16743150D01*
X10230587Y-16762198D02*
X10240110Y-16752674D01*
X10240110Y-16752674D02*
X10259158Y-16743150D01*
X10259158Y-16743150D02*
X10287729Y-16743150D01*
X10287729Y-16743150D02*
X10306777Y-16752674D01*
X10306777Y-16752674D02*
X10316301Y-16771722D01*
X10316301Y-16771722D02*
X10316301Y-16876484D01*
X10316301Y-16771722D02*
X10325825Y-16752674D01*
X10325825Y-16752674D02*
X10344872Y-16743150D01*
X10344872Y-16743150D02*
X10373444Y-16743150D01*
X10373444Y-16743150D02*
X10392491Y-16752674D01*
X10392491Y-16752674D02*
X10402015Y-16771722D01*
X10402015Y-16771722D02*
X10402015Y-16876484D01*
X10792491Y-16666960D02*
X10621063Y-16924103D01*
X11049634Y-16676484D02*
X11068682Y-16676484D01*
X11068682Y-16676484D02*
X11087730Y-16686008D01*
X11087730Y-16686008D02*
X11097253Y-16695531D01*
X11097253Y-16695531D02*
X11106777Y-16714579D01*
X11106777Y-16714579D02*
X11116301Y-16752674D01*
X11116301Y-16752674D02*
X11116301Y-16800293D01*
X11116301Y-16800293D02*
X11106777Y-16838389D01*
X11106777Y-16838389D02*
X11097253Y-16857436D01*
X11097253Y-16857436D02*
X11087730Y-16866960D01*
X11087730Y-16866960D02*
X11068682Y-16876484D01*
X11068682Y-16876484D02*
X11049634Y-16876484D01*
X11049634Y-16876484D02*
X11030587Y-16866960D01*
X11030587Y-16866960D02*
X11021063Y-16857436D01*
X11021063Y-16857436D02*
X11011539Y-16838389D01*
X11011539Y-16838389D02*
X11002015Y-16800293D01*
X11002015Y-16800293D02*
X11002015Y-16752674D01*
X11002015Y-16752674D02*
X11011539Y-16714579D01*
X11011539Y-16714579D02*
X11021063Y-16695531D01*
X11021063Y-16695531D02*
X11030587Y-16686008D01*
X11030587Y-16686008D02*
X11049634Y-16676484D01*
X11202015Y-16857436D02*
X11211539Y-16866960D01*
X11211539Y-16866960D02*
X11202015Y-16876484D01*
X11202015Y-16876484D02*
X11192491Y-16866960D01*
X11192491Y-16866960D02*
X11202015Y-16857436D01*
X11202015Y-16857436D02*
X11202015Y-16876484D01*
X11335348Y-16676484D02*
X11354396Y-16676484D01*
X11354396Y-16676484D02*
X11373444Y-16686008D01*
X11373444Y-16686008D02*
X11382968Y-16695531D01*
X11382968Y-16695531D02*
X11392491Y-16714579D01*
X11392491Y-16714579D02*
X11402015Y-16752674D01*
X11402015Y-16752674D02*
X11402015Y-16800293D01*
X11402015Y-16800293D02*
X11392491Y-16838389D01*
X11392491Y-16838389D02*
X11382968Y-16857436D01*
X11382968Y-16857436D02*
X11373444Y-16866960D01*
X11373444Y-16866960D02*
X11354396Y-16876484D01*
X11354396Y-16876484D02*
X11335348Y-16876484D01*
X11335348Y-16876484D02*
X11316301Y-16866960D01*
X11316301Y-16866960D02*
X11306777Y-16857436D01*
X11306777Y-16857436D02*
X11297253Y-16838389D01*
X11297253Y-16838389D02*
X11287729Y-16800293D01*
X11287729Y-16800293D02*
X11287729Y-16752674D01*
X11287729Y-16752674D02*
X11297253Y-16714579D01*
X11297253Y-16714579D02*
X11306777Y-16695531D01*
X11306777Y-16695531D02*
X11316301Y-16686008D01*
X11316301Y-16686008D02*
X11335348Y-16676484D01*
X11478206Y-16695531D02*
X11487729Y-16686008D01*
X11487729Y-16686008D02*
X11506777Y-16676484D01*
X11506777Y-16676484D02*
X11554396Y-16676484D01*
X11554396Y-16676484D02*
X11573444Y-16686008D01*
X11573444Y-16686008D02*
X11582968Y-16695531D01*
X11582968Y-16695531D02*
X11592491Y-16714579D01*
X11592491Y-16714579D02*
X11592491Y-16733627D01*
X11592491Y-16733627D02*
X11582968Y-16762198D01*
X11582968Y-16762198D02*
X11468682Y-16876484D01*
X11468682Y-16876484D02*
X11592491Y-16876484D01*
X11687729Y-16876484D02*
X11725825Y-16876484D01*
X11725825Y-16876484D02*
X11744872Y-16866960D01*
X11744872Y-16866960D02*
X11754396Y-16857436D01*
X11754396Y-16857436D02*
X11773444Y-16828865D01*
X11773444Y-16828865D02*
X11782968Y-16790770D01*
X11782968Y-16790770D02*
X11782968Y-16714579D01*
X11782968Y-16714579D02*
X11773444Y-16695531D01*
X11773444Y-16695531D02*
X11763920Y-16686008D01*
X11763920Y-16686008D02*
X11744872Y-16676484D01*
X11744872Y-16676484D02*
X11706777Y-16676484D01*
X11706777Y-16676484D02*
X11687729Y-16686008D01*
X11687729Y-16686008D02*
X11678206Y-16695531D01*
X11678206Y-16695531D02*
X11668682Y-16714579D01*
X11668682Y-16714579D02*
X11668682Y-16762198D01*
X11668682Y-16762198D02*
X11678206Y-16781246D01*
X11678206Y-16781246D02*
X11687729Y-16790770D01*
X11687729Y-16790770D02*
X11706777Y-16800293D01*
X11706777Y-16800293D02*
X11744872Y-16800293D01*
X11744872Y-16800293D02*
X11763920Y-16790770D01*
X11763920Y-16790770D02*
X11773444Y-16781246D01*
X11773444Y-16781246D02*
X11782968Y-16762198D01*
X11963920Y-16676484D02*
X11868682Y-16676484D01*
X11868682Y-16676484D02*
X11859158Y-16771722D01*
X11859158Y-16771722D02*
X11868682Y-16762198D01*
X11868682Y-16762198D02*
X11887729Y-16752674D01*
X11887729Y-16752674D02*
X11935349Y-16752674D01*
X11935349Y-16752674D02*
X11954396Y-16762198D01*
X11954396Y-16762198D02*
X11963920Y-16771722D01*
X11963920Y-16771722D02*
X11973444Y-16790770D01*
X11973444Y-16790770D02*
X11973444Y-16838389D01*
X11973444Y-16838389D02*
X11963920Y-16857436D01*
X11963920Y-16857436D02*
X11954396Y-16866960D01*
X11954396Y-16866960D02*
X11935349Y-16876484D01*
X11935349Y-16876484D02*
X11887729Y-16876484D01*
X11887729Y-16876484D02*
X11868682Y-16866960D01*
X11868682Y-16866960D02*
X11859158Y-16857436D01*
X12049634Y-16676484D02*
X12049634Y-16714579D01*
X12125825Y-16676484D02*
X12125825Y-16714579D01*
X12421063Y-16952674D02*
X12411539Y-16943150D01*
X12411539Y-16943150D02*
X12392491Y-16914579D01*
X12392491Y-16914579D02*
X12382968Y-16895531D01*
X12382968Y-16895531D02*
X12373444Y-16866960D01*
X12373444Y-16866960D02*
X12363920Y-16819341D01*
X12363920Y-16819341D02*
X12363920Y-16781246D01*
X12363920Y-16781246D02*
X12373444Y-16733627D01*
X12373444Y-16733627D02*
X12382968Y-16705055D01*
X12382968Y-16705055D02*
X12392491Y-16686008D01*
X12392491Y-16686008D02*
X12411539Y-16657436D01*
X12411539Y-16657436D02*
X12421063Y-16647912D01*
X12487730Y-16695531D02*
X12497253Y-16686008D01*
X12497253Y-16686008D02*
X12516301Y-16676484D01*
X12516301Y-16676484D02*
X12563920Y-16676484D01*
X12563920Y-16676484D02*
X12582968Y-16686008D01*
X12582968Y-16686008D02*
X12592491Y-16695531D01*
X12592491Y-16695531D02*
X12602015Y-16714579D01*
X12602015Y-16714579D02*
X12602015Y-16733627D01*
X12602015Y-16733627D02*
X12592491Y-16762198D01*
X12592491Y-16762198D02*
X12478206Y-16876484D01*
X12478206Y-16876484D02*
X12602015Y-16876484D01*
X12697253Y-16876484D02*
X12735349Y-16876484D01*
X12735349Y-16876484D02*
X12754396Y-16866960D01*
X12754396Y-16866960D02*
X12763920Y-16857436D01*
X12763920Y-16857436D02*
X12782968Y-16828865D01*
X12782968Y-16828865D02*
X12792491Y-16790770D01*
X12792491Y-16790770D02*
X12792491Y-16714579D01*
X12792491Y-16714579D02*
X12782968Y-16695531D01*
X12782968Y-16695531D02*
X12773444Y-16686008D01*
X12773444Y-16686008D02*
X12754396Y-16676484D01*
X12754396Y-16676484D02*
X12716301Y-16676484D01*
X12716301Y-16676484D02*
X12697253Y-16686008D01*
X12697253Y-16686008D02*
X12687730Y-16695531D01*
X12687730Y-16695531D02*
X12678206Y-16714579D01*
X12678206Y-16714579D02*
X12678206Y-16762198D01*
X12678206Y-16762198D02*
X12687730Y-16781246D01*
X12687730Y-16781246D02*
X12697253Y-16790770D01*
X12697253Y-16790770D02*
X12716301Y-16800293D01*
X12716301Y-16800293D02*
X12754396Y-16800293D01*
X12754396Y-16800293D02*
X12773444Y-16790770D01*
X12773444Y-16790770D02*
X12782968Y-16781246D01*
X12782968Y-16781246D02*
X12792491Y-16762198D01*
X13030587Y-16876484D02*
X13030587Y-16676484D01*
X13116301Y-16876484D02*
X13116301Y-16771722D01*
X13116301Y-16771722D02*
X13106777Y-16752674D01*
X13106777Y-16752674D02*
X13087730Y-16743150D01*
X13087730Y-16743150D02*
X13059158Y-16743150D01*
X13059158Y-16743150D02*
X13040111Y-16752674D01*
X13040111Y-16752674D02*
X13030587Y-16762198D01*
X13240111Y-16876484D02*
X13221063Y-16866960D01*
X13221063Y-16866960D02*
X13211539Y-16857436D01*
X13211539Y-16857436D02*
X13202015Y-16838389D01*
X13202015Y-16838389D02*
X13202015Y-16781246D01*
X13202015Y-16781246D02*
X13211539Y-16762198D01*
X13211539Y-16762198D02*
X13221063Y-16752674D01*
X13221063Y-16752674D02*
X13240111Y-16743150D01*
X13240111Y-16743150D02*
X13268682Y-16743150D01*
X13268682Y-16743150D02*
X13287730Y-16752674D01*
X13287730Y-16752674D02*
X13297253Y-16762198D01*
X13297253Y-16762198D02*
X13306777Y-16781246D01*
X13306777Y-16781246D02*
X13306777Y-16838389D01*
X13306777Y-16838389D02*
X13297253Y-16857436D01*
X13297253Y-16857436D02*
X13287730Y-16866960D01*
X13287730Y-16866960D02*
X13268682Y-16876484D01*
X13268682Y-16876484D02*
X13240111Y-16876484D01*
X13421063Y-16876484D02*
X13402015Y-16866960D01*
X13402015Y-16866960D02*
X13392492Y-16847912D01*
X13392492Y-16847912D02*
X13392492Y-16676484D01*
X13573444Y-16866960D02*
X13554396Y-16876484D01*
X13554396Y-16876484D02*
X13516301Y-16876484D01*
X13516301Y-16876484D02*
X13497253Y-16866960D01*
X13497253Y-16866960D02*
X13487730Y-16847912D01*
X13487730Y-16847912D02*
X13487730Y-16771722D01*
X13487730Y-16771722D02*
X13497253Y-16752674D01*
X13497253Y-16752674D02*
X13516301Y-16743150D01*
X13516301Y-16743150D02*
X13554396Y-16743150D01*
X13554396Y-16743150D02*
X13573444Y-16752674D01*
X13573444Y-16752674D02*
X13582968Y-16771722D01*
X13582968Y-16771722D02*
X13582968Y-16790770D01*
X13582968Y-16790770D02*
X13487730Y-16809817D01*
X13659158Y-16866960D02*
X13678206Y-16876484D01*
X13678206Y-16876484D02*
X13716301Y-16876484D01*
X13716301Y-16876484D02*
X13735349Y-16866960D01*
X13735349Y-16866960D02*
X13744873Y-16847912D01*
X13744873Y-16847912D02*
X13744873Y-16838389D01*
X13744873Y-16838389D02*
X13735349Y-16819341D01*
X13735349Y-16819341D02*
X13716301Y-16809817D01*
X13716301Y-16809817D02*
X13687730Y-16809817D01*
X13687730Y-16809817D02*
X13668682Y-16800293D01*
X13668682Y-16800293D02*
X13659158Y-16781246D01*
X13659158Y-16781246D02*
X13659158Y-16771722D01*
X13659158Y-16771722D02*
X13668682Y-16752674D01*
X13668682Y-16752674D02*
X13687730Y-16743150D01*
X13687730Y-16743150D02*
X13716301Y-16743150D01*
X13716301Y-16743150D02*
X13735349Y-16752674D01*
X13811539Y-16952674D02*
X13821063Y-16943150D01*
X13821063Y-16943150D02*
X13840111Y-16914579D01*
X13840111Y-16914579D02*
X13849634Y-16895531D01*
X13849634Y-16895531D02*
X13859158Y-16866960D01*
X13859158Y-16866960D02*
X13868682Y-16819341D01*
X13868682Y-16819341D02*
X13868682Y-16781246D01*
X13868682Y-16781246D02*
X13859158Y-16733627D01*
X13859158Y-16733627D02*
X13849634Y-16705055D01*
X13849634Y-16705055D02*
X13840111Y-16686008D01*
X13840111Y-16686008D02*
X13821063Y-16657436D01*
X13821063Y-16657436D02*
X13811539Y-16647912D01*
D12*
X8830331Y-17086831D02*
X8830331Y-17011169D01*
X8754670Y-17011169D01*
X8754670Y-17086831D01*
X8830331Y-17086831D01*
D11*
X9211539Y-17140484D02*
X9097253Y-17140484D01*
X9154396Y-17140484D02*
X9154396Y-16940484D01*
X9154396Y-16940484D02*
X9135348Y-16969055D01*
X9135348Y-16969055D02*
X9116301Y-16988103D01*
X9116301Y-16988103D02*
X9097253Y-16997627D01*
X9297253Y-17121436D02*
X9306777Y-17130960D01*
X9306777Y-17130960D02*
X9297253Y-17140484D01*
X9297253Y-17140484D02*
X9287729Y-17130960D01*
X9287729Y-17130960D02*
X9297253Y-17121436D01*
X9297253Y-17121436D02*
X9297253Y-17140484D01*
X9430586Y-16940484D02*
X9449634Y-16940484D01*
X9449634Y-16940484D02*
X9468682Y-16950008D01*
X9468682Y-16950008D02*
X9478206Y-16959531D01*
X9478206Y-16959531D02*
X9487729Y-16978579D01*
X9487729Y-16978579D02*
X9497253Y-17016674D01*
X9497253Y-17016674D02*
X9497253Y-17064293D01*
X9497253Y-17064293D02*
X9487729Y-17102389D01*
X9487729Y-17102389D02*
X9478206Y-17121436D01*
X9478206Y-17121436D02*
X9468682Y-17130960D01*
X9468682Y-17130960D02*
X9449634Y-17140484D01*
X9449634Y-17140484D02*
X9430586Y-17140484D01*
X9430586Y-17140484D02*
X9411539Y-17130960D01*
X9411539Y-17130960D02*
X9402015Y-17121436D01*
X9402015Y-17121436D02*
X9392491Y-17102389D01*
X9392491Y-17102389D02*
X9382967Y-17064293D01*
X9382967Y-17064293D02*
X9382967Y-17016674D01*
X9382967Y-17016674D02*
X9392491Y-16978579D01*
X9392491Y-16978579D02*
X9402015Y-16959531D01*
X9402015Y-16959531D02*
X9411539Y-16950008D01*
X9411539Y-16950008D02*
X9430586Y-16940484D01*
X9563920Y-16940484D02*
X9697253Y-16940484D01*
X9697253Y-16940484D02*
X9611539Y-17140484D01*
X9811539Y-16940484D02*
X9830587Y-16940484D01*
X9830587Y-16940484D02*
X9849634Y-16950008D01*
X9849634Y-16950008D02*
X9859158Y-16959531D01*
X9859158Y-16959531D02*
X9868682Y-16978579D01*
X9868682Y-16978579D02*
X9878206Y-17016674D01*
X9878206Y-17016674D02*
X9878206Y-17064293D01*
X9878206Y-17064293D02*
X9868682Y-17102389D01*
X9868682Y-17102389D02*
X9859158Y-17121436D01*
X9859158Y-17121436D02*
X9849634Y-17130960D01*
X9849634Y-17130960D02*
X9830587Y-17140484D01*
X9830587Y-17140484D02*
X9811539Y-17140484D01*
X9811539Y-17140484D02*
X9792491Y-17130960D01*
X9792491Y-17130960D02*
X9782967Y-17121436D01*
X9782967Y-17121436D02*
X9773444Y-17102389D01*
X9773444Y-17102389D02*
X9763920Y-17064293D01*
X9763920Y-17064293D02*
X9763920Y-17016674D01*
X9763920Y-17016674D02*
X9773444Y-16978579D01*
X9773444Y-16978579D02*
X9782967Y-16959531D01*
X9782967Y-16959531D02*
X9792491Y-16950008D01*
X9792491Y-16950008D02*
X9811539Y-16940484D01*
X9963920Y-17140484D02*
X9963920Y-17007150D01*
X9963920Y-17026198D02*
X9973444Y-17016674D01*
X9973444Y-17016674D02*
X9992491Y-17007150D01*
X9992491Y-17007150D02*
X10021063Y-17007150D01*
X10021063Y-17007150D02*
X10040110Y-17016674D01*
X10040110Y-17016674D02*
X10049634Y-17035722D01*
X10049634Y-17035722D02*
X10049634Y-17140484D01*
X10049634Y-17035722D02*
X10059158Y-17016674D01*
X10059158Y-17016674D02*
X10078206Y-17007150D01*
X10078206Y-17007150D02*
X10106777Y-17007150D01*
X10106777Y-17007150D02*
X10125825Y-17016674D01*
X10125825Y-17016674D02*
X10135348Y-17035722D01*
X10135348Y-17035722D02*
X10135348Y-17140484D01*
X10230587Y-17140484D02*
X10230587Y-17007150D01*
X10230587Y-17026198D02*
X10240110Y-17016674D01*
X10240110Y-17016674D02*
X10259158Y-17007150D01*
X10259158Y-17007150D02*
X10287729Y-17007150D01*
X10287729Y-17007150D02*
X10306777Y-17016674D01*
X10306777Y-17016674D02*
X10316301Y-17035722D01*
X10316301Y-17035722D02*
X10316301Y-17140484D01*
X10316301Y-17035722D02*
X10325825Y-17016674D01*
X10325825Y-17016674D02*
X10344872Y-17007150D01*
X10344872Y-17007150D02*
X10373444Y-17007150D01*
X10373444Y-17007150D02*
X10392491Y-17016674D01*
X10392491Y-17016674D02*
X10402015Y-17035722D01*
X10402015Y-17035722D02*
X10402015Y-17140484D01*
X10792491Y-16930960D02*
X10621063Y-17188103D01*
X11049634Y-16940484D02*
X11068682Y-16940484D01*
X11068682Y-16940484D02*
X11087730Y-16950008D01*
X11087730Y-16950008D02*
X11097253Y-16959531D01*
X11097253Y-16959531D02*
X11106777Y-16978579D01*
X11106777Y-16978579D02*
X11116301Y-17016674D01*
X11116301Y-17016674D02*
X11116301Y-17064293D01*
X11116301Y-17064293D02*
X11106777Y-17102389D01*
X11106777Y-17102389D02*
X11097253Y-17121436D01*
X11097253Y-17121436D02*
X11087730Y-17130960D01*
X11087730Y-17130960D02*
X11068682Y-17140484D01*
X11068682Y-17140484D02*
X11049634Y-17140484D01*
X11049634Y-17140484D02*
X11030587Y-17130960D01*
X11030587Y-17130960D02*
X11021063Y-17121436D01*
X11021063Y-17121436D02*
X11011539Y-17102389D01*
X11011539Y-17102389D02*
X11002015Y-17064293D01*
X11002015Y-17064293D02*
X11002015Y-17016674D01*
X11002015Y-17016674D02*
X11011539Y-16978579D01*
X11011539Y-16978579D02*
X11021063Y-16959531D01*
X11021063Y-16959531D02*
X11030587Y-16950008D01*
X11030587Y-16950008D02*
X11049634Y-16940484D01*
X11202015Y-17121436D02*
X11211539Y-17130960D01*
X11211539Y-17130960D02*
X11202015Y-17140484D01*
X11202015Y-17140484D02*
X11192491Y-17130960D01*
X11192491Y-17130960D02*
X11202015Y-17121436D01*
X11202015Y-17121436D02*
X11202015Y-17140484D01*
X11335348Y-16940484D02*
X11354396Y-16940484D01*
X11354396Y-16940484D02*
X11373444Y-16950008D01*
X11373444Y-16950008D02*
X11382968Y-16959531D01*
X11382968Y-16959531D02*
X11392491Y-16978579D01*
X11392491Y-16978579D02*
X11402015Y-17016674D01*
X11402015Y-17016674D02*
X11402015Y-17064293D01*
X11402015Y-17064293D02*
X11392491Y-17102389D01*
X11392491Y-17102389D02*
X11382968Y-17121436D01*
X11382968Y-17121436D02*
X11373444Y-17130960D01*
X11373444Y-17130960D02*
X11354396Y-17140484D01*
X11354396Y-17140484D02*
X11335348Y-17140484D01*
X11335348Y-17140484D02*
X11316301Y-17130960D01*
X11316301Y-17130960D02*
X11306777Y-17121436D01*
X11306777Y-17121436D02*
X11297253Y-17102389D01*
X11297253Y-17102389D02*
X11287729Y-17064293D01*
X11287729Y-17064293D02*
X11287729Y-17016674D01*
X11287729Y-17016674D02*
X11297253Y-16978579D01*
X11297253Y-16978579D02*
X11306777Y-16959531D01*
X11306777Y-16959531D02*
X11316301Y-16950008D01*
X11316301Y-16950008D02*
X11335348Y-16940484D01*
X11573444Y-17007150D02*
X11573444Y-17140484D01*
X11525825Y-16930960D02*
X11478206Y-17073817D01*
X11478206Y-17073817D02*
X11602015Y-17073817D01*
X11668682Y-16959531D02*
X11678206Y-16950008D01*
X11678206Y-16950008D02*
X11697253Y-16940484D01*
X11697253Y-16940484D02*
X11744872Y-16940484D01*
X11744872Y-16940484D02*
X11763920Y-16950008D01*
X11763920Y-16950008D02*
X11773444Y-16959531D01*
X11773444Y-16959531D02*
X11782968Y-16978579D01*
X11782968Y-16978579D02*
X11782968Y-16997627D01*
X11782968Y-16997627D02*
X11773444Y-17026198D01*
X11773444Y-17026198D02*
X11659158Y-17140484D01*
X11659158Y-17140484D02*
X11782968Y-17140484D01*
X11973444Y-17140484D02*
X11859158Y-17140484D01*
X11916301Y-17140484D02*
X11916301Y-16940484D01*
X11916301Y-16940484D02*
X11897253Y-16969055D01*
X11897253Y-16969055D02*
X11878206Y-16988103D01*
X11878206Y-16988103D02*
X11859158Y-16997627D01*
X12049634Y-16940484D02*
X12049634Y-16978579D01*
X12125825Y-16940484D02*
X12125825Y-16978579D01*
X12421063Y-17216674D02*
X12411539Y-17207150D01*
X12411539Y-17207150D02*
X12392491Y-17178579D01*
X12392491Y-17178579D02*
X12382968Y-17159531D01*
X12382968Y-17159531D02*
X12373444Y-17130960D01*
X12373444Y-17130960D02*
X12363920Y-17083341D01*
X12363920Y-17083341D02*
X12363920Y-17045246D01*
X12363920Y-17045246D02*
X12373444Y-16997627D01*
X12373444Y-16997627D02*
X12382968Y-16969055D01*
X12382968Y-16969055D02*
X12392491Y-16950008D01*
X12392491Y-16950008D02*
X12411539Y-16921436D01*
X12411539Y-16921436D02*
X12421063Y-16911912D01*
X12582968Y-16940484D02*
X12544872Y-16940484D01*
X12544872Y-16940484D02*
X12525825Y-16950008D01*
X12525825Y-16950008D02*
X12516301Y-16959531D01*
X12516301Y-16959531D02*
X12497253Y-16988103D01*
X12497253Y-16988103D02*
X12487730Y-17026198D01*
X12487730Y-17026198D02*
X12487730Y-17102389D01*
X12487730Y-17102389D02*
X12497253Y-17121436D01*
X12497253Y-17121436D02*
X12506777Y-17130960D01*
X12506777Y-17130960D02*
X12525825Y-17140484D01*
X12525825Y-17140484D02*
X12563920Y-17140484D01*
X12563920Y-17140484D02*
X12582968Y-17130960D01*
X12582968Y-17130960D02*
X12592491Y-17121436D01*
X12592491Y-17121436D02*
X12602015Y-17102389D01*
X12602015Y-17102389D02*
X12602015Y-17054770D01*
X12602015Y-17054770D02*
X12592491Y-17035722D01*
X12592491Y-17035722D02*
X12582968Y-17026198D01*
X12582968Y-17026198D02*
X12563920Y-17016674D01*
X12563920Y-17016674D02*
X12525825Y-17016674D01*
X12525825Y-17016674D02*
X12506777Y-17026198D01*
X12506777Y-17026198D02*
X12497253Y-17035722D01*
X12497253Y-17035722D02*
X12487730Y-17054770D01*
X12773444Y-17007150D02*
X12773444Y-17140484D01*
X12725825Y-16930960D02*
X12678206Y-17073817D01*
X12678206Y-17073817D02*
X12802015Y-17073817D01*
X13030587Y-17140484D02*
X13030587Y-16940484D01*
X13116301Y-17140484D02*
X13116301Y-17035722D01*
X13116301Y-17035722D02*
X13106777Y-17016674D01*
X13106777Y-17016674D02*
X13087730Y-17007150D01*
X13087730Y-17007150D02*
X13059158Y-17007150D01*
X13059158Y-17007150D02*
X13040111Y-17016674D01*
X13040111Y-17016674D02*
X13030587Y-17026198D01*
X13240111Y-17140484D02*
X13221063Y-17130960D01*
X13221063Y-17130960D02*
X13211539Y-17121436D01*
X13211539Y-17121436D02*
X13202015Y-17102389D01*
X13202015Y-17102389D02*
X13202015Y-17045246D01*
X13202015Y-17045246D02*
X13211539Y-17026198D01*
X13211539Y-17026198D02*
X13221063Y-17016674D01*
X13221063Y-17016674D02*
X13240111Y-17007150D01*
X13240111Y-17007150D02*
X13268682Y-17007150D01*
X13268682Y-17007150D02*
X13287730Y-17016674D01*
X13287730Y-17016674D02*
X13297253Y-17026198D01*
X13297253Y-17026198D02*
X13306777Y-17045246D01*
X13306777Y-17045246D02*
X13306777Y-17102389D01*
X13306777Y-17102389D02*
X13297253Y-17121436D01*
X13297253Y-17121436D02*
X13287730Y-17130960D01*
X13287730Y-17130960D02*
X13268682Y-17140484D01*
X13268682Y-17140484D02*
X13240111Y-17140484D01*
X13421063Y-17140484D02*
X13402015Y-17130960D01*
X13402015Y-17130960D02*
X13392492Y-17111912D01*
X13392492Y-17111912D02*
X13392492Y-16940484D01*
X13573444Y-17130960D02*
X13554396Y-17140484D01*
X13554396Y-17140484D02*
X13516301Y-17140484D01*
X13516301Y-17140484D02*
X13497253Y-17130960D01*
X13497253Y-17130960D02*
X13487730Y-17111912D01*
X13487730Y-17111912D02*
X13487730Y-17035722D01*
X13487730Y-17035722D02*
X13497253Y-17016674D01*
X13497253Y-17016674D02*
X13516301Y-17007150D01*
X13516301Y-17007150D02*
X13554396Y-17007150D01*
X13554396Y-17007150D02*
X13573444Y-17016674D01*
X13573444Y-17016674D02*
X13582968Y-17035722D01*
X13582968Y-17035722D02*
X13582968Y-17054770D01*
X13582968Y-17054770D02*
X13487730Y-17073817D01*
X13659158Y-17130960D02*
X13678206Y-17140484D01*
X13678206Y-17140484D02*
X13716301Y-17140484D01*
X13716301Y-17140484D02*
X13735349Y-17130960D01*
X13735349Y-17130960D02*
X13744873Y-17111912D01*
X13744873Y-17111912D02*
X13744873Y-17102389D01*
X13744873Y-17102389D02*
X13735349Y-17083341D01*
X13735349Y-17083341D02*
X13716301Y-17073817D01*
X13716301Y-17073817D02*
X13687730Y-17073817D01*
X13687730Y-17073817D02*
X13668682Y-17064293D01*
X13668682Y-17064293D02*
X13659158Y-17045246D01*
X13659158Y-17045246D02*
X13659158Y-17035722D01*
X13659158Y-17035722D02*
X13668682Y-17016674D01*
X13668682Y-17016674D02*
X13687730Y-17007150D01*
X13687730Y-17007150D02*
X13716301Y-17007150D01*
X13716301Y-17007150D02*
X13735349Y-17016674D01*
X13811539Y-17216674D02*
X13821063Y-17207150D01*
X13821063Y-17207150D02*
X13840111Y-17178579D01*
X13840111Y-17178579D02*
X13849634Y-17159531D01*
X13849634Y-17159531D02*
X13859158Y-17130960D01*
X13859158Y-17130960D02*
X13868682Y-17083341D01*
X13868682Y-17083341D02*
X13868682Y-17045246D01*
X13868682Y-17045246D02*
X13859158Y-16997627D01*
X13859158Y-16997627D02*
X13849634Y-16969055D01*
X13849634Y-16969055D02*
X13840111Y-16950008D01*
X13840111Y-16950008D02*
X13821063Y-16921436D01*
X13821063Y-16921436D02*
X13811539Y-16911912D01*
D13*
X8785000Y-17374000D02*
X8846000Y-17313000D01*
X8785000Y-17252000D01*
X8724000Y-17313000D01*
X8785000Y-17374000D01*
D11*
X9211539Y-17404484D02*
X9097253Y-17404484D01*
X9154396Y-17404484D02*
X9154396Y-17204484D01*
X9154396Y-17204484D02*
X9135348Y-17233055D01*
X9135348Y-17233055D02*
X9116301Y-17252103D01*
X9116301Y-17252103D02*
X9097253Y-17261627D01*
X9297253Y-17385436D02*
X9306777Y-17394960D01*
X9306777Y-17394960D02*
X9297253Y-17404484D01*
X9297253Y-17404484D02*
X9287729Y-17394960D01*
X9287729Y-17394960D02*
X9297253Y-17385436D01*
X9297253Y-17385436D02*
X9297253Y-17404484D01*
X9382967Y-17223531D02*
X9392491Y-17214008D01*
X9392491Y-17214008D02*
X9411539Y-17204484D01*
X9411539Y-17204484D02*
X9459158Y-17204484D01*
X9459158Y-17204484D02*
X9478206Y-17214008D01*
X9478206Y-17214008D02*
X9487729Y-17223531D01*
X9487729Y-17223531D02*
X9497253Y-17242579D01*
X9497253Y-17242579D02*
X9497253Y-17261627D01*
X9497253Y-17261627D02*
X9487729Y-17290198D01*
X9487729Y-17290198D02*
X9373444Y-17404484D01*
X9373444Y-17404484D02*
X9497253Y-17404484D01*
X9573444Y-17223531D02*
X9582967Y-17214008D01*
X9582967Y-17214008D02*
X9602015Y-17204484D01*
X9602015Y-17204484D02*
X9649634Y-17204484D01*
X9649634Y-17204484D02*
X9668682Y-17214008D01*
X9668682Y-17214008D02*
X9678206Y-17223531D01*
X9678206Y-17223531D02*
X9687729Y-17242579D01*
X9687729Y-17242579D02*
X9687729Y-17261627D01*
X9687729Y-17261627D02*
X9678206Y-17290198D01*
X9678206Y-17290198D02*
X9563920Y-17404484D01*
X9563920Y-17404484D02*
X9687729Y-17404484D01*
X9811539Y-17204484D02*
X9830587Y-17204484D01*
X9830587Y-17204484D02*
X9849634Y-17214008D01*
X9849634Y-17214008D02*
X9859158Y-17223531D01*
X9859158Y-17223531D02*
X9868682Y-17242579D01*
X9868682Y-17242579D02*
X9878206Y-17280674D01*
X9878206Y-17280674D02*
X9878206Y-17328293D01*
X9878206Y-17328293D02*
X9868682Y-17366389D01*
X9868682Y-17366389D02*
X9859158Y-17385436D01*
X9859158Y-17385436D02*
X9849634Y-17394960D01*
X9849634Y-17394960D02*
X9830587Y-17404484D01*
X9830587Y-17404484D02*
X9811539Y-17404484D01*
X9811539Y-17404484D02*
X9792491Y-17394960D01*
X9792491Y-17394960D02*
X9782967Y-17385436D01*
X9782967Y-17385436D02*
X9773444Y-17366389D01*
X9773444Y-17366389D02*
X9763920Y-17328293D01*
X9763920Y-17328293D02*
X9763920Y-17280674D01*
X9763920Y-17280674D02*
X9773444Y-17242579D01*
X9773444Y-17242579D02*
X9782967Y-17223531D01*
X9782967Y-17223531D02*
X9792491Y-17214008D01*
X9792491Y-17214008D02*
X9811539Y-17204484D01*
X9963920Y-17404484D02*
X9963920Y-17271150D01*
X9963920Y-17290198D02*
X9973444Y-17280674D01*
X9973444Y-17280674D02*
X9992491Y-17271150D01*
X9992491Y-17271150D02*
X10021063Y-17271150D01*
X10021063Y-17271150D02*
X10040110Y-17280674D01*
X10040110Y-17280674D02*
X10049634Y-17299722D01*
X10049634Y-17299722D02*
X10049634Y-17404484D01*
X10049634Y-17299722D02*
X10059158Y-17280674D01*
X10059158Y-17280674D02*
X10078206Y-17271150D01*
X10078206Y-17271150D02*
X10106777Y-17271150D01*
X10106777Y-17271150D02*
X10125825Y-17280674D01*
X10125825Y-17280674D02*
X10135348Y-17299722D01*
X10135348Y-17299722D02*
X10135348Y-17404484D01*
X10230587Y-17404484D02*
X10230587Y-17271150D01*
X10230587Y-17290198D02*
X10240110Y-17280674D01*
X10240110Y-17280674D02*
X10259158Y-17271150D01*
X10259158Y-17271150D02*
X10287729Y-17271150D01*
X10287729Y-17271150D02*
X10306777Y-17280674D01*
X10306777Y-17280674D02*
X10316301Y-17299722D01*
X10316301Y-17299722D02*
X10316301Y-17404484D01*
X10316301Y-17299722D02*
X10325825Y-17280674D01*
X10325825Y-17280674D02*
X10344872Y-17271150D01*
X10344872Y-17271150D02*
X10373444Y-17271150D01*
X10373444Y-17271150D02*
X10392491Y-17280674D01*
X10392491Y-17280674D02*
X10402015Y-17299722D01*
X10402015Y-17299722D02*
X10402015Y-17404484D01*
X10792491Y-17194960D02*
X10621063Y-17452103D01*
X11049634Y-17204484D02*
X11068682Y-17204484D01*
X11068682Y-17204484D02*
X11087730Y-17214008D01*
X11087730Y-17214008D02*
X11097253Y-17223531D01*
X11097253Y-17223531D02*
X11106777Y-17242579D01*
X11106777Y-17242579D02*
X11116301Y-17280674D01*
X11116301Y-17280674D02*
X11116301Y-17328293D01*
X11116301Y-17328293D02*
X11106777Y-17366389D01*
X11106777Y-17366389D02*
X11097253Y-17385436D01*
X11097253Y-17385436D02*
X11087730Y-17394960D01*
X11087730Y-17394960D02*
X11068682Y-17404484D01*
X11068682Y-17404484D02*
X11049634Y-17404484D01*
X11049634Y-17404484D02*
X11030587Y-17394960D01*
X11030587Y-17394960D02*
X11021063Y-17385436D01*
X11021063Y-17385436D02*
X11011539Y-17366389D01*
X11011539Y-17366389D02*
X11002015Y-17328293D01*
X11002015Y-17328293D02*
X11002015Y-17280674D01*
X11002015Y-17280674D02*
X11011539Y-17242579D01*
X11011539Y-17242579D02*
X11021063Y-17223531D01*
X11021063Y-17223531D02*
X11030587Y-17214008D01*
X11030587Y-17214008D02*
X11049634Y-17204484D01*
X11202015Y-17385436D02*
X11211539Y-17394960D01*
X11211539Y-17394960D02*
X11202015Y-17404484D01*
X11202015Y-17404484D02*
X11192491Y-17394960D01*
X11192491Y-17394960D02*
X11202015Y-17385436D01*
X11202015Y-17385436D02*
X11202015Y-17404484D01*
X11335348Y-17204484D02*
X11354396Y-17204484D01*
X11354396Y-17204484D02*
X11373444Y-17214008D01*
X11373444Y-17214008D02*
X11382968Y-17223531D01*
X11382968Y-17223531D02*
X11392491Y-17242579D01*
X11392491Y-17242579D02*
X11402015Y-17280674D01*
X11402015Y-17280674D02*
X11402015Y-17328293D01*
X11402015Y-17328293D02*
X11392491Y-17366389D01*
X11392491Y-17366389D02*
X11382968Y-17385436D01*
X11382968Y-17385436D02*
X11373444Y-17394960D01*
X11373444Y-17394960D02*
X11354396Y-17404484D01*
X11354396Y-17404484D02*
X11335348Y-17404484D01*
X11335348Y-17404484D02*
X11316301Y-17394960D01*
X11316301Y-17394960D02*
X11306777Y-17385436D01*
X11306777Y-17385436D02*
X11297253Y-17366389D01*
X11297253Y-17366389D02*
X11287729Y-17328293D01*
X11287729Y-17328293D02*
X11287729Y-17280674D01*
X11287729Y-17280674D02*
X11297253Y-17242579D01*
X11297253Y-17242579D02*
X11306777Y-17223531D01*
X11306777Y-17223531D02*
X11316301Y-17214008D01*
X11316301Y-17214008D02*
X11335348Y-17204484D01*
X11573444Y-17271150D02*
X11573444Y-17404484D01*
X11525825Y-17194960D02*
X11478206Y-17337817D01*
X11478206Y-17337817D02*
X11602015Y-17337817D01*
X11706777Y-17290198D02*
X11687729Y-17280674D01*
X11687729Y-17280674D02*
X11678206Y-17271150D01*
X11678206Y-17271150D02*
X11668682Y-17252103D01*
X11668682Y-17252103D02*
X11668682Y-17242579D01*
X11668682Y-17242579D02*
X11678206Y-17223531D01*
X11678206Y-17223531D02*
X11687729Y-17214008D01*
X11687729Y-17214008D02*
X11706777Y-17204484D01*
X11706777Y-17204484D02*
X11744872Y-17204484D01*
X11744872Y-17204484D02*
X11763920Y-17214008D01*
X11763920Y-17214008D02*
X11773444Y-17223531D01*
X11773444Y-17223531D02*
X11782968Y-17242579D01*
X11782968Y-17242579D02*
X11782968Y-17252103D01*
X11782968Y-17252103D02*
X11773444Y-17271150D01*
X11773444Y-17271150D02*
X11763920Y-17280674D01*
X11763920Y-17280674D02*
X11744872Y-17290198D01*
X11744872Y-17290198D02*
X11706777Y-17290198D01*
X11706777Y-17290198D02*
X11687729Y-17299722D01*
X11687729Y-17299722D02*
X11678206Y-17309246D01*
X11678206Y-17309246D02*
X11668682Y-17328293D01*
X11668682Y-17328293D02*
X11668682Y-17366389D01*
X11668682Y-17366389D02*
X11678206Y-17385436D01*
X11678206Y-17385436D02*
X11687729Y-17394960D01*
X11687729Y-17394960D02*
X11706777Y-17404484D01*
X11706777Y-17404484D02*
X11744872Y-17404484D01*
X11744872Y-17404484D02*
X11763920Y-17394960D01*
X11763920Y-17394960D02*
X11773444Y-17385436D01*
X11773444Y-17385436D02*
X11782968Y-17366389D01*
X11782968Y-17366389D02*
X11782968Y-17328293D01*
X11782968Y-17328293D02*
X11773444Y-17309246D01*
X11773444Y-17309246D02*
X11763920Y-17299722D01*
X11763920Y-17299722D02*
X11744872Y-17290198D01*
X11906777Y-17204484D02*
X11925825Y-17204484D01*
X11925825Y-17204484D02*
X11944872Y-17214008D01*
X11944872Y-17214008D02*
X11954396Y-17223531D01*
X11954396Y-17223531D02*
X11963920Y-17242579D01*
X11963920Y-17242579D02*
X11973444Y-17280674D01*
X11973444Y-17280674D02*
X11973444Y-17328293D01*
X11973444Y-17328293D02*
X11963920Y-17366389D01*
X11963920Y-17366389D02*
X11954396Y-17385436D01*
X11954396Y-17385436D02*
X11944872Y-17394960D01*
X11944872Y-17394960D02*
X11925825Y-17404484D01*
X11925825Y-17404484D02*
X11906777Y-17404484D01*
X11906777Y-17404484D02*
X11887729Y-17394960D01*
X11887729Y-17394960D02*
X11878206Y-17385436D01*
X11878206Y-17385436D02*
X11868682Y-17366389D01*
X11868682Y-17366389D02*
X11859158Y-17328293D01*
X11859158Y-17328293D02*
X11859158Y-17280674D01*
X11859158Y-17280674D02*
X11868682Y-17242579D01*
X11868682Y-17242579D02*
X11878206Y-17223531D01*
X11878206Y-17223531D02*
X11887729Y-17214008D01*
X11887729Y-17214008D02*
X11906777Y-17204484D01*
X12049634Y-17204484D02*
X12049634Y-17242579D01*
X12125825Y-17204484D02*
X12125825Y-17242579D01*
X12421063Y-17480674D02*
X12411539Y-17471150D01*
X12411539Y-17471150D02*
X12392491Y-17442579D01*
X12392491Y-17442579D02*
X12382968Y-17423531D01*
X12382968Y-17423531D02*
X12373444Y-17394960D01*
X12373444Y-17394960D02*
X12363920Y-17347341D01*
X12363920Y-17347341D02*
X12363920Y-17309246D01*
X12363920Y-17309246D02*
X12373444Y-17261627D01*
X12373444Y-17261627D02*
X12382968Y-17233055D01*
X12382968Y-17233055D02*
X12392491Y-17214008D01*
X12392491Y-17214008D02*
X12411539Y-17185436D01*
X12411539Y-17185436D02*
X12421063Y-17175912D01*
X12582968Y-17204484D02*
X12544872Y-17204484D01*
X12544872Y-17204484D02*
X12525825Y-17214008D01*
X12525825Y-17214008D02*
X12516301Y-17223531D01*
X12516301Y-17223531D02*
X12497253Y-17252103D01*
X12497253Y-17252103D02*
X12487730Y-17290198D01*
X12487730Y-17290198D02*
X12487730Y-17366389D01*
X12487730Y-17366389D02*
X12497253Y-17385436D01*
X12497253Y-17385436D02*
X12506777Y-17394960D01*
X12506777Y-17394960D02*
X12525825Y-17404484D01*
X12525825Y-17404484D02*
X12563920Y-17404484D01*
X12563920Y-17404484D02*
X12582968Y-17394960D01*
X12582968Y-17394960D02*
X12592491Y-17385436D01*
X12592491Y-17385436D02*
X12602015Y-17366389D01*
X12602015Y-17366389D02*
X12602015Y-17318770D01*
X12602015Y-17318770D02*
X12592491Y-17299722D01*
X12592491Y-17299722D02*
X12582968Y-17290198D01*
X12582968Y-17290198D02*
X12563920Y-17280674D01*
X12563920Y-17280674D02*
X12525825Y-17280674D01*
X12525825Y-17280674D02*
X12506777Y-17290198D01*
X12506777Y-17290198D02*
X12497253Y-17299722D01*
X12497253Y-17299722D02*
X12487730Y-17318770D01*
X12840111Y-17404484D02*
X12840111Y-17204484D01*
X12925825Y-17404484D02*
X12925825Y-17299722D01*
X12925825Y-17299722D02*
X12916301Y-17280674D01*
X12916301Y-17280674D02*
X12897253Y-17271150D01*
X12897253Y-17271150D02*
X12868682Y-17271150D01*
X12868682Y-17271150D02*
X12849634Y-17280674D01*
X12849634Y-17280674D02*
X12840111Y-17290198D01*
X13049634Y-17404484D02*
X13030587Y-17394960D01*
X13030587Y-17394960D02*
X13021063Y-17385436D01*
X13021063Y-17385436D02*
X13011539Y-17366389D01*
X13011539Y-17366389D02*
X13011539Y-17309246D01*
X13011539Y-17309246D02*
X13021063Y-17290198D01*
X13021063Y-17290198D02*
X13030587Y-17280674D01*
X13030587Y-17280674D02*
X13049634Y-17271150D01*
X13049634Y-17271150D02*
X13078206Y-17271150D01*
X13078206Y-17271150D02*
X13097253Y-17280674D01*
X13097253Y-17280674D02*
X13106777Y-17290198D01*
X13106777Y-17290198D02*
X13116301Y-17309246D01*
X13116301Y-17309246D02*
X13116301Y-17366389D01*
X13116301Y-17366389D02*
X13106777Y-17385436D01*
X13106777Y-17385436D02*
X13097253Y-17394960D01*
X13097253Y-17394960D02*
X13078206Y-17404484D01*
X13078206Y-17404484D02*
X13049634Y-17404484D01*
X13230587Y-17404484D02*
X13211539Y-17394960D01*
X13211539Y-17394960D02*
X13202015Y-17375912D01*
X13202015Y-17375912D02*
X13202015Y-17204484D01*
X13382968Y-17394960D02*
X13363920Y-17404484D01*
X13363920Y-17404484D02*
X13325825Y-17404484D01*
X13325825Y-17404484D02*
X13306777Y-17394960D01*
X13306777Y-17394960D02*
X13297253Y-17375912D01*
X13297253Y-17375912D02*
X13297253Y-17299722D01*
X13297253Y-17299722D02*
X13306777Y-17280674D01*
X13306777Y-17280674D02*
X13325825Y-17271150D01*
X13325825Y-17271150D02*
X13363920Y-17271150D01*
X13363920Y-17271150D02*
X13382968Y-17280674D01*
X13382968Y-17280674D02*
X13392492Y-17299722D01*
X13392492Y-17299722D02*
X13392492Y-17318770D01*
X13392492Y-17318770D02*
X13297253Y-17337817D01*
X13468682Y-17394960D02*
X13487730Y-17404484D01*
X13487730Y-17404484D02*
X13525825Y-17404484D01*
X13525825Y-17404484D02*
X13544873Y-17394960D01*
X13544873Y-17394960D02*
X13554396Y-17375912D01*
X13554396Y-17375912D02*
X13554396Y-17366389D01*
X13554396Y-17366389D02*
X13544873Y-17347341D01*
X13544873Y-17347341D02*
X13525825Y-17337817D01*
X13525825Y-17337817D02*
X13497253Y-17337817D01*
X13497253Y-17337817D02*
X13478206Y-17328293D01*
X13478206Y-17328293D02*
X13468682Y-17309246D01*
X13468682Y-17309246D02*
X13468682Y-17299722D01*
X13468682Y-17299722D02*
X13478206Y-17280674D01*
X13478206Y-17280674D02*
X13497253Y-17271150D01*
X13497253Y-17271150D02*
X13525825Y-17271150D01*
X13525825Y-17271150D02*
X13544873Y-17280674D01*
X13621063Y-17480674D02*
X13630587Y-17471150D01*
X13630587Y-17471150D02*
X13649634Y-17442579D01*
X13649634Y-17442579D02*
X13659158Y-17423531D01*
X13659158Y-17423531D02*
X13668682Y-17394960D01*
X13668682Y-17394960D02*
X13678206Y-17347341D01*
X13678206Y-17347341D02*
X13678206Y-17309246D01*
X13678206Y-17309246D02*
X13668682Y-17261627D01*
X13668682Y-17261627D02*
X13659158Y-17233055D01*
X13659158Y-17233055D02*
X13649634Y-17214008D01*
X13649634Y-17214008D02*
X13630587Y-17185436D01*
X13630587Y-17185436D02*
X13621063Y-17175912D01*
D14*
X8706000Y-17507000D02*
X8846000Y-17647000D01*
X8846000Y-17507000D02*
X8706000Y-17647000D01*
X8846000Y-17577000D02*
G75*
G03*
X8846000Y-17577000I-70000J0D01*
G01*
D11*
X9211539Y-17668484D02*
X9097253Y-17668484D01*
X9154396Y-17668484D02*
X9154396Y-17468484D01*
X9154396Y-17468484D02*
X9135348Y-17497055D01*
X9135348Y-17497055D02*
X9116301Y-17516103D01*
X9116301Y-17516103D02*
X9097253Y-17525627D01*
X9297253Y-17649436D02*
X9306777Y-17658960D01*
X9306777Y-17658960D02*
X9297253Y-17668484D01*
X9297253Y-17668484D02*
X9287729Y-17658960D01*
X9287729Y-17658960D02*
X9297253Y-17649436D01*
X9297253Y-17649436D02*
X9297253Y-17668484D01*
X9478206Y-17535150D02*
X9478206Y-17668484D01*
X9430586Y-17458960D02*
X9382967Y-17601817D01*
X9382967Y-17601817D02*
X9506777Y-17601817D01*
X9621063Y-17468484D02*
X9640110Y-17468484D01*
X9640110Y-17468484D02*
X9659158Y-17478008D01*
X9659158Y-17478008D02*
X9668682Y-17487531D01*
X9668682Y-17487531D02*
X9678206Y-17506579D01*
X9678206Y-17506579D02*
X9687729Y-17544674D01*
X9687729Y-17544674D02*
X9687729Y-17592293D01*
X9687729Y-17592293D02*
X9678206Y-17630389D01*
X9678206Y-17630389D02*
X9668682Y-17649436D01*
X9668682Y-17649436D02*
X9659158Y-17658960D01*
X9659158Y-17658960D02*
X9640110Y-17668484D01*
X9640110Y-17668484D02*
X9621063Y-17668484D01*
X9621063Y-17668484D02*
X9602015Y-17658960D01*
X9602015Y-17658960D02*
X9592491Y-17649436D01*
X9592491Y-17649436D02*
X9582967Y-17630389D01*
X9582967Y-17630389D02*
X9573444Y-17592293D01*
X9573444Y-17592293D02*
X9573444Y-17544674D01*
X9573444Y-17544674D02*
X9582967Y-17506579D01*
X9582967Y-17506579D02*
X9592491Y-17487531D01*
X9592491Y-17487531D02*
X9602015Y-17478008D01*
X9602015Y-17478008D02*
X9621063Y-17468484D01*
X9811539Y-17468484D02*
X9830587Y-17468484D01*
X9830587Y-17468484D02*
X9849634Y-17478008D01*
X9849634Y-17478008D02*
X9859158Y-17487531D01*
X9859158Y-17487531D02*
X9868682Y-17506579D01*
X9868682Y-17506579D02*
X9878206Y-17544674D01*
X9878206Y-17544674D02*
X9878206Y-17592293D01*
X9878206Y-17592293D02*
X9868682Y-17630389D01*
X9868682Y-17630389D02*
X9859158Y-17649436D01*
X9859158Y-17649436D02*
X9849634Y-17658960D01*
X9849634Y-17658960D02*
X9830587Y-17668484D01*
X9830587Y-17668484D02*
X9811539Y-17668484D01*
X9811539Y-17668484D02*
X9792491Y-17658960D01*
X9792491Y-17658960D02*
X9782967Y-17649436D01*
X9782967Y-17649436D02*
X9773444Y-17630389D01*
X9773444Y-17630389D02*
X9763920Y-17592293D01*
X9763920Y-17592293D02*
X9763920Y-17544674D01*
X9763920Y-17544674D02*
X9773444Y-17506579D01*
X9773444Y-17506579D02*
X9782967Y-17487531D01*
X9782967Y-17487531D02*
X9792491Y-17478008D01*
X9792491Y-17478008D02*
X9811539Y-17468484D01*
X9963920Y-17668484D02*
X9963920Y-17535150D01*
X9963920Y-17554198D02*
X9973444Y-17544674D01*
X9973444Y-17544674D02*
X9992491Y-17535150D01*
X9992491Y-17535150D02*
X10021063Y-17535150D01*
X10021063Y-17535150D02*
X10040110Y-17544674D01*
X10040110Y-17544674D02*
X10049634Y-17563722D01*
X10049634Y-17563722D02*
X10049634Y-17668484D01*
X10049634Y-17563722D02*
X10059158Y-17544674D01*
X10059158Y-17544674D02*
X10078206Y-17535150D01*
X10078206Y-17535150D02*
X10106777Y-17535150D01*
X10106777Y-17535150D02*
X10125825Y-17544674D01*
X10125825Y-17544674D02*
X10135348Y-17563722D01*
X10135348Y-17563722D02*
X10135348Y-17668484D01*
X10230587Y-17668484D02*
X10230587Y-17535150D01*
X10230587Y-17554198D02*
X10240110Y-17544674D01*
X10240110Y-17544674D02*
X10259158Y-17535150D01*
X10259158Y-17535150D02*
X10287729Y-17535150D01*
X10287729Y-17535150D02*
X10306777Y-17544674D01*
X10306777Y-17544674D02*
X10316301Y-17563722D01*
X10316301Y-17563722D02*
X10316301Y-17668484D01*
X10316301Y-17563722D02*
X10325825Y-17544674D01*
X10325825Y-17544674D02*
X10344872Y-17535150D01*
X10344872Y-17535150D02*
X10373444Y-17535150D01*
X10373444Y-17535150D02*
X10392491Y-17544674D01*
X10392491Y-17544674D02*
X10402015Y-17563722D01*
X10402015Y-17563722D02*
X10402015Y-17668484D01*
X10792491Y-17458960D02*
X10621063Y-17716103D01*
X11049634Y-17468484D02*
X11068682Y-17468484D01*
X11068682Y-17468484D02*
X11087730Y-17478008D01*
X11087730Y-17478008D02*
X11097253Y-17487531D01*
X11097253Y-17487531D02*
X11106777Y-17506579D01*
X11106777Y-17506579D02*
X11116301Y-17544674D01*
X11116301Y-17544674D02*
X11116301Y-17592293D01*
X11116301Y-17592293D02*
X11106777Y-17630389D01*
X11106777Y-17630389D02*
X11097253Y-17649436D01*
X11097253Y-17649436D02*
X11087730Y-17658960D01*
X11087730Y-17658960D02*
X11068682Y-17668484D01*
X11068682Y-17668484D02*
X11049634Y-17668484D01*
X11049634Y-17668484D02*
X11030587Y-17658960D01*
X11030587Y-17658960D02*
X11021063Y-17649436D01*
X11021063Y-17649436D02*
X11011539Y-17630389D01*
X11011539Y-17630389D02*
X11002015Y-17592293D01*
X11002015Y-17592293D02*
X11002015Y-17544674D01*
X11002015Y-17544674D02*
X11011539Y-17506579D01*
X11011539Y-17506579D02*
X11021063Y-17487531D01*
X11021063Y-17487531D02*
X11030587Y-17478008D01*
X11030587Y-17478008D02*
X11049634Y-17468484D01*
X11202015Y-17649436D02*
X11211539Y-17658960D01*
X11211539Y-17658960D02*
X11202015Y-17668484D01*
X11202015Y-17668484D02*
X11192491Y-17658960D01*
X11192491Y-17658960D02*
X11202015Y-17649436D01*
X11202015Y-17649436D02*
X11202015Y-17668484D01*
X11335348Y-17468484D02*
X11354396Y-17468484D01*
X11354396Y-17468484D02*
X11373444Y-17478008D01*
X11373444Y-17478008D02*
X11382968Y-17487531D01*
X11382968Y-17487531D02*
X11392491Y-17506579D01*
X11392491Y-17506579D02*
X11402015Y-17544674D01*
X11402015Y-17544674D02*
X11402015Y-17592293D01*
X11402015Y-17592293D02*
X11392491Y-17630389D01*
X11392491Y-17630389D02*
X11382968Y-17649436D01*
X11382968Y-17649436D02*
X11373444Y-17658960D01*
X11373444Y-17658960D02*
X11354396Y-17668484D01*
X11354396Y-17668484D02*
X11335348Y-17668484D01*
X11335348Y-17668484D02*
X11316301Y-17658960D01*
X11316301Y-17658960D02*
X11306777Y-17649436D01*
X11306777Y-17649436D02*
X11297253Y-17630389D01*
X11297253Y-17630389D02*
X11287729Y-17592293D01*
X11287729Y-17592293D02*
X11287729Y-17544674D01*
X11287729Y-17544674D02*
X11297253Y-17506579D01*
X11297253Y-17506579D02*
X11306777Y-17487531D01*
X11306777Y-17487531D02*
X11316301Y-17478008D01*
X11316301Y-17478008D02*
X11335348Y-17468484D01*
X11582968Y-17468484D02*
X11487729Y-17468484D01*
X11487729Y-17468484D02*
X11478206Y-17563722D01*
X11478206Y-17563722D02*
X11487729Y-17554198D01*
X11487729Y-17554198D02*
X11506777Y-17544674D01*
X11506777Y-17544674D02*
X11554396Y-17544674D01*
X11554396Y-17544674D02*
X11573444Y-17554198D01*
X11573444Y-17554198D02*
X11582968Y-17563722D01*
X11582968Y-17563722D02*
X11592491Y-17582770D01*
X11592491Y-17582770D02*
X11592491Y-17630389D01*
X11592491Y-17630389D02*
X11582968Y-17649436D01*
X11582968Y-17649436D02*
X11573444Y-17658960D01*
X11573444Y-17658960D02*
X11554396Y-17668484D01*
X11554396Y-17668484D02*
X11506777Y-17668484D01*
X11506777Y-17668484D02*
X11487729Y-17658960D01*
X11487729Y-17658960D02*
X11478206Y-17649436D01*
X11773444Y-17468484D02*
X11678206Y-17468484D01*
X11678206Y-17468484D02*
X11668682Y-17563722D01*
X11668682Y-17563722D02*
X11678206Y-17554198D01*
X11678206Y-17554198D02*
X11697253Y-17544674D01*
X11697253Y-17544674D02*
X11744872Y-17544674D01*
X11744872Y-17544674D02*
X11763920Y-17554198D01*
X11763920Y-17554198D02*
X11773444Y-17563722D01*
X11773444Y-17563722D02*
X11782968Y-17582770D01*
X11782968Y-17582770D02*
X11782968Y-17630389D01*
X11782968Y-17630389D02*
X11773444Y-17649436D01*
X11773444Y-17649436D02*
X11763920Y-17658960D01*
X11763920Y-17658960D02*
X11744872Y-17668484D01*
X11744872Y-17668484D02*
X11697253Y-17668484D01*
X11697253Y-17668484D02*
X11678206Y-17658960D01*
X11678206Y-17658960D02*
X11668682Y-17649436D01*
X11973444Y-17668484D02*
X11859158Y-17668484D01*
X11916301Y-17668484D02*
X11916301Y-17468484D01*
X11916301Y-17468484D02*
X11897253Y-17497055D01*
X11897253Y-17497055D02*
X11878206Y-17516103D01*
X11878206Y-17516103D02*
X11859158Y-17525627D01*
X12049634Y-17468484D02*
X12049634Y-17506579D01*
X12125825Y-17468484D02*
X12125825Y-17506579D01*
X12421063Y-17744674D02*
X12411539Y-17735150D01*
X12411539Y-17735150D02*
X12392491Y-17706579D01*
X12392491Y-17706579D02*
X12382968Y-17687531D01*
X12382968Y-17687531D02*
X12373444Y-17658960D01*
X12373444Y-17658960D02*
X12363920Y-17611341D01*
X12363920Y-17611341D02*
X12363920Y-17573246D01*
X12363920Y-17573246D02*
X12373444Y-17525627D01*
X12373444Y-17525627D02*
X12382968Y-17497055D01*
X12382968Y-17497055D02*
X12392491Y-17478008D01*
X12392491Y-17478008D02*
X12411539Y-17449436D01*
X12411539Y-17449436D02*
X12421063Y-17439912D01*
X12582968Y-17468484D02*
X12544872Y-17468484D01*
X12544872Y-17468484D02*
X12525825Y-17478008D01*
X12525825Y-17478008D02*
X12516301Y-17487531D01*
X12516301Y-17487531D02*
X12497253Y-17516103D01*
X12497253Y-17516103D02*
X12487730Y-17554198D01*
X12487730Y-17554198D02*
X12487730Y-17630389D01*
X12487730Y-17630389D02*
X12497253Y-17649436D01*
X12497253Y-17649436D02*
X12506777Y-17658960D01*
X12506777Y-17658960D02*
X12525825Y-17668484D01*
X12525825Y-17668484D02*
X12563920Y-17668484D01*
X12563920Y-17668484D02*
X12582968Y-17658960D01*
X12582968Y-17658960D02*
X12592491Y-17649436D01*
X12592491Y-17649436D02*
X12602015Y-17630389D01*
X12602015Y-17630389D02*
X12602015Y-17582770D01*
X12602015Y-17582770D02*
X12592491Y-17563722D01*
X12592491Y-17563722D02*
X12582968Y-17554198D01*
X12582968Y-17554198D02*
X12563920Y-17544674D01*
X12563920Y-17544674D02*
X12525825Y-17544674D01*
X12525825Y-17544674D02*
X12506777Y-17554198D01*
X12506777Y-17554198D02*
X12497253Y-17563722D01*
X12497253Y-17563722D02*
X12487730Y-17582770D01*
X12840111Y-17668484D02*
X12840111Y-17468484D01*
X12925825Y-17668484D02*
X12925825Y-17563722D01*
X12925825Y-17563722D02*
X12916301Y-17544674D01*
X12916301Y-17544674D02*
X12897253Y-17535150D01*
X12897253Y-17535150D02*
X12868682Y-17535150D01*
X12868682Y-17535150D02*
X12849634Y-17544674D01*
X12849634Y-17544674D02*
X12840111Y-17554198D01*
X13049634Y-17668484D02*
X13030587Y-17658960D01*
X13030587Y-17658960D02*
X13021063Y-17649436D01*
X13021063Y-17649436D02*
X13011539Y-17630389D01*
X13011539Y-17630389D02*
X13011539Y-17573246D01*
X13011539Y-17573246D02*
X13021063Y-17554198D01*
X13021063Y-17554198D02*
X13030587Y-17544674D01*
X13030587Y-17544674D02*
X13049634Y-17535150D01*
X13049634Y-17535150D02*
X13078206Y-17535150D01*
X13078206Y-17535150D02*
X13097253Y-17544674D01*
X13097253Y-17544674D02*
X13106777Y-17554198D01*
X13106777Y-17554198D02*
X13116301Y-17573246D01*
X13116301Y-17573246D02*
X13116301Y-17630389D01*
X13116301Y-17630389D02*
X13106777Y-17649436D01*
X13106777Y-17649436D02*
X13097253Y-17658960D01*
X13097253Y-17658960D02*
X13078206Y-17668484D01*
X13078206Y-17668484D02*
X13049634Y-17668484D01*
X13230587Y-17668484D02*
X13211539Y-17658960D01*
X13211539Y-17658960D02*
X13202015Y-17639912D01*
X13202015Y-17639912D02*
X13202015Y-17468484D01*
X13382968Y-17658960D02*
X13363920Y-17668484D01*
X13363920Y-17668484D02*
X13325825Y-17668484D01*
X13325825Y-17668484D02*
X13306777Y-17658960D01*
X13306777Y-17658960D02*
X13297253Y-17639912D01*
X13297253Y-17639912D02*
X13297253Y-17563722D01*
X13297253Y-17563722D02*
X13306777Y-17544674D01*
X13306777Y-17544674D02*
X13325825Y-17535150D01*
X13325825Y-17535150D02*
X13363920Y-17535150D01*
X13363920Y-17535150D02*
X13382968Y-17544674D01*
X13382968Y-17544674D02*
X13392492Y-17563722D01*
X13392492Y-17563722D02*
X13392492Y-17582770D01*
X13392492Y-17582770D02*
X13297253Y-17601817D01*
X13468682Y-17658960D02*
X13487730Y-17668484D01*
X13487730Y-17668484D02*
X13525825Y-17668484D01*
X13525825Y-17668484D02*
X13544873Y-17658960D01*
X13544873Y-17658960D02*
X13554396Y-17639912D01*
X13554396Y-17639912D02*
X13554396Y-17630389D01*
X13554396Y-17630389D02*
X13544873Y-17611341D01*
X13544873Y-17611341D02*
X13525825Y-17601817D01*
X13525825Y-17601817D02*
X13497253Y-17601817D01*
X13497253Y-17601817D02*
X13478206Y-17592293D01*
X13478206Y-17592293D02*
X13468682Y-17573246D01*
X13468682Y-17573246D02*
X13468682Y-17563722D01*
X13468682Y-17563722D02*
X13478206Y-17544674D01*
X13478206Y-17544674D02*
X13497253Y-17535150D01*
X13497253Y-17535150D02*
X13525825Y-17535150D01*
X13525825Y-17535150D02*
X13544873Y-17544674D01*
X13621063Y-17744674D02*
X13630587Y-17735150D01*
X13630587Y-17735150D02*
X13649634Y-17706579D01*
X13649634Y-17706579D02*
X13659158Y-17687531D01*
X13659158Y-17687531D02*
X13668682Y-17658960D01*
X13668682Y-17658960D02*
X13678206Y-17611341D01*
X13678206Y-17611341D02*
X13678206Y-17573246D01*
X13678206Y-17573246D02*
X13668682Y-17525627D01*
X13668682Y-17525627D02*
X13659158Y-17497055D01*
X13659158Y-17497055D02*
X13649634Y-17478008D01*
X13649634Y-17478008D02*
X13630587Y-17449436D01*
X13630587Y-17449436D02*
X13621063Y-17439912D01*
D15*
X8669000Y-17752500D02*
X8846000Y-17929500D01*
X8846000Y-17752500D02*
X8669000Y-17929500D01*
X8757500Y-17752500D02*
X8757500Y-17929500D01*
X8669000Y-17841000D02*
X8846000Y-17841000D01*
D11*
X9211539Y-17932484D02*
X9097253Y-17932484D01*
X9154396Y-17932484D02*
X9154396Y-17732484D01*
X9154396Y-17732484D02*
X9135348Y-17761055D01*
X9135348Y-17761055D02*
X9116301Y-17780103D01*
X9116301Y-17780103D02*
X9097253Y-17789627D01*
X9297253Y-17913436D02*
X9306777Y-17922960D01*
X9306777Y-17922960D02*
X9297253Y-17932484D01*
X9297253Y-17932484D02*
X9287729Y-17922960D01*
X9287729Y-17922960D02*
X9297253Y-17913436D01*
X9297253Y-17913436D02*
X9297253Y-17932484D01*
X9373444Y-17732484D02*
X9506777Y-17732484D01*
X9506777Y-17732484D02*
X9421063Y-17932484D01*
X9563920Y-17732484D02*
X9697253Y-17732484D01*
X9697253Y-17732484D02*
X9611539Y-17932484D01*
X9811539Y-17732484D02*
X9830587Y-17732484D01*
X9830587Y-17732484D02*
X9849634Y-17742008D01*
X9849634Y-17742008D02*
X9859158Y-17751531D01*
X9859158Y-17751531D02*
X9868682Y-17770579D01*
X9868682Y-17770579D02*
X9878206Y-17808674D01*
X9878206Y-17808674D02*
X9878206Y-17856293D01*
X9878206Y-17856293D02*
X9868682Y-17894389D01*
X9868682Y-17894389D02*
X9859158Y-17913436D01*
X9859158Y-17913436D02*
X9849634Y-17922960D01*
X9849634Y-17922960D02*
X9830587Y-17932484D01*
X9830587Y-17932484D02*
X9811539Y-17932484D01*
X9811539Y-17932484D02*
X9792491Y-17922960D01*
X9792491Y-17922960D02*
X9782967Y-17913436D01*
X9782967Y-17913436D02*
X9773444Y-17894389D01*
X9773444Y-17894389D02*
X9763920Y-17856293D01*
X9763920Y-17856293D02*
X9763920Y-17808674D01*
X9763920Y-17808674D02*
X9773444Y-17770579D01*
X9773444Y-17770579D02*
X9782967Y-17751531D01*
X9782967Y-17751531D02*
X9792491Y-17742008D01*
X9792491Y-17742008D02*
X9811539Y-17732484D01*
X9963920Y-17932484D02*
X9963920Y-17799150D01*
X9963920Y-17818198D02*
X9973444Y-17808674D01*
X9973444Y-17808674D02*
X9992491Y-17799150D01*
X9992491Y-17799150D02*
X10021063Y-17799150D01*
X10021063Y-17799150D02*
X10040110Y-17808674D01*
X10040110Y-17808674D02*
X10049634Y-17827722D01*
X10049634Y-17827722D02*
X10049634Y-17932484D01*
X10049634Y-17827722D02*
X10059158Y-17808674D01*
X10059158Y-17808674D02*
X10078206Y-17799150D01*
X10078206Y-17799150D02*
X10106777Y-17799150D01*
X10106777Y-17799150D02*
X10125825Y-17808674D01*
X10125825Y-17808674D02*
X10135348Y-17827722D01*
X10135348Y-17827722D02*
X10135348Y-17932484D01*
X10230587Y-17932484D02*
X10230587Y-17799150D01*
X10230587Y-17818198D02*
X10240110Y-17808674D01*
X10240110Y-17808674D02*
X10259158Y-17799150D01*
X10259158Y-17799150D02*
X10287729Y-17799150D01*
X10287729Y-17799150D02*
X10306777Y-17808674D01*
X10306777Y-17808674D02*
X10316301Y-17827722D01*
X10316301Y-17827722D02*
X10316301Y-17932484D01*
X10316301Y-17827722D02*
X10325825Y-17808674D01*
X10325825Y-17808674D02*
X10344872Y-17799150D01*
X10344872Y-17799150D02*
X10373444Y-17799150D01*
X10373444Y-17799150D02*
X10392491Y-17808674D01*
X10392491Y-17808674D02*
X10402015Y-17827722D01*
X10402015Y-17827722D02*
X10402015Y-17932484D01*
X10792491Y-17722960D02*
X10621063Y-17980103D01*
X11049634Y-17732484D02*
X11068682Y-17732484D01*
X11068682Y-17732484D02*
X11087730Y-17742008D01*
X11087730Y-17742008D02*
X11097253Y-17751531D01*
X11097253Y-17751531D02*
X11106777Y-17770579D01*
X11106777Y-17770579D02*
X11116301Y-17808674D01*
X11116301Y-17808674D02*
X11116301Y-17856293D01*
X11116301Y-17856293D02*
X11106777Y-17894389D01*
X11106777Y-17894389D02*
X11097253Y-17913436D01*
X11097253Y-17913436D02*
X11087730Y-17922960D01*
X11087730Y-17922960D02*
X11068682Y-17932484D01*
X11068682Y-17932484D02*
X11049634Y-17932484D01*
X11049634Y-17932484D02*
X11030587Y-17922960D01*
X11030587Y-17922960D02*
X11021063Y-17913436D01*
X11021063Y-17913436D02*
X11011539Y-17894389D01*
X11011539Y-17894389D02*
X11002015Y-17856293D01*
X11002015Y-17856293D02*
X11002015Y-17808674D01*
X11002015Y-17808674D02*
X11011539Y-17770579D01*
X11011539Y-17770579D02*
X11021063Y-17751531D01*
X11021063Y-17751531D02*
X11030587Y-17742008D01*
X11030587Y-17742008D02*
X11049634Y-17732484D01*
X11202015Y-17913436D02*
X11211539Y-17922960D01*
X11211539Y-17922960D02*
X11202015Y-17932484D01*
X11202015Y-17932484D02*
X11192491Y-17922960D01*
X11192491Y-17922960D02*
X11202015Y-17913436D01*
X11202015Y-17913436D02*
X11202015Y-17932484D01*
X11335348Y-17732484D02*
X11354396Y-17732484D01*
X11354396Y-17732484D02*
X11373444Y-17742008D01*
X11373444Y-17742008D02*
X11382968Y-17751531D01*
X11382968Y-17751531D02*
X11392491Y-17770579D01*
X11392491Y-17770579D02*
X11402015Y-17808674D01*
X11402015Y-17808674D02*
X11402015Y-17856293D01*
X11402015Y-17856293D02*
X11392491Y-17894389D01*
X11392491Y-17894389D02*
X11382968Y-17913436D01*
X11382968Y-17913436D02*
X11373444Y-17922960D01*
X11373444Y-17922960D02*
X11354396Y-17932484D01*
X11354396Y-17932484D02*
X11335348Y-17932484D01*
X11335348Y-17932484D02*
X11316301Y-17922960D01*
X11316301Y-17922960D02*
X11306777Y-17913436D01*
X11306777Y-17913436D02*
X11297253Y-17894389D01*
X11297253Y-17894389D02*
X11287729Y-17856293D01*
X11287729Y-17856293D02*
X11287729Y-17808674D01*
X11287729Y-17808674D02*
X11297253Y-17770579D01*
X11297253Y-17770579D02*
X11306777Y-17751531D01*
X11306777Y-17751531D02*
X11316301Y-17742008D01*
X11316301Y-17742008D02*
X11335348Y-17732484D01*
X11573444Y-17732484D02*
X11535348Y-17732484D01*
X11535348Y-17732484D02*
X11516301Y-17742008D01*
X11516301Y-17742008D02*
X11506777Y-17751531D01*
X11506777Y-17751531D02*
X11487729Y-17780103D01*
X11487729Y-17780103D02*
X11478206Y-17818198D01*
X11478206Y-17818198D02*
X11478206Y-17894389D01*
X11478206Y-17894389D02*
X11487729Y-17913436D01*
X11487729Y-17913436D02*
X11497253Y-17922960D01*
X11497253Y-17922960D02*
X11516301Y-17932484D01*
X11516301Y-17932484D02*
X11554396Y-17932484D01*
X11554396Y-17932484D02*
X11573444Y-17922960D01*
X11573444Y-17922960D02*
X11582968Y-17913436D01*
X11582968Y-17913436D02*
X11592491Y-17894389D01*
X11592491Y-17894389D02*
X11592491Y-17846770D01*
X11592491Y-17846770D02*
X11582968Y-17827722D01*
X11582968Y-17827722D02*
X11573444Y-17818198D01*
X11573444Y-17818198D02*
X11554396Y-17808674D01*
X11554396Y-17808674D02*
X11516301Y-17808674D01*
X11516301Y-17808674D02*
X11497253Y-17818198D01*
X11497253Y-17818198D02*
X11487729Y-17827722D01*
X11487729Y-17827722D02*
X11478206Y-17846770D01*
X11687729Y-17932484D02*
X11725825Y-17932484D01*
X11725825Y-17932484D02*
X11744872Y-17922960D01*
X11744872Y-17922960D02*
X11754396Y-17913436D01*
X11754396Y-17913436D02*
X11773444Y-17884865D01*
X11773444Y-17884865D02*
X11782968Y-17846770D01*
X11782968Y-17846770D02*
X11782968Y-17770579D01*
X11782968Y-17770579D02*
X11773444Y-17751531D01*
X11773444Y-17751531D02*
X11763920Y-17742008D01*
X11763920Y-17742008D02*
X11744872Y-17732484D01*
X11744872Y-17732484D02*
X11706777Y-17732484D01*
X11706777Y-17732484D02*
X11687729Y-17742008D01*
X11687729Y-17742008D02*
X11678206Y-17751531D01*
X11678206Y-17751531D02*
X11668682Y-17770579D01*
X11668682Y-17770579D02*
X11668682Y-17818198D01*
X11668682Y-17818198D02*
X11678206Y-17837246D01*
X11678206Y-17837246D02*
X11687729Y-17846770D01*
X11687729Y-17846770D02*
X11706777Y-17856293D01*
X11706777Y-17856293D02*
X11744872Y-17856293D01*
X11744872Y-17856293D02*
X11763920Y-17846770D01*
X11763920Y-17846770D02*
X11773444Y-17837246D01*
X11773444Y-17837246D02*
X11782968Y-17818198D01*
X11849634Y-17732484D02*
X11982968Y-17732484D01*
X11982968Y-17732484D02*
X11897253Y-17932484D01*
X12049634Y-17732484D02*
X12049634Y-17770579D01*
X12125825Y-17732484D02*
X12125825Y-17770579D01*
X12421063Y-18008674D02*
X12411539Y-17999150D01*
X12411539Y-17999150D02*
X12392491Y-17970579D01*
X12392491Y-17970579D02*
X12382968Y-17951531D01*
X12382968Y-17951531D02*
X12373444Y-17922960D01*
X12373444Y-17922960D02*
X12363920Y-17875341D01*
X12363920Y-17875341D02*
X12363920Y-17837246D01*
X12363920Y-17837246D02*
X12373444Y-17789627D01*
X12373444Y-17789627D02*
X12382968Y-17761055D01*
X12382968Y-17761055D02*
X12392491Y-17742008D01*
X12392491Y-17742008D02*
X12411539Y-17713436D01*
X12411539Y-17713436D02*
X12421063Y-17703912D01*
X12487730Y-17751531D02*
X12497253Y-17742008D01*
X12497253Y-17742008D02*
X12516301Y-17732484D01*
X12516301Y-17732484D02*
X12563920Y-17732484D01*
X12563920Y-17732484D02*
X12582968Y-17742008D01*
X12582968Y-17742008D02*
X12592491Y-17751531D01*
X12592491Y-17751531D02*
X12602015Y-17770579D01*
X12602015Y-17770579D02*
X12602015Y-17789627D01*
X12602015Y-17789627D02*
X12592491Y-17818198D01*
X12592491Y-17818198D02*
X12478206Y-17932484D01*
X12478206Y-17932484D02*
X12602015Y-17932484D01*
X12840111Y-17932484D02*
X12840111Y-17732484D01*
X12925825Y-17932484D02*
X12925825Y-17827722D01*
X12925825Y-17827722D02*
X12916301Y-17808674D01*
X12916301Y-17808674D02*
X12897253Y-17799150D01*
X12897253Y-17799150D02*
X12868682Y-17799150D01*
X12868682Y-17799150D02*
X12849634Y-17808674D01*
X12849634Y-17808674D02*
X12840111Y-17818198D01*
X13049634Y-17932484D02*
X13030587Y-17922960D01*
X13030587Y-17922960D02*
X13021063Y-17913436D01*
X13021063Y-17913436D02*
X13011539Y-17894389D01*
X13011539Y-17894389D02*
X13011539Y-17837246D01*
X13011539Y-17837246D02*
X13021063Y-17818198D01*
X13021063Y-17818198D02*
X13030587Y-17808674D01*
X13030587Y-17808674D02*
X13049634Y-17799150D01*
X13049634Y-17799150D02*
X13078206Y-17799150D01*
X13078206Y-17799150D02*
X13097253Y-17808674D01*
X13097253Y-17808674D02*
X13106777Y-17818198D01*
X13106777Y-17818198D02*
X13116301Y-17837246D01*
X13116301Y-17837246D02*
X13116301Y-17894389D01*
X13116301Y-17894389D02*
X13106777Y-17913436D01*
X13106777Y-17913436D02*
X13097253Y-17922960D01*
X13097253Y-17922960D02*
X13078206Y-17932484D01*
X13078206Y-17932484D02*
X13049634Y-17932484D01*
X13230587Y-17932484D02*
X13211539Y-17922960D01*
X13211539Y-17922960D02*
X13202015Y-17903912D01*
X13202015Y-17903912D02*
X13202015Y-17732484D01*
X13382968Y-17922960D02*
X13363920Y-17932484D01*
X13363920Y-17932484D02*
X13325825Y-17932484D01*
X13325825Y-17932484D02*
X13306777Y-17922960D01*
X13306777Y-17922960D02*
X13297253Y-17903912D01*
X13297253Y-17903912D02*
X13297253Y-17827722D01*
X13297253Y-17827722D02*
X13306777Y-17808674D01*
X13306777Y-17808674D02*
X13325825Y-17799150D01*
X13325825Y-17799150D02*
X13363920Y-17799150D01*
X13363920Y-17799150D02*
X13382968Y-17808674D01*
X13382968Y-17808674D02*
X13392492Y-17827722D01*
X13392492Y-17827722D02*
X13392492Y-17846770D01*
X13392492Y-17846770D02*
X13297253Y-17865817D01*
X13468682Y-17922960D02*
X13487730Y-17932484D01*
X13487730Y-17932484D02*
X13525825Y-17932484D01*
X13525825Y-17932484D02*
X13544873Y-17922960D01*
X13544873Y-17922960D02*
X13554396Y-17903912D01*
X13554396Y-17903912D02*
X13554396Y-17894389D01*
X13554396Y-17894389D02*
X13544873Y-17875341D01*
X13544873Y-17875341D02*
X13525825Y-17865817D01*
X13525825Y-17865817D02*
X13497253Y-17865817D01*
X13497253Y-17865817D02*
X13478206Y-17856293D01*
X13478206Y-17856293D02*
X13468682Y-17837246D01*
X13468682Y-17837246D02*
X13468682Y-17827722D01*
X13468682Y-17827722D02*
X13478206Y-17808674D01*
X13478206Y-17808674D02*
X13497253Y-17799150D01*
X13497253Y-17799150D02*
X13525825Y-17799150D01*
X13525825Y-17799150D02*
X13544873Y-17808674D01*
X13621063Y-18008674D02*
X13630587Y-17999150D01*
X13630587Y-17999150D02*
X13649634Y-17970579D01*
X13649634Y-17970579D02*
X13659158Y-17951531D01*
X13659158Y-17951531D02*
X13668682Y-17922960D01*
X13668682Y-17922960D02*
X13678206Y-17875341D01*
X13678206Y-17875341D02*
X13678206Y-17837246D01*
X13678206Y-17837246D02*
X13668682Y-17789627D01*
X13668682Y-17789627D02*
X13659158Y-17761055D01*
X13659158Y-17761055D02*
X13649634Y-17742008D01*
X13649634Y-17742008D02*
X13630587Y-17713436D01*
X13630587Y-17713436D02*
X13621063Y-17703912D01*
D16*
X8656000Y-18043000D02*
X8846000Y-18233000D01*
X8846000Y-18043000D02*
X8656000Y-18233000D01*
X8818176Y-18205176D02*
X8818176Y-18070824D01*
X8683824Y-18070824D01*
X8683824Y-18205176D01*
X8818176Y-18205176D01*
D11*
X9211539Y-18229484D02*
X9097253Y-18229484D01*
X9154396Y-18229484D02*
X9154396Y-18029484D01*
X9154396Y-18029484D02*
X9135348Y-18058055D01*
X9135348Y-18058055D02*
X9116301Y-18077103D01*
X9116301Y-18077103D02*
X9097253Y-18086627D01*
X9297253Y-18210436D02*
X9306777Y-18219960D01*
X9306777Y-18219960D02*
X9297253Y-18229484D01*
X9297253Y-18229484D02*
X9287729Y-18219960D01*
X9287729Y-18219960D02*
X9297253Y-18210436D01*
X9297253Y-18210436D02*
X9297253Y-18229484D01*
X9402015Y-18229484D02*
X9440110Y-18229484D01*
X9440110Y-18229484D02*
X9459158Y-18219960D01*
X9459158Y-18219960D02*
X9468682Y-18210436D01*
X9468682Y-18210436D02*
X9487729Y-18181865D01*
X9487729Y-18181865D02*
X9497253Y-18143770D01*
X9497253Y-18143770D02*
X9497253Y-18067579D01*
X9497253Y-18067579D02*
X9487729Y-18048531D01*
X9487729Y-18048531D02*
X9478206Y-18039008D01*
X9478206Y-18039008D02*
X9459158Y-18029484D01*
X9459158Y-18029484D02*
X9421063Y-18029484D01*
X9421063Y-18029484D02*
X9402015Y-18039008D01*
X9402015Y-18039008D02*
X9392491Y-18048531D01*
X9392491Y-18048531D02*
X9382967Y-18067579D01*
X9382967Y-18067579D02*
X9382967Y-18115198D01*
X9382967Y-18115198D02*
X9392491Y-18134246D01*
X9392491Y-18134246D02*
X9402015Y-18143770D01*
X9402015Y-18143770D02*
X9421063Y-18153293D01*
X9421063Y-18153293D02*
X9459158Y-18153293D01*
X9459158Y-18153293D02*
X9478206Y-18143770D01*
X9478206Y-18143770D02*
X9487729Y-18134246D01*
X9487729Y-18134246D02*
X9497253Y-18115198D01*
X9621063Y-18029484D02*
X9640110Y-18029484D01*
X9640110Y-18029484D02*
X9659158Y-18039008D01*
X9659158Y-18039008D02*
X9668682Y-18048531D01*
X9668682Y-18048531D02*
X9678206Y-18067579D01*
X9678206Y-18067579D02*
X9687729Y-18105674D01*
X9687729Y-18105674D02*
X9687729Y-18153293D01*
X9687729Y-18153293D02*
X9678206Y-18191389D01*
X9678206Y-18191389D02*
X9668682Y-18210436D01*
X9668682Y-18210436D02*
X9659158Y-18219960D01*
X9659158Y-18219960D02*
X9640110Y-18229484D01*
X9640110Y-18229484D02*
X9621063Y-18229484D01*
X9621063Y-18229484D02*
X9602015Y-18219960D01*
X9602015Y-18219960D02*
X9592491Y-18210436D01*
X9592491Y-18210436D02*
X9582967Y-18191389D01*
X9582967Y-18191389D02*
X9573444Y-18153293D01*
X9573444Y-18153293D02*
X9573444Y-18105674D01*
X9573444Y-18105674D02*
X9582967Y-18067579D01*
X9582967Y-18067579D02*
X9592491Y-18048531D01*
X9592491Y-18048531D02*
X9602015Y-18039008D01*
X9602015Y-18039008D02*
X9621063Y-18029484D01*
X9811539Y-18029484D02*
X9830587Y-18029484D01*
X9830587Y-18029484D02*
X9849634Y-18039008D01*
X9849634Y-18039008D02*
X9859158Y-18048531D01*
X9859158Y-18048531D02*
X9868682Y-18067579D01*
X9868682Y-18067579D02*
X9878206Y-18105674D01*
X9878206Y-18105674D02*
X9878206Y-18153293D01*
X9878206Y-18153293D02*
X9868682Y-18191389D01*
X9868682Y-18191389D02*
X9859158Y-18210436D01*
X9859158Y-18210436D02*
X9849634Y-18219960D01*
X9849634Y-18219960D02*
X9830587Y-18229484D01*
X9830587Y-18229484D02*
X9811539Y-18229484D01*
X9811539Y-18229484D02*
X9792491Y-18219960D01*
X9792491Y-18219960D02*
X9782967Y-18210436D01*
X9782967Y-18210436D02*
X9773444Y-18191389D01*
X9773444Y-18191389D02*
X9763920Y-18153293D01*
X9763920Y-18153293D02*
X9763920Y-18105674D01*
X9763920Y-18105674D02*
X9773444Y-18067579D01*
X9773444Y-18067579D02*
X9782967Y-18048531D01*
X9782967Y-18048531D02*
X9792491Y-18039008D01*
X9792491Y-18039008D02*
X9811539Y-18029484D01*
X9963920Y-18229484D02*
X9963920Y-18096150D01*
X9963920Y-18115198D02*
X9973444Y-18105674D01*
X9973444Y-18105674D02*
X9992491Y-18096150D01*
X9992491Y-18096150D02*
X10021063Y-18096150D01*
X10021063Y-18096150D02*
X10040110Y-18105674D01*
X10040110Y-18105674D02*
X10049634Y-18124722D01*
X10049634Y-18124722D02*
X10049634Y-18229484D01*
X10049634Y-18124722D02*
X10059158Y-18105674D01*
X10059158Y-18105674D02*
X10078206Y-18096150D01*
X10078206Y-18096150D02*
X10106777Y-18096150D01*
X10106777Y-18096150D02*
X10125825Y-18105674D01*
X10125825Y-18105674D02*
X10135348Y-18124722D01*
X10135348Y-18124722D02*
X10135348Y-18229484D01*
X10230587Y-18229484D02*
X10230587Y-18096150D01*
X10230587Y-18115198D02*
X10240110Y-18105674D01*
X10240110Y-18105674D02*
X10259158Y-18096150D01*
X10259158Y-18096150D02*
X10287729Y-18096150D01*
X10287729Y-18096150D02*
X10306777Y-18105674D01*
X10306777Y-18105674D02*
X10316301Y-18124722D01*
X10316301Y-18124722D02*
X10316301Y-18229484D01*
X10316301Y-18124722D02*
X10325825Y-18105674D01*
X10325825Y-18105674D02*
X10344872Y-18096150D01*
X10344872Y-18096150D02*
X10373444Y-18096150D01*
X10373444Y-18096150D02*
X10392491Y-18105674D01*
X10392491Y-18105674D02*
X10402015Y-18124722D01*
X10402015Y-18124722D02*
X10402015Y-18229484D01*
X10792491Y-18019960D02*
X10621063Y-18277103D01*
X11049634Y-18029484D02*
X11068682Y-18029484D01*
X11068682Y-18029484D02*
X11087730Y-18039008D01*
X11087730Y-18039008D02*
X11097253Y-18048531D01*
X11097253Y-18048531D02*
X11106777Y-18067579D01*
X11106777Y-18067579D02*
X11116301Y-18105674D01*
X11116301Y-18105674D02*
X11116301Y-18153293D01*
X11116301Y-18153293D02*
X11106777Y-18191389D01*
X11106777Y-18191389D02*
X11097253Y-18210436D01*
X11097253Y-18210436D02*
X11087730Y-18219960D01*
X11087730Y-18219960D02*
X11068682Y-18229484D01*
X11068682Y-18229484D02*
X11049634Y-18229484D01*
X11049634Y-18229484D02*
X11030587Y-18219960D01*
X11030587Y-18219960D02*
X11021063Y-18210436D01*
X11021063Y-18210436D02*
X11011539Y-18191389D01*
X11011539Y-18191389D02*
X11002015Y-18153293D01*
X11002015Y-18153293D02*
X11002015Y-18105674D01*
X11002015Y-18105674D02*
X11011539Y-18067579D01*
X11011539Y-18067579D02*
X11021063Y-18048531D01*
X11021063Y-18048531D02*
X11030587Y-18039008D01*
X11030587Y-18039008D02*
X11049634Y-18029484D01*
X11202015Y-18210436D02*
X11211539Y-18219960D01*
X11211539Y-18219960D02*
X11202015Y-18229484D01*
X11202015Y-18229484D02*
X11192491Y-18219960D01*
X11192491Y-18219960D02*
X11202015Y-18210436D01*
X11202015Y-18210436D02*
X11202015Y-18229484D01*
X11335348Y-18029484D02*
X11354396Y-18029484D01*
X11354396Y-18029484D02*
X11373444Y-18039008D01*
X11373444Y-18039008D02*
X11382968Y-18048531D01*
X11382968Y-18048531D02*
X11392491Y-18067579D01*
X11392491Y-18067579D02*
X11402015Y-18105674D01*
X11402015Y-18105674D02*
X11402015Y-18153293D01*
X11402015Y-18153293D02*
X11392491Y-18191389D01*
X11392491Y-18191389D02*
X11382968Y-18210436D01*
X11382968Y-18210436D02*
X11373444Y-18219960D01*
X11373444Y-18219960D02*
X11354396Y-18229484D01*
X11354396Y-18229484D02*
X11335348Y-18229484D01*
X11335348Y-18229484D02*
X11316301Y-18219960D01*
X11316301Y-18219960D02*
X11306777Y-18210436D01*
X11306777Y-18210436D02*
X11297253Y-18191389D01*
X11297253Y-18191389D02*
X11287729Y-18153293D01*
X11287729Y-18153293D02*
X11287729Y-18105674D01*
X11287729Y-18105674D02*
X11297253Y-18067579D01*
X11297253Y-18067579D02*
X11306777Y-18048531D01*
X11306777Y-18048531D02*
X11316301Y-18039008D01*
X11316301Y-18039008D02*
X11335348Y-18029484D01*
X11468682Y-18029484D02*
X11602015Y-18029484D01*
X11602015Y-18029484D02*
X11516301Y-18229484D01*
X11763920Y-18096150D02*
X11763920Y-18229484D01*
X11716301Y-18019960D02*
X11668682Y-18162817D01*
X11668682Y-18162817D02*
X11792491Y-18162817D01*
X11897253Y-18115198D02*
X11878206Y-18105674D01*
X11878206Y-18105674D02*
X11868682Y-18096150D01*
X11868682Y-18096150D02*
X11859158Y-18077103D01*
X11859158Y-18077103D02*
X11859158Y-18067579D01*
X11859158Y-18067579D02*
X11868682Y-18048531D01*
X11868682Y-18048531D02*
X11878206Y-18039008D01*
X11878206Y-18039008D02*
X11897253Y-18029484D01*
X11897253Y-18029484D02*
X11935349Y-18029484D01*
X11935349Y-18029484D02*
X11954396Y-18039008D01*
X11954396Y-18039008D02*
X11963920Y-18048531D01*
X11963920Y-18048531D02*
X11973444Y-18067579D01*
X11973444Y-18067579D02*
X11973444Y-18077103D01*
X11973444Y-18077103D02*
X11963920Y-18096150D01*
X11963920Y-18096150D02*
X11954396Y-18105674D01*
X11954396Y-18105674D02*
X11935349Y-18115198D01*
X11935349Y-18115198D02*
X11897253Y-18115198D01*
X11897253Y-18115198D02*
X11878206Y-18124722D01*
X11878206Y-18124722D02*
X11868682Y-18134246D01*
X11868682Y-18134246D02*
X11859158Y-18153293D01*
X11859158Y-18153293D02*
X11859158Y-18191389D01*
X11859158Y-18191389D02*
X11868682Y-18210436D01*
X11868682Y-18210436D02*
X11878206Y-18219960D01*
X11878206Y-18219960D02*
X11897253Y-18229484D01*
X11897253Y-18229484D02*
X11935349Y-18229484D01*
X11935349Y-18229484D02*
X11954396Y-18219960D01*
X11954396Y-18219960D02*
X11963920Y-18210436D01*
X11963920Y-18210436D02*
X11973444Y-18191389D01*
X11973444Y-18191389D02*
X11973444Y-18153293D01*
X11973444Y-18153293D02*
X11963920Y-18134246D01*
X11963920Y-18134246D02*
X11954396Y-18124722D01*
X11954396Y-18124722D02*
X11935349Y-18115198D01*
X12049634Y-18029484D02*
X12049634Y-18067579D01*
X12125825Y-18029484D02*
X12125825Y-18067579D01*
X12421063Y-18305674D02*
X12411539Y-18296150D01*
X12411539Y-18296150D02*
X12392491Y-18267579D01*
X12392491Y-18267579D02*
X12382968Y-18248531D01*
X12382968Y-18248531D02*
X12373444Y-18219960D01*
X12373444Y-18219960D02*
X12363920Y-18172341D01*
X12363920Y-18172341D02*
X12363920Y-18134246D01*
X12363920Y-18134246D02*
X12373444Y-18086627D01*
X12373444Y-18086627D02*
X12382968Y-18058055D01*
X12382968Y-18058055D02*
X12392491Y-18039008D01*
X12392491Y-18039008D02*
X12411539Y-18010436D01*
X12411539Y-18010436D02*
X12421063Y-18000912D01*
X12525825Y-18115198D02*
X12506777Y-18105674D01*
X12506777Y-18105674D02*
X12497253Y-18096150D01*
X12497253Y-18096150D02*
X12487730Y-18077103D01*
X12487730Y-18077103D02*
X12487730Y-18067579D01*
X12487730Y-18067579D02*
X12497253Y-18048531D01*
X12497253Y-18048531D02*
X12506777Y-18039008D01*
X12506777Y-18039008D02*
X12525825Y-18029484D01*
X12525825Y-18029484D02*
X12563920Y-18029484D01*
X12563920Y-18029484D02*
X12582968Y-18039008D01*
X12582968Y-18039008D02*
X12592491Y-18048531D01*
X12592491Y-18048531D02*
X12602015Y-18067579D01*
X12602015Y-18067579D02*
X12602015Y-18077103D01*
X12602015Y-18077103D02*
X12592491Y-18096150D01*
X12592491Y-18096150D02*
X12582968Y-18105674D01*
X12582968Y-18105674D02*
X12563920Y-18115198D01*
X12563920Y-18115198D02*
X12525825Y-18115198D01*
X12525825Y-18115198D02*
X12506777Y-18124722D01*
X12506777Y-18124722D02*
X12497253Y-18134246D01*
X12497253Y-18134246D02*
X12487730Y-18153293D01*
X12487730Y-18153293D02*
X12487730Y-18191389D01*
X12487730Y-18191389D02*
X12497253Y-18210436D01*
X12497253Y-18210436D02*
X12506777Y-18219960D01*
X12506777Y-18219960D02*
X12525825Y-18229484D01*
X12525825Y-18229484D02*
X12563920Y-18229484D01*
X12563920Y-18229484D02*
X12582968Y-18219960D01*
X12582968Y-18219960D02*
X12592491Y-18210436D01*
X12592491Y-18210436D02*
X12602015Y-18191389D01*
X12602015Y-18191389D02*
X12602015Y-18153293D01*
X12602015Y-18153293D02*
X12592491Y-18134246D01*
X12592491Y-18134246D02*
X12582968Y-18124722D01*
X12582968Y-18124722D02*
X12563920Y-18115198D01*
X12840111Y-18229484D02*
X12840111Y-18029484D01*
X12925825Y-18229484D02*
X12925825Y-18124722D01*
X12925825Y-18124722D02*
X12916301Y-18105674D01*
X12916301Y-18105674D02*
X12897253Y-18096150D01*
X12897253Y-18096150D02*
X12868682Y-18096150D01*
X12868682Y-18096150D02*
X12849634Y-18105674D01*
X12849634Y-18105674D02*
X12840111Y-18115198D01*
X13049634Y-18229484D02*
X13030587Y-18219960D01*
X13030587Y-18219960D02*
X13021063Y-18210436D01*
X13021063Y-18210436D02*
X13011539Y-18191389D01*
X13011539Y-18191389D02*
X13011539Y-18134246D01*
X13011539Y-18134246D02*
X13021063Y-18115198D01*
X13021063Y-18115198D02*
X13030587Y-18105674D01*
X13030587Y-18105674D02*
X13049634Y-18096150D01*
X13049634Y-18096150D02*
X13078206Y-18096150D01*
X13078206Y-18096150D02*
X13097253Y-18105674D01*
X13097253Y-18105674D02*
X13106777Y-18115198D01*
X13106777Y-18115198D02*
X13116301Y-18134246D01*
X13116301Y-18134246D02*
X13116301Y-18191389D01*
X13116301Y-18191389D02*
X13106777Y-18210436D01*
X13106777Y-18210436D02*
X13097253Y-18219960D01*
X13097253Y-18219960D02*
X13078206Y-18229484D01*
X13078206Y-18229484D02*
X13049634Y-18229484D01*
X13230587Y-18229484D02*
X13211539Y-18219960D01*
X13211539Y-18219960D02*
X13202015Y-18200912D01*
X13202015Y-18200912D02*
X13202015Y-18029484D01*
X13382968Y-18219960D02*
X13363920Y-18229484D01*
X13363920Y-18229484D02*
X13325825Y-18229484D01*
X13325825Y-18229484D02*
X13306777Y-18219960D01*
X13306777Y-18219960D02*
X13297253Y-18200912D01*
X13297253Y-18200912D02*
X13297253Y-18124722D01*
X13297253Y-18124722D02*
X13306777Y-18105674D01*
X13306777Y-18105674D02*
X13325825Y-18096150D01*
X13325825Y-18096150D02*
X13363920Y-18096150D01*
X13363920Y-18096150D02*
X13382968Y-18105674D01*
X13382968Y-18105674D02*
X13392492Y-18124722D01*
X13392492Y-18124722D02*
X13392492Y-18143770D01*
X13392492Y-18143770D02*
X13297253Y-18162817D01*
X13468682Y-18219960D02*
X13487730Y-18229484D01*
X13487730Y-18229484D02*
X13525825Y-18229484D01*
X13525825Y-18229484D02*
X13544873Y-18219960D01*
X13544873Y-18219960D02*
X13554396Y-18200912D01*
X13554396Y-18200912D02*
X13554396Y-18191389D01*
X13554396Y-18191389D02*
X13544873Y-18172341D01*
X13544873Y-18172341D02*
X13525825Y-18162817D01*
X13525825Y-18162817D02*
X13497253Y-18162817D01*
X13497253Y-18162817D02*
X13478206Y-18153293D01*
X13478206Y-18153293D02*
X13468682Y-18134246D01*
X13468682Y-18134246D02*
X13468682Y-18124722D01*
X13468682Y-18124722D02*
X13478206Y-18105674D01*
X13478206Y-18105674D02*
X13497253Y-18096150D01*
X13497253Y-18096150D02*
X13525825Y-18096150D01*
X13525825Y-18096150D02*
X13544873Y-18105674D01*
X13621063Y-18305674D02*
X13630587Y-18296150D01*
X13630587Y-18296150D02*
X13649634Y-18267579D01*
X13649634Y-18267579D02*
X13659158Y-18248531D01*
X13659158Y-18248531D02*
X13668682Y-18219960D01*
X13668682Y-18219960D02*
X13678206Y-18172341D01*
X13678206Y-18172341D02*
X13678206Y-18134246D01*
X13678206Y-18134246D02*
X13668682Y-18086627D01*
X13668682Y-18086627D02*
X13659158Y-18058055D01*
X13659158Y-18058055D02*
X13649634Y-18039008D01*
X13649634Y-18039008D02*
X13630587Y-18010436D01*
X13630587Y-18010436D02*
X13621063Y-18000912D01*
X8646000Y-18348000D02*
X8846000Y-18548000D01*
X8846000Y-18348000D02*
X8646000Y-18548000D01*
X8746000Y-18548000D02*
X8846000Y-18448000D01*
X8746000Y-18348000D01*
X8646000Y-18448000D01*
X8746000Y-18548000D01*
X9097253Y-18358531D02*
X9106777Y-18349008D01*
X9106777Y-18349008D02*
X9125825Y-18339484D01*
X9125825Y-18339484D02*
X9173444Y-18339484D01*
X9173444Y-18339484D02*
X9192491Y-18349008D01*
X9192491Y-18349008D02*
X9202015Y-18358531D01*
X9202015Y-18358531D02*
X9211539Y-18377579D01*
X9211539Y-18377579D02*
X9211539Y-18396627D01*
X9211539Y-18396627D02*
X9202015Y-18425198D01*
X9202015Y-18425198D02*
X9087729Y-18539484D01*
X9087729Y-18539484D02*
X9211539Y-18539484D01*
X9297253Y-18520436D02*
X9306777Y-18529960D01*
X9306777Y-18529960D02*
X9297253Y-18539484D01*
X9297253Y-18539484D02*
X9287729Y-18529960D01*
X9287729Y-18529960D02*
X9297253Y-18520436D01*
X9297253Y-18520436D02*
X9297253Y-18539484D01*
X9430586Y-18339484D02*
X9449634Y-18339484D01*
X9449634Y-18339484D02*
X9468682Y-18349008D01*
X9468682Y-18349008D02*
X9478206Y-18358531D01*
X9478206Y-18358531D02*
X9487729Y-18377579D01*
X9487729Y-18377579D02*
X9497253Y-18415674D01*
X9497253Y-18415674D02*
X9497253Y-18463293D01*
X9497253Y-18463293D02*
X9487729Y-18501389D01*
X9487729Y-18501389D02*
X9478206Y-18520436D01*
X9478206Y-18520436D02*
X9468682Y-18529960D01*
X9468682Y-18529960D02*
X9449634Y-18539484D01*
X9449634Y-18539484D02*
X9430586Y-18539484D01*
X9430586Y-18539484D02*
X9411539Y-18529960D01*
X9411539Y-18529960D02*
X9402015Y-18520436D01*
X9402015Y-18520436D02*
X9392491Y-18501389D01*
X9392491Y-18501389D02*
X9382967Y-18463293D01*
X9382967Y-18463293D02*
X9382967Y-18415674D01*
X9382967Y-18415674D02*
X9392491Y-18377579D01*
X9392491Y-18377579D02*
X9402015Y-18358531D01*
X9402015Y-18358531D02*
X9411539Y-18349008D01*
X9411539Y-18349008D02*
X9430586Y-18339484D01*
X9563920Y-18339484D02*
X9687729Y-18339484D01*
X9687729Y-18339484D02*
X9621063Y-18415674D01*
X9621063Y-18415674D02*
X9649634Y-18415674D01*
X9649634Y-18415674D02*
X9668682Y-18425198D01*
X9668682Y-18425198D02*
X9678206Y-18434722D01*
X9678206Y-18434722D02*
X9687729Y-18453770D01*
X9687729Y-18453770D02*
X9687729Y-18501389D01*
X9687729Y-18501389D02*
X9678206Y-18520436D01*
X9678206Y-18520436D02*
X9668682Y-18529960D01*
X9668682Y-18529960D02*
X9649634Y-18539484D01*
X9649634Y-18539484D02*
X9592491Y-18539484D01*
X9592491Y-18539484D02*
X9573444Y-18529960D01*
X9573444Y-18529960D02*
X9563920Y-18520436D01*
X9811539Y-18339484D02*
X9830587Y-18339484D01*
X9830587Y-18339484D02*
X9849634Y-18349008D01*
X9849634Y-18349008D02*
X9859158Y-18358531D01*
X9859158Y-18358531D02*
X9868682Y-18377579D01*
X9868682Y-18377579D02*
X9878206Y-18415674D01*
X9878206Y-18415674D02*
X9878206Y-18463293D01*
X9878206Y-18463293D02*
X9868682Y-18501389D01*
X9868682Y-18501389D02*
X9859158Y-18520436D01*
X9859158Y-18520436D02*
X9849634Y-18529960D01*
X9849634Y-18529960D02*
X9830587Y-18539484D01*
X9830587Y-18539484D02*
X9811539Y-18539484D01*
X9811539Y-18539484D02*
X9792491Y-18529960D01*
X9792491Y-18529960D02*
X9782967Y-18520436D01*
X9782967Y-18520436D02*
X9773444Y-18501389D01*
X9773444Y-18501389D02*
X9763920Y-18463293D01*
X9763920Y-18463293D02*
X9763920Y-18415674D01*
X9763920Y-18415674D02*
X9773444Y-18377579D01*
X9773444Y-18377579D02*
X9782967Y-18358531D01*
X9782967Y-18358531D02*
X9792491Y-18349008D01*
X9792491Y-18349008D02*
X9811539Y-18339484D01*
X9963920Y-18539484D02*
X9963920Y-18406150D01*
X9963920Y-18425198D02*
X9973444Y-18415674D01*
X9973444Y-18415674D02*
X9992491Y-18406150D01*
X9992491Y-18406150D02*
X10021063Y-18406150D01*
X10021063Y-18406150D02*
X10040110Y-18415674D01*
X10040110Y-18415674D02*
X10049634Y-18434722D01*
X10049634Y-18434722D02*
X10049634Y-18539484D01*
X10049634Y-18434722D02*
X10059158Y-18415674D01*
X10059158Y-18415674D02*
X10078206Y-18406150D01*
X10078206Y-18406150D02*
X10106777Y-18406150D01*
X10106777Y-18406150D02*
X10125825Y-18415674D01*
X10125825Y-18415674D02*
X10135348Y-18434722D01*
X10135348Y-18434722D02*
X10135348Y-18539484D01*
X10230587Y-18539484D02*
X10230587Y-18406150D01*
X10230587Y-18425198D02*
X10240110Y-18415674D01*
X10240110Y-18415674D02*
X10259158Y-18406150D01*
X10259158Y-18406150D02*
X10287729Y-18406150D01*
X10287729Y-18406150D02*
X10306777Y-18415674D01*
X10306777Y-18415674D02*
X10316301Y-18434722D01*
X10316301Y-18434722D02*
X10316301Y-18539484D01*
X10316301Y-18434722D02*
X10325825Y-18415674D01*
X10325825Y-18415674D02*
X10344872Y-18406150D01*
X10344872Y-18406150D02*
X10373444Y-18406150D01*
X10373444Y-18406150D02*
X10392491Y-18415674D01*
X10392491Y-18415674D02*
X10402015Y-18434722D01*
X10402015Y-18434722D02*
X10402015Y-18539484D01*
X10792491Y-18329960D02*
X10621063Y-18587103D01*
X11049634Y-18339484D02*
X11068682Y-18339484D01*
X11068682Y-18339484D02*
X11087730Y-18349008D01*
X11087730Y-18349008D02*
X11097253Y-18358531D01*
X11097253Y-18358531D02*
X11106777Y-18377579D01*
X11106777Y-18377579D02*
X11116301Y-18415674D01*
X11116301Y-18415674D02*
X11116301Y-18463293D01*
X11116301Y-18463293D02*
X11106777Y-18501389D01*
X11106777Y-18501389D02*
X11097253Y-18520436D01*
X11097253Y-18520436D02*
X11087730Y-18529960D01*
X11087730Y-18529960D02*
X11068682Y-18539484D01*
X11068682Y-18539484D02*
X11049634Y-18539484D01*
X11049634Y-18539484D02*
X11030587Y-18529960D01*
X11030587Y-18529960D02*
X11021063Y-18520436D01*
X11021063Y-18520436D02*
X11011539Y-18501389D01*
X11011539Y-18501389D02*
X11002015Y-18463293D01*
X11002015Y-18463293D02*
X11002015Y-18415674D01*
X11002015Y-18415674D02*
X11011539Y-18377579D01*
X11011539Y-18377579D02*
X11021063Y-18358531D01*
X11021063Y-18358531D02*
X11030587Y-18349008D01*
X11030587Y-18349008D02*
X11049634Y-18339484D01*
X11202015Y-18520436D02*
X11211539Y-18529960D01*
X11211539Y-18529960D02*
X11202015Y-18539484D01*
X11202015Y-18539484D02*
X11192491Y-18529960D01*
X11192491Y-18529960D02*
X11202015Y-18520436D01*
X11202015Y-18520436D02*
X11202015Y-18539484D01*
X11335348Y-18339484D02*
X11354396Y-18339484D01*
X11354396Y-18339484D02*
X11373444Y-18349008D01*
X11373444Y-18349008D02*
X11382968Y-18358531D01*
X11382968Y-18358531D02*
X11392491Y-18377579D01*
X11392491Y-18377579D02*
X11402015Y-18415674D01*
X11402015Y-18415674D02*
X11402015Y-18463293D01*
X11402015Y-18463293D02*
X11392491Y-18501389D01*
X11392491Y-18501389D02*
X11382968Y-18520436D01*
X11382968Y-18520436D02*
X11373444Y-18529960D01*
X11373444Y-18529960D02*
X11354396Y-18539484D01*
X11354396Y-18539484D02*
X11335348Y-18539484D01*
X11335348Y-18539484D02*
X11316301Y-18529960D01*
X11316301Y-18529960D02*
X11306777Y-18520436D01*
X11306777Y-18520436D02*
X11297253Y-18501389D01*
X11297253Y-18501389D02*
X11287729Y-18463293D01*
X11287729Y-18463293D02*
X11287729Y-18415674D01*
X11287729Y-18415674D02*
X11297253Y-18377579D01*
X11297253Y-18377579D02*
X11306777Y-18358531D01*
X11306777Y-18358531D02*
X11316301Y-18349008D01*
X11316301Y-18349008D02*
X11335348Y-18339484D01*
X11468682Y-18339484D02*
X11602015Y-18339484D01*
X11602015Y-18339484D02*
X11516301Y-18539484D01*
X11687729Y-18539484D02*
X11725825Y-18539484D01*
X11725825Y-18539484D02*
X11744872Y-18529960D01*
X11744872Y-18529960D02*
X11754396Y-18520436D01*
X11754396Y-18520436D02*
X11773444Y-18491865D01*
X11773444Y-18491865D02*
X11782968Y-18453770D01*
X11782968Y-18453770D02*
X11782968Y-18377579D01*
X11782968Y-18377579D02*
X11773444Y-18358531D01*
X11773444Y-18358531D02*
X11763920Y-18349008D01*
X11763920Y-18349008D02*
X11744872Y-18339484D01*
X11744872Y-18339484D02*
X11706777Y-18339484D01*
X11706777Y-18339484D02*
X11687729Y-18349008D01*
X11687729Y-18349008D02*
X11678206Y-18358531D01*
X11678206Y-18358531D02*
X11668682Y-18377579D01*
X11668682Y-18377579D02*
X11668682Y-18425198D01*
X11668682Y-18425198D02*
X11678206Y-18444246D01*
X11678206Y-18444246D02*
X11687729Y-18453770D01*
X11687729Y-18453770D02*
X11706777Y-18463293D01*
X11706777Y-18463293D02*
X11744872Y-18463293D01*
X11744872Y-18463293D02*
X11763920Y-18453770D01*
X11763920Y-18453770D02*
X11773444Y-18444246D01*
X11773444Y-18444246D02*
X11782968Y-18425198D01*
X11878206Y-18539484D02*
X11916301Y-18539484D01*
X11916301Y-18539484D02*
X11935349Y-18529960D01*
X11935349Y-18529960D02*
X11944872Y-18520436D01*
X11944872Y-18520436D02*
X11963920Y-18491865D01*
X11963920Y-18491865D02*
X11973444Y-18453770D01*
X11973444Y-18453770D02*
X11973444Y-18377579D01*
X11973444Y-18377579D02*
X11963920Y-18358531D01*
X11963920Y-18358531D02*
X11954396Y-18349008D01*
X11954396Y-18349008D02*
X11935349Y-18339484D01*
X11935349Y-18339484D02*
X11897253Y-18339484D01*
X11897253Y-18339484D02*
X11878206Y-18349008D01*
X11878206Y-18349008D02*
X11868682Y-18358531D01*
X11868682Y-18358531D02*
X11859158Y-18377579D01*
X11859158Y-18377579D02*
X11859158Y-18425198D01*
X11859158Y-18425198D02*
X11868682Y-18444246D01*
X11868682Y-18444246D02*
X11878206Y-18453770D01*
X11878206Y-18453770D02*
X11897253Y-18463293D01*
X11897253Y-18463293D02*
X11935349Y-18463293D01*
X11935349Y-18463293D02*
X11954396Y-18453770D01*
X11954396Y-18453770D02*
X11963920Y-18444246D01*
X11963920Y-18444246D02*
X11973444Y-18425198D01*
X12049634Y-18339484D02*
X12049634Y-18377579D01*
X12125825Y-18339484D02*
X12125825Y-18377579D01*
X12421063Y-18615674D02*
X12411539Y-18606150D01*
X12411539Y-18606150D02*
X12392491Y-18577579D01*
X12392491Y-18577579D02*
X12382968Y-18558531D01*
X12382968Y-18558531D02*
X12373444Y-18529960D01*
X12373444Y-18529960D02*
X12363920Y-18482341D01*
X12363920Y-18482341D02*
X12363920Y-18444246D01*
X12363920Y-18444246D02*
X12373444Y-18396627D01*
X12373444Y-18396627D02*
X12382968Y-18368055D01*
X12382968Y-18368055D02*
X12392491Y-18349008D01*
X12392491Y-18349008D02*
X12411539Y-18320436D01*
X12411539Y-18320436D02*
X12421063Y-18310912D01*
X12582968Y-18406150D02*
X12582968Y-18539484D01*
X12535349Y-18329960D02*
X12487730Y-18472817D01*
X12487730Y-18472817D02*
X12611539Y-18472817D01*
X12840111Y-18539484D02*
X12840111Y-18339484D01*
X12925825Y-18539484D02*
X12925825Y-18434722D01*
X12925825Y-18434722D02*
X12916301Y-18415674D01*
X12916301Y-18415674D02*
X12897253Y-18406150D01*
X12897253Y-18406150D02*
X12868682Y-18406150D01*
X12868682Y-18406150D02*
X12849634Y-18415674D01*
X12849634Y-18415674D02*
X12840111Y-18425198D01*
X13049634Y-18539484D02*
X13030587Y-18529960D01*
X13030587Y-18529960D02*
X13021063Y-18520436D01*
X13021063Y-18520436D02*
X13011539Y-18501389D01*
X13011539Y-18501389D02*
X13011539Y-18444246D01*
X13011539Y-18444246D02*
X13021063Y-18425198D01*
X13021063Y-18425198D02*
X13030587Y-18415674D01*
X13030587Y-18415674D02*
X13049634Y-18406150D01*
X13049634Y-18406150D02*
X13078206Y-18406150D01*
X13078206Y-18406150D02*
X13097253Y-18415674D01*
X13097253Y-18415674D02*
X13106777Y-18425198D01*
X13106777Y-18425198D02*
X13116301Y-18444246D01*
X13116301Y-18444246D02*
X13116301Y-18501389D01*
X13116301Y-18501389D02*
X13106777Y-18520436D01*
X13106777Y-18520436D02*
X13097253Y-18529960D01*
X13097253Y-18529960D02*
X13078206Y-18539484D01*
X13078206Y-18539484D02*
X13049634Y-18539484D01*
X13230587Y-18539484D02*
X13211539Y-18529960D01*
X13211539Y-18529960D02*
X13202015Y-18510912D01*
X13202015Y-18510912D02*
X13202015Y-18339484D01*
X13382968Y-18529960D02*
X13363920Y-18539484D01*
X13363920Y-18539484D02*
X13325825Y-18539484D01*
X13325825Y-18539484D02*
X13306777Y-18529960D01*
X13306777Y-18529960D02*
X13297253Y-18510912D01*
X13297253Y-18510912D02*
X13297253Y-18434722D01*
X13297253Y-18434722D02*
X13306777Y-18415674D01*
X13306777Y-18415674D02*
X13325825Y-18406150D01*
X13325825Y-18406150D02*
X13363920Y-18406150D01*
X13363920Y-18406150D02*
X13382968Y-18415674D01*
X13382968Y-18415674D02*
X13392492Y-18434722D01*
X13392492Y-18434722D02*
X13392492Y-18453770D01*
X13392492Y-18453770D02*
X13297253Y-18472817D01*
X13468682Y-18529960D02*
X13487730Y-18539484D01*
X13487730Y-18539484D02*
X13525825Y-18539484D01*
X13525825Y-18539484D02*
X13544873Y-18529960D01*
X13544873Y-18529960D02*
X13554396Y-18510912D01*
X13554396Y-18510912D02*
X13554396Y-18501389D01*
X13554396Y-18501389D02*
X13544873Y-18482341D01*
X13544873Y-18482341D02*
X13525825Y-18472817D01*
X13525825Y-18472817D02*
X13497253Y-18472817D01*
X13497253Y-18472817D02*
X13478206Y-18463293D01*
X13478206Y-18463293D02*
X13468682Y-18444246D01*
X13468682Y-18444246D02*
X13468682Y-18434722D01*
X13468682Y-18434722D02*
X13478206Y-18415674D01*
X13478206Y-18415674D02*
X13497253Y-18406150D01*
X13497253Y-18406150D02*
X13525825Y-18406150D01*
X13525825Y-18406150D02*
X13544873Y-18415674D01*
X13621063Y-18615674D02*
X13630587Y-18606150D01*
X13630587Y-18606150D02*
X13649634Y-18577579D01*
X13649634Y-18577579D02*
X13659158Y-18558531D01*
X13659158Y-18558531D02*
X13668682Y-18529960D01*
X13668682Y-18529960D02*
X13678206Y-18482341D01*
X13678206Y-18482341D02*
X13678206Y-18444246D01*
X13678206Y-18444246D02*
X13668682Y-18396627D01*
X13668682Y-18396627D02*
X13659158Y-18368055D01*
X13659158Y-18368055D02*
X13649634Y-18349008D01*
X13649634Y-18349008D02*
X13630587Y-18320436D01*
X13630587Y-18320436D02*
X13621063Y-18310912D01*
M02*
