G04 #@! TF.GenerationSoftware,KiCad,Pcbnew,7.0.9*
G04 #@! TF.CreationDate,2024-04-30T19:43:12-02:30*
G04 #@! TF.ProjectId,power board 2024,706f7765-7220-4626-9f61-726420323032,rev?*
G04 #@! TF.SameCoordinates,Original*
G04 #@! TF.FileFunction,Soldermask,Bot*
G04 #@! TF.FilePolarity,Negative*
%FSLAX46Y46*%
G04 Gerber Fmt 4.6, Leading zero omitted, Abs format (unit mm)*
G04 Created by KiCad (PCBNEW 7.0.9) date 2024-04-30 19:43:12*
%MOMM*%
%LPD*%
G01*
G04 APERTURE LIST*
G04 Aperture macros list*
%AMRoundRect*
0 Rectangle with rounded corners*
0 $1 Rounding radius*
0 $2 $3 $4 $5 $6 $7 $8 $9 X,Y pos of 4 corners*
0 Add a 4 corners polygon primitive as box body*
4,1,4,$2,$3,$4,$5,$6,$7,$8,$9,$2,$3,0*
0 Add four circle primitives for the rounded corners*
1,1,$1+$1,$2,$3*
1,1,$1+$1,$4,$5*
1,1,$1+$1,$6,$7*
1,1,$1+$1,$8,$9*
0 Add four rect primitives between the rounded corners*
20,1,$1+$1,$2,$3,$4,$5,0*
20,1,$1+$1,$4,$5,$6,$7,0*
20,1,$1+$1,$6,$7,$8,$9,0*
20,1,$1+$1,$8,$9,$2,$3,0*%
G04 Aperture macros list end*
%ADD10C,3.200000*%
%ADD11C,1.800000*%
%ADD12C,1.300000*%
%ADD13RoundRect,0.102000X-0.915000X-0.915000X0.915000X-0.915000X0.915000X0.915000X-0.915000X0.915000X0*%
%ADD14C,2.034000*%
%ADD15C,2.864000*%
%ADD16R,2.100000X2.100000*%
%ADD17C,2.100000*%
%ADD18C,3.045000*%
%ADD19R,1.000000X1.000000*%
G04 APERTURE END LIST*
D10*
X133560000Y-40420000D03*
X133560000Y-47430000D03*
X138560000Y-40420000D03*
X138560000Y-47430000D03*
X155500000Y-40745000D03*
X155500000Y-47755000D03*
X160500000Y-40745000D03*
X160500000Y-47755000D03*
D11*
X142530000Y-125610000D03*
X145030000Y-125610000D03*
X147530000Y-125610000D03*
X150030000Y-125610000D03*
X142530000Y-122610000D03*
X145030000Y-122610000D03*
X147530000Y-122610000D03*
X150030000Y-122610000D03*
X142530000Y-120110000D03*
X145030000Y-120110000D03*
X147530000Y-120110000D03*
X150030000Y-120110000D03*
X142530000Y-117110000D03*
X145030000Y-117110000D03*
X147530000Y-117110000D03*
X150030000Y-117110000D03*
X142530000Y-114610000D03*
X145030000Y-114610000D03*
X147530000Y-114610000D03*
X150030000Y-114610000D03*
X142530000Y-111610000D03*
X145030000Y-111610000D03*
X147530000Y-111610000D03*
X150030000Y-111610000D03*
X142530000Y-109110000D03*
X145030000Y-109110000D03*
X147530000Y-109110000D03*
X150030000Y-109110000D03*
X142530000Y-106110000D03*
X145030000Y-106110000D03*
X147530000Y-106110000D03*
X150030000Y-106110000D03*
D12*
X143360000Y-100830000D03*
X145010000Y-100830000D03*
X146660000Y-100830000D03*
X148310000Y-100830000D03*
X149960000Y-100830000D03*
X143360000Y-98830000D03*
X145010000Y-98830000D03*
X146660000Y-98830000D03*
X148310000Y-98830000D03*
X149960000Y-98830000D03*
X143360000Y-96830000D03*
X145010000Y-96830000D03*
X146660000Y-96830000D03*
X148310000Y-96830000D03*
X149960000Y-96830000D03*
X143360000Y-94830000D03*
X145010000Y-94830000D03*
X146660000Y-94830000D03*
X148310000Y-94830000D03*
X149960000Y-94830000D03*
X143360000Y-92830000D03*
X145010000Y-92830000D03*
X146660000Y-92830000D03*
X148310000Y-92830000D03*
X149960000Y-92830000D03*
X143360000Y-90830000D03*
X145010000Y-90830000D03*
X146660000Y-90830000D03*
X148310000Y-90830000D03*
X149960000Y-90830000D03*
D11*
X142530000Y-85900000D03*
X145030000Y-85900000D03*
X147530000Y-85900000D03*
X150030000Y-85900000D03*
X142530000Y-82900000D03*
X145030000Y-82900000D03*
X147530000Y-82900000D03*
X150030000Y-82900000D03*
X142530000Y-80400000D03*
X145030000Y-80400000D03*
X147530000Y-80400000D03*
X150030000Y-80400000D03*
X142530000Y-77400000D03*
X145030000Y-77400000D03*
X147530000Y-77400000D03*
X150030000Y-77400000D03*
X142530000Y-74900000D03*
X145030000Y-74900000D03*
X147530000Y-74900000D03*
X150030000Y-74900000D03*
X142530000Y-71900000D03*
X145030000Y-71900000D03*
X147530000Y-71900000D03*
X150030000Y-71900000D03*
X142530000Y-69400000D03*
X145030000Y-69400000D03*
X147530000Y-69400000D03*
X150030000Y-69400000D03*
X142530000Y-66400000D03*
X145030000Y-66400000D03*
X147530000Y-66400000D03*
X150030000Y-66400000D03*
D13*
X120650000Y-75990000D03*
D14*
X120650000Y-68370000D03*
X120650000Y-60750000D03*
D15*
X171450000Y-60750000D03*
D14*
X171450000Y-64560000D03*
X171450000Y-68370000D03*
X171450000Y-72180000D03*
D15*
X171450000Y-75990000D03*
D16*
X122740000Y-128940000D03*
D17*
X122740000Y-121320000D03*
X122740000Y-113700000D03*
D18*
X173540000Y-113700000D03*
X173540000Y-128940000D03*
D16*
X122300000Y-102020000D03*
D17*
X122300000Y-94400000D03*
X122300000Y-86780000D03*
D18*
X173100000Y-86780000D03*
X173100000Y-102020000D03*
D19*
X182500000Y-112590000D03*
M02*
