G04 #@! TF.GenerationSoftware,KiCad,Pcbnew,7.0.9*
G04 #@! TF.CreationDate,2024-04-30T19:43:12-02:30*
G04 #@! TF.ProjectId,power board 2024,706f7765-7220-4626-9f61-726420323032,rev?*
G04 #@! TF.SameCoordinates,Original*
G04 #@! TF.FileFunction,Legend,Top*
G04 #@! TF.FilePolarity,Positive*
%FSLAX46Y46*%
G04 Gerber Fmt 4.6, Leading zero omitted, Abs format (unit mm)*
G04 Created by KiCad (PCBNEW 7.0.9) date 2024-04-30 19:43:12*
%MOMM*%
%LPD*%
G01*
G04 APERTURE LIST*
G04 Aperture macros list*
%AMRoundRect*
0 Rectangle with rounded corners*
0 $1 Rounding radius*
0 $2 $3 $4 $5 $6 $7 $8 $9 X,Y pos of 4 corners*
0 Add a 4 corners polygon primitive as box body*
4,1,4,$2,$3,$4,$5,$6,$7,$8,$9,$2,$3,0*
0 Add four circle primitives for the rounded corners*
1,1,$1+$1,$2,$3*
1,1,$1+$1,$4,$5*
1,1,$1+$1,$6,$7*
1,1,$1+$1,$8,$9*
0 Add four rect primitives between the rounded corners*
20,1,$1+$1,$2,$3,$4,$5,0*
20,1,$1+$1,$4,$5,$6,$7,0*
20,1,$1+$1,$6,$7,$8,$9,0*
20,1,$1+$1,$8,$9,$2,$3,0*%
G04 Aperture macros list end*
%ADD10C,0.450000*%
%ADD11C,0.300000*%
%ADD12C,0.150000*%
%ADD13C,0.101600*%
%ADD14C,0.254000*%
%ADD15C,0.120000*%
%ADD16C,0.200000*%
%ADD17C,0.400000*%
%ADD18C,0.152400*%
%ADD19C,0.127000*%
%ADD20C,0.250000*%
%ADD21C,0.010000*%
%ADD22RoundRect,0.237500X0.250000X0.237500X-0.250000X0.237500X-0.250000X-0.237500X0.250000X-0.237500X0*%
%ADD23RoundRect,0.237500X0.237500X-0.250000X0.237500X0.250000X-0.237500X0.250000X-0.237500X-0.250000X0*%
%ADD24RoundRect,0.101600X0.450000X-0.550000X0.450000X0.550000X-0.450000X0.550000X-0.450000X-0.550000X0*%
%ADD25RoundRect,0.237500X0.237500X-0.287500X0.237500X0.287500X-0.237500X0.287500X-0.237500X-0.287500X0*%
%ADD26R,1.371600X0.457200*%
%ADD27R,1.498600X3.403600*%
%ADD28RoundRect,0.237500X0.237500X-0.300000X0.237500X0.300000X-0.237500X0.300000X-0.237500X-0.300000X0*%
%ADD29RoundRect,0.102000X1.060000X0.750000X-1.060000X0.750000X-1.060000X-0.750000X1.060000X-0.750000X0*%
%ADD30RoundRect,0.250000X1.050000X0.550000X-1.050000X0.550000X-1.050000X-0.550000X1.050000X-0.550000X0*%
%ADD31R,1.000000X1.000000*%
%ADD32R,2.469157X0.622132*%
%ADD33C,3.200000*%
%ADD34RoundRect,0.237500X-0.287500X-0.237500X0.287500X-0.237500X0.287500X0.237500X-0.287500X0.237500X0*%
%ADD35RoundRect,0.237500X-0.250000X-0.237500X0.250000X-0.237500X0.250000X0.237500X-0.250000X0.237500X0*%
%ADD36RoundRect,0.237500X-0.300000X-0.237500X0.300000X-0.237500X0.300000X0.237500X-0.300000X0.237500X0*%
%ADD37RoundRect,0.237500X-0.237500X0.250000X-0.237500X-0.250000X0.237500X-0.250000X0.237500X0.250000X0*%
%ADD38R,0.850000X0.300000*%
%ADD39R,1.600000X1.600000*%
%ADD40R,1.803400X3.606800*%
%ADD41R,1.000000X0.599999*%
%ADD42RoundRect,0.250000X-0.475000X0.337500X-0.475000X-0.337500X0.475000X-0.337500X0.475000X0.337500X0*%
%ADD43RoundRect,0.237500X-0.237500X0.300000X-0.237500X-0.300000X0.237500X-0.300000X0.237500X0.300000X0*%
%ADD44R,2.800000X0.900000*%
%ADD45R,2.000000X1.500000*%
%ADD46R,2.000000X3.800000*%
%ADD47R,1.150000X0.600000*%
%ADD48C,1.800000*%
%ADD49C,1.300000*%
%ADD50RoundRect,0.237500X-0.237500X0.287500X-0.237500X-0.287500X0.237500X-0.287500X0.237500X0.287500X0*%
%ADD51RoundRect,0.102000X-0.915000X-0.915000X0.915000X-0.915000X0.915000X0.915000X-0.915000X0.915000X0*%
%ADD52C,2.034000*%
%ADD53C,2.864000*%
%ADD54R,2.100000X2.100000*%
%ADD55C,2.100000*%
%ADD56C,3.045000*%
G04 APERTURE END LIST*
D10*
X145980337Y-138429457D02*
X145980337Y-135429457D01*
X145980337Y-135429457D02*
X147123194Y-135429457D01*
X147123194Y-135429457D02*
X147408909Y-135572314D01*
X147408909Y-135572314D02*
X147551766Y-135715171D01*
X147551766Y-135715171D02*
X147694623Y-136000885D01*
X147694623Y-136000885D02*
X147694623Y-136429457D01*
X147694623Y-136429457D02*
X147551766Y-136715171D01*
X147551766Y-136715171D02*
X147408909Y-136858028D01*
X147408909Y-136858028D02*
X147123194Y-137000885D01*
X147123194Y-137000885D02*
X145980337Y-137000885D01*
X149408909Y-138429457D02*
X149123194Y-138286600D01*
X149123194Y-138286600D02*
X148980337Y-138143742D01*
X148980337Y-138143742D02*
X148837480Y-137858028D01*
X148837480Y-137858028D02*
X148837480Y-137000885D01*
X148837480Y-137000885D02*
X148980337Y-136715171D01*
X148980337Y-136715171D02*
X149123194Y-136572314D01*
X149123194Y-136572314D02*
X149408909Y-136429457D01*
X149408909Y-136429457D02*
X149837480Y-136429457D01*
X149837480Y-136429457D02*
X150123194Y-136572314D01*
X150123194Y-136572314D02*
X150266052Y-136715171D01*
X150266052Y-136715171D02*
X150408909Y-137000885D01*
X150408909Y-137000885D02*
X150408909Y-137858028D01*
X150408909Y-137858028D02*
X150266052Y-138143742D01*
X150266052Y-138143742D02*
X150123194Y-138286600D01*
X150123194Y-138286600D02*
X149837480Y-138429457D01*
X149837480Y-138429457D02*
X149408909Y-138429457D01*
X151408909Y-136429457D02*
X151980338Y-138429457D01*
X151980338Y-138429457D02*
X152551766Y-137000885D01*
X152551766Y-137000885D02*
X153123195Y-138429457D01*
X153123195Y-138429457D02*
X153694623Y-136429457D01*
X155980337Y-138286600D02*
X155694623Y-138429457D01*
X155694623Y-138429457D02*
X155123195Y-138429457D01*
X155123195Y-138429457D02*
X154837480Y-138286600D01*
X154837480Y-138286600D02*
X154694623Y-138000885D01*
X154694623Y-138000885D02*
X154694623Y-136858028D01*
X154694623Y-136858028D02*
X154837480Y-136572314D01*
X154837480Y-136572314D02*
X155123195Y-136429457D01*
X155123195Y-136429457D02*
X155694623Y-136429457D01*
X155694623Y-136429457D02*
X155980337Y-136572314D01*
X155980337Y-136572314D02*
X156123195Y-136858028D01*
X156123195Y-136858028D02*
X156123195Y-137143742D01*
X156123195Y-137143742D02*
X154694623Y-137429457D01*
X157408909Y-138429457D02*
X157408909Y-136429457D01*
X157408909Y-137000885D02*
X157551766Y-136715171D01*
X157551766Y-136715171D02*
X157694624Y-136572314D01*
X157694624Y-136572314D02*
X157980338Y-136429457D01*
X157980338Y-136429457D02*
X158266052Y-136429457D01*
X162551766Y-136858028D02*
X162980338Y-137000885D01*
X162980338Y-137000885D02*
X163123195Y-137143742D01*
X163123195Y-137143742D02*
X163266052Y-137429457D01*
X163266052Y-137429457D02*
X163266052Y-137858028D01*
X163266052Y-137858028D02*
X163123195Y-138143742D01*
X163123195Y-138143742D02*
X162980338Y-138286600D01*
X162980338Y-138286600D02*
X162694623Y-138429457D01*
X162694623Y-138429457D02*
X161551766Y-138429457D01*
X161551766Y-138429457D02*
X161551766Y-135429457D01*
X161551766Y-135429457D02*
X162551766Y-135429457D01*
X162551766Y-135429457D02*
X162837481Y-135572314D01*
X162837481Y-135572314D02*
X162980338Y-135715171D01*
X162980338Y-135715171D02*
X163123195Y-136000885D01*
X163123195Y-136000885D02*
X163123195Y-136286600D01*
X163123195Y-136286600D02*
X162980338Y-136572314D01*
X162980338Y-136572314D02*
X162837481Y-136715171D01*
X162837481Y-136715171D02*
X162551766Y-136858028D01*
X162551766Y-136858028D02*
X161551766Y-136858028D01*
X164980338Y-138429457D02*
X164694623Y-138286600D01*
X164694623Y-138286600D02*
X164551766Y-138143742D01*
X164551766Y-138143742D02*
X164408909Y-137858028D01*
X164408909Y-137858028D02*
X164408909Y-137000885D01*
X164408909Y-137000885D02*
X164551766Y-136715171D01*
X164551766Y-136715171D02*
X164694623Y-136572314D01*
X164694623Y-136572314D02*
X164980338Y-136429457D01*
X164980338Y-136429457D02*
X165408909Y-136429457D01*
X165408909Y-136429457D02*
X165694623Y-136572314D01*
X165694623Y-136572314D02*
X165837481Y-136715171D01*
X165837481Y-136715171D02*
X165980338Y-137000885D01*
X165980338Y-137000885D02*
X165980338Y-137858028D01*
X165980338Y-137858028D02*
X165837481Y-138143742D01*
X165837481Y-138143742D02*
X165694623Y-138286600D01*
X165694623Y-138286600D02*
X165408909Y-138429457D01*
X165408909Y-138429457D02*
X164980338Y-138429457D01*
X168551767Y-138429457D02*
X168551767Y-136858028D01*
X168551767Y-136858028D02*
X168408909Y-136572314D01*
X168408909Y-136572314D02*
X168123195Y-136429457D01*
X168123195Y-136429457D02*
X167551767Y-136429457D01*
X167551767Y-136429457D02*
X167266052Y-136572314D01*
X168551767Y-138286600D02*
X168266052Y-138429457D01*
X168266052Y-138429457D02*
X167551767Y-138429457D01*
X167551767Y-138429457D02*
X167266052Y-138286600D01*
X167266052Y-138286600D02*
X167123195Y-138000885D01*
X167123195Y-138000885D02*
X167123195Y-137715171D01*
X167123195Y-137715171D02*
X167266052Y-137429457D01*
X167266052Y-137429457D02*
X167551767Y-137286600D01*
X167551767Y-137286600D02*
X168266052Y-137286600D01*
X168266052Y-137286600D02*
X168551767Y-137143742D01*
X169980338Y-138429457D02*
X169980338Y-136429457D01*
X169980338Y-137000885D02*
X170123195Y-136715171D01*
X170123195Y-136715171D02*
X170266053Y-136572314D01*
X170266053Y-136572314D02*
X170551767Y-136429457D01*
X170551767Y-136429457D02*
X170837481Y-136429457D01*
X173123196Y-138429457D02*
X173123196Y-135429457D01*
X173123196Y-138286600D02*
X172837481Y-138429457D01*
X172837481Y-138429457D02*
X172266053Y-138429457D01*
X172266053Y-138429457D02*
X171980338Y-138286600D01*
X171980338Y-138286600D02*
X171837481Y-138143742D01*
X171837481Y-138143742D02*
X171694624Y-137858028D01*
X171694624Y-137858028D02*
X171694624Y-137000885D01*
X171694624Y-137000885D02*
X171837481Y-136715171D01*
X171837481Y-136715171D02*
X171980338Y-136572314D01*
X171980338Y-136572314D02*
X172266053Y-136429457D01*
X172266053Y-136429457D02*
X172837481Y-136429457D01*
X172837481Y-136429457D02*
X173123196Y-136572314D01*
X178551767Y-138429457D02*
X177551767Y-137000885D01*
X176837481Y-138429457D02*
X176837481Y-135429457D01*
X176837481Y-135429457D02*
X177980338Y-135429457D01*
X177980338Y-135429457D02*
X178266053Y-135572314D01*
X178266053Y-135572314D02*
X178408910Y-135715171D01*
X178408910Y-135715171D02*
X178551767Y-136000885D01*
X178551767Y-136000885D02*
X178551767Y-136429457D01*
X178551767Y-136429457D02*
X178408910Y-136715171D01*
X178408910Y-136715171D02*
X178266053Y-136858028D01*
X178266053Y-136858028D02*
X177980338Y-137000885D01*
X177980338Y-137000885D02*
X176837481Y-137000885D01*
X180980338Y-138286600D02*
X180694624Y-138429457D01*
X180694624Y-138429457D02*
X180123196Y-138429457D01*
X180123196Y-138429457D02*
X179837481Y-138286600D01*
X179837481Y-138286600D02*
X179694624Y-138000885D01*
X179694624Y-138000885D02*
X179694624Y-136858028D01*
X179694624Y-136858028D02*
X179837481Y-136572314D01*
X179837481Y-136572314D02*
X180123196Y-136429457D01*
X180123196Y-136429457D02*
X180694624Y-136429457D01*
X180694624Y-136429457D02*
X180980338Y-136572314D01*
X180980338Y-136572314D02*
X181123196Y-136858028D01*
X181123196Y-136858028D02*
X181123196Y-137143742D01*
X181123196Y-137143742D02*
X179694624Y-137429457D01*
X182123196Y-136429457D02*
X182837482Y-138429457D01*
X182837482Y-138429457D02*
X183551767Y-136429457D01*
X186266053Y-138429457D02*
X184551767Y-138429457D01*
X185408910Y-138429457D02*
X185408910Y-135429457D01*
X185408910Y-135429457D02*
X185123196Y-135858028D01*
X185123196Y-135858028D02*
X184837481Y-136143742D01*
X184837481Y-136143742D02*
X184551767Y-136286600D01*
D11*
X170868796Y-142585828D02*
X170154510Y-142585828D01*
X170154510Y-142585828D02*
X170154510Y-141085828D01*
X171583082Y-142585828D02*
X171440225Y-142514400D01*
X171440225Y-142514400D02*
X171368796Y-142442971D01*
X171368796Y-142442971D02*
X171297368Y-142300114D01*
X171297368Y-142300114D02*
X171297368Y-141871542D01*
X171297368Y-141871542D02*
X171368796Y-141728685D01*
X171368796Y-141728685D02*
X171440225Y-141657257D01*
X171440225Y-141657257D02*
X171583082Y-141585828D01*
X171583082Y-141585828D02*
X171797368Y-141585828D01*
X171797368Y-141585828D02*
X171940225Y-141657257D01*
X171940225Y-141657257D02*
X172011654Y-141728685D01*
X172011654Y-141728685D02*
X172083082Y-141871542D01*
X172083082Y-141871542D02*
X172083082Y-142300114D01*
X172083082Y-142300114D02*
X172011654Y-142442971D01*
X172011654Y-142442971D02*
X171940225Y-142514400D01*
X171940225Y-142514400D02*
X171797368Y-142585828D01*
X171797368Y-142585828D02*
X171583082Y-142585828D01*
X173368797Y-141585828D02*
X173368797Y-142800114D01*
X173368797Y-142800114D02*
X173297368Y-142942971D01*
X173297368Y-142942971D02*
X173225939Y-143014400D01*
X173225939Y-143014400D02*
X173083082Y-143085828D01*
X173083082Y-143085828D02*
X172868797Y-143085828D01*
X172868797Y-143085828D02*
X172725939Y-143014400D01*
X173368797Y-142514400D02*
X173225939Y-142585828D01*
X173225939Y-142585828D02*
X172940225Y-142585828D01*
X172940225Y-142585828D02*
X172797368Y-142514400D01*
X172797368Y-142514400D02*
X172725939Y-142442971D01*
X172725939Y-142442971D02*
X172654511Y-142300114D01*
X172654511Y-142300114D02*
X172654511Y-141871542D01*
X172654511Y-141871542D02*
X172725939Y-141728685D01*
X172725939Y-141728685D02*
X172797368Y-141657257D01*
X172797368Y-141657257D02*
X172940225Y-141585828D01*
X172940225Y-141585828D02*
X173225939Y-141585828D01*
X173225939Y-141585828D02*
X173368797Y-141657257D01*
X174725940Y-142585828D02*
X174725940Y-141800114D01*
X174725940Y-141800114D02*
X174654511Y-141657257D01*
X174654511Y-141657257D02*
X174511654Y-141585828D01*
X174511654Y-141585828D02*
X174225940Y-141585828D01*
X174225940Y-141585828D02*
X174083082Y-141657257D01*
X174725940Y-142514400D02*
X174583082Y-142585828D01*
X174583082Y-142585828D02*
X174225940Y-142585828D01*
X174225940Y-142585828D02*
X174083082Y-142514400D01*
X174083082Y-142514400D02*
X174011654Y-142371542D01*
X174011654Y-142371542D02*
X174011654Y-142228685D01*
X174011654Y-142228685D02*
X174083082Y-142085828D01*
X174083082Y-142085828D02*
X174225940Y-142014400D01*
X174225940Y-142014400D02*
X174583082Y-142014400D01*
X174583082Y-142014400D02*
X174725940Y-141942971D01*
X175440225Y-141585828D02*
X175440225Y-142585828D01*
X175440225Y-141728685D02*
X175511654Y-141657257D01*
X175511654Y-141657257D02*
X175654511Y-141585828D01*
X175654511Y-141585828D02*
X175868797Y-141585828D01*
X175868797Y-141585828D02*
X176011654Y-141657257D01*
X176011654Y-141657257D02*
X176083083Y-141800114D01*
X176083083Y-141800114D02*
X176083083Y-142585828D01*
X177868797Y-142514400D02*
X178083083Y-142585828D01*
X178083083Y-142585828D02*
X178440225Y-142585828D01*
X178440225Y-142585828D02*
X178583083Y-142514400D01*
X178583083Y-142514400D02*
X178654511Y-142442971D01*
X178654511Y-142442971D02*
X178725940Y-142300114D01*
X178725940Y-142300114D02*
X178725940Y-142157257D01*
X178725940Y-142157257D02*
X178654511Y-142014400D01*
X178654511Y-142014400D02*
X178583083Y-141942971D01*
X178583083Y-141942971D02*
X178440225Y-141871542D01*
X178440225Y-141871542D02*
X178154511Y-141800114D01*
X178154511Y-141800114D02*
X178011654Y-141728685D01*
X178011654Y-141728685D02*
X177940225Y-141657257D01*
X177940225Y-141657257D02*
X177868797Y-141514400D01*
X177868797Y-141514400D02*
X177868797Y-141371542D01*
X177868797Y-141371542D02*
X177940225Y-141228685D01*
X177940225Y-141228685D02*
X178011654Y-141157257D01*
X178011654Y-141157257D02*
X178154511Y-141085828D01*
X178154511Y-141085828D02*
X178511654Y-141085828D01*
X178511654Y-141085828D02*
X178725940Y-141157257D01*
X179368796Y-142585828D02*
X179368796Y-141585828D01*
X179368796Y-141728685D02*
X179440225Y-141657257D01*
X179440225Y-141657257D02*
X179583082Y-141585828D01*
X179583082Y-141585828D02*
X179797368Y-141585828D01*
X179797368Y-141585828D02*
X179940225Y-141657257D01*
X179940225Y-141657257D02*
X180011654Y-141800114D01*
X180011654Y-141800114D02*
X180011654Y-142585828D01*
X180011654Y-141800114D02*
X180083082Y-141657257D01*
X180083082Y-141657257D02*
X180225939Y-141585828D01*
X180225939Y-141585828D02*
X180440225Y-141585828D01*
X180440225Y-141585828D02*
X180583082Y-141657257D01*
X180583082Y-141657257D02*
X180654511Y-141800114D01*
X180654511Y-141800114D02*
X180654511Y-142585828D01*
X181368796Y-142585828D02*
X181368796Y-141585828D01*
X181368796Y-141085828D02*
X181297368Y-141157257D01*
X181297368Y-141157257D02*
X181368796Y-141228685D01*
X181368796Y-141228685D02*
X181440225Y-141157257D01*
X181440225Y-141157257D02*
X181368796Y-141085828D01*
X181368796Y-141085828D02*
X181368796Y-141228685D01*
X181868797Y-141585828D02*
X182440225Y-141585828D01*
X182083082Y-141085828D02*
X182083082Y-142371542D01*
X182083082Y-142371542D02*
X182154511Y-142514400D01*
X182154511Y-142514400D02*
X182297368Y-142585828D01*
X182297368Y-142585828D02*
X182440225Y-142585828D01*
X182940225Y-142585828D02*
X182940225Y-141085828D01*
X183583083Y-142585828D02*
X183583083Y-141800114D01*
X183583083Y-141800114D02*
X183511654Y-141657257D01*
X183511654Y-141657257D02*
X183368797Y-141585828D01*
X183368797Y-141585828D02*
X183154511Y-141585828D01*
X183154511Y-141585828D02*
X183011654Y-141657257D01*
X183011654Y-141657257D02*
X182940225Y-141728685D01*
X170083082Y-143643685D02*
X170154510Y-143572257D01*
X170154510Y-143572257D02*
X170297368Y-143500828D01*
X170297368Y-143500828D02*
X170654510Y-143500828D01*
X170654510Y-143500828D02*
X170797368Y-143572257D01*
X170797368Y-143572257D02*
X170868796Y-143643685D01*
X170868796Y-143643685D02*
X170940225Y-143786542D01*
X170940225Y-143786542D02*
X170940225Y-143929400D01*
X170940225Y-143929400D02*
X170868796Y-144143685D01*
X170868796Y-144143685D02*
X170011653Y-145000828D01*
X170011653Y-145000828D02*
X170940225Y-145000828D01*
X171868796Y-143500828D02*
X172011653Y-143500828D01*
X172011653Y-143500828D02*
X172154510Y-143572257D01*
X172154510Y-143572257D02*
X172225939Y-143643685D01*
X172225939Y-143643685D02*
X172297367Y-143786542D01*
X172297367Y-143786542D02*
X172368796Y-144072257D01*
X172368796Y-144072257D02*
X172368796Y-144429400D01*
X172368796Y-144429400D02*
X172297367Y-144715114D01*
X172297367Y-144715114D02*
X172225939Y-144857971D01*
X172225939Y-144857971D02*
X172154510Y-144929400D01*
X172154510Y-144929400D02*
X172011653Y-145000828D01*
X172011653Y-145000828D02*
X171868796Y-145000828D01*
X171868796Y-145000828D02*
X171725939Y-144929400D01*
X171725939Y-144929400D02*
X171654510Y-144857971D01*
X171654510Y-144857971D02*
X171583081Y-144715114D01*
X171583081Y-144715114D02*
X171511653Y-144429400D01*
X171511653Y-144429400D02*
X171511653Y-144072257D01*
X171511653Y-144072257D02*
X171583081Y-143786542D01*
X171583081Y-143786542D02*
X171654510Y-143643685D01*
X171654510Y-143643685D02*
X171725939Y-143572257D01*
X171725939Y-143572257D02*
X171868796Y-143500828D01*
X172940224Y-143643685D02*
X173011652Y-143572257D01*
X173011652Y-143572257D02*
X173154510Y-143500828D01*
X173154510Y-143500828D02*
X173511652Y-143500828D01*
X173511652Y-143500828D02*
X173654510Y-143572257D01*
X173654510Y-143572257D02*
X173725938Y-143643685D01*
X173725938Y-143643685D02*
X173797367Y-143786542D01*
X173797367Y-143786542D02*
X173797367Y-143929400D01*
X173797367Y-143929400D02*
X173725938Y-144143685D01*
X173725938Y-144143685D02*
X172868795Y-145000828D01*
X172868795Y-145000828D02*
X173797367Y-145000828D01*
X175083081Y-144000828D02*
X175083081Y-145000828D01*
X174725938Y-143429400D02*
X174368795Y-144500828D01*
X174368795Y-144500828D02*
X175297366Y-144500828D01*
D12*
X124963333Y-111304819D02*
X124630000Y-110828628D01*
X124391905Y-111304819D02*
X124391905Y-110304819D01*
X124391905Y-110304819D02*
X124772857Y-110304819D01*
X124772857Y-110304819D02*
X124868095Y-110352438D01*
X124868095Y-110352438D02*
X124915714Y-110400057D01*
X124915714Y-110400057D02*
X124963333Y-110495295D01*
X124963333Y-110495295D02*
X124963333Y-110638152D01*
X124963333Y-110638152D02*
X124915714Y-110733390D01*
X124915714Y-110733390D02*
X124868095Y-110781009D01*
X124868095Y-110781009D02*
X124772857Y-110828628D01*
X124772857Y-110828628D02*
X124391905Y-110828628D01*
X125296667Y-110304819D02*
X125915714Y-110304819D01*
X125915714Y-110304819D02*
X125582381Y-110685771D01*
X125582381Y-110685771D02*
X125725238Y-110685771D01*
X125725238Y-110685771D02*
X125820476Y-110733390D01*
X125820476Y-110733390D02*
X125868095Y-110781009D01*
X125868095Y-110781009D02*
X125915714Y-110876247D01*
X125915714Y-110876247D02*
X125915714Y-111114342D01*
X125915714Y-111114342D02*
X125868095Y-111209580D01*
X125868095Y-111209580D02*
X125820476Y-111257200D01*
X125820476Y-111257200D02*
X125725238Y-111304819D01*
X125725238Y-111304819D02*
X125439524Y-111304819D01*
X125439524Y-111304819D02*
X125344286Y-111257200D01*
X125344286Y-111257200D02*
X125296667Y-111209580D01*
X139279818Y-153850356D02*
X138803627Y-154183689D01*
X139279818Y-154421784D02*
X138279818Y-154421784D01*
X138279818Y-154421784D02*
X138279818Y-154040832D01*
X138279818Y-154040832D02*
X138327437Y-153945594D01*
X138327437Y-153945594D02*
X138375056Y-153897975D01*
X138375056Y-153897975D02*
X138470294Y-153850356D01*
X138470294Y-153850356D02*
X138613151Y-153850356D01*
X138613151Y-153850356D02*
X138708389Y-153897975D01*
X138708389Y-153897975D02*
X138756008Y-153945594D01*
X138756008Y-153945594D02*
X138803627Y-154040832D01*
X138803627Y-154040832D02*
X138803627Y-154421784D01*
X138375056Y-153469403D02*
X138327437Y-153421784D01*
X138327437Y-153421784D02*
X138279818Y-153326546D01*
X138279818Y-153326546D02*
X138279818Y-153088451D01*
X138279818Y-153088451D02*
X138327437Y-152993213D01*
X138327437Y-152993213D02*
X138375056Y-152945594D01*
X138375056Y-152945594D02*
X138470294Y-152897975D01*
X138470294Y-152897975D02*
X138565532Y-152897975D01*
X138565532Y-152897975D02*
X138708389Y-152945594D01*
X138708389Y-152945594D02*
X139279818Y-153517022D01*
X139279818Y-153517022D02*
X139279818Y-152897975D01*
X139279818Y-151945594D02*
X139279818Y-152517022D01*
X139279818Y-152231308D02*
X138279818Y-152231308D01*
X138279818Y-152231308D02*
X138422675Y-152326546D01*
X138422675Y-152326546D02*
X138517913Y-152421784D01*
X138517913Y-152421784D02*
X138565532Y-152517022D01*
D13*
X128443326Y-109770209D02*
X129389173Y-109770209D01*
X129389173Y-109770209D02*
X129500449Y-109714571D01*
X129500449Y-109714571D02*
X129556088Y-109658933D01*
X129556088Y-109658933D02*
X129611726Y-109547657D01*
X129611726Y-109547657D02*
X129611726Y-109325104D01*
X129611726Y-109325104D02*
X129556088Y-109213828D01*
X129556088Y-109213828D02*
X129500449Y-109158190D01*
X129500449Y-109158190D02*
X129389173Y-109102552D01*
X129389173Y-109102552D02*
X128443326Y-109102552D01*
X129611726Y-107934152D02*
X129611726Y-108601809D01*
X129611726Y-108267981D02*
X128443326Y-108267981D01*
X128443326Y-108267981D02*
X128610240Y-108379257D01*
X128610240Y-108379257D02*
X128721516Y-108490533D01*
X128721516Y-108490533D02*
X128777154Y-108601809D01*
D12*
X119774819Y-65712857D02*
X119298628Y-66046190D01*
X119774819Y-66284285D02*
X118774819Y-66284285D01*
X118774819Y-66284285D02*
X118774819Y-65903333D01*
X118774819Y-65903333D02*
X118822438Y-65808095D01*
X118822438Y-65808095D02*
X118870057Y-65760476D01*
X118870057Y-65760476D02*
X118965295Y-65712857D01*
X118965295Y-65712857D02*
X119108152Y-65712857D01*
X119108152Y-65712857D02*
X119203390Y-65760476D01*
X119203390Y-65760476D02*
X119251009Y-65808095D01*
X119251009Y-65808095D02*
X119298628Y-65903333D01*
X119298628Y-65903333D02*
X119298628Y-66284285D01*
X119774819Y-64760476D02*
X119774819Y-65331904D01*
X119774819Y-65046190D02*
X118774819Y-65046190D01*
X118774819Y-65046190D02*
X118917676Y-65141428D01*
X118917676Y-65141428D02*
X119012914Y-65236666D01*
X119012914Y-65236666D02*
X119060533Y-65331904D01*
X118774819Y-63903333D02*
X118774819Y-64093809D01*
X118774819Y-64093809D02*
X118822438Y-64189047D01*
X118822438Y-64189047D02*
X118870057Y-64236666D01*
X118870057Y-64236666D02*
X119012914Y-64331904D01*
X119012914Y-64331904D02*
X119203390Y-64379523D01*
X119203390Y-64379523D02*
X119584342Y-64379523D01*
X119584342Y-64379523D02*
X119679580Y-64331904D01*
X119679580Y-64331904D02*
X119727200Y-64284285D01*
X119727200Y-64284285D02*
X119774819Y-64189047D01*
X119774819Y-64189047D02*
X119774819Y-63998571D01*
X119774819Y-63998571D02*
X119727200Y-63903333D01*
X119727200Y-63903333D02*
X119679580Y-63855714D01*
X119679580Y-63855714D02*
X119584342Y-63808095D01*
X119584342Y-63808095D02*
X119346247Y-63808095D01*
X119346247Y-63808095D02*
X119251009Y-63855714D01*
X119251009Y-63855714D02*
X119203390Y-63903333D01*
X119203390Y-63903333D02*
X119155771Y-63998571D01*
X119155771Y-63998571D02*
X119155771Y-64189047D01*
X119155771Y-64189047D02*
X119203390Y-64284285D01*
X119203390Y-64284285D02*
X119251009Y-64331904D01*
X119251009Y-64331904D02*
X119346247Y-64379523D01*
X119674819Y-71891666D02*
X119198628Y-72224999D01*
X119674819Y-72463094D02*
X118674819Y-72463094D01*
X118674819Y-72463094D02*
X118674819Y-72082142D01*
X118674819Y-72082142D02*
X118722438Y-71986904D01*
X118722438Y-71986904D02*
X118770057Y-71939285D01*
X118770057Y-71939285D02*
X118865295Y-71891666D01*
X118865295Y-71891666D02*
X119008152Y-71891666D01*
X119008152Y-71891666D02*
X119103390Y-71939285D01*
X119103390Y-71939285D02*
X119151009Y-71986904D01*
X119151009Y-71986904D02*
X119198628Y-72082142D01*
X119198628Y-72082142D02*
X119198628Y-72463094D01*
X118674819Y-71558332D02*
X118674819Y-70891666D01*
X118674819Y-70891666D02*
X119674819Y-71320237D01*
X129794819Y-150548094D02*
X128794819Y-150548094D01*
X128794819Y-150548094D02*
X128794819Y-150309999D01*
X128794819Y-150309999D02*
X128842438Y-150167142D01*
X128842438Y-150167142D02*
X128937676Y-150071904D01*
X128937676Y-150071904D02*
X129032914Y-150024285D01*
X129032914Y-150024285D02*
X129223390Y-149976666D01*
X129223390Y-149976666D02*
X129366247Y-149976666D01*
X129366247Y-149976666D02*
X129556723Y-150024285D01*
X129556723Y-150024285D02*
X129651961Y-150071904D01*
X129651961Y-150071904D02*
X129747200Y-150167142D01*
X129747200Y-150167142D02*
X129794819Y-150309999D01*
X129794819Y-150309999D02*
X129794819Y-150548094D01*
X128794819Y-149643332D02*
X128794819Y-148976666D01*
X128794819Y-148976666D02*
X129794819Y-149405237D01*
X183211905Y-72804819D02*
X183211905Y-73614342D01*
X183211905Y-73614342D02*
X183259524Y-73709580D01*
X183259524Y-73709580D02*
X183307143Y-73757200D01*
X183307143Y-73757200D02*
X183402381Y-73804819D01*
X183402381Y-73804819D02*
X183592857Y-73804819D01*
X183592857Y-73804819D02*
X183688095Y-73757200D01*
X183688095Y-73757200D02*
X183735714Y-73709580D01*
X183735714Y-73709580D02*
X183783333Y-73614342D01*
X183783333Y-73614342D02*
X183783333Y-72804819D01*
X184783333Y-73804819D02*
X184211905Y-73804819D01*
X184497619Y-73804819D02*
X184497619Y-72804819D01*
X184497619Y-72804819D02*
X184402381Y-72947676D01*
X184402381Y-72947676D02*
X184307143Y-73042914D01*
X184307143Y-73042914D02*
X184211905Y-73090533D01*
X185640476Y-72804819D02*
X185450000Y-72804819D01*
X185450000Y-72804819D02*
X185354762Y-72852438D01*
X185354762Y-72852438D02*
X185307143Y-72900057D01*
X185307143Y-72900057D02*
X185211905Y-73042914D01*
X185211905Y-73042914D02*
X185164286Y-73233390D01*
X185164286Y-73233390D02*
X185164286Y-73614342D01*
X185164286Y-73614342D02*
X185211905Y-73709580D01*
X185211905Y-73709580D02*
X185259524Y-73757200D01*
X185259524Y-73757200D02*
X185354762Y-73804819D01*
X185354762Y-73804819D02*
X185545238Y-73804819D01*
X185545238Y-73804819D02*
X185640476Y-73757200D01*
X185640476Y-73757200D02*
X185688095Y-73709580D01*
X185688095Y-73709580D02*
X185735714Y-73614342D01*
X185735714Y-73614342D02*
X185735714Y-73376247D01*
X185735714Y-73376247D02*
X185688095Y-73281009D01*
X185688095Y-73281009D02*
X185640476Y-73233390D01*
X185640476Y-73233390D02*
X185545238Y-73185771D01*
X185545238Y-73185771D02*
X185354762Y-73185771D01*
X185354762Y-73185771D02*
X185259524Y-73233390D01*
X185259524Y-73233390D02*
X185211905Y-73281009D01*
X185211905Y-73281009D02*
X185164286Y-73376247D01*
X181998900Y-70712219D02*
X181998900Y-70950314D01*
X181760805Y-70855076D02*
X181998900Y-70950314D01*
X181998900Y-70950314D02*
X182236995Y-70855076D01*
X181856043Y-71140790D02*
X181998900Y-70950314D01*
X181998900Y-70950314D02*
X182141757Y-71140790D01*
X181998900Y-70712219D02*
X181998900Y-70950314D01*
X181760805Y-70855076D02*
X181998900Y-70950314D01*
X181998900Y-70950314D02*
X182236995Y-70855076D01*
X181856043Y-71140790D02*
X181998900Y-70950314D01*
X181998900Y-70950314D02*
X182141757Y-71140790D01*
X163569580Y-68586666D02*
X163617200Y-68634285D01*
X163617200Y-68634285D02*
X163664819Y-68777142D01*
X163664819Y-68777142D02*
X163664819Y-68872380D01*
X163664819Y-68872380D02*
X163617200Y-69015237D01*
X163617200Y-69015237D02*
X163521961Y-69110475D01*
X163521961Y-69110475D02*
X163426723Y-69158094D01*
X163426723Y-69158094D02*
X163236247Y-69205713D01*
X163236247Y-69205713D02*
X163093390Y-69205713D01*
X163093390Y-69205713D02*
X162902914Y-69158094D01*
X162902914Y-69158094D02*
X162807676Y-69110475D01*
X162807676Y-69110475D02*
X162712438Y-69015237D01*
X162712438Y-69015237D02*
X162664819Y-68872380D01*
X162664819Y-68872380D02*
X162664819Y-68777142D01*
X162664819Y-68777142D02*
X162712438Y-68634285D01*
X162712438Y-68634285D02*
X162760057Y-68586666D01*
X162998152Y-67729523D02*
X163664819Y-67729523D01*
X162617200Y-67967618D02*
X163331485Y-68205713D01*
X163331485Y-68205713D02*
X163331485Y-67586666D01*
X171099580Y-121976666D02*
X171147200Y-122024285D01*
X171147200Y-122024285D02*
X171194819Y-122167142D01*
X171194819Y-122167142D02*
X171194819Y-122262380D01*
X171194819Y-122262380D02*
X171147200Y-122405237D01*
X171147200Y-122405237D02*
X171051961Y-122500475D01*
X171051961Y-122500475D02*
X170956723Y-122548094D01*
X170956723Y-122548094D02*
X170766247Y-122595713D01*
X170766247Y-122595713D02*
X170623390Y-122595713D01*
X170623390Y-122595713D02*
X170432914Y-122548094D01*
X170432914Y-122548094D02*
X170337676Y-122500475D01*
X170337676Y-122500475D02*
X170242438Y-122405237D01*
X170242438Y-122405237D02*
X170194819Y-122262380D01*
X170194819Y-122262380D02*
X170194819Y-122167142D01*
X170194819Y-122167142D02*
X170242438Y-122024285D01*
X170242438Y-122024285D02*
X170290057Y-121976666D01*
X170290057Y-121595713D02*
X170242438Y-121548094D01*
X170242438Y-121548094D02*
X170194819Y-121452856D01*
X170194819Y-121452856D02*
X170194819Y-121214761D01*
X170194819Y-121214761D02*
X170242438Y-121119523D01*
X170242438Y-121119523D02*
X170290057Y-121071904D01*
X170290057Y-121071904D02*
X170385295Y-121024285D01*
X170385295Y-121024285D02*
X170480533Y-121024285D01*
X170480533Y-121024285D02*
X170623390Y-121071904D01*
X170623390Y-121071904D02*
X171194819Y-121643332D01*
X171194819Y-121643332D02*
X171194819Y-121024285D01*
X143439524Y-47042295D02*
X143439524Y-46242295D01*
X143439524Y-46242295D02*
X143630000Y-46242295D01*
X143630000Y-46242295D02*
X143744286Y-46280390D01*
X143744286Y-46280390D02*
X143820476Y-46356580D01*
X143820476Y-46356580D02*
X143858571Y-46432771D01*
X143858571Y-46432771D02*
X143896667Y-46585152D01*
X143896667Y-46585152D02*
X143896667Y-46699438D01*
X143896667Y-46699438D02*
X143858571Y-46851819D01*
X143858571Y-46851819D02*
X143820476Y-46928009D01*
X143820476Y-46928009D02*
X143744286Y-47004200D01*
X143744286Y-47004200D02*
X143630000Y-47042295D01*
X143630000Y-47042295D02*
X143439524Y-47042295D01*
X144658571Y-47042295D02*
X144201428Y-47042295D01*
X144430000Y-47042295D02*
X144430000Y-46242295D01*
X144430000Y-46242295D02*
X144353809Y-46356580D01*
X144353809Y-46356580D02*
X144277619Y-46432771D01*
X144277619Y-46432771D02*
X144201428Y-46470866D01*
X175597142Y-56699580D02*
X175549523Y-56747200D01*
X175549523Y-56747200D02*
X175406666Y-56794819D01*
X175406666Y-56794819D02*
X175311428Y-56794819D01*
X175311428Y-56794819D02*
X175168571Y-56747200D01*
X175168571Y-56747200D02*
X175073333Y-56651961D01*
X175073333Y-56651961D02*
X175025714Y-56556723D01*
X175025714Y-56556723D02*
X174978095Y-56366247D01*
X174978095Y-56366247D02*
X174978095Y-56223390D01*
X174978095Y-56223390D02*
X175025714Y-56032914D01*
X175025714Y-56032914D02*
X175073333Y-55937676D01*
X175073333Y-55937676D02*
X175168571Y-55842438D01*
X175168571Y-55842438D02*
X175311428Y-55794819D01*
X175311428Y-55794819D02*
X175406666Y-55794819D01*
X175406666Y-55794819D02*
X175549523Y-55842438D01*
X175549523Y-55842438D02*
X175597142Y-55890057D01*
X176549523Y-56794819D02*
X175978095Y-56794819D01*
X176263809Y-56794819D02*
X176263809Y-55794819D01*
X176263809Y-55794819D02*
X176168571Y-55937676D01*
X176168571Y-55937676D02*
X176073333Y-56032914D01*
X176073333Y-56032914D02*
X175978095Y-56080533D01*
X177501904Y-56794819D02*
X176930476Y-56794819D01*
X177216190Y-56794819D02*
X177216190Y-55794819D01*
X177216190Y-55794819D02*
X177120952Y-55937676D01*
X177120952Y-55937676D02*
X177025714Y-56032914D01*
X177025714Y-56032914D02*
X176930476Y-56080533D01*
X114301905Y-100026819D02*
X114873333Y-100026819D01*
X114587619Y-101026819D02*
X114587619Y-100026819D01*
X115206667Y-101026819D02*
X115206667Y-100026819D01*
X115206667Y-100026819D02*
X115587619Y-100026819D01*
X115587619Y-100026819D02*
X115682857Y-100074438D01*
X115682857Y-100074438D02*
X115730476Y-100122057D01*
X115730476Y-100122057D02*
X115778095Y-100217295D01*
X115778095Y-100217295D02*
X115778095Y-100360152D01*
X115778095Y-100360152D02*
X115730476Y-100455390D01*
X115730476Y-100455390D02*
X115682857Y-100503009D01*
X115682857Y-100503009D02*
X115587619Y-100550628D01*
X115587619Y-100550628D02*
X115206667Y-100550628D01*
X116730476Y-101026819D02*
X116159048Y-101026819D01*
X116444762Y-101026819D02*
X116444762Y-100026819D01*
X116444762Y-100026819D02*
X116349524Y-100169676D01*
X116349524Y-100169676D02*
X116254286Y-100264914D01*
X116254286Y-100264914D02*
X116159048Y-100312533D01*
X117063810Y-100026819D02*
X117682857Y-100026819D01*
X117682857Y-100026819D02*
X117349524Y-100407771D01*
X117349524Y-100407771D02*
X117492381Y-100407771D01*
X117492381Y-100407771D02*
X117587619Y-100455390D01*
X117587619Y-100455390D02*
X117635238Y-100503009D01*
X117635238Y-100503009D02*
X117682857Y-100598247D01*
X117682857Y-100598247D02*
X117682857Y-100836342D01*
X117682857Y-100836342D02*
X117635238Y-100931580D01*
X117635238Y-100931580D02*
X117587619Y-100979200D01*
X117587619Y-100979200D02*
X117492381Y-101026819D01*
X117492381Y-101026819D02*
X117206667Y-101026819D01*
X117206667Y-101026819D02*
X117111429Y-100979200D01*
X117111429Y-100979200D02*
X117063810Y-100931580D01*
X139508095Y-143844819D02*
X139508095Y-144654342D01*
X139508095Y-144654342D02*
X139555714Y-144749580D01*
X139555714Y-144749580D02*
X139603333Y-144797200D01*
X139603333Y-144797200D02*
X139698571Y-144844819D01*
X139698571Y-144844819D02*
X139889047Y-144844819D01*
X139889047Y-144844819D02*
X139984285Y-144797200D01*
X139984285Y-144797200D02*
X140031904Y-144749580D01*
X140031904Y-144749580D02*
X140079523Y-144654342D01*
X140079523Y-144654342D02*
X140079523Y-143844819D01*
X140460476Y-143844819D02*
X141079523Y-143844819D01*
X141079523Y-143844819D02*
X140746190Y-144225771D01*
X140746190Y-144225771D02*
X140889047Y-144225771D01*
X140889047Y-144225771D02*
X140984285Y-144273390D01*
X140984285Y-144273390D02*
X141031904Y-144321009D01*
X141031904Y-144321009D02*
X141079523Y-144416247D01*
X141079523Y-144416247D02*
X141079523Y-144654342D01*
X141079523Y-144654342D02*
X141031904Y-144749580D01*
X141031904Y-144749580D02*
X140984285Y-144797200D01*
X140984285Y-144797200D02*
X140889047Y-144844819D01*
X140889047Y-144844819D02*
X140603333Y-144844819D01*
X140603333Y-144844819D02*
X140508095Y-144797200D01*
X140508095Y-144797200D02*
X140460476Y-144749580D01*
X136763333Y-140664819D02*
X136763333Y-139664819D01*
X136763333Y-139664819D02*
X137001428Y-139664819D01*
X137001428Y-139664819D02*
X137144285Y-139712438D01*
X137144285Y-139712438D02*
X137239523Y-139807676D01*
X137239523Y-139807676D02*
X137287142Y-139902914D01*
X137287142Y-139902914D02*
X137334761Y-140093390D01*
X137334761Y-140093390D02*
X137334761Y-140236247D01*
X137334761Y-140236247D02*
X137287142Y-140426723D01*
X137287142Y-140426723D02*
X137239523Y-140521961D01*
X137239523Y-140521961D02*
X137144285Y-140617200D01*
X137144285Y-140617200D02*
X137001428Y-140664819D01*
X137001428Y-140664819D02*
X136763333Y-140664819D01*
X138144285Y-140617200D02*
X138049047Y-140664819D01*
X138049047Y-140664819D02*
X137858571Y-140664819D01*
X137858571Y-140664819D02*
X137763333Y-140617200D01*
X137763333Y-140617200D02*
X137715714Y-140521961D01*
X137715714Y-140521961D02*
X137715714Y-140141009D01*
X137715714Y-140141009D02*
X137763333Y-140045771D01*
X137763333Y-140045771D02*
X137858571Y-139998152D01*
X137858571Y-139998152D02*
X138049047Y-139998152D01*
X138049047Y-139998152D02*
X138144285Y-140045771D01*
X138144285Y-140045771D02*
X138191904Y-140141009D01*
X138191904Y-140141009D02*
X138191904Y-140236247D01*
X138191904Y-140236247D02*
X137715714Y-140331485D01*
X138572857Y-140617200D02*
X138668095Y-140664819D01*
X138668095Y-140664819D02*
X138858571Y-140664819D01*
X138858571Y-140664819D02*
X138953809Y-140617200D01*
X138953809Y-140617200D02*
X139001428Y-140521961D01*
X139001428Y-140521961D02*
X139001428Y-140474342D01*
X139001428Y-140474342D02*
X138953809Y-140379104D01*
X138953809Y-140379104D02*
X138858571Y-140331485D01*
X138858571Y-140331485D02*
X138715714Y-140331485D01*
X138715714Y-140331485D02*
X138620476Y-140283866D01*
X138620476Y-140283866D02*
X138572857Y-140188628D01*
X138572857Y-140188628D02*
X138572857Y-140141009D01*
X138572857Y-140141009D02*
X138620476Y-140045771D01*
X138620476Y-140045771D02*
X138715714Y-139998152D01*
X138715714Y-139998152D02*
X138858571Y-139998152D01*
X138858571Y-139998152D02*
X138953809Y-140045771D01*
X139430000Y-140664819D02*
X139430000Y-139998152D01*
X139430000Y-139664819D02*
X139382381Y-139712438D01*
X139382381Y-139712438D02*
X139430000Y-139760057D01*
X139430000Y-139760057D02*
X139477619Y-139712438D01*
X139477619Y-139712438D02*
X139430000Y-139664819D01*
X139430000Y-139664819D02*
X139430000Y-139760057D01*
X140334761Y-139998152D02*
X140334761Y-140807676D01*
X140334761Y-140807676D02*
X140287142Y-140902914D01*
X140287142Y-140902914D02*
X140239523Y-140950533D01*
X140239523Y-140950533D02*
X140144285Y-140998152D01*
X140144285Y-140998152D02*
X140001428Y-140998152D01*
X140001428Y-140998152D02*
X139906190Y-140950533D01*
X140334761Y-140617200D02*
X140239523Y-140664819D01*
X140239523Y-140664819D02*
X140049047Y-140664819D01*
X140049047Y-140664819D02*
X139953809Y-140617200D01*
X139953809Y-140617200D02*
X139906190Y-140569580D01*
X139906190Y-140569580D02*
X139858571Y-140474342D01*
X139858571Y-140474342D02*
X139858571Y-140188628D01*
X139858571Y-140188628D02*
X139906190Y-140093390D01*
X139906190Y-140093390D02*
X139953809Y-140045771D01*
X139953809Y-140045771D02*
X140049047Y-139998152D01*
X140049047Y-139998152D02*
X140239523Y-139998152D01*
X140239523Y-139998152D02*
X140334761Y-140045771D01*
X140810952Y-139998152D02*
X140810952Y-140664819D01*
X140810952Y-140093390D02*
X140858571Y-140045771D01*
X140858571Y-140045771D02*
X140953809Y-139998152D01*
X140953809Y-139998152D02*
X141096666Y-139998152D01*
X141096666Y-139998152D02*
X141191904Y-140045771D01*
X141191904Y-140045771D02*
X141239523Y-140141009D01*
X141239523Y-140141009D02*
X141239523Y-140664819D01*
X142144285Y-140664819D02*
X142144285Y-140141009D01*
X142144285Y-140141009D02*
X142096666Y-140045771D01*
X142096666Y-140045771D02*
X142001428Y-139998152D01*
X142001428Y-139998152D02*
X141810952Y-139998152D01*
X141810952Y-139998152D02*
X141715714Y-140045771D01*
X142144285Y-140617200D02*
X142049047Y-140664819D01*
X142049047Y-140664819D02*
X141810952Y-140664819D01*
X141810952Y-140664819D02*
X141715714Y-140617200D01*
X141715714Y-140617200D02*
X141668095Y-140521961D01*
X141668095Y-140521961D02*
X141668095Y-140426723D01*
X141668095Y-140426723D02*
X141715714Y-140331485D01*
X141715714Y-140331485D02*
X141810952Y-140283866D01*
X141810952Y-140283866D02*
X142049047Y-140283866D01*
X142049047Y-140283866D02*
X142144285Y-140236247D01*
X142477619Y-139998152D02*
X142858571Y-139998152D01*
X142620476Y-139664819D02*
X142620476Y-140521961D01*
X142620476Y-140521961D02*
X142668095Y-140617200D01*
X142668095Y-140617200D02*
X142763333Y-140664819D01*
X142763333Y-140664819D02*
X142858571Y-140664819D01*
X143334762Y-140664819D02*
X143239524Y-140617200D01*
X143239524Y-140617200D02*
X143191905Y-140569580D01*
X143191905Y-140569580D02*
X143144286Y-140474342D01*
X143144286Y-140474342D02*
X143144286Y-140188628D01*
X143144286Y-140188628D02*
X143191905Y-140093390D01*
X143191905Y-140093390D02*
X143239524Y-140045771D01*
X143239524Y-140045771D02*
X143334762Y-139998152D01*
X143334762Y-139998152D02*
X143477619Y-139998152D01*
X143477619Y-139998152D02*
X143572857Y-140045771D01*
X143572857Y-140045771D02*
X143620476Y-140093390D01*
X143620476Y-140093390D02*
X143668095Y-140188628D01*
X143668095Y-140188628D02*
X143668095Y-140474342D01*
X143668095Y-140474342D02*
X143620476Y-140569580D01*
X143620476Y-140569580D02*
X143572857Y-140617200D01*
X143572857Y-140617200D02*
X143477619Y-140664819D01*
X143477619Y-140664819D02*
X143334762Y-140664819D01*
X144096667Y-140664819D02*
X144096667Y-139998152D01*
X144096667Y-140188628D02*
X144144286Y-140093390D01*
X144144286Y-140093390D02*
X144191905Y-140045771D01*
X144191905Y-140045771D02*
X144287143Y-139998152D01*
X144287143Y-139998152D02*
X144382381Y-139998152D01*
X144620477Y-139664819D02*
X145239524Y-139664819D01*
X145239524Y-139664819D02*
X144906191Y-140045771D01*
X144906191Y-140045771D02*
X145049048Y-140045771D01*
X145049048Y-140045771D02*
X145144286Y-140093390D01*
X145144286Y-140093390D02*
X145191905Y-140141009D01*
X145191905Y-140141009D02*
X145239524Y-140236247D01*
X145239524Y-140236247D02*
X145239524Y-140474342D01*
X145239524Y-140474342D02*
X145191905Y-140569580D01*
X145191905Y-140569580D02*
X145144286Y-140617200D01*
X145144286Y-140617200D02*
X145049048Y-140664819D01*
X145049048Y-140664819D02*
X144763334Y-140664819D01*
X144763334Y-140664819D02*
X144668096Y-140617200D01*
X144668096Y-140617200D02*
X144620477Y-140569580D01*
X145858572Y-139664819D02*
X145953810Y-139664819D01*
X145953810Y-139664819D02*
X146049048Y-139712438D01*
X146049048Y-139712438D02*
X146096667Y-139760057D01*
X146096667Y-139760057D02*
X146144286Y-139855295D01*
X146144286Y-139855295D02*
X146191905Y-140045771D01*
X146191905Y-140045771D02*
X146191905Y-140283866D01*
X146191905Y-140283866D02*
X146144286Y-140474342D01*
X146144286Y-140474342D02*
X146096667Y-140569580D01*
X146096667Y-140569580D02*
X146049048Y-140617200D01*
X146049048Y-140617200D02*
X145953810Y-140664819D01*
X145953810Y-140664819D02*
X145858572Y-140664819D01*
X145858572Y-140664819D02*
X145763334Y-140617200D01*
X145763334Y-140617200D02*
X145715715Y-140569580D01*
X145715715Y-140569580D02*
X145668096Y-140474342D01*
X145668096Y-140474342D02*
X145620477Y-140283866D01*
X145620477Y-140283866D02*
X145620477Y-140045771D01*
X145620477Y-140045771D02*
X145668096Y-139855295D01*
X145668096Y-139855295D02*
X145715715Y-139760057D01*
X145715715Y-139760057D02*
X145763334Y-139712438D01*
X145763334Y-139712438D02*
X145858572Y-139664819D01*
X146525239Y-139664819D02*
X147144286Y-139664819D01*
X147144286Y-139664819D02*
X146810953Y-140045771D01*
X146810953Y-140045771D02*
X146953810Y-140045771D01*
X146953810Y-140045771D02*
X147049048Y-140093390D01*
X147049048Y-140093390D02*
X147096667Y-140141009D01*
X147096667Y-140141009D02*
X147144286Y-140236247D01*
X147144286Y-140236247D02*
X147144286Y-140474342D01*
X147144286Y-140474342D02*
X147096667Y-140569580D01*
X147096667Y-140569580D02*
X147049048Y-140617200D01*
X147049048Y-140617200D02*
X146953810Y-140664819D01*
X146953810Y-140664819D02*
X146668096Y-140664819D01*
X146668096Y-140664819D02*
X146572858Y-140617200D01*
X146572858Y-140617200D02*
X146525239Y-140569580D01*
X135726666Y-43379819D02*
X135726666Y-44094104D01*
X135726666Y-44094104D02*
X135679047Y-44236961D01*
X135679047Y-44236961D02*
X135583809Y-44332200D01*
X135583809Y-44332200D02*
X135440952Y-44379819D01*
X135440952Y-44379819D02*
X135345714Y-44379819D01*
X136107619Y-43379819D02*
X136726666Y-43379819D01*
X136726666Y-43379819D02*
X136393333Y-43760771D01*
X136393333Y-43760771D02*
X136536190Y-43760771D01*
X136536190Y-43760771D02*
X136631428Y-43808390D01*
X136631428Y-43808390D02*
X136679047Y-43856009D01*
X136679047Y-43856009D02*
X136726666Y-43951247D01*
X136726666Y-43951247D02*
X136726666Y-44189342D01*
X136726666Y-44189342D02*
X136679047Y-44284580D01*
X136679047Y-44284580D02*
X136631428Y-44332200D01*
X136631428Y-44332200D02*
X136536190Y-44379819D01*
X136536190Y-44379819D02*
X136250476Y-44379819D01*
X136250476Y-44379819D02*
X136155238Y-44332200D01*
X136155238Y-44332200D02*
X136107619Y-44284580D01*
X172321905Y-79814819D02*
X172321905Y-78814819D01*
X172321905Y-78814819D02*
X172560000Y-78814819D01*
X172560000Y-78814819D02*
X172702857Y-78862438D01*
X172702857Y-78862438D02*
X172798095Y-78957676D01*
X172798095Y-78957676D02*
X172845714Y-79052914D01*
X172845714Y-79052914D02*
X172893333Y-79243390D01*
X172893333Y-79243390D02*
X172893333Y-79386247D01*
X172893333Y-79386247D02*
X172845714Y-79576723D01*
X172845714Y-79576723D02*
X172798095Y-79671961D01*
X172798095Y-79671961D02*
X172702857Y-79767200D01*
X172702857Y-79767200D02*
X172560000Y-79814819D01*
X172560000Y-79814819D02*
X172321905Y-79814819D01*
X173750476Y-79148152D02*
X173750476Y-79814819D01*
X173512381Y-78767200D02*
X173274286Y-79481485D01*
X173274286Y-79481485D02*
X173893333Y-79481485D01*
X170735833Y-125044819D02*
X170402500Y-124568628D01*
X170164405Y-125044819D02*
X170164405Y-124044819D01*
X170164405Y-124044819D02*
X170545357Y-124044819D01*
X170545357Y-124044819D02*
X170640595Y-124092438D01*
X170640595Y-124092438D02*
X170688214Y-124140057D01*
X170688214Y-124140057D02*
X170735833Y-124235295D01*
X170735833Y-124235295D02*
X170735833Y-124378152D01*
X170735833Y-124378152D02*
X170688214Y-124473390D01*
X170688214Y-124473390D02*
X170640595Y-124521009D01*
X170640595Y-124521009D02*
X170545357Y-124568628D01*
X170545357Y-124568628D02*
X170164405Y-124568628D01*
X171640595Y-124044819D02*
X171164405Y-124044819D01*
X171164405Y-124044819D02*
X171116786Y-124521009D01*
X171116786Y-124521009D02*
X171164405Y-124473390D01*
X171164405Y-124473390D02*
X171259643Y-124425771D01*
X171259643Y-124425771D02*
X171497738Y-124425771D01*
X171497738Y-124425771D02*
X171592976Y-124473390D01*
X171592976Y-124473390D02*
X171640595Y-124521009D01*
X171640595Y-124521009D02*
X171688214Y-124616247D01*
X171688214Y-124616247D02*
X171688214Y-124854342D01*
X171688214Y-124854342D02*
X171640595Y-124949580D01*
X171640595Y-124949580D02*
X171592976Y-124997200D01*
X171592976Y-124997200D02*
X171497738Y-125044819D01*
X171497738Y-125044819D02*
X171259643Y-125044819D01*
X171259643Y-125044819D02*
X171164405Y-124997200D01*
X171164405Y-124997200D02*
X171116786Y-124949580D01*
X179821905Y-111566819D02*
X180393333Y-111566819D01*
X180107619Y-112566819D02*
X180107619Y-111566819D01*
X180726667Y-112566819D02*
X180726667Y-111566819D01*
X180726667Y-111566819D02*
X181107619Y-111566819D01*
X181107619Y-111566819D02*
X181202857Y-111614438D01*
X181202857Y-111614438D02*
X181250476Y-111662057D01*
X181250476Y-111662057D02*
X181298095Y-111757295D01*
X181298095Y-111757295D02*
X181298095Y-111900152D01*
X181298095Y-111900152D02*
X181250476Y-111995390D01*
X181250476Y-111995390D02*
X181202857Y-112043009D01*
X181202857Y-112043009D02*
X181107619Y-112090628D01*
X181107619Y-112090628D02*
X180726667Y-112090628D01*
X181679048Y-111662057D02*
X181726667Y-111614438D01*
X181726667Y-111614438D02*
X181821905Y-111566819D01*
X181821905Y-111566819D02*
X182060000Y-111566819D01*
X182060000Y-111566819D02*
X182155238Y-111614438D01*
X182155238Y-111614438D02*
X182202857Y-111662057D01*
X182202857Y-111662057D02*
X182250476Y-111757295D01*
X182250476Y-111757295D02*
X182250476Y-111852533D01*
X182250476Y-111852533D02*
X182202857Y-111995390D01*
X182202857Y-111995390D02*
X181631429Y-112566819D01*
X181631429Y-112566819D02*
X182250476Y-112566819D01*
X182583810Y-111566819D02*
X183250476Y-111566819D01*
X183250476Y-111566819D02*
X182821905Y-112566819D01*
X161336905Y-56656819D02*
X161908333Y-56656819D01*
X161622619Y-57656819D02*
X161622619Y-56656819D01*
X162241667Y-57656819D02*
X162241667Y-56656819D01*
X162241667Y-56656819D02*
X162622619Y-56656819D01*
X162622619Y-56656819D02*
X162717857Y-56704438D01*
X162717857Y-56704438D02*
X162765476Y-56752057D01*
X162765476Y-56752057D02*
X162813095Y-56847295D01*
X162813095Y-56847295D02*
X162813095Y-56990152D01*
X162813095Y-56990152D02*
X162765476Y-57085390D01*
X162765476Y-57085390D02*
X162717857Y-57133009D01*
X162717857Y-57133009D02*
X162622619Y-57180628D01*
X162622619Y-57180628D02*
X162241667Y-57180628D01*
X163194048Y-56752057D02*
X163241667Y-56704438D01*
X163241667Y-56704438D02*
X163336905Y-56656819D01*
X163336905Y-56656819D02*
X163575000Y-56656819D01*
X163575000Y-56656819D02*
X163670238Y-56704438D01*
X163670238Y-56704438D02*
X163717857Y-56752057D01*
X163717857Y-56752057D02*
X163765476Y-56847295D01*
X163765476Y-56847295D02*
X163765476Y-56942533D01*
X163765476Y-56942533D02*
X163717857Y-57085390D01*
X163717857Y-57085390D02*
X163146429Y-57656819D01*
X163146429Y-57656819D02*
X163765476Y-57656819D01*
X164622619Y-56990152D02*
X164622619Y-57656819D01*
X164384524Y-56609200D02*
X164146429Y-57323485D01*
X164146429Y-57323485D02*
X164765476Y-57323485D01*
X129559580Y-140842857D02*
X129607200Y-140890476D01*
X129607200Y-140890476D02*
X129654819Y-141033333D01*
X129654819Y-141033333D02*
X129654819Y-141128571D01*
X129654819Y-141128571D02*
X129607200Y-141271428D01*
X129607200Y-141271428D02*
X129511961Y-141366666D01*
X129511961Y-141366666D02*
X129416723Y-141414285D01*
X129416723Y-141414285D02*
X129226247Y-141461904D01*
X129226247Y-141461904D02*
X129083390Y-141461904D01*
X129083390Y-141461904D02*
X128892914Y-141414285D01*
X128892914Y-141414285D02*
X128797676Y-141366666D01*
X128797676Y-141366666D02*
X128702438Y-141271428D01*
X128702438Y-141271428D02*
X128654819Y-141128571D01*
X128654819Y-141128571D02*
X128654819Y-141033333D01*
X128654819Y-141033333D02*
X128702438Y-140890476D01*
X128702438Y-140890476D02*
X128750057Y-140842857D01*
X129654819Y-139890476D02*
X129654819Y-140461904D01*
X129654819Y-140176190D02*
X128654819Y-140176190D01*
X128654819Y-140176190D02*
X128797676Y-140271428D01*
X128797676Y-140271428D02*
X128892914Y-140366666D01*
X128892914Y-140366666D02*
X128940533Y-140461904D01*
X128654819Y-139557142D02*
X128654819Y-138890476D01*
X128654819Y-138890476D02*
X129654819Y-139319047D01*
X157666666Y-43704819D02*
X157666666Y-44419104D01*
X157666666Y-44419104D02*
X157619047Y-44561961D01*
X157619047Y-44561961D02*
X157523809Y-44657200D01*
X157523809Y-44657200D02*
X157380952Y-44704819D01*
X157380952Y-44704819D02*
X157285714Y-44704819D01*
X158095238Y-43800057D02*
X158142857Y-43752438D01*
X158142857Y-43752438D02*
X158238095Y-43704819D01*
X158238095Y-43704819D02*
X158476190Y-43704819D01*
X158476190Y-43704819D02*
X158571428Y-43752438D01*
X158571428Y-43752438D02*
X158619047Y-43800057D01*
X158619047Y-43800057D02*
X158666666Y-43895295D01*
X158666666Y-43895295D02*
X158666666Y-43990533D01*
X158666666Y-43990533D02*
X158619047Y-44133390D01*
X158619047Y-44133390D02*
X158047619Y-44704819D01*
X158047619Y-44704819D02*
X158666666Y-44704819D01*
X112771905Y-76166819D02*
X113343333Y-76166819D01*
X113057619Y-77166819D02*
X113057619Y-76166819D01*
X113676667Y-77166819D02*
X113676667Y-76166819D01*
X113676667Y-76166819D02*
X114057619Y-76166819D01*
X114057619Y-76166819D02*
X114152857Y-76214438D01*
X114152857Y-76214438D02*
X114200476Y-76262057D01*
X114200476Y-76262057D02*
X114248095Y-76357295D01*
X114248095Y-76357295D02*
X114248095Y-76500152D01*
X114248095Y-76500152D02*
X114200476Y-76595390D01*
X114200476Y-76595390D02*
X114152857Y-76643009D01*
X114152857Y-76643009D02*
X114057619Y-76690628D01*
X114057619Y-76690628D02*
X113676667Y-76690628D01*
X115200476Y-77166819D02*
X114629048Y-77166819D01*
X114914762Y-77166819D02*
X114914762Y-76166819D01*
X114914762Y-76166819D02*
X114819524Y-76309676D01*
X114819524Y-76309676D02*
X114724286Y-76404914D01*
X114724286Y-76404914D02*
X114629048Y-76452533D01*
X116057619Y-76500152D02*
X116057619Y-77166819D01*
X115819524Y-76119200D02*
X115581429Y-76833485D01*
X115581429Y-76833485D02*
X116200476Y-76833485D01*
X145477142Y-40419580D02*
X145429523Y-40467200D01*
X145429523Y-40467200D02*
X145286666Y-40514819D01*
X145286666Y-40514819D02*
X145191428Y-40514819D01*
X145191428Y-40514819D02*
X145048571Y-40467200D01*
X145048571Y-40467200D02*
X144953333Y-40371961D01*
X144953333Y-40371961D02*
X144905714Y-40276723D01*
X144905714Y-40276723D02*
X144858095Y-40086247D01*
X144858095Y-40086247D02*
X144858095Y-39943390D01*
X144858095Y-39943390D02*
X144905714Y-39752914D01*
X144905714Y-39752914D02*
X144953333Y-39657676D01*
X144953333Y-39657676D02*
X145048571Y-39562438D01*
X145048571Y-39562438D02*
X145191428Y-39514819D01*
X145191428Y-39514819D02*
X145286666Y-39514819D01*
X145286666Y-39514819D02*
X145429523Y-39562438D01*
X145429523Y-39562438D02*
X145477142Y-39610057D01*
X146429523Y-40514819D02*
X145858095Y-40514819D01*
X146143809Y-40514819D02*
X146143809Y-39514819D01*
X146143809Y-39514819D02*
X146048571Y-39657676D01*
X146048571Y-39657676D02*
X145953333Y-39752914D01*
X145953333Y-39752914D02*
X145858095Y-39800533D01*
X147000952Y-39943390D02*
X146905714Y-39895771D01*
X146905714Y-39895771D02*
X146858095Y-39848152D01*
X146858095Y-39848152D02*
X146810476Y-39752914D01*
X146810476Y-39752914D02*
X146810476Y-39705295D01*
X146810476Y-39705295D02*
X146858095Y-39610057D01*
X146858095Y-39610057D02*
X146905714Y-39562438D01*
X146905714Y-39562438D02*
X147000952Y-39514819D01*
X147000952Y-39514819D02*
X147191428Y-39514819D01*
X147191428Y-39514819D02*
X147286666Y-39562438D01*
X147286666Y-39562438D02*
X147334285Y-39610057D01*
X147334285Y-39610057D02*
X147381904Y-39705295D01*
X147381904Y-39705295D02*
X147381904Y-39752914D01*
X147381904Y-39752914D02*
X147334285Y-39848152D01*
X147334285Y-39848152D02*
X147286666Y-39895771D01*
X147286666Y-39895771D02*
X147191428Y-39943390D01*
X147191428Y-39943390D02*
X147000952Y-39943390D01*
X147000952Y-39943390D02*
X146905714Y-39991009D01*
X146905714Y-39991009D02*
X146858095Y-40038628D01*
X146858095Y-40038628D02*
X146810476Y-40133866D01*
X146810476Y-40133866D02*
X146810476Y-40324342D01*
X146810476Y-40324342D02*
X146858095Y-40419580D01*
X146858095Y-40419580D02*
X146905714Y-40467200D01*
X146905714Y-40467200D02*
X147000952Y-40514819D01*
X147000952Y-40514819D02*
X147191428Y-40514819D01*
X147191428Y-40514819D02*
X147286666Y-40467200D01*
X147286666Y-40467200D02*
X147334285Y-40419580D01*
X147334285Y-40419580D02*
X147381904Y-40324342D01*
X147381904Y-40324342D02*
X147381904Y-40133866D01*
X147381904Y-40133866D02*
X147334285Y-40038628D01*
X147334285Y-40038628D02*
X147286666Y-39991009D01*
X147286666Y-39991009D02*
X147191428Y-39943390D01*
X170634580Y-94754166D02*
X170682200Y-94801785D01*
X170682200Y-94801785D02*
X170729819Y-94944642D01*
X170729819Y-94944642D02*
X170729819Y-95039880D01*
X170729819Y-95039880D02*
X170682200Y-95182737D01*
X170682200Y-95182737D02*
X170586961Y-95277975D01*
X170586961Y-95277975D02*
X170491723Y-95325594D01*
X170491723Y-95325594D02*
X170301247Y-95373213D01*
X170301247Y-95373213D02*
X170158390Y-95373213D01*
X170158390Y-95373213D02*
X169967914Y-95325594D01*
X169967914Y-95325594D02*
X169872676Y-95277975D01*
X169872676Y-95277975D02*
X169777438Y-95182737D01*
X169777438Y-95182737D02*
X169729819Y-95039880D01*
X169729819Y-95039880D02*
X169729819Y-94944642D01*
X169729819Y-94944642D02*
X169777438Y-94801785D01*
X169777438Y-94801785D02*
X169825057Y-94754166D01*
X169729819Y-93849404D02*
X169729819Y-94325594D01*
X169729819Y-94325594D02*
X170206009Y-94373213D01*
X170206009Y-94373213D02*
X170158390Y-94325594D01*
X170158390Y-94325594D02*
X170110771Y-94230356D01*
X170110771Y-94230356D02*
X170110771Y-93992261D01*
X170110771Y-93992261D02*
X170158390Y-93897023D01*
X170158390Y-93897023D02*
X170206009Y-93849404D01*
X170206009Y-93849404D02*
X170301247Y-93801785D01*
X170301247Y-93801785D02*
X170539342Y-93801785D01*
X170539342Y-93801785D02*
X170634580Y-93849404D01*
X170634580Y-93849404D02*
X170682200Y-93897023D01*
X170682200Y-93897023D02*
X170729819Y-93992261D01*
X170729819Y-93992261D02*
X170729819Y-94230356D01*
X170729819Y-94230356D02*
X170682200Y-94325594D01*
X170682200Y-94325594D02*
X170634580Y-94373213D01*
X176370833Y-82654819D02*
X176037500Y-82178628D01*
X175799405Y-82654819D02*
X175799405Y-81654819D01*
X175799405Y-81654819D02*
X176180357Y-81654819D01*
X176180357Y-81654819D02*
X176275595Y-81702438D01*
X176275595Y-81702438D02*
X176323214Y-81750057D01*
X176323214Y-81750057D02*
X176370833Y-81845295D01*
X176370833Y-81845295D02*
X176370833Y-81988152D01*
X176370833Y-81988152D02*
X176323214Y-82083390D01*
X176323214Y-82083390D02*
X176275595Y-82131009D01*
X176275595Y-82131009D02*
X176180357Y-82178628D01*
X176180357Y-82178628D02*
X175799405Y-82178628D01*
X177227976Y-81654819D02*
X177037500Y-81654819D01*
X177037500Y-81654819D02*
X176942262Y-81702438D01*
X176942262Y-81702438D02*
X176894643Y-81750057D01*
X176894643Y-81750057D02*
X176799405Y-81892914D01*
X176799405Y-81892914D02*
X176751786Y-82083390D01*
X176751786Y-82083390D02*
X176751786Y-82464342D01*
X176751786Y-82464342D02*
X176799405Y-82559580D01*
X176799405Y-82559580D02*
X176847024Y-82607200D01*
X176847024Y-82607200D02*
X176942262Y-82654819D01*
X176942262Y-82654819D02*
X177132738Y-82654819D01*
X177132738Y-82654819D02*
X177227976Y-82607200D01*
X177227976Y-82607200D02*
X177275595Y-82559580D01*
X177275595Y-82559580D02*
X177323214Y-82464342D01*
X177323214Y-82464342D02*
X177323214Y-82226247D01*
X177323214Y-82226247D02*
X177275595Y-82131009D01*
X177275595Y-82131009D02*
X177227976Y-82083390D01*
X177227976Y-82083390D02*
X177132738Y-82035771D01*
X177132738Y-82035771D02*
X176942262Y-82035771D01*
X176942262Y-82035771D02*
X176847024Y-82083390D01*
X176847024Y-82083390D02*
X176799405Y-82131009D01*
X176799405Y-82131009D02*
X176751786Y-82226247D01*
X177451905Y-84096819D02*
X178023333Y-84096819D01*
X177737619Y-85096819D02*
X177737619Y-84096819D01*
X178356667Y-85096819D02*
X178356667Y-84096819D01*
X178356667Y-84096819D02*
X178737619Y-84096819D01*
X178737619Y-84096819D02*
X178832857Y-84144438D01*
X178832857Y-84144438D02*
X178880476Y-84192057D01*
X178880476Y-84192057D02*
X178928095Y-84287295D01*
X178928095Y-84287295D02*
X178928095Y-84430152D01*
X178928095Y-84430152D02*
X178880476Y-84525390D01*
X178880476Y-84525390D02*
X178832857Y-84573009D01*
X178832857Y-84573009D02*
X178737619Y-84620628D01*
X178737619Y-84620628D02*
X178356667Y-84620628D01*
X179309048Y-84192057D02*
X179356667Y-84144438D01*
X179356667Y-84144438D02*
X179451905Y-84096819D01*
X179451905Y-84096819D02*
X179690000Y-84096819D01*
X179690000Y-84096819D02*
X179785238Y-84144438D01*
X179785238Y-84144438D02*
X179832857Y-84192057D01*
X179832857Y-84192057D02*
X179880476Y-84287295D01*
X179880476Y-84287295D02*
X179880476Y-84382533D01*
X179880476Y-84382533D02*
X179832857Y-84525390D01*
X179832857Y-84525390D02*
X179261429Y-85096819D01*
X179261429Y-85096819D02*
X179880476Y-85096819D01*
X180213810Y-84096819D02*
X180832857Y-84096819D01*
X180832857Y-84096819D02*
X180499524Y-84477771D01*
X180499524Y-84477771D02*
X180642381Y-84477771D01*
X180642381Y-84477771D02*
X180737619Y-84525390D01*
X180737619Y-84525390D02*
X180785238Y-84573009D01*
X180785238Y-84573009D02*
X180832857Y-84668247D01*
X180832857Y-84668247D02*
X180832857Y-84906342D01*
X180832857Y-84906342D02*
X180785238Y-85001580D01*
X180785238Y-85001580D02*
X180737619Y-85049200D01*
X180737619Y-85049200D02*
X180642381Y-85096819D01*
X180642381Y-85096819D02*
X180356667Y-85096819D01*
X180356667Y-85096819D02*
X180261429Y-85049200D01*
X180261429Y-85049200D02*
X180213810Y-85001580D01*
X177678095Y-101956819D02*
X178249523Y-101956819D01*
X177963809Y-102956819D02*
X177963809Y-101956819D01*
X178582857Y-102956819D02*
X178582857Y-101956819D01*
X178582857Y-101956819D02*
X178963809Y-101956819D01*
X178963809Y-101956819D02*
X179059047Y-102004438D01*
X179059047Y-102004438D02*
X179106666Y-102052057D01*
X179106666Y-102052057D02*
X179154285Y-102147295D01*
X179154285Y-102147295D02*
X179154285Y-102290152D01*
X179154285Y-102290152D02*
X179106666Y-102385390D01*
X179106666Y-102385390D02*
X179059047Y-102433009D01*
X179059047Y-102433009D02*
X178963809Y-102480628D01*
X178963809Y-102480628D02*
X178582857Y-102480628D01*
X179487619Y-101956819D02*
X180154285Y-101956819D01*
X180154285Y-101956819D02*
X179725714Y-102956819D01*
X182308095Y-130006819D02*
X182879523Y-130006819D01*
X182593809Y-131006819D02*
X182593809Y-130006819D01*
X183212857Y-131006819D02*
X183212857Y-130006819D01*
X183212857Y-130006819D02*
X183593809Y-130006819D01*
X183593809Y-130006819D02*
X183689047Y-130054438D01*
X183689047Y-130054438D02*
X183736666Y-130102057D01*
X183736666Y-130102057D02*
X183784285Y-130197295D01*
X183784285Y-130197295D02*
X183784285Y-130340152D01*
X183784285Y-130340152D02*
X183736666Y-130435390D01*
X183736666Y-130435390D02*
X183689047Y-130483009D01*
X183689047Y-130483009D02*
X183593809Y-130530628D01*
X183593809Y-130530628D02*
X183212857Y-130530628D01*
X184355714Y-130435390D02*
X184260476Y-130387771D01*
X184260476Y-130387771D02*
X184212857Y-130340152D01*
X184212857Y-130340152D02*
X184165238Y-130244914D01*
X184165238Y-130244914D02*
X184165238Y-130197295D01*
X184165238Y-130197295D02*
X184212857Y-130102057D01*
X184212857Y-130102057D02*
X184260476Y-130054438D01*
X184260476Y-130054438D02*
X184355714Y-130006819D01*
X184355714Y-130006819D02*
X184546190Y-130006819D01*
X184546190Y-130006819D02*
X184641428Y-130054438D01*
X184641428Y-130054438D02*
X184689047Y-130102057D01*
X184689047Y-130102057D02*
X184736666Y-130197295D01*
X184736666Y-130197295D02*
X184736666Y-130244914D01*
X184736666Y-130244914D02*
X184689047Y-130340152D01*
X184689047Y-130340152D02*
X184641428Y-130387771D01*
X184641428Y-130387771D02*
X184546190Y-130435390D01*
X184546190Y-130435390D02*
X184355714Y-130435390D01*
X184355714Y-130435390D02*
X184260476Y-130483009D01*
X184260476Y-130483009D02*
X184212857Y-130530628D01*
X184212857Y-130530628D02*
X184165238Y-130625866D01*
X184165238Y-130625866D02*
X184165238Y-130816342D01*
X184165238Y-130816342D02*
X184212857Y-130911580D01*
X184212857Y-130911580D02*
X184260476Y-130959200D01*
X184260476Y-130959200D02*
X184355714Y-131006819D01*
X184355714Y-131006819D02*
X184546190Y-131006819D01*
X184546190Y-131006819D02*
X184641428Y-130959200D01*
X184641428Y-130959200D02*
X184689047Y-130911580D01*
X184689047Y-130911580D02*
X184736666Y-130816342D01*
X184736666Y-130816342D02*
X184736666Y-130625866D01*
X184736666Y-130625866D02*
X184689047Y-130530628D01*
X184689047Y-130530628D02*
X184641428Y-130483009D01*
X184641428Y-130483009D02*
X184546190Y-130435390D01*
X189044819Y-78632857D02*
X188568628Y-78966190D01*
X189044819Y-79204285D02*
X188044819Y-79204285D01*
X188044819Y-79204285D02*
X188044819Y-78823333D01*
X188044819Y-78823333D02*
X188092438Y-78728095D01*
X188092438Y-78728095D02*
X188140057Y-78680476D01*
X188140057Y-78680476D02*
X188235295Y-78632857D01*
X188235295Y-78632857D02*
X188378152Y-78632857D01*
X188378152Y-78632857D02*
X188473390Y-78680476D01*
X188473390Y-78680476D02*
X188521009Y-78728095D01*
X188521009Y-78728095D02*
X188568628Y-78823333D01*
X188568628Y-78823333D02*
X188568628Y-79204285D01*
X189044819Y-77680476D02*
X189044819Y-78251904D01*
X189044819Y-77966190D02*
X188044819Y-77966190D01*
X188044819Y-77966190D02*
X188187676Y-78061428D01*
X188187676Y-78061428D02*
X188282914Y-78156666D01*
X188282914Y-78156666D02*
X188330533Y-78251904D01*
X189044819Y-76728095D02*
X189044819Y-77299523D01*
X189044819Y-77013809D02*
X188044819Y-77013809D01*
X188044819Y-77013809D02*
X188187676Y-77109047D01*
X188187676Y-77109047D02*
X188282914Y-77204285D01*
X188282914Y-77204285D02*
X188330533Y-77299523D01*
X186211905Y-62966819D02*
X186783333Y-62966819D01*
X186497619Y-63966819D02*
X186497619Y-62966819D01*
X187116667Y-63966819D02*
X187116667Y-62966819D01*
X187116667Y-62966819D02*
X187497619Y-62966819D01*
X187497619Y-62966819D02*
X187592857Y-63014438D01*
X187592857Y-63014438D02*
X187640476Y-63062057D01*
X187640476Y-63062057D02*
X187688095Y-63157295D01*
X187688095Y-63157295D02*
X187688095Y-63300152D01*
X187688095Y-63300152D02*
X187640476Y-63395390D01*
X187640476Y-63395390D02*
X187592857Y-63443009D01*
X187592857Y-63443009D02*
X187497619Y-63490628D01*
X187497619Y-63490628D02*
X187116667Y-63490628D01*
X188640476Y-63966819D02*
X188069048Y-63966819D01*
X188354762Y-63966819D02*
X188354762Y-62966819D01*
X188354762Y-62966819D02*
X188259524Y-63109676D01*
X188259524Y-63109676D02*
X188164286Y-63204914D01*
X188164286Y-63204914D02*
X188069048Y-63252533D01*
X189116667Y-63966819D02*
X189307143Y-63966819D01*
X189307143Y-63966819D02*
X189402381Y-63919200D01*
X189402381Y-63919200D02*
X189450000Y-63871580D01*
X189450000Y-63871580D02*
X189545238Y-63728723D01*
X189545238Y-63728723D02*
X189592857Y-63538247D01*
X189592857Y-63538247D02*
X189592857Y-63157295D01*
X189592857Y-63157295D02*
X189545238Y-63062057D01*
X189545238Y-63062057D02*
X189497619Y-63014438D01*
X189497619Y-63014438D02*
X189402381Y-62966819D01*
X189402381Y-62966819D02*
X189211905Y-62966819D01*
X189211905Y-62966819D02*
X189116667Y-63014438D01*
X189116667Y-63014438D02*
X189069048Y-63062057D01*
X189069048Y-63062057D02*
X189021429Y-63157295D01*
X189021429Y-63157295D02*
X189021429Y-63395390D01*
X189021429Y-63395390D02*
X189069048Y-63490628D01*
X189069048Y-63490628D02*
X189116667Y-63538247D01*
X189116667Y-63538247D02*
X189211905Y-63585866D01*
X189211905Y-63585866D02*
X189402381Y-63585866D01*
X189402381Y-63585866D02*
X189497619Y-63538247D01*
X189497619Y-63538247D02*
X189545238Y-63490628D01*
X189545238Y-63490628D02*
X189592857Y-63395390D01*
D14*
X161752380Y-117274318D02*
X161752380Y-118302413D01*
X161752380Y-118302413D02*
X161812857Y-118423365D01*
X161812857Y-118423365D02*
X161873333Y-118483842D01*
X161873333Y-118483842D02*
X161994285Y-118544318D01*
X161994285Y-118544318D02*
X162236190Y-118544318D01*
X162236190Y-118544318D02*
X162357142Y-118483842D01*
X162357142Y-118483842D02*
X162417619Y-118423365D01*
X162417619Y-118423365D02*
X162478095Y-118302413D01*
X162478095Y-118302413D02*
X162478095Y-117274318D01*
X163143333Y-118544318D02*
X163385237Y-118544318D01*
X163385237Y-118544318D02*
X163506190Y-118483842D01*
X163506190Y-118483842D02*
X163566666Y-118423365D01*
X163566666Y-118423365D02*
X163687618Y-118241937D01*
X163687618Y-118241937D02*
X163748095Y-118000032D01*
X163748095Y-118000032D02*
X163748095Y-117516222D01*
X163748095Y-117516222D02*
X163687618Y-117395270D01*
X163687618Y-117395270D02*
X163627142Y-117334794D01*
X163627142Y-117334794D02*
X163506190Y-117274318D01*
X163506190Y-117274318D02*
X163264285Y-117274318D01*
X163264285Y-117274318D02*
X163143333Y-117334794D01*
X163143333Y-117334794D02*
X163082856Y-117395270D01*
X163082856Y-117395270D02*
X163022380Y-117516222D01*
X163022380Y-117516222D02*
X163022380Y-117818603D01*
X163022380Y-117818603D02*
X163082856Y-117939556D01*
X163082856Y-117939556D02*
X163143333Y-118000032D01*
X163143333Y-118000032D02*
X163264285Y-118060508D01*
X163264285Y-118060508D02*
X163506190Y-118060508D01*
X163506190Y-118060508D02*
X163627142Y-118000032D01*
X163627142Y-118000032D02*
X163687618Y-117939556D01*
X163687618Y-117939556D02*
X163748095Y-117818603D01*
D12*
X116701905Y-107676819D02*
X117273333Y-107676819D01*
X116987619Y-108676819D02*
X116987619Y-107676819D01*
X117606667Y-108676819D02*
X117606667Y-107676819D01*
X117606667Y-107676819D02*
X117987619Y-107676819D01*
X117987619Y-107676819D02*
X118082857Y-107724438D01*
X118082857Y-107724438D02*
X118130476Y-107772057D01*
X118130476Y-107772057D02*
X118178095Y-107867295D01*
X118178095Y-107867295D02*
X118178095Y-108010152D01*
X118178095Y-108010152D02*
X118130476Y-108105390D01*
X118130476Y-108105390D02*
X118082857Y-108153009D01*
X118082857Y-108153009D02*
X117987619Y-108200628D01*
X117987619Y-108200628D02*
X117606667Y-108200628D01*
X119130476Y-108676819D02*
X118559048Y-108676819D01*
X118844762Y-108676819D02*
X118844762Y-107676819D01*
X118844762Y-107676819D02*
X118749524Y-107819676D01*
X118749524Y-107819676D02*
X118654286Y-107914914D01*
X118654286Y-107914914D02*
X118559048Y-107962533D01*
X120082857Y-108676819D02*
X119511429Y-108676819D01*
X119797143Y-108676819D02*
X119797143Y-107676819D01*
X119797143Y-107676819D02*
X119701905Y-107819676D01*
X119701905Y-107819676D02*
X119606667Y-107914914D01*
X119606667Y-107914914D02*
X119511429Y-107962533D01*
X126347319Y-144209107D02*
X125871128Y-144542440D01*
X126347319Y-144780535D02*
X125347319Y-144780535D01*
X125347319Y-144780535D02*
X125347319Y-144399583D01*
X125347319Y-144399583D02*
X125394938Y-144304345D01*
X125394938Y-144304345D02*
X125442557Y-144256726D01*
X125442557Y-144256726D02*
X125537795Y-144209107D01*
X125537795Y-144209107D02*
X125680652Y-144209107D01*
X125680652Y-144209107D02*
X125775890Y-144256726D01*
X125775890Y-144256726D02*
X125823509Y-144304345D01*
X125823509Y-144304345D02*
X125871128Y-144399583D01*
X125871128Y-144399583D02*
X125871128Y-144780535D01*
X125442557Y-143828154D02*
X125394938Y-143780535D01*
X125394938Y-143780535D02*
X125347319Y-143685297D01*
X125347319Y-143685297D02*
X125347319Y-143447202D01*
X125347319Y-143447202D02*
X125394938Y-143351964D01*
X125394938Y-143351964D02*
X125442557Y-143304345D01*
X125442557Y-143304345D02*
X125537795Y-143256726D01*
X125537795Y-143256726D02*
X125633033Y-143256726D01*
X125633033Y-143256726D02*
X125775890Y-143304345D01*
X125775890Y-143304345D02*
X126347319Y-143875773D01*
X126347319Y-143875773D02*
X126347319Y-143256726D01*
X125442557Y-142875773D02*
X125394938Y-142828154D01*
X125394938Y-142828154D02*
X125347319Y-142732916D01*
X125347319Y-142732916D02*
X125347319Y-142494821D01*
X125347319Y-142494821D02*
X125394938Y-142399583D01*
X125394938Y-142399583D02*
X125442557Y-142351964D01*
X125442557Y-142351964D02*
X125537795Y-142304345D01*
X125537795Y-142304345D02*
X125633033Y-142304345D01*
X125633033Y-142304345D02*
X125775890Y-142351964D01*
X125775890Y-142351964D02*
X126347319Y-142923392D01*
X126347319Y-142923392D02*
X126347319Y-142304345D01*
X114284580Y-94017857D02*
X114332200Y-94065476D01*
X114332200Y-94065476D02*
X114379819Y-94208333D01*
X114379819Y-94208333D02*
X114379819Y-94303571D01*
X114379819Y-94303571D02*
X114332200Y-94446428D01*
X114332200Y-94446428D02*
X114236961Y-94541666D01*
X114236961Y-94541666D02*
X114141723Y-94589285D01*
X114141723Y-94589285D02*
X113951247Y-94636904D01*
X113951247Y-94636904D02*
X113808390Y-94636904D01*
X113808390Y-94636904D02*
X113617914Y-94589285D01*
X113617914Y-94589285D02*
X113522676Y-94541666D01*
X113522676Y-94541666D02*
X113427438Y-94446428D01*
X113427438Y-94446428D02*
X113379819Y-94303571D01*
X113379819Y-94303571D02*
X113379819Y-94208333D01*
X113379819Y-94208333D02*
X113427438Y-94065476D01*
X113427438Y-94065476D02*
X113475057Y-94017857D01*
X113475057Y-93636904D02*
X113427438Y-93589285D01*
X113427438Y-93589285D02*
X113379819Y-93494047D01*
X113379819Y-93494047D02*
X113379819Y-93255952D01*
X113379819Y-93255952D02*
X113427438Y-93160714D01*
X113427438Y-93160714D02*
X113475057Y-93113095D01*
X113475057Y-93113095D02*
X113570295Y-93065476D01*
X113570295Y-93065476D02*
X113665533Y-93065476D01*
X113665533Y-93065476D02*
X113808390Y-93113095D01*
X113808390Y-93113095D02*
X114379819Y-93684523D01*
X114379819Y-93684523D02*
X114379819Y-93065476D01*
X113475057Y-92684523D02*
X113427438Y-92636904D01*
X113427438Y-92636904D02*
X113379819Y-92541666D01*
X113379819Y-92541666D02*
X113379819Y-92303571D01*
X113379819Y-92303571D02*
X113427438Y-92208333D01*
X113427438Y-92208333D02*
X113475057Y-92160714D01*
X113475057Y-92160714D02*
X113570295Y-92113095D01*
X113570295Y-92113095D02*
X113665533Y-92113095D01*
X113665533Y-92113095D02*
X113808390Y-92160714D01*
X113808390Y-92160714D02*
X114379819Y-92732142D01*
X114379819Y-92732142D02*
X114379819Y-92113095D01*
X167809580Y-121660857D02*
X167857200Y-121708476D01*
X167857200Y-121708476D02*
X167904819Y-121851333D01*
X167904819Y-121851333D02*
X167904819Y-121946571D01*
X167904819Y-121946571D02*
X167857200Y-122089428D01*
X167857200Y-122089428D02*
X167761961Y-122184666D01*
X167761961Y-122184666D02*
X167666723Y-122232285D01*
X167666723Y-122232285D02*
X167476247Y-122279904D01*
X167476247Y-122279904D02*
X167333390Y-122279904D01*
X167333390Y-122279904D02*
X167142914Y-122232285D01*
X167142914Y-122232285D02*
X167047676Y-122184666D01*
X167047676Y-122184666D02*
X166952438Y-122089428D01*
X166952438Y-122089428D02*
X166904819Y-121946571D01*
X166904819Y-121946571D02*
X166904819Y-121851333D01*
X166904819Y-121851333D02*
X166952438Y-121708476D01*
X166952438Y-121708476D02*
X167000057Y-121660857D01*
X167904819Y-120708476D02*
X167904819Y-121279904D01*
X167904819Y-120994190D02*
X166904819Y-120994190D01*
X166904819Y-120994190D02*
X167047676Y-121089428D01*
X167047676Y-121089428D02*
X167142914Y-121184666D01*
X167142914Y-121184666D02*
X167190533Y-121279904D01*
X167238152Y-119851333D02*
X167904819Y-119851333D01*
X166857200Y-120089428D02*
X167571485Y-120327523D01*
X167571485Y-120327523D02*
X167571485Y-119708476D01*
X115821905Y-58766819D02*
X116393333Y-58766819D01*
X116107619Y-59766819D02*
X116107619Y-58766819D01*
X116726667Y-59766819D02*
X116726667Y-58766819D01*
X116726667Y-58766819D02*
X117107619Y-58766819D01*
X117107619Y-58766819D02*
X117202857Y-58814438D01*
X117202857Y-58814438D02*
X117250476Y-58862057D01*
X117250476Y-58862057D02*
X117298095Y-58957295D01*
X117298095Y-58957295D02*
X117298095Y-59100152D01*
X117298095Y-59100152D02*
X117250476Y-59195390D01*
X117250476Y-59195390D02*
X117202857Y-59243009D01*
X117202857Y-59243009D02*
X117107619Y-59290628D01*
X117107619Y-59290628D02*
X116726667Y-59290628D01*
X118250476Y-59766819D02*
X117679048Y-59766819D01*
X117964762Y-59766819D02*
X117964762Y-58766819D01*
X117964762Y-58766819D02*
X117869524Y-58909676D01*
X117869524Y-58909676D02*
X117774286Y-59004914D01*
X117774286Y-59004914D02*
X117679048Y-59052533D01*
X118869524Y-58766819D02*
X118964762Y-58766819D01*
X118964762Y-58766819D02*
X119060000Y-58814438D01*
X119060000Y-58814438D02*
X119107619Y-58862057D01*
X119107619Y-58862057D02*
X119155238Y-58957295D01*
X119155238Y-58957295D02*
X119202857Y-59147771D01*
X119202857Y-59147771D02*
X119202857Y-59385866D01*
X119202857Y-59385866D02*
X119155238Y-59576342D01*
X119155238Y-59576342D02*
X119107619Y-59671580D01*
X119107619Y-59671580D02*
X119060000Y-59719200D01*
X119060000Y-59719200D02*
X118964762Y-59766819D01*
X118964762Y-59766819D02*
X118869524Y-59766819D01*
X118869524Y-59766819D02*
X118774286Y-59719200D01*
X118774286Y-59719200D02*
X118726667Y-59671580D01*
X118726667Y-59671580D02*
X118679048Y-59576342D01*
X118679048Y-59576342D02*
X118631429Y-59385866D01*
X118631429Y-59385866D02*
X118631429Y-59147771D01*
X118631429Y-59147771D02*
X118679048Y-58957295D01*
X118679048Y-58957295D02*
X118726667Y-58862057D01*
X118726667Y-58862057D02*
X118774286Y-58814438D01*
X118774286Y-58814438D02*
X118869524Y-58766819D01*
X185114819Y-96220357D02*
X184638628Y-96553690D01*
X185114819Y-96791785D02*
X184114819Y-96791785D01*
X184114819Y-96791785D02*
X184114819Y-96410833D01*
X184114819Y-96410833D02*
X184162438Y-96315595D01*
X184162438Y-96315595D02*
X184210057Y-96267976D01*
X184210057Y-96267976D02*
X184305295Y-96220357D01*
X184305295Y-96220357D02*
X184448152Y-96220357D01*
X184448152Y-96220357D02*
X184543390Y-96267976D01*
X184543390Y-96267976D02*
X184591009Y-96315595D01*
X184591009Y-96315595D02*
X184638628Y-96410833D01*
X184638628Y-96410833D02*
X184638628Y-96791785D01*
X184210057Y-95839404D02*
X184162438Y-95791785D01*
X184162438Y-95791785D02*
X184114819Y-95696547D01*
X184114819Y-95696547D02*
X184114819Y-95458452D01*
X184114819Y-95458452D02*
X184162438Y-95363214D01*
X184162438Y-95363214D02*
X184210057Y-95315595D01*
X184210057Y-95315595D02*
X184305295Y-95267976D01*
X184305295Y-95267976D02*
X184400533Y-95267976D01*
X184400533Y-95267976D02*
X184543390Y-95315595D01*
X184543390Y-95315595D02*
X185114819Y-95887023D01*
X185114819Y-95887023D02*
X185114819Y-95267976D01*
X184114819Y-94363214D02*
X184114819Y-94839404D01*
X184114819Y-94839404D02*
X184591009Y-94887023D01*
X184591009Y-94887023D02*
X184543390Y-94839404D01*
X184543390Y-94839404D02*
X184495771Y-94744166D01*
X184495771Y-94744166D02*
X184495771Y-94506071D01*
X184495771Y-94506071D02*
X184543390Y-94410833D01*
X184543390Y-94410833D02*
X184591009Y-94363214D01*
X184591009Y-94363214D02*
X184686247Y-94315595D01*
X184686247Y-94315595D02*
X184924342Y-94315595D01*
X184924342Y-94315595D02*
X185019580Y-94363214D01*
X185019580Y-94363214D02*
X185067200Y-94410833D01*
X185067200Y-94410833D02*
X185114819Y-94506071D01*
X185114819Y-94506071D02*
X185114819Y-94744166D01*
X185114819Y-94744166D02*
X185067200Y-94839404D01*
X185067200Y-94839404D02*
X185019580Y-94887023D01*
X165886905Y-77681819D02*
X166458333Y-77681819D01*
X166172619Y-78681819D02*
X166172619Y-77681819D01*
X166791667Y-78681819D02*
X166791667Y-77681819D01*
X166791667Y-77681819D02*
X167172619Y-77681819D01*
X167172619Y-77681819D02*
X167267857Y-77729438D01*
X167267857Y-77729438D02*
X167315476Y-77777057D01*
X167315476Y-77777057D02*
X167363095Y-77872295D01*
X167363095Y-77872295D02*
X167363095Y-78015152D01*
X167363095Y-78015152D02*
X167315476Y-78110390D01*
X167315476Y-78110390D02*
X167267857Y-78158009D01*
X167267857Y-78158009D02*
X167172619Y-78205628D01*
X167172619Y-78205628D02*
X166791667Y-78205628D01*
X168315476Y-78681819D02*
X167744048Y-78681819D01*
X168029762Y-78681819D02*
X168029762Y-77681819D01*
X168029762Y-77681819D02*
X167934524Y-77824676D01*
X167934524Y-77824676D02*
X167839286Y-77919914D01*
X167839286Y-77919914D02*
X167744048Y-77967533D01*
X168886905Y-78110390D02*
X168791667Y-78062771D01*
X168791667Y-78062771D02*
X168744048Y-78015152D01*
X168744048Y-78015152D02*
X168696429Y-77919914D01*
X168696429Y-77919914D02*
X168696429Y-77872295D01*
X168696429Y-77872295D02*
X168744048Y-77777057D01*
X168744048Y-77777057D02*
X168791667Y-77729438D01*
X168791667Y-77729438D02*
X168886905Y-77681819D01*
X168886905Y-77681819D02*
X169077381Y-77681819D01*
X169077381Y-77681819D02*
X169172619Y-77729438D01*
X169172619Y-77729438D02*
X169220238Y-77777057D01*
X169220238Y-77777057D02*
X169267857Y-77872295D01*
X169267857Y-77872295D02*
X169267857Y-77919914D01*
X169267857Y-77919914D02*
X169220238Y-78015152D01*
X169220238Y-78015152D02*
X169172619Y-78062771D01*
X169172619Y-78062771D02*
X169077381Y-78110390D01*
X169077381Y-78110390D02*
X168886905Y-78110390D01*
X168886905Y-78110390D02*
X168791667Y-78158009D01*
X168791667Y-78158009D02*
X168744048Y-78205628D01*
X168744048Y-78205628D02*
X168696429Y-78300866D01*
X168696429Y-78300866D02*
X168696429Y-78491342D01*
X168696429Y-78491342D02*
X168744048Y-78586580D01*
X168744048Y-78586580D02*
X168791667Y-78634200D01*
X168791667Y-78634200D02*
X168886905Y-78681819D01*
X168886905Y-78681819D02*
X169077381Y-78681819D01*
X169077381Y-78681819D02*
X169172619Y-78634200D01*
X169172619Y-78634200D02*
X169220238Y-78586580D01*
X169220238Y-78586580D02*
X169267857Y-78491342D01*
X169267857Y-78491342D02*
X169267857Y-78300866D01*
X169267857Y-78300866D02*
X169220238Y-78205628D01*
X169220238Y-78205628D02*
X169172619Y-78158009D01*
X169172619Y-78158009D02*
X169077381Y-78110390D01*
X182084580Y-121966666D02*
X182132200Y-122014285D01*
X182132200Y-122014285D02*
X182179819Y-122157142D01*
X182179819Y-122157142D02*
X182179819Y-122252380D01*
X182179819Y-122252380D02*
X182132200Y-122395237D01*
X182132200Y-122395237D02*
X182036961Y-122490475D01*
X182036961Y-122490475D02*
X181941723Y-122538094D01*
X181941723Y-122538094D02*
X181751247Y-122585713D01*
X181751247Y-122585713D02*
X181608390Y-122585713D01*
X181608390Y-122585713D02*
X181417914Y-122538094D01*
X181417914Y-122538094D02*
X181322676Y-122490475D01*
X181322676Y-122490475D02*
X181227438Y-122395237D01*
X181227438Y-122395237D02*
X181179819Y-122252380D01*
X181179819Y-122252380D02*
X181179819Y-122157142D01*
X181179819Y-122157142D02*
X181227438Y-122014285D01*
X181227438Y-122014285D02*
X181275057Y-121966666D01*
X181179819Y-121109523D02*
X181179819Y-121299999D01*
X181179819Y-121299999D02*
X181227438Y-121395237D01*
X181227438Y-121395237D02*
X181275057Y-121442856D01*
X181275057Y-121442856D02*
X181417914Y-121538094D01*
X181417914Y-121538094D02*
X181608390Y-121585713D01*
X181608390Y-121585713D02*
X181989342Y-121585713D01*
X181989342Y-121585713D02*
X182084580Y-121538094D01*
X182084580Y-121538094D02*
X182132200Y-121490475D01*
X182132200Y-121490475D02*
X182179819Y-121395237D01*
X182179819Y-121395237D02*
X182179819Y-121204761D01*
X182179819Y-121204761D02*
X182132200Y-121109523D01*
X182132200Y-121109523D02*
X182084580Y-121061904D01*
X182084580Y-121061904D02*
X181989342Y-121014285D01*
X181989342Y-121014285D02*
X181751247Y-121014285D01*
X181751247Y-121014285D02*
X181656009Y-121061904D01*
X181656009Y-121061904D02*
X181608390Y-121109523D01*
X181608390Y-121109523D02*
X181560771Y-121204761D01*
X181560771Y-121204761D02*
X181560771Y-121395237D01*
X181560771Y-121395237D02*
X181608390Y-121490475D01*
X181608390Y-121490475D02*
X181656009Y-121538094D01*
X181656009Y-121538094D02*
X181751247Y-121585713D01*
X114441905Y-129056819D02*
X115013333Y-129056819D01*
X114727619Y-130056819D02*
X114727619Y-129056819D01*
X115346667Y-130056819D02*
X115346667Y-129056819D01*
X115346667Y-129056819D02*
X115727619Y-129056819D01*
X115727619Y-129056819D02*
X115822857Y-129104438D01*
X115822857Y-129104438D02*
X115870476Y-129152057D01*
X115870476Y-129152057D02*
X115918095Y-129247295D01*
X115918095Y-129247295D02*
X115918095Y-129390152D01*
X115918095Y-129390152D02*
X115870476Y-129485390D01*
X115870476Y-129485390D02*
X115822857Y-129533009D01*
X115822857Y-129533009D02*
X115727619Y-129580628D01*
X115727619Y-129580628D02*
X115346667Y-129580628D01*
X116870476Y-130056819D02*
X116299048Y-130056819D01*
X116584762Y-130056819D02*
X116584762Y-129056819D01*
X116584762Y-129056819D02*
X116489524Y-129199676D01*
X116489524Y-129199676D02*
X116394286Y-129294914D01*
X116394286Y-129294914D02*
X116299048Y-129342533D01*
X117775238Y-129056819D02*
X117299048Y-129056819D01*
X117299048Y-129056819D02*
X117251429Y-129533009D01*
X117251429Y-129533009D02*
X117299048Y-129485390D01*
X117299048Y-129485390D02*
X117394286Y-129437771D01*
X117394286Y-129437771D02*
X117632381Y-129437771D01*
X117632381Y-129437771D02*
X117727619Y-129485390D01*
X117727619Y-129485390D02*
X117775238Y-129533009D01*
X117775238Y-129533009D02*
X117822857Y-129628247D01*
X117822857Y-129628247D02*
X117822857Y-129866342D01*
X117822857Y-129866342D02*
X117775238Y-129961580D01*
X117775238Y-129961580D02*
X117727619Y-130009200D01*
X117727619Y-130009200D02*
X117632381Y-130056819D01*
X117632381Y-130056819D02*
X117394286Y-130056819D01*
X117394286Y-130056819D02*
X117299048Y-130009200D01*
X117299048Y-130009200D02*
X117251429Y-129961580D01*
X145619818Y-150190356D02*
X145143627Y-150523689D01*
X145619818Y-150761784D02*
X144619818Y-150761784D01*
X144619818Y-150761784D02*
X144619818Y-150380832D01*
X144619818Y-150380832D02*
X144667437Y-150285594D01*
X144667437Y-150285594D02*
X144715056Y-150237975D01*
X144715056Y-150237975D02*
X144810294Y-150190356D01*
X144810294Y-150190356D02*
X144953151Y-150190356D01*
X144953151Y-150190356D02*
X145048389Y-150237975D01*
X145048389Y-150237975D02*
X145096008Y-150285594D01*
X145096008Y-150285594D02*
X145143627Y-150380832D01*
X145143627Y-150380832D02*
X145143627Y-150761784D01*
X145619818Y-149237975D02*
X145619818Y-149809403D01*
X145619818Y-149523689D02*
X144619818Y-149523689D01*
X144619818Y-149523689D02*
X144762675Y-149618927D01*
X144762675Y-149618927D02*
X144857913Y-149714165D01*
X144857913Y-149714165D02*
X144905532Y-149809403D01*
X144619818Y-148904641D02*
X144619818Y-148285594D01*
X144619818Y-148285594D02*
X145000770Y-148618927D01*
X145000770Y-148618927D02*
X145000770Y-148476070D01*
X145000770Y-148476070D02*
X145048389Y-148380832D01*
X145048389Y-148380832D02*
X145096008Y-148333213D01*
X145096008Y-148333213D02*
X145191246Y-148285594D01*
X145191246Y-148285594D02*
X145429341Y-148285594D01*
X145429341Y-148285594D02*
X145524579Y-148333213D01*
X145524579Y-148333213D02*
X145572199Y-148380832D01*
X145572199Y-148380832D02*
X145619818Y-148476070D01*
X145619818Y-148476070D02*
X145619818Y-148761784D01*
X145619818Y-148761784D02*
X145572199Y-148857022D01*
X145572199Y-148857022D02*
X145524579Y-148904641D01*
X197856905Y-77954819D02*
X197856905Y-76954819D01*
X197856905Y-76954819D02*
X198095000Y-76954819D01*
X198095000Y-76954819D02*
X198237857Y-77002438D01*
X198237857Y-77002438D02*
X198333095Y-77097676D01*
X198333095Y-77097676D02*
X198380714Y-77192914D01*
X198380714Y-77192914D02*
X198428333Y-77383390D01*
X198428333Y-77383390D02*
X198428333Y-77526247D01*
X198428333Y-77526247D02*
X198380714Y-77716723D01*
X198380714Y-77716723D02*
X198333095Y-77811961D01*
X198333095Y-77811961D02*
X198237857Y-77907200D01*
X198237857Y-77907200D02*
X198095000Y-77954819D01*
X198095000Y-77954819D02*
X197856905Y-77954819D01*
X198809286Y-77050057D02*
X198856905Y-77002438D01*
X198856905Y-77002438D02*
X198952143Y-76954819D01*
X198952143Y-76954819D02*
X199190238Y-76954819D01*
X199190238Y-76954819D02*
X199285476Y-77002438D01*
X199285476Y-77002438D02*
X199333095Y-77050057D01*
X199333095Y-77050057D02*
X199380714Y-77145295D01*
X199380714Y-77145295D02*
X199380714Y-77240533D01*
X199380714Y-77240533D02*
X199333095Y-77383390D01*
X199333095Y-77383390D02*
X198761667Y-77954819D01*
X198761667Y-77954819D02*
X199380714Y-77954819D01*
X139938095Y-50954819D02*
X139938095Y-51764342D01*
X139938095Y-51764342D02*
X139985714Y-51859580D01*
X139985714Y-51859580D02*
X140033333Y-51907200D01*
X140033333Y-51907200D02*
X140128571Y-51954819D01*
X140128571Y-51954819D02*
X140319047Y-51954819D01*
X140319047Y-51954819D02*
X140414285Y-51907200D01*
X140414285Y-51907200D02*
X140461904Y-51859580D01*
X140461904Y-51859580D02*
X140509523Y-51764342D01*
X140509523Y-51764342D02*
X140509523Y-50954819D01*
X140890476Y-50954819D02*
X141557142Y-50954819D01*
X141557142Y-50954819D02*
X141128571Y-51954819D01*
X133339523Y-55294819D02*
X133339523Y-54294819D01*
X133339523Y-54294819D02*
X133577618Y-54294819D01*
X133577618Y-54294819D02*
X133720475Y-54342438D01*
X133720475Y-54342438D02*
X133815713Y-54437676D01*
X133815713Y-54437676D02*
X133863332Y-54532914D01*
X133863332Y-54532914D02*
X133910951Y-54723390D01*
X133910951Y-54723390D02*
X133910951Y-54866247D01*
X133910951Y-54866247D02*
X133863332Y-55056723D01*
X133863332Y-55056723D02*
X133815713Y-55151961D01*
X133815713Y-55151961D02*
X133720475Y-55247200D01*
X133720475Y-55247200D02*
X133577618Y-55294819D01*
X133577618Y-55294819D02*
X133339523Y-55294819D01*
X134720475Y-55247200D02*
X134625237Y-55294819D01*
X134625237Y-55294819D02*
X134434761Y-55294819D01*
X134434761Y-55294819D02*
X134339523Y-55247200D01*
X134339523Y-55247200D02*
X134291904Y-55151961D01*
X134291904Y-55151961D02*
X134291904Y-54771009D01*
X134291904Y-54771009D02*
X134339523Y-54675771D01*
X134339523Y-54675771D02*
X134434761Y-54628152D01*
X134434761Y-54628152D02*
X134625237Y-54628152D01*
X134625237Y-54628152D02*
X134720475Y-54675771D01*
X134720475Y-54675771D02*
X134768094Y-54771009D01*
X134768094Y-54771009D02*
X134768094Y-54866247D01*
X134768094Y-54866247D02*
X134291904Y-54961485D01*
X135149047Y-55247200D02*
X135244285Y-55294819D01*
X135244285Y-55294819D02*
X135434761Y-55294819D01*
X135434761Y-55294819D02*
X135529999Y-55247200D01*
X135529999Y-55247200D02*
X135577618Y-55151961D01*
X135577618Y-55151961D02*
X135577618Y-55104342D01*
X135577618Y-55104342D02*
X135529999Y-55009104D01*
X135529999Y-55009104D02*
X135434761Y-54961485D01*
X135434761Y-54961485D02*
X135291904Y-54961485D01*
X135291904Y-54961485D02*
X135196666Y-54913866D01*
X135196666Y-54913866D02*
X135149047Y-54818628D01*
X135149047Y-54818628D02*
X135149047Y-54771009D01*
X135149047Y-54771009D02*
X135196666Y-54675771D01*
X135196666Y-54675771D02*
X135291904Y-54628152D01*
X135291904Y-54628152D02*
X135434761Y-54628152D01*
X135434761Y-54628152D02*
X135529999Y-54675771D01*
X136006190Y-55294819D02*
X136006190Y-54628152D01*
X136006190Y-54294819D02*
X135958571Y-54342438D01*
X135958571Y-54342438D02*
X136006190Y-54390057D01*
X136006190Y-54390057D02*
X136053809Y-54342438D01*
X136053809Y-54342438D02*
X136006190Y-54294819D01*
X136006190Y-54294819D02*
X136006190Y-54390057D01*
X136910951Y-54628152D02*
X136910951Y-55437676D01*
X136910951Y-55437676D02*
X136863332Y-55532914D01*
X136863332Y-55532914D02*
X136815713Y-55580533D01*
X136815713Y-55580533D02*
X136720475Y-55628152D01*
X136720475Y-55628152D02*
X136577618Y-55628152D01*
X136577618Y-55628152D02*
X136482380Y-55580533D01*
X136910951Y-55247200D02*
X136815713Y-55294819D01*
X136815713Y-55294819D02*
X136625237Y-55294819D01*
X136625237Y-55294819D02*
X136529999Y-55247200D01*
X136529999Y-55247200D02*
X136482380Y-55199580D01*
X136482380Y-55199580D02*
X136434761Y-55104342D01*
X136434761Y-55104342D02*
X136434761Y-54818628D01*
X136434761Y-54818628D02*
X136482380Y-54723390D01*
X136482380Y-54723390D02*
X136529999Y-54675771D01*
X136529999Y-54675771D02*
X136625237Y-54628152D01*
X136625237Y-54628152D02*
X136815713Y-54628152D01*
X136815713Y-54628152D02*
X136910951Y-54675771D01*
X137387142Y-54628152D02*
X137387142Y-55294819D01*
X137387142Y-54723390D02*
X137434761Y-54675771D01*
X137434761Y-54675771D02*
X137529999Y-54628152D01*
X137529999Y-54628152D02*
X137672856Y-54628152D01*
X137672856Y-54628152D02*
X137768094Y-54675771D01*
X137768094Y-54675771D02*
X137815713Y-54771009D01*
X137815713Y-54771009D02*
X137815713Y-55294819D01*
X138720475Y-55294819D02*
X138720475Y-54771009D01*
X138720475Y-54771009D02*
X138672856Y-54675771D01*
X138672856Y-54675771D02*
X138577618Y-54628152D01*
X138577618Y-54628152D02*
X138387142Y-54628152D01*
X138387142Y-54628152D02*
X138291904Y-54675771D01*
X138720475Y-55247200D02*
X138625237Y-55294819D01*
X138625237Y-55294819D02*
X138387142Y-55294819D01*
X138387142Y-55294819D02*
X138291904Y-55247200D01*
X138291904Y-55247200D02*
X138244285Y-55151961D01*
X138244285Y-55151961D02*
X138244285Y-55056723D01*
X138244285Y-55056723D02*
X138291904Y-54961485D01*
X138291904Y-54961485D02*
X138387142Y-54913866D01*
X138387142Y-54913866D02*
X138625237Y-54913866D01*
X138625237Y-54913866D02*
X138720475Y-54866247D01*
X139053809Y-54628152D02*
X139434761Y-54628152D01*
X139196666Y-54294819D02*
X139196666Y-55151961D01*
X139196666Y-55151961D02*
X139244285Y-55247200D01*
X139244285Y-55247200D02*
X139339523Y-55294819D01*
X139339523Y-55294819D02*
X139434761Y-55294819D01*
X139910952Y-55294819D02*
X139815714Y-55247200D01*
X139815714Y-55247200D02*
X139768095Y-55199580D01*
X139768095Y-55199580D02*
X139720476Y-55104342D01*
X139720476Y-55104342D02*
X139720476Y-54818628D01*
X139720476Y-54818628D02*
X139768095Y-54723390D01*
X139768095Y-54723390D02*
X139815714Y-54675771D01*
X139815714Y-54675771D02*
X139910952Y-54628152D01*
X139910952Y-54628152D02*
X140053809Y-54628152D01*
X140053809Y-54628152D02*
X140149047Y-54675771D01*
X140149047Y-54675771D02*
X140196666Y-54723390D01*
X140196666Y-54723390D02*
X140244285Y-54818628D01*
X140244285Y-54818628D02*
X140244285Y-55104342D01*
X140244285Y-55104342D02*
X140196666Y-55199580D01*
X140196666Y-55199580D02*
X140149047Y-55247200D01*
X140149047Y-55247200D02*
X140053809Y-55294819D01*
X140053809Y-55294819D02*
X139910952Y-55294819D01*
X140672857Y-55294819D02*
X140672857Y-54628152D01*
X140672857Y-54818628D02*
X140720476Y-54723390D01*
X140720476Y-54723390D02*
X140768095Y-54675771D01*
X140768095Y-54675771D02*
X140863333Y-54628152D01*
X140863333Y-54628152D02*
X140958571Y-54628152D01*
X141768095Y-54294819D02*
X141291905Y-54294819D01*
X141291905Y-54294819D02*
X141244286Y-54771009D01*
X141244286Y-54771009D02*
X141291905Y-54723390D01*
X141291905Y-54723390D02*
X141387143Y-54675771D01*
X141387143Y-54675771D02*
X141625238Y-54675771D01*
X141625238Y-54675771D02*
X141720476Y-54723390D01*
X141720476Y-54723390D02*
X141768095Y-54771009D01*
X141768095Y-54771009D02*
X141815714Y-54866247D01*
X141815714Y-54866247D02*
X141815714Y-55104342D01*
X141815714Y-55104342D02*
X141768095Y-55199580D01*
X141768095Y-55199580D02*
X141720476Y-55247200D01*
X141720476Y-55247200D02*
X141625238Y-55294819D01*
X141625238Y-55294819D02*
X141387143Y-55294819D01*
X141387143Y-55294819D02*
X141291905Y-55247200D01*
X141291905Y-55247200D02*
X141244286Y-55199580D01*
X142768095Y-55294819D02*
X142196667Y-55294819D01*
X142482381Y-55294819D02*
X142482381Y-54294819D01*
X142482381Y-54294819D02*
X142387143Y-54437676D01*
X142387143Y-54437676D02*
X142291905Y-54532914D01*
X142291905Y-54532914D02*
X142196667Y-54580533D01*
X127974819Y-150832857D02*
X127498628Y-151166190D01*
X127974819Y-151404285D02*
X126974819Y-151404285D01*
X126974819Y-151404285D02*
X126974819Y-151023333D01*
X126974819Y-151023333D02*
X127022438Y-150928095D01*
X127022438Y-150928095D02*
X127070057Y-150880476D01*
X127070057Y-150880476D02*
X127165295Y-150832857D01*
X127165295Y-150832857D02*
X127308152Y-150832857D01*
X127308152Y-150832857D02*
X127403390Y-150880476D01*
X127403390Y-150880476D02*
X127451009Y-150928095D01*
X127451009Y-150928095D02*
X127498628Y-151023333D01*
X127498628Y-151023333D02*
X127498628Y-151404285D01*
X127070057Y-150451904D02*
X127022438Y-150404285D01*
X127022438Y-150404285D02*
X126974819Y-150309047D01*
X126974819Y-150309047D02*
X126974819Y-150070952D01*
X126974819Y-150070952D02*
X127022438Y-149975714D01*
X127022438Y-149975714D02*
X127070057Y-149928095D01*
X127070057Y-149928095D02*
X127165295Y-149880476D01*
X127165295Y-149880476D02*
X127260533Y-149880476D01*
X127260533Y-149880476D02*
X127403390Y-149928095D01*
X127403390Y-149928095D02*
X127974819Y-150499523D01*
X127974819Y-150499523D02*
X127974819Y-149880476D01*
X126974819Y-149547142D02*
X126974819Y-148928095D01*
X126974819Y-148928095D02*
X127355771Y-149261428D01*
X127355771Y-149261428D02*
X127355771Y-149118571D01*
X127355771Y-149118571D02*
X127403390Y-149023333D01*
X127403390Y-149023333D02*
X127451009Y-148975714D01*
X127451009Y-148975714D02*
X127546247Y-148928095D01*
X127546247Y-148928095D02*
X127784342Y-148928095D01*
X127784342Y-148928095D02*
X127879580Y-148975714D01*
X127879580Y-148975714D02*
X127927200Y-149023333D01*
X127927200Y-149023333D02*
X127974819Y-149118571D01*
X127974819Y-149118571D02*
X127974819Y-149404285D01*
X127974819Y-149404285D02*
X127927200Y-149499523D01*
X127927200Y-149499523D02*
X127879580Y-149547142D01*
X189634819Y-70465357D02*
X189158628Y-70798690D01*
X189634819Y-71036785D02*
X188634819Y-71036785D01*
X188634819Y-71036785D02*
X188634819Y-70655833D01*
X188634819Y-70655833D02*
X188682438Y-70560595D01*
X188682438Y-70560595D02*
X188730057Y-70512976D01*
X188730057Y-70512976D02*
X188825295Y-70465357D01*
X188825295Y-70465357D02*
X188968152Y-70465357D01*
X188968152Y-70465357D02*
X189063390Y-70512976D01*
X189063390Y-70512976D02*
X189111009Y-70560595D01*
X189111009Y-70560595D02*
X189158628Y-70655833D01*
X189158628Y-70655833D02*
X189158628Y-71036785D01*
X189634819Y-69512976D02*
X189634819Y-70084404D01*
X189634819Y-69798690D02*
X188634819Y-69798690D01*
X188634819Y-69798690D02*
X188777676Y-69893928D01*
X188777676Y-69893928D02*
X188872914Y-69989166D01*
X188872914Y-69989166D02*
X188920533Y-70084404D01*
X188968152Y-68655833D02*
X189634819Y-68655833D01*
X188587200Y-68893928D02*
X189301485Y-69132023D01*
X189301485Y-69132023D02*
X189301485Y-68512976D01*
X116971905Y-83696819D02*
X117543333Y-83696819D01*
X117257619Y-84696819D02*
X117257619Y-83696819D01*
X117876667Y-84696819D02*
X117876667Y-83696819D01*
X117876667Y-83696819D02*
X118257619Y-83696819D01*
X118257619Y-83696819D02*
X118352857Y-83744438D01*
X118352857Y-83744438D02*
X118400476Y-83792057D01*
X118400476Y-83792057D02*
X118448095Y-83887295D01*
X118448095Y-83887295D02*
X118448095Y-84030152D01*
X118448095Y-84030152D02*
X118400476Y-84125390D01*
X118400476Y-84125390D02*
X118352857Y-84173009D01*
X118352857Y-84173009D02*
X118257619Y-84220628D01*
X118257619Y-84220628D02*
X117876667Y-84220628D01*
X119400476Y-84696819D02*
X118829048Y-84696819D01*
X119114762Y-84696819D02*
X119114762Y-83696819D01*
X119114762Y-83696819D02*
X119019524Y-83839676D01*
X119019524Y-83839676D02*
X118924286Y-83934914D01*
X118924286Y-83934914D02*
X118829048Y-83982533D01*
X119781429Y-83792057D02*
X119829048Y-83744438D01*
X119829048Y-83744438D02*
X119924286Y-83696819D01*
X119924286Y-83696819D02*
X120162381Y-83696819D01*
X120162381Y-83696819D02*
X120257619Y-83744438D01*
X120257619Y-83744438D02*
X120305238Y-83792057D01*
X120305238Y-83792057D02*
X120352857Y-83887295D01*
X120352857Y-83887295D02*
X120352857Y-83982533D01*
X120352857Y-83982533D02*
X120305238Y-84125390D01*
X120305238Y-84125390D02*
X119733810Y-84696819D01*
X119733810Y-84696819D02*
X120352857Y-84696819D01*
X135729580Y-140812857D02*
X135777200Y-140860476D01*
X135777200Y-140860476D02*
X135824819Y-141003333D01*
X135824819Y-141003333D02*
X135824819Y-141098571D01*
X135824819Y-141098571D02*
X135777200Y-141241428D01*
X135777200Y-141241428D02*
X135681961Y-141336666D01*
X135681961Y-141336666D02*
X135586723Y-141384285D01*
X135586723Y-141384285D02*
X135396247Y-141431904D01*
X135396247Y-141431904D02*
X135253390Y-141431904D01*
X135253390Y-141431904D02*
X135062914Y-141384285D01*
X135062914Y-141384285D02*
X134967676Y-141336666D01*
X134967676Y-141336666D02*
X134872438Y-141241428D01*
X134872438Y-141241428D02*
X134824819Y-141098571D01*
X134824819Y-141098571D02*
X134824819Y-141003333D01*
X134824819Y-141003333D02*
X134872438Y-140860476D01*
X134872438Y-140860476D02*
X134920057Y-140812857D01*
X134920057Y-140431904D02*
X134872438Y-140384285D01*
X134872438Y-140384285D02*
X134824819Y-140289047D01*
X134824819Y-140289047D02*
X134824819Y-140050952D01*
X134824819Y-140050952D02*
X134872438Y-139955714D01*
X134872438Y-139955714D02*
X134920057Y-139908095D01*
X134920057Y-139908095D02*
X135015295Y-139860476D01*
X135015295Y-139860476D02*
X135110533Y-139860476D01*
X135110533Y-139860476D02*
X135253390Y-139908095D01*
X135253390Y-139908095D02*
X135824819Y-140479523D01*
X135824819Y-140479523D02*
X135824819Y-139860476D01*
X135824819Y-138908095D02*
X135824819Y-139479523D01*
X135824819Y-139193809D02*
X134824819Y-139193809D01*
X134824819Y-139193809D02*
X134967676Y-139289047D01*
X134967676Y-139289047D02*
X135062914Y-139384285D01*
X135062914Y-139384285D02*
X135110533Y-139479523D01*
X197054642Y-81414819D02*
X196721309Y-80938628D01*
X196483214Y-81414819D02*
X196483214Y-80414819D01*
X196483214Y-80414819D02*
X196864166Y-80414819D01*
X196864166Y-80414819D02*
X196959404Y-80462438D01*
X196959404Y-80462438D02*
X197007023Y-80510057D01*
X197007023Y-80510057D02*
X197054642Y-80605295D01*
X197054642Y-80605295D02*
X197054642Y-80748152D01*
X197054642Y-80748152D02*
X197007023Y-80843390D01*
X197007023Y-80843390D02*
X196959404Y-80891009D01*
X196959404Y-80891009D02*
X196864166Y-80938628D01*
X196864166Y-80938628D02*
X196483214Y-80938628D01*
X197435595Y-80510057D02*
X197483214Y-80462438D01*
X197483214Y-80462438D02*
X197578452Y-80414819D01*
X197578452Y-80414819D02*
X197816547Y-80414819D01*
X197816547Y-80414819D02*
X197911785Y-80462438D01*
X197911785Y-80462438D02*
X197959404Y-80510057D01*
X197959404Y-80510057D02*
X198007023Y-80605295D01*
X198007023Y-80605295D02*
X198007023Y-80700533D01*
X198007023Y-80700533D02*
X197959404Y-80843390D01*
X197959404Y-80843390D02*
X197387976Y-81414819D01*
X197387976Y-81414819D02*
X198007023Y-81414819D01*
X198864166Y-80748152D02*
X198864166Y-81414819D01*
X198626071Y-80367200D02*
X198387976Y-81081485D01*
X198387976Y-81081485D02*
X199007023Y-81081485D01*
X195256905Y-74017319D02*
X195256905Y-74826842D01*
X195256905Y-74826842D02*
X195304524Y-74922080D01*
X195304524Y-74922080D02*
X195352143Y-74969700D01*
X195352143Y-74969700D02*
X195447381Y-75017319D01*
X195447381Y-75017319D02*
X195637857Y-75017319D01*
X195637857Y-75017319D02*
X195733095Y-74969700D01*
X195733095Y-74969700D02*
X195780714Y-74922080D01*
X195780714Y-74922080D02*
X195828333Y-74826842D01*
X195828333Y-74826842D02*
X195828333Y-74017319D01*
X196828333Y-75017319D02*
X196256905Y-75017319D01*
X196542619Y-75017319D02*
X196542619Y-74017319D01*
X196542619Y-74017319D02*
X196447381Y-74160176D01*
X196447381Y-74160176D02*
X196352143Y-74255414D01*
X196352143Y-74255414D02*
X196256905Y-74303033D01*
X197733095Y-74017319D02*
X197256905Y-74017319D01*
X197256905Y-74017319D02*
X197209286Y-74493509D01*
X197209286Y-74493509D02*
X197256905Y-74445890D01*
X197256905Y-74445890D02*
X197352143Y-74398271D01*
X197352143Y-74398271D02*
X197590238Y-74398271D01*
X197590238Y-74398271D02*
X197685476Y-74445890D01*
X197685476Y-74445890D02*
X197733095Y-74493509D01*
X197733095Y-74493509D02*
X197780714Y-74588747D01*
X197780714Y-74588747D02*
X197780714Y-74826842D01*
X197780714Y-74826842D02*
X197733095Y-74922080D01*
X197733095Y-74922080D02*
X197685476Y-74969700D01*
X197685476Y-74969700D02*
X197590238Y-75017319D01*
X197590238Y-75017319D02*
X197352143Y-75017319D01*
X197352143Y-75017319D02*
X197256905Y-74969700D01*
X197256905Y-74969700D02*
X197209286Y-74922080D01*
X194043900Y-71924719D02*
X194043900Y-72162814D01*
X193805805Y-72067576D02*
X194043900Y-72162814D01*
X194043900Y-72162814D02*
X194281995Y-72067576D01*
X193901043Y-72353290D02*
X194043900Y-72162814D01*
X194043900Y-72162814D02*
X194186757Y-72353290D01*
X194043900Y-71924719D02*
X194043900Y-72162814D01*
X193805805Y-72067576D02*
X194043900Y-72162814D01*
X194043900Y-72162814D02*
X194281995Y-72067576D01*
X193901043Y-72353290D02*
X194043900Y-72162814D01*
X194043900Y-72162814D02*
X194186757Y-72353290D01*
X202599819Y-76932857D02*
X202123628Y-77266190D01*
X202599819Y-77504285D02*
X201599819Y-77504285D01*
X201599819Y-77504285D02*
X201599819Y-77123333D01*
X201599819Y-77123333D02*
X201647438Y-77028095D01*
X201647438Y-77028095D02*
X201695057Y-76980476D01*
X201695057Y-76980476D02*
X201790295Y-76932857D01*
X201790295Y-76932857D02*
X201933152Y-76932857D01*
X201933152Y-76932857D02*
X202028390Y-76980476D01*
X202028390Y-76980476D02*
X202076009Y-77028095D01*
X202076009Y-77028095D02*
X202123628Y-77123333D01*
X202123628Y-77123333D02*
X202123628Y-77504285D01*
X202599819Y-75980476D02*
X202599819Y-76551904D01*
X202599819Y-76266190D02*
X201599819Y-76266190D01*
X201599819Y-76266190D02*
X201742676Y-76361428D01*
X201742676Y-76361428D02*
X201837914Y-76456666D01*
X201837914Y-76456666D02*
X201885533Y-76551904D01*
X201599819Y-75361428D02*
X201599819Y-75266190D01*
X201599819Y-75266190D02*
X201647438Y-75170952D01*
X201647438Y-75170952D02*
X201695057Y-75123333D01*
X201695057Y-75123333D02*
X201790295Y-75075714D01*
X201790295Y-75075714D02*
X201980771Y-75028095D01*
X201980771Y-75028095D02*
X202218866Y-75028095D01*
X202218866Y-75028095D02*
X202409342Y-75075714D01*
X202409342Y-75075714D02*
X202504580Y-75123333D01*
X202504580Y-75123333D02*
X202552200Y-75170952D01*
X202552200Y-75170952D02*
X202599819Y-75266190D01*
X202599819Y-75266190D02*
X202599819Y-75361428D01*
X202599819Y-75361428D02*
X202552200Y-75456666D01*
X202552200Y-75456666D02*
X202504580Y-75504285D01*
X202504580Y-75504285D02*
X202409342Y-75551904D01*
X202409342Y-75551904D02*
X202218866Y-75599523D01*
X202218866Y-75599523D02*
X201980771Y-75599523D01*
X201980771Y-75599523D02*
X201790295Y-75551904D01*
X201790295Y-75551904D02*
X201695057Y-75504285D01*
X201695057Y-75504285D02*
X201647438Y-75456666D01*
X201647438Y-75456666D02*
X201599819Y-75361428D01*
X115934580Y-121741666D02*
X115982200Y-121789285D01*
X115982200Y-121789285D02*
X116029819Y-121932142D01*
X116029819Y-121932142D02*
X116029819Y-122027380D01*
X116029819Y-122027380D02*
X115982200Y-122170237D01*
X115982200Y-122170237D02*
X115886961Y-122265475D01*
X115886961Y-122265475D02*
X115791723Y-122313094D01*
X115791723Y-122313094D02*
X115601247Y-122360713D01*
X115601247Y-122360713D02*
X115458390Y-122360713D01*
X115458390Y-122360713D02*
X115267914Y-122313094D01*
X115267914Y-122313094D02*
X115172676Y-122265475D01*
X115172676Y-122265475D02*
X115077438Y-122170237D01*
X115077438Y-122170237D02*
X115029819Y-122027380D01*
X115029819Y-122027380D02*
X115029819Y-121932142D01*
X115029819Y-121932142D02*
X115077438Y-121789285D01*
X115077438Y-121789285D02*
X115125057Y-121741666D01*
X116029819Y-120789285D02*
X116029819Y-121360713D01*
X116029819Y-121074999D02*
X115029819Y-121074999D01*
X115029819Y-121074999D02*
X115172676Y-121170237D01*
X115172676Y-121170237D02*
X115267914Y-121265475D01*
X115267914Y-121265475D02*
X115315533Y-121360713D01*
D14*
X148922380Y-49654318D02*
X148922380Y-50682413D01*
X148922380Y-50682413D02*
X148982857Y-50803365D01*
X148982857Y-50803365D02*
X149043333Y-50863842D01*
X149043333Y-50863842D02*
X149164285Y-50924318D01*
X149164285Y-50924318D02*
X149406190Y-50924318D01*
X149406190Y-50924318D02*
X149527142Y-50863842D01*
X149527142Y-50863842D02*
X149587619Y-50803365D01*
X149587619Y-50803365D02*
X149648095Y-50682413D01*
X149648095Y-50682413D02*
X149648095Y-49654318D01*
X150434285Y-50198603D02*
X150313333Y-50138127D01*
X150313333Y-50138127D02*
X150252856Y-50077651D01*
X150252856Y-50077651D02*
X150192380Y-49956699D01*
X150192380Y-49956699D02*
X150192380Y-49896222D01*
X150192380Y-49896222D02*
X150252856Y-49775270D01*
X150252856Y-49775270D02*
X150313333Y-49714794D01*
X150313333Y-49714794D02*
X150434285Y-49654318D01*
X150434285Y-49654318D02*
X150676190Y-49654318D01*
X150676190Y-49654318D02*
X150797142Y-49714794D01*
X150797142Y-49714794D02*
X150857618Y-49775270D01*
X150857618Y-49775270D02*
X150918095Y-49896222D01*
X150918095Y-49896222D02*
X150918095Y-49956699D01*
X150918095Y-49956699D02*
X150857618Y-50077651D01*
X150857618Y-50077651D02*
X150797142Y-50138127D01*
X150797142Y-50138127D02*
X150676190Y-50198603D01*
X150676190Y-50198603D02*
X150434285Y-50198603D01*
X150434285Y-50198603D02*
X150313333Y-50259080D01*
X150313333Y-50259080D02*
X150252856Y-50319556D01*
X150252856Y-50319556D02*
X150192380Y-50440508D01*
X150192380Y-50440508D02*
X150192380Y-50682413D01*
X150192380Y-50682413D02*
X150252856Y-50803365D01*
X150252856Y-50803365D02*
X150313333Y-50863842D01*
X150313333Y-50863842D02*
X150434285Y-50924318D01*
X150434285Y-50924318D02*
X150676190Y-50924318D01*
X150676190Y-50924318D02*
X150797142Y-50863842D01*
X150797142Y-50863842D02*
X150857618Y-50803365D01*
X150857618Y-50803365D02*
X150918095Y-50682413D01*
X150918095Y-50682413D02*
X150918095Y-50440508D01*
X150918095Y-50440508D02*
X150857618Y-50319556D01*
X150857618Y-50319556D02*
X150797142Y-50259080D01*
X150797142Y-50259080D02*
X150676190Y-50198603D01*
D12*
X170699580Y-66556666D02*
X170747200Y-66604285D01*
X170747200Y-66604285D02*
X170794819Y-66747142D01*
X170794819Y-66747142D02*
X170794819Y-66842380D01*
X170794819Y-66842380D02*
X170747200Y-66985237D01*
X170747200Y-66985237D02*
X170651961Y-67080475D01*
X170651961Y-67080475D02*
X170556723Y-67128094D01*
X170556723Y-67128094D02*
X170366247Y-67175713D01*
X170366247Y-67175713D02*
X170223390Y-67175713D01*
X170223390Y-67175713D02*
X170032914Y-67128094D01*
X170032914Y-67128094D02*
X169937676Y-67080475D01*
X169937676Y-67080475D02*
X169842438Y-66985237D01*
X169842438Y-66985237D02*
X169794819Y-66842380D01*
X169794819Y-66842380D02*
X169794819Y-66747142D01*
X169794819Y-66747142D02*
X169842438Y-66604285D01*
X169842438Y-66604285D02*
X169890057Y-66556666D01*
X170794819Y-66080475D02*
X170794819Y-65889999D01*
X170794819Y-65889999D02*
X170747200Y-65794761D01*
X170747200Y-65794761D02*
X170699580Y-65747142D01*
X170699580Y-65747142D02*
X170556723Y-65651904D01*
X170556723Y-65651904D02*
X170366247Y-65604285D01*
X170366247Y-65604285D02*
X169985295Y-65604285D01*
X169985295Y-65604285D02*
X169890057Y-65651904D01*
X169890057Y-65651904D02*
X169842438Y-65699523D01*
X169842438Y-65699523D02*
X169794819Y-65794761D01*
X169794819Y-65794761D02*
X169794819Y-65985237D01*
X169794819Y-65985237D02*
X169842438Y-66080475D01*
X169842438Y-66080475D02*
X169890057Y-66128094D01*
X169890057Y-66128094D02*
X169985295Y-66175713D01*
X169985295Y-66175713D02*
X170223390Y-66175713D01*
X170223390Y-66175713D02*
X170318628Y-66128094D01*
X170318628Y-66128094D02*
X170366247Y-66080475D01*
X170366247Y-66080475D02*
X170413866Y-65985237D01*
X170413866Y-65985237D02*
X170413866Y-65794761D01*
X170413866Y-65794761D02*
X170366247Y-65699523D01*
X170366247Y-65699523D02*
X170318628Y-65651904D01*
X170318628Y-65651904D02*
X170223390Y-65604285D01*
X132253333Y-117994819D02*
X131920000Y-117518628D01*
X131681905Y-117994819D02*
X131681905Y-116994819D01*
X131681905Y-116994819D02*
X132062857Y-116994819D01*
X132062857Y-116994819D02*
X132158095Y-117042438D01*
X132158095Y-117042438D02*
X132205714Y-117090057D01*
X132205714Y-117090057D02*
X132253333Y-117185295D01*
X132253333Y-117185295D02*
X132253333Y-117328152D01*
X132253333Y-117328152D02*
X132205714Y-117423390D01*
X132205714Y-117423390D02*
X132158095Y-117471009D01*
X132158095Y-117471009D02*
X132062857Y-117518628D01*
X132062857Y-117518628D02*
X131681905Y-117518628D01*
X133205714Y-117994819D02*
X132634286Y-117994819D01*
X132920000Y-117994819D02*
X132920000Y-116994819D01*
X132920000Y-116994819D02*
X132824762Y-117137676D01*
X132824762Y-117137676D02*
X132729524Y-117232914D01*
X132729524Y-117232914D02*
X132634286Y-117280533D01*
X169749580Y-91555357D02*
X169797200Y-91602976D01*
X169797200Y-91602976D02*
X169844819Y-91745833D01*
X169844819Y-91745833D02*
X169844819Y-91841071D01*
X169844819Y-91841071D02*
X169797200Y-91983928D01*
X169797200Y-91983928D02*
X169701961Y-92079166D01*
X169701961Y-92079166D02*
X169606723Y-92126785D01*
X169606723Y-92126785D02*
X169416247Y-92174404D01*
X169416247Y-92174404D02*
X169273390Y-92174404D01*
X169273390Y-92174404D02*
X169082914Y-92126785D01*
X169082914Y-92126785D02*
X168987676Y-92079166D01*
X168987676Y-92079166D02*
X168892438Y-91983928D01*
X168892438Y-91983928D02*
X168844819Y-91841071D01*
X168844819Y-91841071D02*
X168844819Y-91745833D01*
X168844819Y-91745833D02*
X168892438Y-91602976D01*
X168892438Y-91602976D02*
X168940057Y-91555357D01*
X169844819Y-90602976D02*
X169844819Y-91174404D01*
X169844819Y-90888690D02*
X168844819Y-90888690D01*
X168844819Y-90888690D02*
X168987676Y-90983928D01*
X168987676Y-90983928D02*
X169082914Y-91079166D01*
X169082914Y-91079166D02*
X169130533Y-91174404D01*
X168844819Y-89745833D02*
X168844819Y-89936309D01*
X168844819Y-89936309D02*
X168892438Y-90031547D01*
X168892438Y-90031547D02*
X168940057Y-90079166D01*
X168940057Y-90079166D02*
X169082914Y-90174404D01*
X169082914Y-90174404D02*
X169273390Y-90222023D01*
X169273390Y-90222023D02*
X169654342Y-90222023D01*
X169654342Y-90222023D02*
X169749580Y-90174404D01*
X169749580Y-90174404D02*
X169797200Y-90126785D01*
X169797200Y-90126785D02*
X169844819Y-90031547D01*
X169844819Y-90031547D02*
X169844819Y-89841071D01*
X169844819Y-89841071D02*
X169797200Y-89745833D01*
X169797200Y-89745833D02*
X169749580Y-89698214D01*
X169749580Y-89698214D02*
X169654342Y-89650595D01*
X169654342Y-89650595D02*
X169416247Y-89650595D01*
X169416247Y-89650595D02*
X169321009Y-89698214D01*
X169321009Y-89698214D02*
X169273390Y-89745833D01*
X169273390Y-89745833D02*
X169225771Y-89841071D01*
X169225771Y-89841071D02*
X169225771Y-90031547D01*
X169225771Y-90031547D02*
X169273390Y-90126785D01*
X169273390Y-90126785D02*
X169321009Y-90174404D01*
X169321009Y-90174404D02*
X169416247Y-90222023D01*
X112699580Y-68456666D02*
X112747200Y-68504285D01*
X112747200Y-68504285D02*
X112794819Y-68647142D01*
X112794819Y-68647142D02*
X112794819Y-68742380D01*
X112794819Y-68742380D02*
X112747200Y-68885237D01*
X112747200Y-68885237D02*
X112651961Y-68980475D01*
X112651961Y-68980475D02*
X112556723Y-69028094D01*
X112556723Y-69028094D02*
X112366247Y-69075713D01*
X112366247Y-69075713D02*
X112223390Y-69075713D01*
X112223390Y-69075713D02*
X112032914Y-69028094D01*
X112032914Y-69028094D02*
X111937676Y-68980475D01*
X111937676Y-68980475D02*
X111842438Y-68885237D01*
X111842438Y-68885237D02*
X111794819Y-68742380D01*
X111794819Y-68742380D02*
X111794819Y-68647142D01*
X111794819Y-68647142D02*
X111842438Y-68504285D01*
X111842438Y-68504285D02*
X111890057Y-68456666D01*
X111794819Y-68123332D02*
X111794819Y-67456666D01*
X111794819Y-67456666D02*
X112794819Y-67885237D01*
X185414405Y-76667319D02*
X185414405Y-75667319D01*
X185414405Y-75667319D02*
X185652500Y-75667319D01*
X185652500Y-75667319D02*
X185795357Y-75714938D01*
X185795357Y-75714938D02*
X185890595Y-75810176D01*
X185890595Y-75810176D02*
X185938214Y-75905414D01*
X185938214Y-75905414D02*
X185985833Y-76095890D01*
X185985833Y-76095890D02*
X185985833Y-76238747D01*
X185985833Y-76238747D02*
X185938214Y-76429223D01*
X185938214Y-76429223D02*
X185890595Y-76524461D01*
X185890595Y-76524461D02*
X185795357Y-76619700D01*
X185795357Y-76619700D02*
X185652500Y-76667319D01*
X185652500Y-76667319D02*
X185414405Y-76667319D01*
X186557262Y-76095890D02*
X186462024Y-76048271D01*
X186462024Y-76048271D02*
X186414405Y-76000652D01*
X186414405Y-76000652D02*
X186366786Y-75905414D01*
X186366786Y-75905414D02*
X186366786Y-75857795D01*
X186366786Y-75857795D02*
X186414405Y-75762557D01*
X186414405Y-75762557D02*
X186462024Y-75714938D01*
X186462024Y-75714938D02*
X186557262Y-75667319D01*
X186557262Y-75667319D02*
X186747738Y-75667319D01*
X186747738Y-75667319D02*
X186842976Y-75714938D01*
X186842976Y-75714938D02*
X186890595Y-75762557D01*
X186890595Y-75762557D02*
X186938214Y-75857795D01*
X186938214Y-75857795D02*
X186938214Y-75905414D01*
X186938214Y-75905414D02*
X186890595Y-76000652D01*
X186890595Y-76000652D02*
X186842976Y-76048271D01*
X186842976Y-76048271D02*
X186747738Y-76095890D01*
X186747738Y-76095890D02*
X186557262Y-76095890D01*
X186557262Y-76095890D02*
X186462024Y-76143509D01*
X186462024Y-76143509D02*
X186414405Y-76191128D01*
X186414405Y-76191128D02*
X186366786Y-76286366D01*
X186366786Y-76286366D02*
X186366786Y-76476842D01*
X186366786Y-76476842D02*
X186414405Y-76572080D01*
X186414405Y-76572080D02*
X186462024Y-76619700D01*
X186462024Y-76619700D02*
X186557262Y-76667319D01*
X186557262Y-76667319D02*
X186747738Y-76667319D01*
X186747738Y-76667319D02*
X186842976Y-76619700D01*
X186842976Y-76619700D02*
X186890595Y-76572080D01*
X186890595Y-76572080D02*
X186938214Y-76476842D01*
X186938214Y-76476842D02*
X186938214Y-76286366D01*
X186938214Y-76286366D02*
X186890595Y-76191128D01*
X186890595Y-76191128D02*
X186842976Y-76143509D01*
X186842976Y-76143509D02*
X186747738Y-76095890D01*
X126824761Y-57905057D02*
X126729523Y-57857438D01*
X126729523Y-57857438D02*
X126634285Y-57762200D01*
X126634285Y-57762200D02*
X126491428Y-57619342D01*
X126491428Y-57619342D02*
X126396190Y-57571723D01*
X126396190Y-57571723D02*
X126300952Y-57571723D01*
X126348571Y-57809819D02*
X126253333Y-57762200D01*
X126253333Y-57762200D02*
X126158095Y-57666961D01*
X126158095Y-57666961D02*
X126110476Y-57476485D01*
X126110476Y-57476485D02*
X126110476Y-57143152D01*
X126110476Y-57143152D02*
X126158095Y-56952676D01*
X126158095Y-56952676D02*
X126253333Y-56857438D01*
X126253333Y-56857438D02*
X126348571Y-56809819D01*
X126348571Y-56809819D02*
X126539047Y-56809819D01*
X126539047Y-56809819D02*
X126634285Y-56857438D01*
X126634285Y-56857438D02*
X126729523Y-56952676D01*
X126729523Y-56952676D02*
X126777142Y-57143152D01*
X126777142Y-57143152D02*
X126777142Y-57476485D01*
X126777142Y-57476485D02*
X126729523Y-57666961D01*
X126729523Y-57666961D02*
X126634285Y-57762200D01*
X126634285Y-57762200D02*
X126539047Y-57809819D01*
X126539047Y-57809819D02*
X126348571Y-57809819D01*
X127729523Y-57809819D02*
X127158095Y-57809819D01*
X127443809Y-57809819D02*
X127443809Y-56809819D01*
X127443809Y-56809819D02*
X127348571Y-56952676D01*
X127348571Y-56952676D02*
X127253333Y-57047914D01*
X127253333Y-57047914D02*
X127158095Y-57095533D01*
X124394819Y-98216666D02*
X123918628Y-98549999D01*
X124394819Y-98788094D02*
X123394819Y-98788094D01*
X123394819Y-98788094D02*
X123394819Y-98407142D01*
X123394819Y-98407142D02*
X123442438Y-98311904D01*
X123442438Y-98311904D02*
X123490057Y-98264285D01*
X123490057Y-98264285D02*
X123585295Y-98216666D01*
X123585295Y-98216666D02*
X123728152Y-98216666D01*
X123728152Y-98216666D02*
X123823390Y-98264285D01*
X123823390Y-98264285D02*
X123871009Y-98311904D01*
X123871009Y-98311904D02*
X123918628Y-98407142D01*
X123918628Y-98407142D02*
X123918628Y-98788094D01*
X123490057Y-97835713D02*
X123442438Y-97788094D01*
X123442438Y-97788094D02*
X123394819Y-97692856D01*
X123394819Y-97692856D02*
X123394819Y-97454761D01*
X123394819Y-97454761D02*
X123442438Y-97359523D01*
X123442438Y-97359523D02*
X123490057Y-97311904D01*
X123490057Y-97311904D02*
X123585295Y-97264285D01*
X123585295Y-97264285D02*
X123680533Y-97264285D01*
X123680533Y-97264285D02*
X123823390Y-97311904D01*
X123823390Y-97311904D02*
X124394819Y-97883332D01*
X124394819Y-97883332D02*
X124394819Y-97264285D01*
X190571905Y-62926819D02*
X191143333Y-62926819D01*
X190857619Y-63926819D02*
X190857619Y-62926819D01*
X191476667Y-63926819D02*
X191476667Y-62926819D01*
X191476667Y-62926819D02*
X191857619Y-62926819D01*
X191857619Y-62926819D02*
X191952857Y-62974438D01*
X191952857Y-62974438D02*
X192000476Y-63022057D01*
X192000476Y-63022057D02*
X192048095Y-63117295D01*
X192048095Y-63117295D02*
X192048095Y-63260152D01*
X192048095Y-63260152D02*
X192000476Y-63355390D01*
X192000476Y-63355390D02*
X191952857Y-63403009D01*
X191952857Y-63403009D02*
X191857619Y-63450628D01*
X191857619Y-63450628D02*
X191476667Y-63450628D01*
X192429048Y-63022057D02*
X192476667Y-62974438D01*
X192476667Y-62974438D02*
X192571905Y-62926819D01*
X192571905Y-62926819D02*
X192810000Y-62926819D01*
X192810000Y-62926819D02*
X192905238Y-62974438D01*
X192905238Y-62974438D02*
X192952857Y-63022057D01*
X192952857Y-63022057D02*
X193000476Y-63117295D01*
X193000476Y-63117295D02*
X193000476Y-63212533D01*
X193000476Y-63212533D02*
X192952857Y-63355390D01*
X192952857Y-63355390D02*
X192381429Y-63926819D01*
X192381429Y-63926819D02*
X193000476Y-63926819D01*
X193619524Y-62926819D02*
X193714762Y-62926819D01*
X193714762Y-62926819D02*
X193810000Y-62974438D01*
X193810000Y-62974438D02*
X193857619Y-63022057D01*
X193857619Y-63022057D02*
X193905238Y-63117295D01*
X193905238Y-63117295D02*
X193952857Y-63307771D01*
X193952857Y-63307771D02*
X193952857Y-63545866D01*
X193952857Y-63545866D02*
X193905238Y-63736342D01*
X193905238Y-63736342D02*
X193857619Y-63831580D01*
X193857619Y-63831580D02*
X193810000Y-63879200D01*
X193810000Y-63879200D02*
X193714762Y-63926819D01*
X193714762Y-63926819D02*
X193619524Y-63926819D01*
X193619524Y-63926819D02*
X193524286Y-63879200D01*
X193524286Y-63879200D02*
X193476667Y-63831580D01*
X193476667Y-63831580D02*
X193429048Y-63736342D01*
X193429048Y-63736342D02*
X193381429Y-63545866D01*
X193381429Y-63545866D02*
X193381429Y-63307771D01*
X193381429Y-63307771D02*
X193429048Y-63117295D01*
X193429048Y-63117295D02*
X193476667Y-63022057D01*
X193476667Y-63022057D02*
X193524286Y-62974438D01*
X193524286Y-62974438D02*
X193619524Y-62926819D01*
X184699642Y-80037319D02*
X184366309Y-79561128D01*
X184128214Y-80037319D02*
X184128214Y-79037319D01*
X184128214Y-79037319D02*
X184509166Y-79037319D01*
X184509166Y-79037319D02*
X184604404Y-79084938D01*
X184604404Y-79084938D02*
X184652023Y-79132557D01*
X184652023Y-79132557D02*
X184699642Y-79227795D01*
X184699642Y-79227795D02*
X184699642Y-79370652D01*
X184699642Y-79370652D02*
X184652023Y-79465890D01*
X184652023Y-79465890D02*
X184604404Y-79513509D01*
X184604404Y-79513509D02*
X184509166Y-79561128D01*
X184509166Y-79561128D02*
X184128214Y-79561128D01*
X185080595Y-79132557D02*
X185128214Y-79084938D01*
X185128214Y-79084938D02*
X185223452Y-79037319D01*
X185223452Y-79037319D02*
X185461547Y-79037319D01*
X185461547Y-79037319D02*
X185556785Y-79084938D01*
X185556785Y-79084938D02*
X185604404Y-79132557D01*
X185604404Y-79132557D02*
X185652023Y-79227795D01*
X185652023Y-79227795D02*
X185652023Y-79323033D01*
X185652023Y-79323033D02*
X185604404Y-79465890D01*
X185604404Y-79465890D02*
X185032976Y-80037319D01*
X185032976Y-80037319D02*
X185652023Y-80037319D01*
X185985357Y-79037319D02*
X186652023Y-79037319D01*
X186652023Y-79037319D02*
X186223452Y-80037319D01*
X131547142Y-52939580D02*
X131499523Y-52987200D01*
X131499523Y-52987200D02*
X131356666Y-53034819D01*
X131356666Y-53034819D02*
X131261428Y-53034819D01*
X131261428Y-53034819D02*
X131118571Y-52987200D01*
X131118571Y-52987200D02*
X131023333Y-52891961D01*
X131023333Y-52891961D02*
X130975714Y-52796723D01*
X130975714Y-52796723D02*
X130928095Y-52606247D01*
X130928095Y-52606247D02*
X130928095Y-52463390D01*
X130928095Y-52463390D02*
X130975714Y-52272914D01*
X130975714Y-52272914D02*
X131023333Y-52177676D01*
X131023333Y-52177676D02*
X131118571Y-52082438D01*
X131118571Y-52082438D02*
X131261428Y-52034819D01*
X131261428Y-52034819D02*
X131356666Y-52034819D01*
X131356666Y-52034819D02*
X131499523Y-52082438D01*
X131499523Y-52082438D02*
X131547142Y-52130057D01*
X132499523Y-53034819D02*
X131928095Y-53034819D01*
X132213809Y-53034819D02*
X132213809Y-52034819D01*
X132213809Y-52034819D02*
X132118571Y-52177676D01*
X132118571Y-52177676D02*
X132023333Y-52272914D01*
X132023333Y-52272914D02*
X131928095Y-52320533D01*
X132975714Y-53034819D02*
X133166190Y-53034819D01*
X133166190Y-53034819D02*
X133261428Y-52987200D01*
X133261428Y-52987200D02*
X133309047Y-52939580D01*
X133309047Y-52939580D02*
X133404285Y-52796723D01*
X133404285Y-52796723D02*
X133451904Y-52606247D01*
X133451904Y-52606247D02*
X133451904Y-52225295D01*
X133451904Y-52225295D02*
X133404285Y-52130057D01*
X133404285Y-52130057D02*
X133356666Y-52082438D01*
X133356666Y-52082438D02*
X133261428Y-52034819D01*
X133261428Y-52034819D02*
X133070952Y-52034819D01*
X133070952Y-52034819D02*
X132975714Y-52082438D01*
X132975714Y-52082438D02*
X132928095Y-52130057D01*
X132928095Y-52130057D02*
X132880476Y-52225295D01*
X132880476Y-52225295D02*
X132880476Y-52463390D01*
X132880476Y-52463390D02*
X132928095Y-52558628D01*
X132928095Y-52558628D02*
X132975714Y-52606247D01*
X132975714Y-52606247D02*
X133070952Y-52653866D01*
X133070952Y-52653866D02*
X133261428Y-52653866D01*
X133261428Y-52653866D02*
X133356666Y-52606247D01*
X133356666Y-52606247D02*
X133404285Y-52558628D01*
X133404285Y-52558628D02*
X133451904Y-52463390D01*
X124669580Y-66936666D02*
X124717200Y-66984285D01*
X124717200Y-66984285D02*
X124764819Y-67127142D01*
X124764819Y-67127142D02*
X124764819Y-67222380D01*
X124764819Y-67222380D02*
X124717200Y-67365237D01*
X124717200Y-67365237D02*
X124621961Y-67460475D01*
X124621961Y-67460475D02*
X124526723Y-67508094D01*
X124526723Y-67508094D02*
X124336247Y-67555713D01*
X124336247Y-67555713D02*
X124193390Y-67555713D01*
X124193390Y-67555713D02*
X124002914Y-67508094D01*
X124002914Y-67508094D02*
X123907676Y-67460475D01*
X123907676Y-67460475D02*
X123812438Y-67365237D01*
X123812438Y-67365237D02*
X123764819Y-67222380D01*
X123764819Y-67222380D02*
X123764819Y-67127142D01*
X123764819Y-67127142D02*
X123812438Y-66984285D01*
X123812438Y-66984285D02*
X123860057Y-66936666D01*
X124193390Y-66365237D02*
X124145771Y-66460475D01*
X124145771Y-66460475D02*
X124098152Y-66508094D01*
X124098152Y-66508094D02*
X124002914Y-66555713D01*
X124002914Y-66555713D02*
X123955295Y-66555713D01*
X123955295Y-66555713D02*
X123860057Y-66508094D01*
X123860057Y-66508094D02*
X123812438Y-66460475D01*
X123812438Y-66460475D02*
X123764819Y-66365237D01*
X123764819Y-66365237D02*
X123764819Y-66174761D01*
X123764819Y-66174761D02*
X123812438Y-66079523D01*
X123812438Y-66079523D02*
X123860057Y-66031904D01*
X123860057Y-66031904D02*
X123955295Y-65984285D01*
X123955295Y-65984285D02*
X124002914Y-65984285D01*
X124002914Y-65984285D02*
X124098152Y-66031904D01*
X124098152Y-66031904D02*
X124145771Y-66079523D01*
X124145771Y-66079523D02*
X124193390Y-66174761D01*
X124193390Y-66174761D02*
X124193390Y-66365237D01*
X124193390Y-66365237D02*
X124241009Y-66460475D01*
X124241009Y-66460475D02*
X124288628Y-66508094D01*
X124288628Y-66508094D02*
X124383866Y-66555713D01*
X124383866Y-66555713D02*
X124574342Y-66555713D01*
X124574342Y-66555713D02*
X124669580Y-66508094D01*
X124669580Y-66508094D02*
X124717200Y-66460475D01*
X124717200Y-66460475D02*
X124764819Y-66365237D01*
X124764819Y-66365237D02*
X124764819Y-66174761D01*
X124764819Y-66174761D02*
X124717200Y-66079523D01*
X124717200Y-66079523D02*
X124669580Y-66031904D01*
X124669580Y-66031904D02*
X124574342Y-65984285D01*
X124574342Y-65984285D02*
X124383866Y-65984285D01*
X124383866Y-65984285D02*
X124288628Y-66031904D01*
X124288628Y-66031904D02*
X124241009Y-66079523D01*
X124241009Y-66079523D02*
X124193390Y-66174761D01*
X178714819Y-74979166D02*
X178238628Y-75312499D01*
X178714819Y-75550594D02*
X177714819Y-75550594D01*
X177714819Y-75550594D02*
X177714819Y-75169642D01*
X177714819Y-75169642D02*
X177762438Y-75074404D01*
X177762438Y-75074404D02*
X177810057Y-75026785D01*
X177810057Y-75026785D02*
X177905295Y-74979166D01*
X177905295Y-74979166D02*
X178048152Y-74979166D01*
X178048152Y-74979166D02*
X178143390Y-75026785D01*
X178143390Y-75026785D02*
X178191009Y-75074404D01*
X178191009Y-75074404D02*
X178238628Y-75169642D01*
X178238628Y-75169642D02*
X178238628Y-75550594D01*
X178048152Y-74122023D02*
X178714819Y-74122023D01*
X177667200Y-74360118D02*
X178381485Y-74598213D01*
X178381485Y-74598213D02*
X178381485Y-73979166D01*
X145629818Y-153890356D02*
X145153627Y-154223689D01*
X145629818Y-154461784D02*
X144629818Y-154461784D01*
X144629818Y-154461784D02*
X144629818Y-154080832D01*
X144629818Y-154080832D02*
X144677437Y-153985594D01*
X144677437Y-153985594D02*
X144725056Y-153937975D01*
X144725056Y-153937975D02*
X144820294Y-153890356D01*
X144820294Y-153890356D02*
X144963151Y-153890356D01*
X144963151Y-153890356D02*
X145058389Y-153937975D01*
X145058389Y-153937975D02*
X145106008Y-153985594D01*
X145106008Y-153985594D02*
X145153627Y-154080832D01*
X145153627Y-154080832D02*
X145153627Y-154461784D01*
X144725056Y-153509403D02*
X144677437Y-153461784D01*
X144677437Y-153461784D02*
X144629818Y-153366546D01*
X144629818Y-153366546D02*
X144629818Y-153128451D01*
X144629818Y-153128451D02*
X144677437Y-153033213D01*
X144677437Y-153033213D02*
X144725056Y-152985594D01*
X144725056Y-152985594D02*
X144820294Y-152937975D01*
X144820294Y-152937975D02*
X144915532Y-152937975D01*
X144915532Y-152937975D02*
X145058389Y-152985594D01*
X145058389Y-152985594D02*
X145629818Y-153557022D01*
X145629818Y-153557022D02*
X145629818Y-152937975D01*
X144629818Y-152318927D02*
X144629818Y-152223689D01*
X144629818Y-152223689D02*
X144677437Y-152128451D01*
X144677437Y-152128451D02*
X144725056Y-152080832D01*
X144725056Y-152080832D02*
X144820294Y-152033213D01*
X144820294Y-152033213D02*
X145010770Y-151985594D01*
X145010770Y-151985594D02*
X145248865Y-151985594D01*
X145248865Y-151985594D02*
X145439341Y-152033213D01*
X145439341Y-152033213D02*
X145534579Y-152080832D01*
X145534579Y-152080832D02*
X145582199Y-152128451D01*
X145582199Y-152128451D02*
X145629818Y-152223689D01*
X145629818Y-152223689D02*
X145629818Y-152318927D01*
X145629818Y-152318927D02*
X145582199Y-152414165D01*
X145582199Y-152414165D02*
X145534579Y-152461784D01*
X145534579Y-152461784D02*
X145439341Y-152509403D01*
X145439341Y-152509403D02*
X145248865Y-152557022D01*
X145248865Y-152557022D02*
X145010770Y-152557022D01*
X145010770Y-152557022D02*
X144820294Y-152509403D01*
X144820294Y-152509403D02*
X144725056Y-152461784D01*
X144725056Y-152461784D02*
X144677437Y-152414165D01*
X144677437Y-152414165D02*
X144629818Y-152318927D01*
X133389580Y-67072857D02*
X133437200Y-67120476D01*
X133437200Y-67120476D02*
X133484819Y-67263333D01*
X133484819Y-67263333D02*
X133484819Y-67358571D01*
X133484819Y-67358571D02*
X133437200Y-67501428D01*
X133437200Y-67501428D02*
X133341961Y-67596666D01*
X133341961Y-67596666D02*
X133246723Y-67644285D01*
X133246723Y-67644285D02*
X133056247Y-67691904D01*
X133056247Y-67691904D02*
X132913390Y-67691904D01*
X132913390Y-67691904D02*
X132722914Y-67644285D01*
X132722914Y-67644285D02*
X132627676Y-67596666D01*
X132627676Y-67596666D02*
X132532438Y-67501428D01*
X132532438Y-67501428D02*
X132484819Y-67358571D01*
X132484819Y-67358571D02*
X132484819Y-67263333D01*
X132484819Y-67263333D02*
X132532438Y-67120476D01*
X132532438Y-67120476D02*
X132580057Y-67072857D01*
X133484819Y-66120476D02*
X133484819Y-66691904D01*
X133484819Y-66406190D02*
X132484819Y-66406190D01*
X132484819Y-66406190D02*
X132627676Y-66501428D01*
X132627676Y-66501428D02*
X132722914Y-66596666D01*
X132722914Y-66596666D02*
X132770533Y-66691904D01*
X132484819Y-65215714D02*
X132484819Y-65691904D01*
X132484819Y-65691904D02*
X132961009Y-65739523D01*
X132961009Y-65739523D02*
X132913390Y-65691904D01*
X132913390Y-65691904D02*
X132865771Y-65596666D01*
X132865771Y-65596666D02*
X132865771Y-65358571D01*
X132865771Y-65358571D02*
X132913390Y-65263333D01*
X132913390Y-65263333D02*
X132961009Y-65215714D01*
X132961009Y-65215714D02*
X133056247Y-65168095D01*
X133056247Y-65168095D02*
X133294342Y-65168095D01*
X133294342Y-65168095D02*
X133389580Y-65215714D01*
X133389580Y-65215714D02*
X133437200Y-65263333D01*
X133437200Y-65263333D02*
X133484819Y-65358571D01*
X133484819Y-65358571D02*
X133484819Y-65596666D01*
X133484819Y-65596666D02*
X133437200Y-65691904D01*
X133437200Y-65691904D02*
X133389580Y-65739523D01*
X179139580Y-94716666D02*
X179187200Y-94764285D01*
X179187200Y-94764285D02*
X179234819Y-94907142D01*
X179234819Y-94907142D02*
X179234819Y-95002380D01*
X179234819Y-95002380D02*
X179187200Y-95145237D01*
X179187200Y-95145237D02*
X179091961Y-95240475D01*
X179091961Y-95240475D02*
X178996723Y-95288094D01*
X178996723Y-95288094D02*
X178806247Y-95335713D01*
X178806247Y-95335713D02*
X178663390Y-95335713D01*
X178663390Y-95335713D02*
X178472914Y-95288094D01*
X178472914Y-95288094D02*
X178377676Y-95240475D01*
X178377676Y-95240475D02*
X178282438Y-95145237D01*
X178282438Y-95145237D02*
X178234819Y-95002380D01*
X178234819Y-95002380D02*
X178234819Y-94907142D01*
X178234819Y-94907142D02*
X178282438Y-94764285D01*
X178282438Y-94764285D02*
X178330057Y-94716666D01*
X178234819Y-94383332D02*
X178234819Y-93764285D01*
X178234819Y-93764285D02*
X178615771Y-94097618D01*
X178615771Y-94097618D02*
X178615771Y-93954761D01*
X178615771Y-93954761D02*
X178663390Y-93859523D01*
X178663390Y-93859523D02*
X178711009Y-93811904D01*
X178711009Y-93811904D02*
X178806247Y-93764285D01*
X178806247Y-93764285D02*
X179044342Y-93764285D01*
X179044342Y-93764285D02*
X179139580Y-93811904D01*
X179139580Y-93811904D02*
X179187200Y-93859523D01*
X179187200Y-93859523D02*
X179234819Y-93954761D01*
X179234819Y-93954761D02*
X179234819Y-94240475D01*
X179234819Y-94240475D02*
X179187200Y-94335713D01*
X179187200Y-94335713D02*
X179139580Y-94383332D01*
X176748095Y-62584819D02*
X176748095Y-63394342D01*
X176748095Y-63394342D02*
X176795714Y-63489580D01*
X176795714Y-63489580D02*
X176843333Y-63537200D01*
X176843333Y-63537200D02*
X176938571Y-63584819D01*
X176938571Y-63584819D02*
X177129047Y-63584819D01*
X177129047Y-63584819D02*
X177224285Y-63537200D01*
X177224285Y-63537200D02*
X177271904Y-63489580D01*
X177271904Y-63489580D02*
X177319523Y-63394342D01*
X177319523Y-63394342D02*
X177319523Y-62584819D01*
X178224285Y-62918152D02*
X178224285Y-63584819D01*
X177986190Y-62537200D02*
X177748095Y-63251485D01*
X177748095Y-63251485D02*
X178367142Y-63251485D01*
D14*
X162097618Y-92824318D02*
X162097618Y-93852413D01*
X162097618Y-93852413D02*
X162158095Y-93973365D01*
X162158095Y-93973365D02*
X162218571Y-94033842D01*
X162218571Y-94033842D02*
X162339523Y-94094318D01*
X162339523Y-94094318D02*
X162581428Y-94094318D01*
X162581428Y-94094318D02*
X162702380Y-94033842D01*
X162702380Y-94033842D02*
X162762857Y-93973365D01*
X162762857Y-93973365D02*
X162823333Y-93852413D01*
X162823333Y-93852413D02*
X162823333Y-92824318D01*
X164093333Y-94094318D02*
X163367618Y-94094318D01*
X163730475Y-94094318D02*
X163730475Y-92824318D01*
X163730475Y-92824318D02*
X163609523Y-93005746D01*
X163609523Y-93005746D02*
X163488571Y-93126699D01*
X163488571Y-93126699D02*
X163367618Y-93187175D01*
X165302857Y-94094318D02*
X164577142Y-94094318D01*
X164939999Y-94094318D02*
X164939999Y-92824318D01*
X164939999Y-92824318D02*
X164819047Y-93005746D01*
X164819047Y-93005746D02*
X164698095Y-93126699D01*
X164698095Y-93126699D02*
X164577142Y-93187175D01*
D12*
X157789580Y-53752857D02*
X157837200Y-53800476D01*
X157837200Y-53800476D02*
X157884819Y-53943333D01*
X157884819Y-53943333D02*
X157884819Y-54038571D01*
X157884819Y-54038571D02*
X157837200Y-54181428D01*
X157837200Y-54181428D02*
X157741961Y-54276666D01*
X157741961Y-54276666D02*
X157646723Y-54324285D01*
X157646723Y-54324285D02*
X157456247Y-54371904D01*
X157456247Y-54371904D02*
X157313390Y-54371904D01*
X157313390Y-54371904D02*
X157122914Y-54324285D01*
X157122914Y-54324285D02*
X157027676Y-54276666D01*
X157027676Y-54276666D02*
X156932438Y-54181428D01*
X156932438Y-54181428D02*
X156884819Y-54038571D01*
X156884819Y-54038571D02*
X156884819Y-53943333D01*
X156884819Y-53943333D02*
X156932438Y-53800476D01*
X156932438Y-53800476D02*
X156980057Y-53752857D01*
X157884819Y-52800476D02*
X157884819Y-53371904D01*
X157884819Y-53086190D02*
X156884819Y-53086190D01*
X156884819Y-53086190D02*
X157027676Y-53181428D01*
X157027676Y-53181428D02*
X157122914Y-53276666D01*
X157122914Y-53276666D02*
X157170533Y-53371904D01*
X156884819Y-52467142D02*
X156884819Y-51848095D01*
X156884819Y-51848095D02*
X157265771Y-52181428D01*
X157265771Y-52181428D02*
X157265771Y-52038571D01*
X157265771Y-52038571D02*
X157313390Y-51943333D01*
X157313390Y-51943333D02*
X157361009Y-51895714D01*
X157361009Y-51895714D02*
X157456247Y-51848095D01*
X157456247Y-51848095D02*
X157694342Y-51848095D01*
X157694342Y-51848095D02*
X157789580Y-51895714D01*
X157789580Y-51895714D02*
X157837200Y-51943333D01*
X157837200Y-51943333D02*
X157884819Y-52038571D01*
X157884819Y-52038571D02*
X157884819Y-52324285D01*
X157884819Y-52324285D02*
X157837200Y-52419523D01*
X157837200Y-52419523D02*
X157789580Y-52467142D01*
D14*
X130127618Y-145454318D02*
X130127618Y-146482413D01*
X130127618Y-146482413D02*
X130188095Y-146603365D01*
X130188095Y-146603365D02*
X130248571Y-146663842D01*
X130248571Y-146663842D02*
X130369523Y-146724318D01*
X130369523Y-146724318D02*
X130611428Y-146724318D01*
X130611428Y-146724318D02*
X130732380Y-146663842D01*
X130732380Y-146663842D02*
X130792857Y-146603365D01*
X130792857Y-146603365D02*
X130853333Y-146482413D01*
X130853333Y-146482413D02*
X130853333Y-145454318D01*
X132123333Y-146724318D02*
X131397618Y-146724318D01*
X131760475Y-146724318D02*
X131760475Y-145454318D01*
X131760475Y-145454318D02*
X131639523Y-145635746D01*
X131639523Y-145635746D02*
X131518571Y-145756699D01*
X131518571Y-145756699D02*
X131397618Y-145817175D01*
X132546666Y-145454318D02*
X133332857Y-145454318D01*
X133332857Y-145454318D02*
X132909523Y-145938127D01*
X132909523Y-145938127D02*
X133090952Y-145938127D01*
X133090952Y-145938127D02*
X133211904Y-145998603D01*
X133211904Y-145998603D02*
X133272380Y-146059080D01*
X133272380Y-146059080D02*
X133332857Y-146180032D01*
X133332857Y-146180032D02*
X133332857Y-146482413D01*
X133332857Y-146482413D02*
X133272380Y-146603365D01*
X133272380Y-146603365D02*
X133211904Y-146663842D01*
X133211904Y-146663842D02*
X133090952Y-146724318D01*
X133090952Y-146724318D02*
X132728095Y-146724318D01*
X132728095Y-146724318D02*
X132607142Y-146663842D01*
X132607142Y-146663842D02*
X132546666Y-146603365D01*
D12*
X181254642Y-80057319D02*
X180921309Y-79581128D01*
X180683214Y-80057319D02*
X180683214Y-79057319D01*
X180683214Y-79057319D02*
X181064166Y-79057319D01*
X181064166Y-79057319D02*
X181159404Y-79104938D01*
X181159404Y-79104938D02*
X181207023Y-79152557D01*
X181207023Y-79152557D02*
X181254642Y-79247795D01*
X181254642Y-79247795D02*
X181254642Y-79390652D01*
X181254642Y-79390652D02*
X181207023Y-79485890D01*
X181207023Y-79485890D02*
X181159404Y-79533509D01*
X181159404Y-79533509D02*
X181064166Y-79581128D01*
X181064166Y-79581128D02*
X180683214Y-79581128D01*
X181635595Y-79152557D02*
X181683214Y-79104938D01*
X181683214Y-79104938D02*
X181778452Y-79057319D01*
X181778452Y-79057319D02*
X182016547Y-79057319D01*
X182016547Y-79057319D02*
X182111785Y-79104938D01*
X182111785Y-79104938D02*
X182159404Y-79152557D01*
X182159404Y-79152557D02*
X182207023Y-79247795D01*
X182207023Y-79247795D02*
X182207023Y-79343033D01*
X182207023Y-79343033D02*
X182159404Y-79485890D01*
X182159404Y-79485890D02*
X181587976Y-80057319D01*
X181587976Y-80057319D02*
X182207023Y-80057319D01*
X183064166Y-79057319D02*
X182873690Y-79057319D01*
X182873690Y-79057319D02*
X182778452Y-79104938D01*
X182778452Y-79104938D02*
X182730833Y-79152557D01*
X182730833Y-79152557D02*
X182635595Y-79295414D01*
X182635595Y-79295414D02*
X182587976Y-79485890D01*
X182587976Y-79485890D02*
X182587976Y-79866842D01*
X182587976Y-79866842D02*
X182635595Y-79962080D01*
X182635595Y-79962080D02*
X182683214Y-80009700D01*
X182683214Y-80009700D02*
X182778452Y-80057319D01*
X182778452Y-80057319D02*
X182968928Y-80057319D01*
X182968928Y-80057319D02*
X183064166Y-80009700D01*
X183064166Y-80009700D02*
X183111785Y-79962080D01*
X183111785Y-79962080D02*
X183159404Y-79866842D01*
X183159404Y-79866842D02*
X183159404Y-79628747D01*
X183159404Y-79628747D02*
X183111785Y-79533509D01*
X183111785Y-79533509D02*
X183064166Y-79485890D01*
X183064166Y-79485890D02*
X182968928Y-79438271D01*
X182968928Y-79438271D02*
X182778452Y-79438271D01*
X182778452Y-79438271D02*
X182683214Y-79485890D01*
X182683214Y-79485890D02*
X182635595Y-79533509D01*
X182635595Y-79533509D02*
X182587976Y-79628747D01*
X138485180Y-95896666D02*
X137770895Y-95896666D01*
X137770895Y-95896666D02*
X137628038Y-95849047D01*
X137628038Y-95849047D02*
X137532800Y-95753809D01*
X137532800Y-95753809D02*
X137485180Y-95610952D01*
X137485180Y-95610952D02*
X137485180Y-95515714D01*
X137485180Y-96896666D02*
X137485180Y-96325238D01*
X137485180Y-96610952D02*
X138485180Y-96610952D01*
X138485180Y-96610952D02*
X138342323Y-96515714D01*
X138342323Y-96515714D02*
X138247085Y-96420476D01*
X138247085Y-96420476D02*
X138199466Y-96325238D01*
D14*
X126177618Y-66304318D02*
X126177618Y-67332413D01*
X126177618Y-67332413D02*
X126238095Y-67453365D01*
X126238095Y-67453365D02*
X126298571Y-67513842D01*
X126298571Y-67513842D02*
X126419523Y-67574318D01*
X126419523Y-67574318D02*
X126661428Y-67574318D01*
X126661428Y-67574318D02*
X126782380Y-67513842D01*
X126782380Y-67513842D02*
X126842857Y-67453365D01*
X126842857Y-67453365D02*
X126903333Y-67332413D01*
X126903333Y-67332413D02*
X126903333Y-66304318D01*
X128173333Y-67574318D02*
X127447618Y-67574318D01*
X127810475Y-67574318D02*
X127810475Y-66304318D01*
X127810475Y-66304318D02*
X127689523Y-66485746D01*
X127689523Y-66485746D02*
X127568571Y-66606699D01*
X127568571Y-66606699D02*
X127447618Y-66667175D01*
X128959523Y-66304318D02*
X129080476Y-66304318D01*
X129080476Y-66304318D02*
X129201428Y-66364794D01*
X129201428Y-66364794D02*
X129261904Y-66425270D01*
X129261904Y-66425270D02*
X129322380Y-66546222D01*
X129322380Y-66546222D02*
X129382857Y-66788127D01*
X129382857Y-66788127D02*
X129382857Y-67090508D01*
X129382857Y-67090508D02*
X129322380Y-67332413D01*
X129322380Y-67332413D02*
X129261904Y-67453365D01*
X129261904Y-67453365D02*
X129201428Y-67513842D01*
X129201428Y-67513842D02*
X129080476Y-67574318D01*
X129080476Y-67574318D02*
X128959523Y-67574318D01*
X128959523Y-67574318D02*
X128838571Y-67513842D01*
X128838571Y-67513842D02*
X128778095Y-67453365D01*
X128778095Y-67453365D02*
X128717618Y-67332413D01*
X128717618Y-67332413D02*
X128657142Y-67090508D01*
X128657142Y-67090508D02*
X128657142Y-66788127D01*
X128657142Y-66788127D02*
X128717618Y-66546222D01*
X128717618Y-66546222D02*
X128778095Y-66425270D01*
X128778095Y-66425270D02*
X128838571Y-66364794D01*
X128838571Y-66364794D02*
X128959523Y-66304318D01*
D12*
X145974819Y-49998094D02*
X144974819Y-49998094D01*
X144974819Y-49998094D02*
X144974819Y-49759999D01*
X144974819Y-49759999D02*
X145022438Y-49617142D01*
X145022438Y-49617142D02*
X145117676Y-49521904D01*
X145117676Y-49521904D02*
X145212914Y-49474285D01*
X145212914Y-49474285D02*
X145403390Y-49426666D01*
X145403390Y-49426666D02*
X145546247Y-49426666D01*
X145546247Y-49426666D02*
X145736723Y-49474285D01*
X145736723Y-49474285D02*
X145831961Y-49521904D01*
X145831961Y-49521904D02*
X145927200Y-49617142D01*
X145927200Y-49617142D02*
X145974819Y-49759999D01*
X145974819Y-49759999D02*
X145974819Y-49998094D01*
X144974819Y-48569523D02*
X144974819Y-48759999D01*
X144974819Y-48759999D02*
X145022438Y-48855237D01*
X145022438Y-48855237D02*
X145070057Y-48902856D01*
X145070057Y-48902856D02*
X145212914Y-48998094D01*
X145212914Y-48998094D02*
X145403390Y-49045713D01*
X145403390Y-49045713D02*
X145784342Y-49045713D01*
X145784342Y-49045713D02*
X145879580Y-48998094D01*
X145879580Y-48998094D02*
X145927200Y-48950475D01*
X145927200Y-48950475D02*
X145974819Y-48855237D01*
X145974819Y-48855237D02*
X145974819Y-48664761D01*
X145974819Y-48664761D02*
X145927200Y-48569523D01*
X145927200Y-48569523D02*
X145879580Y-48521904D01*
X145879580Y-48521904D02*
X145784342Y-48474285D01*
X145784342Y-48474285D02*
X145546247Y-48474285D01*
X145546247Y-48474285D02*
X145451009Y-48521904D01*
X145451009Y-48521904D02*
X145403390Y-48569523D01*
X145403390Y-48569523D02*
X145355771Y-48664761D01*
X145355771Y-48664761D02*
X145355771Y-48855237D01*
X145355771Y-48855237D02*
X145403390Y-48950475D01*
X145403390Y-48950475D02*
X145451009Y-48998094D01*
X145451009Y-48998094D02*
X145546247Y-49045713D01*
X134087142Y-147844819D02*
X133753809Y-147368628D01*
X133515714Y-147844819D02*
X133515714Y-146844819D01*
X133515714Y-146844819D02*
X133896666Y-146844819D01*
X133896666Y-146844819D02*
X133991904Y-146892438D01*
X133991904Y-146892438D02*
X134039523Y-146940057D01*
X134039523Y-146940057D02*
X134087142Y-147035295D01*
X134087142Y-147035295D02*
X134087142Y-147178152D01*
X134087142Y-147178152D02*
X134039523Y-147273390D01*
X134039523Y-147273390D02*
X133991904Y-147321009D01*
X133991904Y-147321009D02*
X133896666Y-147368628D01*
X133896666Y-147368628D02*
X133515714Y-147368628D01*
X135039523Y-147844819D02*
X134468095Y-147844819D01*
X134753809Y-147844819D02*
X134753809Y-146844819D01*
X134753809Y-146844819D02*
X134658571Y-146987676D01*
X134658571Y-146987676D02*
X134563333Y-147082914D01*
X134563333Y-147082914D02*
X134468095Y-147130533D01*
X135420476Y-146940057D02*
X135468095Y-146892438D01*
X135468095Y-146892438D02*
X135563333Y-146844819D01*
X135563333Y-146844819D02*
X135801428Y-146844819D01*
X135801428Y-146844819D02*
X135896666Y-146892438D01*
X135896666Y-146892438D02*
X135944285Y-146940057D01*
X135944285Y-146940057D02*
X135991904Y-147035295D01*
X135991904Y-147035295D02*
X135991904Y-147130533D01*
X135991904Y-147130533D02*
X135944285Y-147273390D01*
X135944285Y-147273390D02*
X135372857Y-147844819D01*
X135372857Y-147844819D02*
X135991904Y-147844819D01*
X191348333Y-76867319D02*
X191015000Y-76391128D01*
X190776905Y-76867319D02*
X190776905Y-75867319D01*
X190776905Y-75867319D02*
X191157857Y-75867319D01*
X191157857Y-75867319D02*
X191253095Y-75914938D01*
X191253095Y-75914938D02*
X191300714Y-75962557D01*
X191300714Y-75962557D02*
X191348333Y-76057795D01*
X191348333Y-76057795D02*
X191348333Y-76200652D01*
X191348333Y-76200652D02*
X191300714Y-76295890D01*
X191300714Y-76295890D02*
X191253095Y-76343509D01*
X191253095Y-76343509D02*
X191157857Y-76391128D01*
X191157857Y-76391128D02*
X190776905Y-76391128D01*
X191824524Y-76867319D02*
X192015000Y-76867319D01*
X192015000Y-76867319D02*
X192110238Y-76819700D01*
X192110238Y-76819700D02*
X192157857Y-76772080D01*
X192157857Y-76772080D02*
X192253095Y-76629223D01*
X192253095Y-76629223D02*
X192300714Y-76438747D01*
X192300714Y-76438747D02*
X192300714Y-76057795D01*
X192300714Y-76057795D02*
X192253095Y-75962557D01*
X192253095Y-75962557D02*
X192205476Y-75914938D01*
X192205476Y-75914938D02*
X192110238Y-75867319D01*
X192110238Y-75867319D02*
X191919762Y-75867319D01*
X191919762Y-75867319D02*
X191824524Y-75914938D01*
X191824524Y-75914938D02*
X191776905Y-75962557D01*
X191776905Y-75962557D02*
X191729286Y-76057795D01*
X191729286Y-76057795D02*
X191729286Y-76295890D01*
X191729286Y-76295890D02*
X191776905Y-76391128D01*
X191776905Y-76391128D02*
X191824524Y-76438747D01*
X191824524Y-76438747D02*
X191919762Y-76486366D01*
X191919762Y-76486366D02*
X192110238Y-76486366D01*
X192110238Y-76486366D02*
X192205476Y-76438747D01*
X192205476Y-76438747D02*
X192253095Y-76391128D01*
X192253095Y-76391128D02*
X192300714Y-76295890D01*
X150543333Y-47194819D02*
X150210000Y-46718628D01*
X149971905Y-47194819D02*
X149971905Y-46194819D01*
X149971905Y-46194819D02*
X150352857Y-46194819D01*
X150352857Y-46194819D02*
X150448095Y-46242438D01*
X150448095Y-46242438D02*
X150495714Y-46290057D01*
X150495714Y-46290057D02*
X150543333Y-46385295D01*
X150543333Y-46385295D02*
X150543333Y-46528152D01*
X150543333Y-46528152D02*
X150495714Y-46623390D01*
X150495714Y-46623390D02*
X150448095Y-46671009D01*
X150448095Y-46671009D02*
X150352857Y-46718628D01*
X150352857Y-46718628D02*
X149971905Y-46718628D01*
X151114762Y-46623390D02*
X151019524Y-46575771D01*
X151019524Y-46575771D02*
X150971905Y-46528152D01*
X150971905Y-46528152D02*
X150924286Y-46432914D01*
X150924286Y-46432914D02*
X150924286Y-46385295D01*
X150924286Y-46385295D02*
X150971905Y-46290057D01*
X150971905Y-46290057D02*
X151019524Y-46242438D01*
X151019524Y-46242438D02*
X151114762Y-46194819D01*
X151114762Y-46194819D02*
X151305238Y-46194819D01*
X151305238Y-46194819D02*
X151400476Y-46242438D01*
X151400476Y-46242438D02*
X151448095Y-46290057D01*
X151448095Y-46290057D02*
X151495714Y-46385295D01*
X151495714Y-46385295D02*
X151495714Y-46432914D01*
X151495714Y-46432914D02*
X151448095Y-46528152D01*
X151448095Y-46528152D02*
X151400476Y-46575771D01*
X151400476Y-46575771D02*
X151305238Y-46623390D01*
X151305238Y-46623390D02*
X151114762Y-46623390D01*
X151114762Y-46623390D02*
X151019524Y-46671009D01*
X151019524Y-46671009D02*
X150971905Y-46718628D01*
X150971905Y-46718628D02*
X150924286Y-46813866D01*
X150924286Y-46813866D02*
X150924286Y-47004342D01*
X150924286Y-47004342D02*
X150971905Y-47099580D01*
X150971905Y-47099580D02*
X151019524Y-47147200D01*
X151019524Y-47147200D02*
X151114762Y-47194819D01*
X151114762Y-47194819D02*
X151305238Y-47194819D01*
X151305238Y-47194819D02*
X151400476Y-47147200D01*
X151400476Y-47147200D02*
X151448095Y-47099580D01*
X151448095Y-47099580D02*
X151495714Y-47004342D01*
X151495714Y-47004342D02*
X151495714Y-46813866D01*
X151495714Y-46813866D02*
X151448095Y-46718628D01*
X151448095Y-46718628D02*
X151400476Y-46671009D01*
X151400476Y-46671009D02*
X151305238Y-46623390D01*
X165906905Y-124994819D02*
X165906905Y-123994819D01*
X165906905Y-123994819D02*
X166145000Y-123994819D01*
X166145000Y-123994819D02*
X166287857Y-124042438D01*
X166287857Y-124042438D02*
X166383095Y-124137676D01*
X166383095Y-124137676D02*
X166430714Y-124232914D01*
X166430714Y-124232914D02*
X166478333Y-124423390D01*
X166478333Y-124423390D02*
X166478333Y-124566247D01*
X166478333Y-124566247D02*
X166430714Y-124756723D01*
X166430714Y-124756723D02*
X166383095Y-124851961D01*
X166383095Y-124851961D02*
X166287857Y-124947200D01*
X166287857Y-124947200D02*
X166145000Y-124994819D01*
X166145000Y-124994819D02*
X165906905Y-124994819D01*
X166811667Y-123994819D02*
X167430714Y-123994819D01*
X167430714Y-123994819D02*
X167097381Y-124375771D01*
X167097381Y-124375771D02*
X167240238Y-124375771D01*
X167240238Y-124375771D02*
X167335476Y-124423390D01*
X167335476Y-124423390D02*
X167383095Y-124471009D01*
X167383095Y-124471009D02*
X167430714Y-124566247D01*
X167430714Y-124566247D02*
X167430714Y-124804342D01*
X167430714Y-124804342D02*
X167383095Y-124899580D01*
X167383095Y-124899580D02*
X167335476Y-124947200D01*
X167335476Y-124947200D02*
X167240238Y-124994819D01*
X167240238Y-124994819D02*
X166954524Y-124994819D01*
X166954524Y-124994819D02*
X166859286Y-124947200D01*
X166859286Y-124947200D02*
X166811667Y-124899580D01*
X199704819Y-71472857D02*
X199228628Y-71806190D01*
X199704819Y-72044285D02*
X198704819Y-72044285D01*
X198704819Y-72044285D02*
X198704819Y-71663333D01*
X198704819Y-71663333D02*
X198752438Y-71568095D01*
X198752438Y-71568095D02*
X198800057Y-71520476D01*
X198800057Y-71520476D02*
X198895295Y-71472857D01*
X198895295Y-71472857D02*
X199038152Y-71472857D01*
X199038152Y-71472857D02*
X199133390Y-71520476D01*
X199133390Y-71520476D02*
X199181009Y-71568095D01*
X199181009Y-71568095D02*
X199228628Y-71663333D01*
X199228628Y-71663333D02*
X199228628Y-72044285D01*
X199704819Y-70520476D02*
X199704819Y-71091904D01*
X199704819Y-70806190D02*
X198704819Y-70806190D01*
X198704819Y-70806190D02*
X198847676Y-70901428D01*
X198847676Y-70901428D02*
X198942914Y-70996666D01*
X198942914Y-70996666D02*
X198990533Y-71091904D01*
X198704819Y-69615714D02*
X198704819Y-70091904D01*
X198704819Y-70091904D02*
X199181009Y-70139523D01*
X199181009Y-70139523D02*
X199133390Y-70091904D01*
X199133390Y-70091904D02*
X199085771Y-69996666D01*
X199085771Y-69996666D02*
X199085771Y-69758571D01*
X199085771Y-69758571D02*
X199133390Y-69663333D01*
X199133390Y-69663333D02*
X199181009Y-69615714D01*
X199181009Y-69615714D02*
X199276247Y-69568095D01*
X199276247Y-69568095D02*
X199514342Y-69568095D01*
X199514342Y-69568095D02*
X199609580Y-69615714D01*
X199609580Y-69615714D02*
X199657200Y-69663333D01*
X199657200Y-69663333D02*
X199704819Y-69758571D01*
X199704819Y-69758571D02*
X199704819Y-69996666D01*
X199704819Y-69996666D02*
X199657200Y-70091904D01*
X199657200Y-70091904D02*
X199609580Y-70139523D01*
X139906904Y-148972318D02*
X139906904Y-149781841D01*
X139906904Y-149781841D02*
X139954523Y-149877079D01*
X139954523Y-149877079D02*
X140002142Y-149924699D01*
X140002142Y-149924699D02*
X140097380Y-149972318D01*
X140097380Y-149972318D02*
X140287856Y-149972318D01*
X140287856Y-149972318D02*
X140383094Y-149924699D01*
X140383094Y-149924699D02*
X140430713Y-149877079D01*
X140430713Y-149877079D02*
X140478332Y-149781841D01*
X140478332Y-149781841D02*
X140478332Y-148972318D01*
X141478332Y-149972318D02*
X140906904Y-149972318D01*
X141192618Y-149972318D02*
X141192618Y-148972318D01*
X141192618Y-148972318D02*
X141097380Y-149115175D01*
X141097380Y-149115175D02*
X141002142Y-149210413D01*
X141002142Y-149210413D02*
X140906904Y-149258032D01*
X142335475Y-149305651D02*
X142335475Y-149972318D01*
X142097380Y-148924699D02*
X141859285Y-149638984D01*
X141859285Y-149638984D02*
X142478332Y-149638984D01*
X138693899Y-146879718D02*
X138693899Y-147117813D01*
X138455804Y-147022575D02*
X138693899Y-147117813D01*
X138693899Y-147117813D02*
X138931994Y-147022575D01*
X138551042Y-147308289D02*
X138693899Y-147117813D01*
X138693899Y-147117813D02*
X138836756Y-147308289D01*
X138693899Y-146879718D02*
X138693899Y-147117813D01*
X138455804Y-147022575D02*
X138693899Y-147117813D01*
X138693899Y-147117813D02*
X138931994Y-147022575D01*
X138551042Y-147308289D02*
X138693899Y-147117813D01*
X138693899Y-147117813D02*
X138836756Y-147308289D01*
D15*
X125384724Y-109942500D02*
X124875276Y-109942500D01*
X125384724Y-108897500D02*
X124875276Y-108897500D01*
X140062499Y-153452223D02*
X140062499Y-152942775D01*
X141107499Y-153452223D02*
X141107499Y-152942775D01*
D16*
X130460000Y-112780000D02*
X130460000Y-104980000D01*
X134260000Y-112780000D02*
X130460000Y-112780000D01*
X130460000Y-104980000D02*
X134260000Y-104980000D01*
X134260000Y-104980000D02*
X134260000Y-112780000D01*
D17*
X131360000Y-112080000D02*
G75*
G03*
X131360000Y-112080000I-200000J0D01*
G01*
D15*
X120227500Y-65324724D02*
X120227500Y-64815276D01*
X121272500Y-65324724D02*
X121272500Y-64815276D01*
X120127500Y-71979724D02*
X120127500Y-71470276D01*
X121172500Y-71979724D02*
X121172500Y-71470276D01*
X128377500Y-148716250D02*
X129847500Y-148716250D01*
X129847500Y-148716250D02*
X129847500Y-146256250D01*
X128377500Y-146256250D02*
X128377500Y-148716250D01*
D18*
X182900600Y-74899400D02*
X185999400Y-74899400D01*
X185999400Y-71800600D02*
X182900600Y-71800600D01*
X184145200Y-71800600D02*
G75*
G03*
X184754800Y-71800600I304800J0D01*
G01*
X158930100Y-72699900D02*
X162127960Y-72699900D01*
X164292040Y-72699900D02*
X167489900Y-72699900D01*
X167489900Y-72699900D02*
X167489900Y-64140100D01*
X158930100Y-64140100D02*
X158930100Y-72699900D01*
X162127960Y-64140100D02*
X158930100Y-64140100D01*
X167489900Y-64140100D02*
X164292040Y-64140100D01*
D15*
X171660000Y-121956267D02*
X171660000Y-121663733D01*
X172680000Y-121956267D02*
X172680000Y-121663733D01*
D19*
X148545000Y-45330000D02*
X148545000Y-45120000D01*
X148545000Y-42770000D02*
X148545000Y-42980000D01*
X148545000Y-42770000D02*
X144215000Y-42770000D01*
X144215000Y-45330000D02*
X148545000Y-45330000D01*
X144215000Y-45120000D02*
X144215000Y-45330000D01*
X144215000Y-42770000D02*
X144215000Y-42980000D01*
D15*
X179420000Y-61250000D02*
X178920000Y-61250000D01*
X179170000Y-61500000D02*
X179170000Y-61000000D01*
X178680000Y-60885563D02*
X178680000Y-60750000D01*
X178680000Y-60885563D02*
X177615563Y-61950000D01*
X178680000Y-58494437D02*
X178680000Y-58630000D01*
X178680000Y-58494437D02*
X177615563Y-57430000D01*
X177615563Y-61950000D02*
X174160000Y-61950000D01*
X177615563Y-57430000D02*
X174160000Y-57430000D01*
X174160000Y-61950000D02*
X174160000Y-60750000D01*
X174160000Y-57430000D02*
X174160000Y-58630000D01*
X115340000Y-101320000D02*
X116740000Y-101320000D01*
X115340000Y-102720000D02*
X115340000Y-101320000D01*
X116740000Y-101320000D02*
X116740000Y-102720000D01*
X116740000Y-102720000D02*
X115340000Y-102720000D01*
D12*
X139590979Y-141937500D02*
X140949021Y-141937500D01*
X139590979Y-146842500D02*
X139590979Y-141937500D01*
X139590979Y-146842500D02*
X140949021Y-146842500D01*
X140949021Y-146842500D02*
X140949021Y-141937500D01*
D20*
X139146001Y-141559000D02*
G75*
G03*
X139146001Y-141559000I-125001J0D01*
G01*
D15*
X137314667Y-43925000D02*
G75*
G03*
X137314667Y-43925000I-1254667J0D01*
G01*
X171400000Y-80055000D02*
X171400000Y-81525000D01*
X171400000Y-81525000D02*
X173860000Y-81525000D01*
X173860000Y-80055000D02*
X171400000Y-80055000D01*
X170647776Y-125497500D02*
X171157224Y-125497500D01*
X170647776Y-126542500D02*
X171157224Y-126542500D01*
X180860000Y-112860000D02*
X182260000Y-112860000D01*
X180860000Y-114260000D02*
X180860000Y-112860000D01*
X182260000Y-112860000D02*
X182260000Y-114260000D01*
X182260000Y-114260000D02*
X180860000Y-114260000D01*
X162375000Y-57950000D02*
X163775000Y-57950000D01*
X162375000Y-59350000D02*
X162375000Y-57950000D01*
X163775000Y-57950000D02*
X163775000Y-59350000D01*
X163775000Y-59350000D02*
X162375000Y-59350000D01*
X128620000Y-143656267D02*
X128620000Y-143363733D01*
X129640000Y-143656267D02*
X129640000Y-143363733D01*
X159254667Y-44250000D02*
G75*
G03*
X159254667Y-44250000I-1254667J0D01*
G01*
X113810000Y-77460000D02*
X115210000Y-77460000D01*
X113810000Y-78860000D02*
X113810000Y-77460000D01*
X115210000Y-77460000D02*
X115210000Y-78860000D01*
X115210000Y-78860000D02*
X113810000Y-78860000D01*
X145973733Y-40980000D02*
X146266267Y-40980000D01*
X145973733Y-42000000D02*
X146266267Y-42000000D01*
X171195000Y-94733767D02*
X171195000Y-94441233D01*
X172215000Y-94733767D02*
X172215000Y-94441233D01*
X176792224Y-81292500D02*
X176282776Y-81292500D01*
X176792224Y-80247500D02*
X176282776Y-80247500D01*
X178490000Y-85390000D02*
X179890000Y-85390000D01*
X178490000Y-86790000D02*
X178490000Y-85390000D01*
X179890000Y-85390000D02*
X179890000Y-86790000D01*
X179890000Y-86790000D02*
X178490000Y-86790000D01*
X178240000Y-103250000D02*
X179640000Y-103250000D01*
X178240000Y-104650000D02*
X178240000Y-103250000D01*
X179640000Y-103250000D02*
X179640000Y-104650000D01*
X179640000Y-104650000D02*
X178240000Y-104650000D01*
X182870000Y-131300000D02*
X184270000Y-131300000D01*
X182870000Y-132700000D02*
X182870000Y-131300000D01*
X184270000Y-131300000D02*
X184270000Y-132700000D01*
X184270000Y-132700000D02*
X182870000Y-132700000D01*
X188932500Y-74655276D02*
X188932500Y-75164724D01*
X187887500Y-74655276D02*
X187887500Y-75164724D01*
X187250000Y-64260000D02*
X188650000Y-64260000D01*
X187250000Y-65660000D02*
X187250000Y-64260000D01*
X188650000Y-64260000D02*
X188650000Y-65660000D01*
X188650000Y-65660000D02*
X187250000Y-65660000D01*
D20*
X160950000Y-119450000D02*
G75*
G03*
X160950000Y-119450000I-125000J0D01*
G01*
D15*
X117740000Y-108970000D02*
X119140000Y-108970000D01*
X117740000Y-110370000D02*
X117740000Y-108970000D01*
X119140000Y-108970000D02*
X119140000Y-110370000D01*
X119140000Y-110370000D02*
X117740000Y-110370000D01*
X128002500Y-143237776D02*
X128002500Y-143747224D01*
X126957500Y-143237776D02*
X126957500Y-143747224D01*
D18*
X108552900Y-98747100D02*
X112690560Y-98747100D01*
X115159440Y-98747100D02*
X119297100Y-98747100D01*
X119297100Y-98747100D02*
X119297100Y-88002900D01*
X108552900Y-88002900D02*
X108552900Y-98747100D01*
X112690560Y-88002900D02*
X108552900Y-88002900D01*
X119297100Y-88002900D02*
X115159440Y-88002900D01*
D15*
X165420000Y-121304267D02*
X165420000Y-121011733D01*
X166440000Y-121304267D02*
X166440000Y-121011733D01*
X116860000Y-60060000D02*
X118260000Y-60060000D01*
X116860000Y-61460000D02*
X116860000Y-60060000D01*
X118260000Y-60060000D02*
X118260000Y-61460000D01*
X118260000Y-61460000D02*
X116860000Y-61460000D01*
X185567500Y-95832224D02*
X185567500Y-95322776D01*
X186612500Y-95832224D02*
X186612500Y-95322776D01*
X166925000Y-78975000D02*
X168325000Y-78975000D01*
X166925000Y-80375000D02*
X166925000Y-78975000D01*
X168325000Y-78975000D02*
X168325000Y-80375000D01*
X168325000Y-80375000D02*
X166925000Y-80375000D01*
D18*
X177445100Y-126079900D02*
X180642960Y-126079900D01*
X182807040Y-126079900D02*
X186004900Y-126079900D01*
X186004900Y-126079900D02*
X186004900Y-117520100D01*
X177445100Y-117520100D02*
X177445100Y-126079900D01*
X180642960Y-117520100D02*
X177445100Y-117520100D01*
X186004900Y-117520100D02*
X182807040Y-117520100D01*
D15*
X115480000Y-130350000D02*
X116880000Y-130350000D01*
X115480000Y-131750000D02*
X115480000Y-130350000D01*
X116880000Y-130350000D02*
X116880000Y-131750000D01*
X116880000Y-131750000D02*
X115480000Y-131750000D01*
X146072499Y-149802223D02*
X146072499Y-149292775D01*
X147117499Y-149802223D02*
X147117499Y-149292775D01*
X196935000Y-78195000D02*
X196935000Y-79665000D01*
X196935000Y-79665000D02*
X199395000Y-79665000D01*
X199395000Y-78195000D02*
X196935000Y-78195000D01*
D16*
X135825000Y-50130001D02*
X137999999Y-50130001D01*
X137025000Y-53229999D02*
X137999999Y-53229999D01*
D15*
X126957500Y-147294724D02*
X126957500Y-146785276D01*
X128002500Y-147294724D02*
X128002500Y-146785276D01*
X188222500Y-69545276D02*
X188222500Y-70054724D01*
X187177500Y-69545276D02*
X187177500Y-70054724D01*
X118010000Y-84990000D02*
X119410000Y-84990000D01*
X118010000Y-86390000D02*
X118010000Y-84990000D01*
X119410000Y-84990000D02*
X119410000Y-86390000D01*
X119410000Y-86390000D02*
X118010000Y-86390000D01*
X136155000Y-143276248D02*
X136155000Y-143798752D01*
X134685000Y-143276248D02*
X134685000Y-143798752D01*
X197442776Y-81867500D02*
X197952224Y-81867500D01*
X197442776Y-82912500D02*
X197952224Y-82912500D01*
D18*
X194945600Y-76111900D02*
X198044400Y-76111900D01*
X198044400Y-73013100D02*
X194945600Y-73013100D01*
X196190200Y-73013100D02*
G75*
G03*
X196799800Y-73013100I304800J0D01*
G01*
D15*
X201237500Y-76035276D02*
X201237500Y-76544724D01*
X200192500Y-76035276D02*
X200192500Y-76544724D01*
D18*
X110202900Y-126947100D02*
X114340560Y-126947100D01*
X116809440Y-126947100D02*
X120947100Y-126947100D01*
X120947100Y-126947100D02*
X120947100Y-116202900D01*
X110202900Y-116202900D02*
X110202900Y-126947100D01*
X114340560Y-116202900D02*
X110202900Y-116202900D01*
X120947100Y-116202900D02*
X116809440Y-116202900D01*
D20*
X149980000Y-51570000D02*
G75*
G03*
X149980000Y-51570000I-125000J0D01*
G01*
D15*
X169460000Y-68003733D02*
X169460000Y-68296267D01*
X168440000Y-68003733D02*
X168440000Y-68296267D01*
X132674724Y-116632500D02*
X132165276Y-116632500D01*
X132674724Y-115587500D02*
X132165276Y-115587500D01*
X166010000Y-91058767D02*
X166010000Y-90766233D01*
X167030000Y-91058767D02*
X167030000Y-90766233D01*
D18*
X106967900Y-73662100D02*
X111105560Y-73662100D01*
X113574440Y-73662100D02*
X117712100Y-73662100D01*
X117712100Y-73662100D02*
X117712100Y-62917900D01*
X106967900Y-62917900D02*
X106967900Y-73662100D01*
X111105560Y-62917900D02*
X106967900Y-62917900D01*
X117712100Y-62917900D02*
X113574440Y-62917900D01*
D15*
X184492500Y-76907500D02*
X184492500Y-78377500D01*
X184492500Y-78377500D02*
X186952500Y-78377500D01*
X186952500Y-76907500D02*
X184492500Y-76907500D01*
D19*
X126965000Y-55245000D02*
X126965000Y-45495000D01*
X126965000Y-45495000D02*
X125570000Y-45495000D01*
X125570000Y-55245000D02*
X126965000Y-55245000D01*
X119045000Y-55245000D02*
X121020000Y-55245000D01*
X119045000Y-45495000D02*
X121020000Y-45495000D01*
D16*
X131045000Y-54670000D02*
G75*
G03*
X131045000Y-54670000I-100000J0D01*
G01*
D15*
X121827500Y-98224724D02*
X121827500Y-97715276D01*
X122872500Y-98224724D02*
X122872500Y-97715276D01*
X191610000Y-64220000D02*
X193010000Y-64220000D01*
X191610000Y-65620000D02*
X191610000Y-64220000D01*
X193010000Y-64220000D02*
X193010000Y-65620000D01*
X193010000Y-65620000D02*
X191610000Y-65620000D01*
X185087776Y-80490000D02*
X185597224Y-80490000D01*
X185087776Y-81535000D02*
X185597224Y-81535000D01*
X133358732Y-50249998D02*
X133651266Y-50249998D01*
X133358732Y-51269998D02*
X133651266Y-51269998D01*
X122340000Y-66821267D02*
X122340000Y-66528733D01*
X123360000Y-66821267D02*
X123360000Y-66528733D01*
X179167500Y-75067224D02*
X179167500Y-74557776D01*
X180212500Y-75067224D02*
X180212500Y-74557776D01*
X142332499Y-153452223D02*
X142332499Y-152942775D01*
X143377499Y-153452223D02*
X143377499Y-152942775D01*
X131990000Y-64663733D02*
X131990000Y-64956267D01*
X130970000Y-64663733D02*
X130970000Y-64956267D01*
D18*
X174500100Y-98829900D02*
X177697960Y-98829900D01*
X179862040Y-98829900D02*
X183059900Y-98829900D01*
X183059900Y-98829900D02*
X183059900Y-90270100D01*
X174500100Y-90270100D02*
X174500100Y-98829900D01*
X177697960Y-90270100D02*
X174500100Y-90270100D01*
X183059900Y-90270100D02*
X179862040Y-90270100D01*
D15*
X173410000Y-64220000D02*
X179420000Y-64220000D01*
X175660000Y-71040000D02*
X179420000Y-71040000D01*
X179420000Y-64220000D02*
X179420000Y-65480000D01*
X179420000Y-71040000D02*
X179420000Y-69780000D01*
D20*
X161850000Y-89402500D02*
G75*
G03*
X161850000Y-89402500I-125000J0D01*
G01*
D15*
X154150000Y-53186267D02*
X154150000Y-52893733D01*
X155170000Y-53186267D02*
X155170000Y-52893733D01*
D16*
X130365000Y-141980000D02*
X131515000Y-141980000D01*
X131865000Y-141980000D02*
X132615000Y-141980000D01*
X131865000Y-144980000D02*
X131865000Y-141980000D01*
X132615000Y-141980000D02*
X132615000Y-144980000D01*
X132615000Y-144980000D02*
X131865000Y-144980000D01*
D15*
X181642776Y-80510000D02*
X182152224Y-80510000D01*
X181642776Y-81555000D02*
X182152224Y-81555000D01*
X155030000Y-57730000D02*
X137030000Y-57730000D01*
X137030000Y-57730000D02*
X137030000Y-134930000D01*
X155030000Y-134930000D02*
X155030000Y-57730000D01*
X137030000Y-134930000D02*
X155030000Y-134930000D01*
D20*
X126120000Y-61520000D02*
G75*
G03*
X126120000Y-61520000I-125000J0D01*
G01*
D15*
X147925000Y-47622500D02*
X146455000Y-47622500D01*
X146455000Y-47622500D02*
X146455000Y-50082500D01*
X147925000Y-50082500D02*
X147925000Y-47622500D01*
X134475276Y-148297500D02*
X134984724Y-148297500D01*
X134475276Y-149342500D02*
X134984724Y-149342500D01*
X191769724Y-75505000D02*
X191260276Y-75505000D01*
X191769724Y-74460000D02*
X191260276Y-74460000D01*
X147847776Y-46157500D02*
X148357224Y-46157500D01*
X147847776Y-47202500D02*
X148357224Y-47202500D01*
X164985000Y-125235000D02*
X164985000Y-126705000D01*
X164985000Y-126705000D02*
X167445000Y-126705000D01*
X167445000Y-125235000D02*
X164985000Y-125235000D01*
X198342500Y-70575276D02*
X198342500Y-71084724D01*
X197297500Y-70575276D02*
X197297500Y-71084724D01*
D18*
X139595599Y-151066899D02*
X142694399Y-151066899D01*
X142694399Y-147968099D02*
X139595599Y-147968099D01*
X140840199Y-147968099D02*
G75*
G03*
X141449799Y-147968099I304800J0D01*
G01*
%LPC*%
D21*
X118670000Y-46020000D02*
X121420000Y-46020000D01*
X121420000Y-45520000D01*
X125120000Y-45520000D01*
X125120000Y-55220000D01*
X121420000Y-55220000D01*
X121420000Y-54720000D01*
X118670000Y-54720000D01*
X118670000Y-55420000D01*
X117120000Y-55420000D01*
X117120000Y-45320000D01*
X118670000Y-45320000D01*
X118670000Y-46020000D01*
G36*
X118670000Y-46020000D02*
G01*
X121420000Y-46020000D01*
X121420000Y-45520000D01*
X125120000Y-45520000D01*
X125120000Y-55220000D01*
X121420000Y-55220000D01*
X121420000Y-54720000D01*
X118670000Y-54720000D01*
X118670000Y-55420000D01*
X117120000Y-55420000D01*
X117120000Y-45320000D01*
X118670000Y-45320000D01*
X118670000Y-46020000D01*
G37*
D22*
X126042500Y-109420000D03*
X124217500Y-109420000D03*
D23*
X140584999Y-154109999D03*
X140584999Y-152284999D03*
D24*
X131090000Y-113630000D03*
X133630000Y-113630000D03*
X133630000Y-104130000D03*
X131090000Y-104130000D03*
D23*
X120750000Y-65982500D03*
X120750000Y-64157500D03*
X120650000Y-72637500D03*
X120650000Y-70812500D03*
D25*
X129112500Y-147931250D03*
X129112500Y-146181250D03*
D26*
X182252900Y-72375001D03*
X182252900Y-73024999D03*
X182252900Y-73675001D03*
X182252900Y-74324999D03*
X186647100Y-74324999D03*
X186647100Y-73675001D03*
X186647100Y-73024999D03*
X186647100Y-72375001D03*
D27*
X163210000Y-71823600D03*
X163210000Y-65016400D03*
D28*
X172170000Y-122672500D03*
X172170000Y-120947500D03*
D29*
X148495000Y-44050000D03*
X144265000Y-44050000D03*
D30*
X178220000Y-59690000D03*
X174620000Y-59690000D03*
D31*
X116040000Y-102020000D03*
D32*
X137856401Y-142485000D03*
X137856401Y-143755000D03*
X137856401Y-145025000D03*
X137856401Y-146295000D03*
X142683599Y-146295000D03*
X142683599Y-145025000D03*
X142683599Y-143755000D03*
X142683599Y-142485000D03*
D33*
X133560000Y-40420000D03*
X133560000Y-47430000D03*
X138560000Y-40420000D03*
X138560000Y-47430000D03*
D34*
X172185000Y-80790000D03*
X173935000Y-80790000D03*
D35*
X169990000Y-126020000D03*
X171815000Y-126020000D03*
D31*
X181560000Y-113560000D03*
X163075000Y-58650000D03*
D28*
X129130000Y-144372500D03*
X129130000Y-142647500D03*
D33*
X155500000Y-40745000D03*
X155500000Y-47755000D03*
X160500000Y-40745000D03*
X160500000Y-47755000D03*
D31*
X114510000Y-78160000D03*
D36*
X145257500Y-41490000D03*
X146982500Y-41490000D03*
D28*
X171705000Y-95450000D03*
X171705000Y-93725000D03*
D22*
X177450000Y-80770000D03*
X175625000Y-80770000D03*
D31*
X179190000Y-86090000D03*
X178940000Y-103950000D03*
X183570000Y-132000000D03*
D37*
X188410000Y-73997500D03*
X188410000Y-75822500D03*
D31*
X187950000Y-64960000D03*
D38*
X161250000Y-120100000D03*
X161250000Y-120600000D03*
X161250000Y-121100000D03*
X161250000Y-121600000D03*
X164150000Y-121600000D03*
X164150000Y-121100000D03*
X164150000Y-120600000D03*
X164150000Y-120100000D03*
D39*
X162700000Y-120850000D03*
D31*
X118440000Y-109670000D03*
D37*
X127480000Y-142580000D03*
X127480000Y-144405000D03*
D40*
X113925000Y-97680300D03*
X113925000Y-89069700D03*
D28*
X165930000Y-122020500D03*
X165930000Y-120295500D03*
D31*
X117560000Y-60760000D03*
D23*
X186090000Y-96490000D03*
X186090000Y-94665000D03*
D31*
X167625000Y-79675000D03*
D27*
X181725000Y-125203600D03*
X181725000Y-118396400D03*
D31*
X116180000Y-131050000D03*
D23*
X146594999Y-150459999D03*
X146594999Y-148634999D03*
D34*
X197720000Y-78930000D03*
X199470000Y-78930000D03*
D41*
X136124999Y-50729999D03*
X136124999Y-51680000D03*
X136124999Y-52629998D03*
X138874999Y-52629998D03*
X138874999Y-51680000D03*
X138874999Y-50729999D03*
D23*
X127480000Y-147952500D03*
X127480000Y-146127500D03*
D37*
X187700000Y-68887500D03*
X187700000Y-70712500D03*
D31*
X118710000Y-85690000D03*
D42*
X135420000Y-142500000D03*
X135420000Y-144575000D03*
D35*
X196785000Y-82390000D03*
X198610000Y-82390000D03*
D26*
X194297900Y-73587501D03*
X194297900Y-74237499D03*
X194297900Y-74887501D03*
X194297900Y-75537499D03*
X198692100Y-75537499D03*
X198692100Y-74887501D03*
X198692100Y-74237499D03*
X198692100Y-73587501D03*
D37*
X200715000Y-75377500D03*
X200715000Y-77202500D03*
D40*
X115575000Y-125880300D03*
X115575000Y-117269700D03*
D38*
X150280000Y-52220000D03*
X150280000Y-52720000D03*
X150280000Y-53220000D03*
X150280000Y-53720000D03*
X153180000Y-53720000D03*
X153180000Y-53220000D03*
X153180000Y-52720000D03*
X153180000Y-52220000D03*
D39*
X151730000Y-52970000D03*
D43*
X168950000Y-67287500D03*
X168950000Y-69012500D03*
D22*
X133332500Y-116110000D03*
X131507500Y-116110000D03*
D28*
X166520000Y-91775000D03*
X166520000Y-90050000D03*
D40*
X112340000Y-72595300D03*
X112340000Y-63984700D03*
D34*
X185277500Y-77642500D03*
X187027500Y-77642500D03*
D44*
X128745000Y-54570000D03*
X128745000Y-53370000D03*
X128745000Y-52170000D03*
X128745000Y-50970000D03*
X128745000Y-49770000D03*
X128745000Y-48570000D03*
X128745000Y-47370000D03*
X128745000Y-46170000D03*
D23*
X122350000Y-98882500D03*
X122350000Y-97057500D03*
D31*
X192310000Y-64920000D03*
D35*
X184430000Y-81012500D03*
X186255000Y-81012500D03*
D36*
X132642499Y-50759998D03*
X134367499Y-50759998D03*
D28*
X122850000Y-67537500D03*
X122850000Y-65812500D03*
D23*
X179690000Y-75725000D03*
X179690000Y-73900000D03*
X142854999Y-154109999D03*
X142854999Y-152284999D03*
D43*
X131480000Y-63947500D03*
X131480000Y-65672500D03*
D27*
X178780000Y-97953600D03*
X178780000Y-91146400D03*
D45*
X174360000Y-65330000D03*
X174360000Y-67630000D03*
D46*
X180660000Y-67630000D03*
D45*
X174360000Y-69930000D03*
D38*
X162150000Y-90052500D03*
X162150000Y-90552500D03*
X162150000Y-91052500D03*
X162150000Y-91552500D03*
X165050000Y-91552500D03*
X165050000Y-91052500D03*
X165050000Y-90552500D03*
X165050000Y-90052500D03*
D39*
X163600000Y-90802500D03*
D28*
X154660000Y-53902500D03*
X154660000Y-52177500D03*
D47*
X130940000Y-142530000D03*
X130940000Y-143480000D03*
X130940000Y-144430000D03*
X133540000Y-144430000D03*
X133540000Y-142530000D03*
D35*
X180985000Y-81032500D03*
X182810000Y-81032500D03*
D48*
X142530000Y-125610000D03*
X145030000Y-125610000D03*
X147530000Y-125610000D03*
X150030000Y-125610000D03*
X142530000Y-122610000D03*
X145030000Y-122610000D03*
X147530000Y-122610000D03*
X150030000Y-122610000D03*
X142530000Y-120110000D03*
X145030000Y-120110000D03*
X147530000Y-120110000D03*
X150030000Y-120110000D03*
X142530000Y-117110000D03*
X145030000Y-117110000D03*
X147530000Y-117110000D03*
X150030000Y-117110000D03*
X142530000Y-114610000D03*
X145030000Y-114610000D03*
X147530000Y-114610000D03*
X150030000Y-114610000D03*
X142530000Y-111610000D03*
X145030000Y-111610000D03*
X147530000Y-111610000D03*
X150030000Y-111610000D03*
X142530000Y-109110000D03*
X145030000Y-109110000D03*
X147530000Y-109110000D03*
X150030000Y-109110000D03*
X142530000Y-106110000D03*
X145030000Y-106110000D03*
X147530000Y-106110000D03*
X150030000Y-106110000D03*
D49*
X143360000Y-100830000D03*
X145010000Y-100830000D03*
X146660000Y-100830000D03*
X148310000Y-100830000D03*
X149960000Y-100830000D03*
X143360000Y-98830000D03*
X145010000Y-98830000D03*
X146660000Y-98830000D03*
X148310000Y-98830000D03*
X149960000Y-98830000D03*
X143360000Y-96830000D03*
X145010000Y-96830000D03*
X146660000Y-96830000D03*
X148310000Y-96830000D03*
X149960000Y-96830000D03*
X143360000Y-94830000D03*
X145010000Y-94830000D03*
X146660000Y-94830000D03*
X148310000Y-94830000D03*
X149960000Y-94830000D03*
X143360000Y-92830000D03*
X145010000Y-92830000D03*
X146660000Y-92830000D03*
X148310000Y-92830000D03*
X149960000Y-92830000D03*
X143360000Y-90830000D03*
X145010000Y-90830000D03*
X146660000Y-90830000D03*
X148310000Y-90830000D03*
X149960000Y-90830000D03*
D48*
X142530000Y-85900000D03*
X145030000Y-85900000D03*
X147530000Y-85900000D03*
X150030000Y-85900000D03*
X142530000Y-82900000D03*
X145030000Y-82900000D03*
X147530000Y-82900000D03*
X150030000Y-82900000D03*
X142530000Y-80400000D03*
X145030000Y-80400000D03*
X147530000Y-80400000D03*
X150030000Y-80400000D03*
X142530000Y-77400000D03*
X145030000Y-77400000D03*
X147530000Y-77400000D03*
X150030000Y-77400000D03*
X142530000Y-74900000D03*
X145030000Y-74900000D03*
X147530000Y-74900000D03*
X150030000Y-74900000D03*
X142530000Y-71900000D03*
X145030000Y-71900000D03*
X147530000Y-71900000D03*
X150030000Y-71900000D03*
X142530000Y-69400000D03*
X145030000Y-69400000D03*
X147530000Y-69400000D03*
X150030000Y-69400000D03*
X142530000Y-66400000D03*
X145030000Y-66400000D03*
X147530000Y-66400000D03*
X150030000Y-66400000D03*
D38*
X126420000Y-62170000D03*
X126420000Y-62670000D03*
X126420000Y-63170000D03*
X126420000Y-63670000D03*
X129320000Y-63670000D03*
X129320000Y-63170000D03*
X129320000Y-62670000D03*
X129320000Y-62170000D03*
D39*
X127870000Y-62920000D03*
D50*
X147190000Y-48407500D03*
X147190000Y-50157500D03*
D35*
X133817500Y-148820000D03*
X135642500Y-148820000D03*
D22*
X192427500Y-74982500D03*
X190602500Y-74982500D03*
D35*
X147190000Y-46680000D03*
X149015000Y-46680000D03*
D34*
X165770000Y-125970000D03*
X167520000Y-125970000D03*
D37*
X197820000Y-69917500D03*
X197820000Y-71742500D03*
D26*
X138947899Y-148542500D03*
X138947899Y-149192498D03*
X138947899Y-149842500D03*
X138947899Y-150492498D03*
X143342099Y-150492498D03*
X143342099Y-149842500D03*
X143342099Y-149192498D03*
X143342099Y-148542500D03*
D51*
X120650000Y-75990000D03*
D52*
X120650000Y-68370000D03*
X120650000Y-60750000D03*
D53*
X171450000Y-60750000D03*
D52*
X171450000Y-64560000D03*
X171450000Y-68370000D03*
X171450000Y-72180000D03*
D53*
X171450000Y-75990000D03*
D54*
X122740000Y-128940000D03*
D55*
X122740000Y-121320000D03*
X122740000Y-113700000D03*
D56*
X173540000Y-113700000D03*
X173540000Y-128940000D03*
D54*
X122300000Y-102020000D03*
D55*
X122300000Y-94400000D03*
X122300000Y-86780000D03*
D56*
X173100000Y-86780000D03*
X173100000Y-102020000D03*
%LPD*%
M02*
