M48
; DRILL file {KiCad 7.0.9} date Tue Apr 30 19:42:53 2024
; FORMAT={-:-/ absolute / metric / decimal}
; #@! TF.CreationDate,2024-04-30T19:42:53-02:30
; #@! TF.GenerationSoftware,Kicad,Pcbnew,7.0.9
; #@! TF.FileFunction,Plated,1,4,PTH
FMAT,2
METRIC
; #@! TA.AperFunction,Plated,PTH,ViaDrill
T1C0.400
; #@! TA.AperFunction,Plated,PTH,ComponentDrill
T2C0.700
; #@! TA.AperFunction,Plated,PTH,ComponentDrill
T3C0.750
; #@! TA.AperFunction,Plated,PTH,ComponentDrill
T4C1.070
; #@! TA.AperFunction,Plated,PTH,ComponentDrill
T5C1.220
; #@! TA.AperFunction,Plated,PTH,ComponentDrill
T6C1.400
; #@! TA.AperFunction,Plated,PTH,ComponentDrill
T7C1.770
; #@! TA.AperFunction,Plated,PTH,ComponentDrill
T8C1.900
; #@! TA.AperFunction,Plated,PTH,ComponentDrill
T9C2.030
%
G90
G05
T1
X91.04Y-110.11
X91.49Y-82.14
X92.67Y-78.86
X93.55Y-114.13
X93.61Y-73.97
X93.86Y-110.46
X94.64Y-76.6
X94.67Y-118.82
X95.11Y-71.67
X95.67Y-78.95
X95.7Y-116.3
X95.77Y-81.77
X96.61Y-74.07
X96.9Y-122.61
X97.03Y-110.78
X97.06Y-68.53
X97.22Y-120.23
X97.36Y-71.39
X97.5Y-76.55
X97.52Y-114.62
X98.19Y-65.09
X98.58Y-79.0
X98.63Y-73.78
X98.91Y-117.92
X98.96Y-81.77
X99.53Y-71.53
X99.57Y-125.3
X99.62Y-121.81
X100.37Y-128.2
X100.52Y-109.08
X100.57Y-68.46
X100.65Y-112.7
X100.9Y-65.59
X100.98Y-115.44
X100.99Y-63.73
X101.07Y-73.6
X101.16Y-60.1
X101.92Y-76.27
X101.92Y-78.62
X102.07Y-132.36
X102.3Y-121.27
X102.74Y-67.94
X102.8Y-107.65
X102.84Y-110.24
X102.87Y-124.45
X102.97Y-117.43
X103.01Y-58.18
X103.36Y-126.82
X103.42Y-81.44
X103.47Y-73.69
X103.59Y-129.81
X103.61Y-71.9
X103.77Y-64.46
X103.83Y-113.82
X103.97Y-61.29
X104.32Y-78.43
X104.78Y-122.34
X105.16Y-75.76
X105.51Y-134.29
X105.76Y-127.4
X105.78Y-131.37
X105.8Y-63.83
X105.88Y-66.03
X106.06Y-67.99
X106.14Y-55.53
X106.14Y-58.78
X106.53Y-108.47
X106.68Y-85.05
X106.78Y-119.02
X106.8Y-74.63
X106.85Y-62.5
X106.85Y-71.72
X106.85Y-81.02
X107.03Y-114.1
X107.35Y-132.96
X107.58Y-136.33
X107.73Y-123.63
X107.93Y-78.34
X107.95Y-126.25
X108.08Y-131.39
X108.29Y-87.3
X108.53Y-135.24
X108.55Y-53.99
X108.6Y-129.05
X108.63Y-60.24
X108.83Y-99.35
X109.04Y-93.17
X109.07Y-51.89
X109.2Y-84.8
X109.21Y-139.51
X109.42Y-56.56
X109.53Y-72.14
X109.53Y-76.04
X109.53Y-80.78
X109.65Y-104.75
X109.83Y-141.1
X109.87Y-123.01
X109.9Y-137.06
X110.09Y-69.27
X110.2Y-134.91
X110.775Y-96.625
X110.92Y-132.62
X111.07Y-129.97
X111.17Y-54.5
X111.325Y-89.1
X111.38Y-109.64
X111.47Y-128.37
X111.475Y-84.65
X111.76Y-52.56
X111.78Y-100.98
X111.84Y-58.02
X111.88Y-75.66
X111.92Y-78.95
X112.07Y-135.76
X112.13Y-49.39
X112.25Y-82.575
X112.3Y-125.675
X112.39Y-80.31
X112.57Y-139.21
X112.72Y-141.3
X112.86Y-68.43
X112.95Y-117.6
X113.061Y-143.263
X113.9Y-86.175
X113.99Y-130.57
X114.0Y-100.6
X114.02Y-55.37
X114.025Y-94.775
X114.07Y-71.99
X114.18Y-61.07
X114.3Y-84.6
X114.54Y-134.31
X114.59Y-50.42
X114.64Y-136.48
X114.75Y-53.67
X114.79Y-76.3
X115.36Y-47.77
X115.36Y-56.56
X115.4Y-105.32
X115.483Y-140.94
X115.5Y-59.51
X115.54Y-142.81
X115.56Y-139.03
X115.625Y-122.3
X115.7Y-114.525
X115.94Y-128.85
X116.18Y-68.61
X116.26Y-135.88
X116.275Y-89.15
X116.3Y-78.88
X116.377Y-145.486
X116.4Y-86.1
X116.48Y-133.19
X116.71Y-113.05
X116.825Y-96.825
X118.025Y-125.275
X118.14Y-56.56
X118.36Y-113.85
X118.36Y-139.17
X118.44Y-140.8
X118.45Y-75.13
X118.461Y-128.928
X118.461Y-137.525
X118.535Y-134.94
X118.6Y-112.03
X118.65Y-117.65
X118.66Y-146.97
X118.72Y-142.71
X118.805Y-132.06
X118.92Y-144.99
X119.06Y-70.05
X119.15Y-126.7
X119.49Y-63.38
X119.55Y-113.58
X120.275Y-88.8
X120.425Y-91.55
X120.67Y-44.13
X120.75Y-84.48
X120.85Y-108.71
X121.16Y-111.07
X121.46Y-56.56
X121.61Y-62.69
X122.46Y-59.18
X122.51Y-90.38
X122.6Y-118.14
X122.65Y-60.62
X122.65Y-73.35
X122.69Y-108.3
X122.74Y-44.36
X122.87Y-115.98
X123.0Y-84.79
X123.02Y-70.43
X123.31Y-111.27
X123.46Y-62.93
X123.93Y-88.88
X124.62Y-43.15
X124.63Y-56.28
X124.81Y-85.12
X124.94Y-87.06
X124.968Y-63.754
X124.99Y-90.64
X126.05Y-95.42
X126.14Y-94.2
X126.87Y-104.15
X126.89Y-94.88
X127.762Y-61.44
X127.85Y-64.516
X130.57Y-62.63
X131.48Y-67.09
X132.79Y-64.48
X133.43Y-94.26
X133.86Y-61.88
X134.25Y-95.1
X134.6Y-92.17
X134.75Y-52.3
X134.85Y-146.2
X134.97Y-94.28
X135.3Y-112.82
X137.16Y-96.266
X138.83Y-129.23
X139.01Y-57.12
X139.02Y-126.97
X139.93Y-62.07
X140.01Y-89.34
X140.04Y-92.5
X140.11Y-131.91
X140.22Y-91.13
X140.24Y-53.18
X140.34Y-65.66
X140.43Y-122.06
X140.48Y-125.6
X140.59Y-113.07
X140.59Y-123.91
X140.64Y-111.16
X140.641Y-114.629
X140.69Y-116.88
X140.71Y-118.6
X140.74Y-119.94
X140.76Y-128.99
X141.49Y-130.36
X141.59Y-107.58
X141.732Y-98.298
X141.85Y-62.25
X141.89Y-88.49
X141.89Y-132.24
X141.986Y-97.028
X142.39Y-135.62
X142.64Y-128.67
X142.68Y-141.29
X143.45Y-61.03
X143.6Y-130.68
X143.7Y-104.97
X144.18Y-137.2
X144.75Y-88.0
X144.77Y-62.16
X144.78Y-146.26
X145.2Y-143.38
X145.26Y-144.73
X145.35Y-128.73
X145.71Y-132.84
X146.13Y-60.84
X146.15Y-112.97
X146.22Y-124.08
X146.28Y-67.79
X146.28Y-73.22
X146.29Y-118.64
X146.32Y-107.7
X146.35Y-78.82
X146.51Y-84.43
X146.595Y-147.637
X147.24Y-51.46
X147.26Y-131.9
X147.82Y-62.16
X148.24Y-38.38
X148.336Y-103.378
X148.48Y-130.49
X148.67Y-135.29
X149.1Y-40.65
X149.21Y-129.04
X149.42Y-61.08
X149.67Y-88.19
X150.28Y-54.54
X150.7Y-141.8
X151.06Y-62.49
X151.41Y-48.94
X151.5Y-146.15
X151.65Y-150.77
X151.68Y-143.63
X151.72Y-54.23
X151.72Y-111.27
X151.73Y-88.49
X151.77Y-51.59
X151.81Y-107.42
X151.81Y-124.15
X151.83Y-113.0
X151.83Y-122.37
X151.84Y-125.73
X151.85Y-40.67
X151.86Y-61.03
X151.92Y-120.37
X151.98Y-105.44
X151.99Y-116.56
X152.0Y-109.31
X152.0Y-114.67
X152.02Y-38.09
X152.06Y-44.18
X152.1Y-118.77
X152.25Y-135.28
X152.42Y-46.69
X152.654Y-96.266
X152.66Y-65.49
X152.908Y-132.46
X152.97Y-129.23
X153.59Y-153.32
X153.88Y-104.77
X154.21Y-61.93
X154.62Y-88.09
X154.686Y-93.218
X155.1Y-146.18
X155.72Y-133.82
X155.79Y-53.89
X155.81Y-75.88
X155.87Y-85.51
X155.9Y-52.18
X155.9Y-81.04
X155.956Y-65.278
X155.96Y-83.32
X155.97Y-141.74
X156.07Y-116.18
X156.09Y-109.8
X156.11Y-78.61
X156.23Y-119.16
X156.4Y-122.89
X156.41Y-72.57
X156.718Y-89.916
X156.73Y-126.46
X156.75Y-152.47
X156.94Y-131.9
X157.27Y-70.26
X157.46Y-135.28
X157.51Y-106.21
X157.69Y-117.48
X158.02Y-141.75
X158.21Y-137.41
X158.28Y-129.42
X158.55Y-143.88
X158.62Y-145.9
X158.75Y-87.63
X158.82Y-61.21
X158.95Y-111.36
X159.04Y-67.25
X159.12Y-124.95
X159.14Y-113.08
X159.28Y-99.9
X159.766Y-73.914
X159.766Y-76.708
X159.83Y-120.06
X159.85Y-65.98
X159.89Y-121.6
X159.95Y-130.16
X160.02Y-81.026
X160.04Y-107.77
X160.274Y-62.738
X160.528Y-89.662
X160.58Y-127.35
X160.6Y-71.35
X160.66Y-91.53
X160.83Y-103.92
X161.0Y-115.42
X161.14Y-140.06
X161.25Y-65.0
X161.28Y-118.89
X161.32Y-98.14
X161.45Y-113.21
X161.544Y-84.836
X161.64Y-131.43
X161.798Y-88.646
X161.94Y-124.34
X161.95Y-76.3
X162.02Y-106.04
X162.05Y-109.87
X162.35Y-145.97
X162.41Y-127.54
X162.44Y-100.21
X162.44Y-128.7
X162.55Y-78.15
X162.65Y-119.37
X162.71Y-122.13
X162.88Y-142.14
X162.98Y-60.84
X163.2Y-67.55
X163.54Y-92.02
X163.54Y-110.99
X163.576Y-88.138
X163.59Y-75.3
X163.59Y-89.45
X163.7Y-79.34
X163.79Y-42.85
X163.9Y-49.03
X163.96Y-44.68
X163.96Y-47.1
X164.27Y-103.13
X164.48Y-40.78
X164.72Y-97.63
X164.72Y-144.83
X164.74Y-80.84
X164.83Y-115.3
X164.88Y-131.05
X165.03Y-106.26
X165.05Y-76.58
X165.078Y-61.92
X165.15Y-60.45
X165.22Y-112.23
X165.63Y-74.0
X165.65Y-65.225
X165.68Y-149.1
X165.75Y-71.175
X165.79Y-123.96
X165.862Y-86.868
X165.94Y-108.2
X165.97Y-46.96
X166.08Y-139.1
X166.22Y-48.84
X166.52Y-98.51
X166.55Y-100.79
X166.63Y-42.64
X166.63Y-88.52
X166.81Y-142.81
X166.82Y-44.77
X166.86Y-41.03
X166.965Y-75.351
X167.01Y-60.03
X167.02Y-76.54
X167.16Y-119.68
X167.41Y-73.959
X167.46Y-104.07
X167.65Y-91.61
X168.21Y-61.57
X168.23Y-63.07
X168.402Y-86.868
X168.48Y-107.56
X168.64Y-59.28
X168.73Y-76.61
X168.73Y-135.04
X168.77Y-71.88
X168.94Y-65.41
X169.47Y-74.07
X169.57Y-113.54
X169.67Y-130.39
X169.86Y-120.15
X169.97Y-146.61
X170.04Y-117.17
X170.17Y-100.54
X170.17Y-103.52
X170.74Y-81.35
X170.8Y-97.29
X170.8Y-132.79
X170.91Y-138.29
X170.94Y-111.45
X172.27Y-58.21
X172.27Y-98.73
X172.32Y-137.44
X172.39Y-90.68
X172.52Y-92.15
X172.52Y-146.97
X172.7Y-107.32
X172.86Y-118.33
X173.06Y-62.81
X173.3Y-97.51
X173.48Y-61.51
X173.88Y-72.79
X173.99Y-76.2
X174.0Y-138.8
X174.12Y-117.61
X174.14Y-133.19
X174.3Y-74.66
X174.93Y-104.14
X175.006Y-110.49
X175.24Y-88.74
X175.514Y-78.74
X175.68Y-62.33
X175.81Y-85.07
X176.43Y-101.14
X176.525Y-91.25
X176.575Y-97.55
X176.84Y-87.52
X176.95Y-113.25
X177.038Y-77.724
X177.4Y-115.36
X177.61Y-136.26
X177.68Y-110.94
X177.73Y-132.53
X178.14Y-106.89
X178.48Y-128.76
X178.55Y-124.725
X178.79Y-139.72
X178.8Y-62.14
X179.13Y-113.38
X179.375Y-118.75
X179.383Y-72.375
X179.49Y-135.35
X179.92Y-133.66
X179.97Y-100.98
X180.18Y-57.83
X180.41Y-61.15
X180.46Y-130.71
X180.57Y-89.08
X180.78Y-110.41
X180.97Y-128.8
X181.0Y-91.35
X181.03Y-59.57
X181.22Y-75.74
X181.28Y-139.12
X181.325Y-97.225
X181.57Y-103.49
X181.775Y-115.7
X181.78Y-62.06
X182.16Y-86.11
X182.58Y-58.9
X182.59Y-140.35
X182.67Y-106.8
X182.84Y-135.78
X182.94Y-128.62
X182.95Y-104.24
X183.04Y-110.96
X183.07Y-99.76
X183.1Y-101.39
X183.13Y-91.59
X183.38Y-114.73
X183.45Y-85.2
X183.51Y-86.8
X183.74Y-62.13
X183.82Y-88.46
X183.85Y-124.65
X183.96Y-60.4
X184.125Y-118.7
X184.65Y-134.76
X184.72Y-67.18
X184.912Y-65.786
X185.14Y-100.86
X185.17Y-102.89
X185.47Y-127.77
X185.6Y-58.4
X185.9Y-125.56
X185.93Y-65.12
X185.95Y-62.23
X186.08Y-99.45
X186.18Y-60.31
X186.19Y-137.11
X186.22Y-66.72
X186.23Y-123.59
X186.23Y-129.93
X186.31Y-70.712
X186.61Y-103.89
X187.09Y-79.38
X187.21Y-132.94
X187.54Y-116.69
X187.68Y-125.94
X187.82Y-123.54
X187.91Y-106.52
X188.31Y-71.82
X188.44Y-61.52
X188.53Y-128.05
X188.65Y-135.14
X188.8Y-110.49
X188.94Y-58.44
X189.42Y-130.92
X189.88Y-67.45
X189.95Y-114.6
X190.025Y-73.025
X190.12Y-60.06
X190.16Y-62.89
X190.55Y-126.03
X190.78Y-123.83
X191.72Y-119.08
X191.76Y-109.82
X191.82Y-128.71
X192.61Y-130.64
X192.85Y-123.68
X192.99Y-126.13
X194.1Y-69.55
X194.14Y-67.5
X194.25Y-121.45
X194.73Y-127.91
X195.53Y-123.68
X195.9Y-125.99
X196.05Y-65.51
X196.23Y-113.35
X196.48Y-71.82
X196.64Y-116.37
X196.94Y-111.16
X197.53Y-119.77
X198.72Y-76.94
X198.75Y-117.1
X199.58Y-114.46
X200.542Y-81.047
X200.742Y-73.657
X201.0Y-117.17
X201.89Y-110.11
T2
X146.66Y-90.83
T3
X143.36Y-90.83
X143.36Y-92.83
X143.36Y-94.83
X143.36Y-96.83
X143.36Y-98.83
X143.36Y-100.83
X145.01Y-90.83
X145.01Y-92.83
X145.01Y-94.83
X145.01Y-96.83
X145.01Y-98.83
X145.01Y-100.83
X146.66Y-92.83
X146.66Y-94.83
X146.66Y-96.83
X146.66Y-98.83
X146.66Y-100.83
X148.31Y-90.83
X148.31Y-92.83
X148.31Y-94.83
X148.31Y-96.83
X148.31Y-98.83
X148.31Y-100.83
X149.96Y-90.83
X149.96Y-92.83
X149.96Y-94.83
X149.96Y-96.83
X149.96Y-98.83
X149.96Y-100.83
T4
X142.53Y-66.4
X142.53Y-69.4
X142.53Y-71.9
X142.53Y-74.9
X142.53Y-77.4
X142.53Y-80.4
X142.53Y-82.9
X142.53Y-85.9
X142.53Y-106.11
X142.53Y-109.11
X142.53Y-111.61
X142.53Y-114.61
X142.53Y-117.11
X142.53Y-120.11
X142.53Y-122.61
X142.53Y-125.61
X145.03Y-66.4
X145.03Y-69.4
X145.03Y-71.9
X145.03Y-74.9
X145.03Y-77.4
X145.03Y-80.4
X145.03Y-82.9
X145.03Y-85.9
X145.03Y-106.11
X145.03Y-109.11
X145.03Y-111.61
X145.03Y-114.61
X145.03Y-117.11
X145.03Y-120.11
X145.03Y-122.61
X145.03Y-125.61
X147.53Y-66.4
X147.53Y-69.4
X147.53Y-71.9
X147.53Y-74.9
X147.53Y-77.4
X147.53Y-80.4
X147.53Y-82.9
X147.53Y-85.9
X147.53Y-106.11
X147.53Y-109.11
X147.53Y-111.61
X147.53Y-114.61
X147.53Y-117.11
X147.53Y-120.11
X147.53Y-122.61
X147.53Y-125.61
X150.03Y-66.4
X150.03Y-69.4
X150.03Y-71.9
X150.03Y-74.9
X150.03Y-77.4
X150.03Y-80.4
X150.03Y-82.9
X150.03Y-85.9
X150.03Y-106.11
X150.03Y-109.11
X150.03Y-111.61
X150.03Y-114.61
X150.03Y-117.11
X150.03Y-120.11
X150.03Y-122.61
X150.03Y-125.61
T5
X120.65Y-60.75
X120.65Y-68.37
X120.65Y-75.99
X171.45Y-64.56
X171.45Y-68.37
X171.45Y-72.18
T6
X122.3Y-86.78
X122.3Y-94.4
X122.3Y-102.02
X122.74Y-113.7
X122.74Y-121.32
X122.74Y-128.94
T7
X171.45Y-60.75
X171.45Y-75.99
T8
X133.56Y-40.42
X133.56Y-47.43
X138.56Y-40.42
X138.56Y-47.43
X155.5Y-40.745
X155.5Y-47.755
X160.5Y-40.745
X160.5Y-47.755
T9
X173.1Y-86.78
X173.1Y-102.02
X173.54Y-113.7
X173.54Y-128.94
T0
M30
