G04 #@! TF.GenerationSoftware,KiCad,Pcbnew,7.0.9*
G04 #@! TF.CreationDate,2024-04-30T19:43:12-02:30*
G04 #@! TF.ProjectId,power board 2024,706f7765-7220-4626-9f61-726420323032,rev?*
G04 #@! TF.SameCoordinates,Original*
G04 #@! TF.FileFunction,Soldermask,Top*
G04 #@! TF.FilePolarity,Negative*
%FSLAX46Y46*%
G04 Gerber Fmt 4.6, Leading zero omitted, Abs format (unit mm)*
G04 Created by KiCad (PCBNEW 7.0.9) date 2024-04-30 19:43:12*
%MOMM*%
%LPD*%
G01*
G04 APERTURE LIST*
G04 Aperture macros list*
%AMRoundRect*
0 Rectangle with rounded corners*
0 $1 Rounding radius*
0 $2 $3 $4 $5 $6 $7 $8 $9 X,Y pos of 4 corners*
0 Add a 4 corners polygon primitive as box body*
4,1,4,$2,$3,$4,$5,$6,$7,$8,$9,$2,$3,0*
0 Add four circle primitives for the rounded corners*
1,1,$1+$1,$2,$3*
1,1,$1+$1,$4,$5*
1,1,$1+$1,$6,$7*
1,1,$1+$1,$8,$9*
0 Add four rect primitives between the rounded corners*
20,1,$1+$1,$2,$3,$4,$5,0*
20,1,$1+$1,$4,$5,$6,$7,0*
20,1,$1+$1,$6,$7,$8,$9,0*
20,1,$1+$1,$8,$9,$2,$3,0*%
G04 Aperture macros list end*
%ADD10C,0.010000*%
%ADD11RoundRect,0.237500X0.250000X0.237500X-0.250000X0.237500X-0.250000X-0.237500X0.250000X-0.237500X0*%
%ADD12RoundRect,0.237500X0.237500X-0.250000X0.237500X0.250000X-0.237500X0.250000X-0.237500X-0.250000X0*%
%ADD13RoundRect,0.101600X0.450000X-0.550000X0.450000X0.550000X-0.450000X0.550000X-0.450000X-0.550000X0*%
%ADD14RoundRect,0.237500X0.237500X-0.287500X0.237500X0.287500X-0.237500X0.287500X-0.237500X-0.287500X0*%
%ADD15R,1.371600X0.457200*%
%ADD16R,1.498600X3.403600*%
%ADD17RoundRect,0.237500X0.237500X-0.300000X0.237500X0.300000X-0.237500X0.300000X-0.237500X-0.300000X0*%
%ADD18RoundRect,0.102000X1.060000X0.750000X-1.060000X0.750000X-1.060000X-0.750000X1.060000X-0.750000X0*%
%ADD19RoundRect,0.250000X1.050000X0.550000X-1.050000X0.550000X-1.050000X-0.550000X1.050000X-0.550000X0*%
%ADD20R,1.000000X1.000000*%
%ADD21R,2.469157X0.622132*%
%ADD22C,3.200000*%
%ADD23RoundRect,0.237500X-0.287500X-0.237500X0.287500X-0.237500X0.287500X0.237500X-0.287500X0.237500X0*%
%ADD24RoundRect,0.237500X-0.250000X-0.237500X0.250000X-0.237500X0.250000X0.237500X-0.250000X0.237500X0*%
%ADD25RoundRect,0.237500X-0.300000X-0.237500X0.300000X-0.237500X0.300000X0.237500X-0.300000X0.237500X0*%
%ADD26RoundRect,0.237500X-0.237500X0.250000X-0.237500X-0.250000X0.237500X-0.250000X0.237500X0.250000X0*%
%ADD27R,0.850000X0.300000*%
%ADD28R,1.600000X1.600000*%
%ADD29R,1.803400X3.606800*%
%ADD30R,1.000000X0.599999*%
%ADD31RoundRect,0.250000X-0.475000X0.337500X-0.475000X-0.337500X0.475000X-0.337500X0.475000X0.337500X0*%
%ADD32RoundRect,0.237500X-0.237500X0.300000X-0.237500X-0.300000X0.237500X-0.300000X0.237500X0.300000X0*%
%ADD33R,2.800000X0.900000*%
%ADD34R,2.000000X1.500000*%
%ADD35R,2.000000X3.800000*%
%ADD36R,1.150000X0.600000*%
%ADD37C,1.800000*%
%ADD38C,1.300000*%
%ADD39RoundRect,0.237500X-0.237500X0.287500X-0.237500X-0.287500X0.237500X-0.287500X0.237500X0.287500X0*%
%ADD40RoundRect,0.102000X-0.915000X-0.915000X0.915000X-0.915000X0.915000X0.915000X-0.915000X0.915000X0*%
%ADD41C,2.034000*%
%ADD42C,2.864000*%
%ADD43R,2.100000X2.100000*%
%ADD44C,2.100000*%
%ADD45C,3.045000*%
G04 APERTURE END LIST*
D10*
X118670000Y-46020000D02*
X121420000Y-46020000D01*
X121420000Y-45520000D01*
X125120000Y-45520000D01*
X125120000Y-55220000D01*
X121420000Y-55220000D01*
X121420000Y-54720000D01*
X118670000Y-54720000D01*
X118670000Y-55420000D01*
X117120000Y-55420000D01*
X117120000Y-45320000D01*
X118670000Y-45320000D01*
X118670000Y-46020000D01*
G36*
X118670000Y-46020000D02*
G01*
X121420000Y-46020000D01*
X121420000Y-45520000D01*
X125120000Y-45520000D01*
X125120000Y-55220000D01*
X121420000Y-55220000D01*
X121420000Y-54720000D01*
X118670000Y-54720000D01*
X118670000Y-55420000D01*
X117120000Y-55420000D01*
X117120000Y-45320000D01*
X118670000Y-45320000D01*
X118670000Y-46020000D01*
G37*
D11*
X126042500Y-109420000D03*
X124217500Y-109420000D03*
D12*
X140584999Y-154109999D03*
X140584999Y-152284999D03*
D13*
X131090000Y-113630000D03*
X133630000Y-113630000D03*
X133630000Y-104130000D03*
X131090000Y-104130000D03*
D12*
X120750000Y-65982500D03*
X120750000Y-64157500D03*
X120650000Y-72637500D03*
X120650000Y-70812500D03*
D14*
X129112500Y-147931250D03*
X129112500Y-146181250D03*
D15*
X182252900Y-72375001D03*
X182252900Y-73024999D03*
X182252900Y-73675001D03*
X182252900Y-74324999D03*
X186647100Y-74324999D03*
X186647100Y-73675001D03*
X186647100Y-73024999D03*
X186647100Y-72375001D03*
D16*
X163210000Y-71823600D03*
X163210000Y-65016400D03*
D17*
X172170000Y-122672500D03*
X172170000Y-120947500D03*
D18*
X148495000Y-44050000D03*
X144265000Y-44050000D03*
D19*
X178220000Y-59690000D03*
X174620000Y-59690000D03*
D20*
X116040000Y-102020000D03*
D21*
X137856401Y-142485000D03*
X137856401Y-143755000D03*
X137856401Y-145025000D03*
X137856401Y-146295000D03*
X142683599Y-146295000D03*
X142683599Y-145025000D03*
X142683599Y-143755000D03*
X142683599Y-142485000D03*
D22*
X133560000Y-40420000D03*
X133560000Y-47430000D03*
X138560000Y-40420000D03*
X138560000Y-47430000D03*
D23*
X172185000Y-80790000D03*
X173935000Y-80790000D03*
D24*
X169990000Y-126020000D03*
X171815000Y-126020000D03*
D20*
X181560000Y-113560000D03*
X163075000Y-58650000D03*
D17*
X129130000Y-144372500D03*
X129130000Y-142647500D03*
D22*
X155500000Y-40745000D03*
X155500000Y-47755000D03*
X160500000Y-40745000D03*
X160500000Y-47755000D03*
D20*
X114510000Y-78160000D03*
D25*
X145257500Y-41490000D03*
X146982500Y-41490000D03*
D17*
X171705000Y-95450000D03*
X171705000Y-93725000D03*
D11*
X177450000Y-80770000D03*
X175625000Y-80770000D03*
D20*
X179190000Y-86090000D03*
X178940000Y-103950000D03*
X183570000Y-132000000D03*
D26*
X188410000Y-73997500D03*
X188410000Y-75822500D03*
D20*
X187950000Y-64960000D03*
D27*
X161250000Y-120100000D03*
X161250000Y-120600000D03*
X161250000Y-121100000D03*
X161250000Y-121600000D03*
X164150000Y-121600000D03*
X164150000Y-121100000D03*
X164150000Y-120600000D03*
X164150000Y-120100000D03*
D28*
X162700000Y-120850000D03*
D20*
X118440000Y-109670000D03*
D26*
X127480000Y-142580000D03*
X127480000Y-144405000D03*
D29*
X113925000Y-97680300D03*
X113925000Y-89069700D03*
D17*
X165930000Y-122020500D03*
X165930000Y-120295500D03*
D20*
X117560000Y-60760000D03*
D12*
X186090000Y-96490000D03*
X186090000Y-94665000D03*
D20*
X167625000Y-79675000D03*
D16*
X181725000Y-125203600D03*
X181725000Y-118396400D03*
D20*
X116180000Y-131050000D03*
D12*
X146594999Y-150459999D03*
X146594999Y-148634999D03*
D23*
X197720000Y-78930000D03*
X199470000Y-78930000D03*
D30*
X136124999Y-50729999D03*
X136124999Y-51680000D03*
X136124999Y-52629998D03*
X138874999Y-52629998D03*
X138874999Y-51680000D03*
X138874999Y-50729999D03*
D12*
X127480000Y-147952500D03*
X127480000Y-146127500D03*
D26*
X187700000Y-68887500D03*
X187700000Y-70712500D03*
D20*
X118710000Y-85690000D03*
D31*
X135420000Y-142500000D03*
X135420000Y-144575000D03*
D24*
X196785000Y-82390000D03*
X198610000Y-82390000D03*
D15*
X194297900Y-73587501D03*
X194297900Y-74237499D03*
X194297900Y-74887501D03*
X194297900Y-75537499D03*
X198692100Y-75537499D03*
X198692100Y-74887501D03*
X198692100Y-74237499D03*
X198692100Y-73587501D03*
D26*
X200715000Y-75377500D03*
X200715000Y-77202500D03*
D29*
X115575000Y-125880300D03*
X115575000Y-117269700D03*
D27*
X150280000Y-52220000D03*
X150280000Y-52720000D03*
X150280000Y-53220000D03*
X150280000Y-53720000D03*
X153180000Y-53720000D03*
X153180000Y-53220000D03*
X153180000Y-52720000D03*
X153180000Y-52220000D03*
D28*
X151730000Y-52970000D03*
D32*
X168950000Y-67287500D03*
X168950000Y-69012500D03*
D11*
X133332500Y-116110000D03*
X131507500Y-116110000D03*
D17*
X166520000Y-91775000D03*
X166520000Y-90050000D03*
D29*
X112340000Y-72595300D03*
X112340000Y-63984700D03*
D23*
X185277500Y-77642500D03*
X187027500Y-77642500D03*
D33*
X128745000Y-54570000D03*
X128745000Y-53370000D03*
X128745000Y-52170000D03*
X128745000Y-50970000D03*
X128745000Y-49770000D03*
X128745000Y-48570000D03*
X128745000Y-47370000D03*
X128745000Y-46170000D03*
D12*
X122350000Y-98882500D03*
X122350000Y-97057500D03*
D20*
X192310000Y-64920000D03*
D24*
X184430000Y-81012500D03*
X186255000Y-81012500D03*
D25*
X132642499Y-50759998D03*
X134367499Y-50759998D03*
D17*
X122850000Y-67537500D03*
X122850000Y-65812500D03*
D12*
X179690000Y-75725000D03*
X179690000Y-73900000D03*
X142854999Y-154109999D03*
X142854999Y-152284999D03*
D32*
X131480000Y-63947500D03*
X131480000Y-65672500D03*
D16*
X178780000Y-97953600D03*
X178780000Y-91146400D03*
D34*
X174360000Y-65330000D03*
X174360000Y-67630000D03*
D35*
X180660000Y-67630000D03*
D34*
X174360000Y-69930000D03*
D27*
X162150000Y-90052500D03*
X162150000Y-90552500D03*
X162150000Y-91052500D03*
X162150000Y-91552500D03*
X165050000Y-91552500D03*
X165050000Y-91052500D03*
X165050000Y-90552500D03*
X165050000Y-90052500D03*
D28*
X163600000Y-90802500D03*
D17*
X154660000Y-53902500D03*
X154660000Y-52177500D03*
D36*
X130940000Y-142530000D03*
X130940000Y-143480000D03*
X130940000Y-144430000D03*
X133540000Y-144430000D03*
X133540000Y-142530000D03*
D24*
X180985000Y-81032500D03*
X182810000Y-81032500D03*
D37*
X142530000Y-125610000D03*
X145030000Y-125610000D03*
X147530000Y-125610000D03*
X150030000Y-125610000D03*
X142530000Y-122610000D03*
X145030000Y-122610000D03*
X147530000Y-122610000D03*
X150030000Y-122610000D03*
X142530000Y-120110000D03*
X145030000Y-120110000D03*
X147530000Y-120110000D03*
X150030000Y-120110000D03*
X142530000Y-117110000D03*
X145030000Y-117110000D03*
X147530000Y-117110000D03*
X150030000Y-117110000D03*
X142530000Y-114610000D03*
X145030000Y-114610000D03*
X147530000Y-114610000D03*
X150030000Y-114610000D03*
X142530000Y-111610000D03*
X145030000Y-111610000D03*
X147530000Y-111610000D03*
X150030000Y-111610000D03*
X142530000Y-109110000D03*
X145030000Y-109110000D03*
X147530000Y-109110000D03*
X150030000Y-109110000D03*
X142530000Y-106110000D03*
X145030000Y-106110000D03*
X147530000Y-106110000D03*
X150030000Y-106110000D03*
D38*
X143360000Y-100830000D03*
X145010000Y-100830000D03*
X146660000Y-100830000D03*
X148310000Y-100830000D03*
X149960000Y-100830000D03*
X143360000Y-98830000D03*
X145010000Y-98830000D03*
X146660000Y-98830000D03*
X148310000Y-98830000D03*
X149960000Y-98830000D03*
X143360000Y-96830000D03*
X145010000Y-96830000D03*
X146660000Y-96830000D03*
X148310000Y-96830000D03*
X149960000Y-96830000D03*
X143360000Y-94830000D03*
X145010000Y-94830000D03*
X146660000Y-94830000D03*
X148310000Y-94830000D03*
X149960000Y-94830000D03*
X143360000Y-92830000D03*
X145010000Y-92830000D03*
X146660000Y-92830000D03*
X148310000Y-92830000D03*
X149960000Y-92830000D03*
X143360000Y-90830000D03*
X145010000Y-90830000D03*
X146660000Y-90830000D03*
X148310000Y-90830000D03*
X149960000Y-90830000D03*
D37*
X142530000Y-85900000D03*
X145030000Y-85900000D03*
X147530000Y-85900000D03*
X150030000Y-85900000D03*
X142530000Y-82900000D03*
X145030000Y-82900000D03*
X147530000Y-82900000D03*
X150030000Y-82900000D03*
X142530000Y-80400000D03*
X145030000Y-80400000D03*
X147530000Y-80400000D03*
X150030000Y-80400000D03*
X142530000Y-77400000D03*
X145030000Y-77400000D03*
X147530000Y-77400000D03*
X150030000Y-77400000D03*
X142530000Y-74900000D03*
X145030000Y-74900000D03*
X147530000Y-74900000D03*
X150030000Y-74900000D03*
X142530000Y-71900000D03*
X145030000Y-71900000D03*
X147530000Y-71900000D03*
X150030000Y-71900000D03*
X142530000Y-69400000D03*
X145030000Y-69400000D03*
X147530000Y-69400000D03*
X150030000Y-69400000D03*
X142530000Y-66400000D03*
X145030000Y-66400000D03*
X147530000Y-66400000D03*
X150030000Y-66400000D03*
D27*
X126420000Y-62170000D03*
X126420000Y-62670000D03*
X126420000Y-63170000D03*
X126420000Y-63670000D03*
X129320000Y-63670000D03*
X129320000Y-63170000D03*
X129320000Y-62670000D03*
X129320000Y-62170000D03*
D28*
X127870000Y-62920000D03*
D39*
X147190000Y-48407500D03*
X147190000Y-50157500D03*
D24*
X133817500Y-148820000D03*
X135642500Y-148820000D03*
D11*
X192427500Y-74982500D03*
X190602500Y-74982500D03*
D24*
X147190000Y-46680000D03*
X149015000Y-46680000D03*
D23*
X165770000Y-125970000D03*
X167520000Y-125970000D03*
D26*
X197820000Y-69917500D03*
X197820000Y-71742500D03*
D15*
X138947899Y-148542500D03*
X138947899Y-149192498D03*
X138947899Y-149842500D03*
X138947899Y-150492498D03*
X143342099Y-150492498D03*
X143342099Y-149842500D03*
X143342099Y-149192498D03*
X143342099Y-148542500D03*
D40*
X120650000Y-75990000D03*
D41*
X120650000Y-68370000D03*
X120650000Y-60750000D03*
D42*
X171450000Y-60750000D03*
D41*
X171450000Y-64560000D03*
X171450000Y-68370000D03*
X171450000Y-72180000D03*
D42*
X171450000Y-75990000D03*
D43*
X122740000Y-128940000D03*
D44*
X122740000Y-121320000D03*
X122740000Y-113700000D03*
D45*
X173540000Y-113700000D03*
X173540000Y-128940000D03*
D43*
X122300000Y-102020000D03*
D44*
X122300000Y-94400000D03*
X122300000Y-86780000D03*
D45*
X173100000Y-86780000D03*
X173100000Y-102020000D03*
M02*
